<svg xmlns="http://www.w3.org/2000/svg" width="19" height="19" viewBox="0 0 19 19">
  <defs>
    <style>
      .cls-1 {
        fill: #ffffff;
        fill-rule: evenodd;
      }
    </style>
  </defs>
  <path id="Фигура_655" data-name="Фигура 655" class="cls-1" d="M1855.53,88.005c0.49,0.487.98,0.974,1.46,1.461q-4.005,4.017-8.03,8.034,4.02,4.017,8.03,8.034c-0.48.487-.97,0.974-1.46,1.461q-4.005-4.017-8.03-8.034-4.02,4.017-8.03,8.034c-0.49-.487-0.98-0.974-1.46-1.461q4.005-4.017,8.03-8.034-4.02-4.017-8.03-8.034c0.48-.487.97-0.974,1.46-1.461q4.005,4.017,8.03,8.034Q1851.52,92.023,1855.53,88.005Z" transform="translate(-1838 -88)"/>
</svg>
