<svg xmlns="http://www.w3.org/2000/svg" width="5.031" height="9" viewBox="0 0 5.031 9">
  <defs>
    <style>
      .cls-1 {
        fill: #0b0b0d;
        fill-rule: evenodd;
      }
    </style>
  </defs>
  <path id="arrow" class="cls-1" d="M303.651,164l-0.137.017c-0.006.013-.012,0.024-0.017,0.036h-0.034l-0.086.106a2.1,2.1,0,0,0-.326.352,0.27,0.27,0,0,0-.034.017v0.07c-0.065.08,0.1,0.239,0.137,0.28l0.685,0.687q1.029,1.062,2.056,2.127l0.514,0.509,0.051,0.071a0.815,0.815,0,0,1,.223.246,1.781,1.781,0,0,0-.274.281l-0.171.158-0.429.457-1.3,1.319-0.651.685-0.5.493-0.086.105a0.945,0.945,0,0,0-.274.316c0.006,0.047.011,0.094,0.017,0.141a0.448,0.448,0,0,1,.069.087l0.274,0.265a0.565,0.565,0,0,0,.2.176c0.052-.008.1-0.013,0.154-0.019l1.011-1.019q1.08-1.116,2.159-2.232l0.7-.7,0.1-.124a0.777,0.777,0,0,0,.291-0.368,0.188,0.188,0,0,0,0-.141l-1.353-1.407L304.679,165l-0.908-.95h-0.034l-0.018-.036h-0.068V164Z" transform="translate(-303 -164)"/>
</svg>
