<svg xmlns="http://www.w3.org/2000/svg" width="28" height="23.219" viewBox="0 0 28 23.219">
  <defs>
    <style>
      .cls-1 {
        fill: #fff;
        fill-rule: evenodd;
      }
    </style>
  </defs>
  <path id="arrow" class="cls-1" d="M1486.2,593.741a0.675,0.675,0,0,1,.29.221v0.045h0.09c0.09,0.118.19,0.237,0.29,0.355h0.08l0.09,0.133h0.08a0.349,0.349,0,0,1,.04.089c0.06,0.015.12,0.029,0.17,0.044l0.09,0.133h0.08c0.01,0.03.03,0.059,0.04,0.089h0.09a0.938,0.938,0,0,0,.08.133h0.08c0.02,0.029.03,0.059,0.05,0.089l0.12,0.044v0.044c0.09,0.03.17,0.06,0.25,0.089l0.09,0.133h0.08v0.045h0.08v0.043h0.09v0.045h0.08a0.335,0.335,0,0,1,.04.089c0.06,0.014.12,0.029,0.17,0.044a0.36,0.36,0,0,1,.04.088c0.07,0.015.14,0.031,0.21,0.045v0.044h0.09v0.045h0.08a0.36,0.36,0,0,1,.04.088h0.09V596h0.08v0.044h0.13v0.044h0.08v0.045h0.09a0.365,0.365,0,0,0,.04.089c0.05,0.015.11,0.029,0.17,0.044a0.365,0.365,0,0,0,.04.089h0.12V596.4h0.13v0.044h0.08v0.045h0.09c0.01,0.029.03,0.059,0.04,0.088,0.18,0.045.36,0.089,0.55,0.133v0.045l0.21,0.044v0.045c0.05,0.014.11,0.029,0.16,0.044v0.044l0.34,0.044v0.044h0.12v0.045h0.09v0.045c0.17,0.029.33,0.059,0.5,0.089v0.043c0.09,0.015.17,0.03,0.25,0.045v0.044h0.09v0.045h0.12v0.044l0.3,0.044v0.044c0.15,0.016.31,0.031,0.46,0.045,0.19,0.063.44,0.158,0.63,0.222l0.63,0.044v0.044l0.42,0.045v0.044h0.12V598h0.13v0.044l0.34,0.044v0.045h0.37v0.044h1.26v0.044c0.37,0.111,1.12-.15,1.35.089h0.04V598.4H1499v1.153h-0.04a1.754,1.754,0,0,0-.04.177,2.343,2.343,0,0,1-.72.044,2,2,0,0,1-.59.045v0.045l-1.04.044h-0.55v0.044h-0.38V600h-0.17v0.043h-0.16v0.045h-0.17v0.044h-0.25v0.045h-0.42v0.044h-0.17v0.044h-0.21V600.3h-0.21v0.045h-0.17v0.044h-0.17v0.045h-0.12v0.044l-0.59.044v0.045h-0.17v0.044c-0.05.015-.11,0.03-0.17,0.044V600.7c-0.14.029-.28,0.058-0.42,0.089v0.044h-0.12v0.044l-0.17.045v0.043h-0.13v0.045h-0.08v0.045c-0.14.029-.28,0.058-0.42,0.089v0.043h-0.08v0.045c-0.06.015-.11,0.03-0.17,0.044v0.045l-0.34.044v0.044h-0.08v0.045l-0.21.044v0.044l-0.17.045v0.044l-0.25.044v0.045h-0.08v0.045h-0.09c-0.01.029-.03,0.058-0.04,0.088h-0.08V601.9l-0.3.045v0.044h-0.08v0.044h-0.09a0.349,0.349,0,0,1-.04.089c-0.05.015-.11,0.029-0.17,0.044a0.335,0.335,0,0,1-.04.089c-0.08.029-.17,0.059-0.25,0.089-0.01.029-.03,0.058-0.04,0.088l-0.17.045c-0.01.029-.03,0.059-0.04,0.089h-0.08c-0.02.029-.03,0.059-0.05,0.088l-0.16.045v0.043c-0.05.016-.09,0.031-0.13,0.045-0.01.029-.03,0.059-0.04,0.089-0.06.014-.11,0.03-0.17,0.044a1,1,0,0,0-.08.133c-0.06.015-.12,0.03-0.17,0.044a0.355,0.355,0,0,0-.04.09h-0.09l-0.12.177h-0.09v0.044l-0.12.044c-0.02.03-.03,0.06-0.05,0.089h-0.08a2.164,2.164,0,0,1-.13.178h-0.08a0.885,0.885,0,0,0-.08.133h-0.09l-0.12.177h-0.09c-0.05.074-.11,0.148-0.17,0.222h-0.08c-0.01.029-.03,0.059-0.04,0.088h-0.09l-0.12.177-0.09.045v0.089c-0.15.148-.3,0.3-0.46,0.443v0.089c-0.08.074-.16,0.148-0.25,0.222v0.088c-0.03.015-.05,0.03-0.08,0.045v0.088c-0.04.03-.09,0.059-0.13,0.09V605.8c-0.03.015-.05,0.029-0.08,0.044v0.089c-0.06.044-.11,0.089-0.17,0.133v0.088a0.693,0.693,0,0,0-.08.045c-0.02.044-.03,0.089-0.05,0.133h-0.04v0.089c-0.03.015-.05,0.029-0.08,0.044v0.089h-0.04v0.089h-0.05v0.088h-0.04v0.089h-0.04v0.089a0.575,0.575,0,0,0-.08.044c-0.02.059-.03,0.118-0.05,0.178h-0.04c-0.03.089-.05,0.176-0.08,0.265h-0.04v0.133h-0.05v0.089h-0.04c-0.03.089-.05,0.178-0.08,0.266h-0.04v0.267h-0.05a1.127,1.127,0,0,1-.04.177h-0.04v0.133h-0.04V608.6h-0.04v0.222a5.365,5.365,0,0,0-.21,1.642,0.541,0.541,0,0,0-.17.132,7.124,7.124,0,0,1-1.26-.044c-0.01-.044-0.03-0.088-0.04-0.133a3.308,3.308,0,0,1,.04-0.976c0.01-.061.02,0.016,0.04-0.044v-0.222h0.04v-0.222h0.05c0.01-.162.02-0.324,0.04-0.487h0.04c0.01-.133.03-0.266,0.04-0.4h0.04c0.02-.059.03-0.118,0.05-0.178h0.04c0.03-.133.05-0.266,0.08-0.4h0.04V607.4h0.05v-0.133h0.04v-0.089h0.04V607.09a0.7,0.7,0,0,0,.08-0.044c0.02-.089.03-0.177,0.05-0.266h0.04v-0.089a0.487,0.487,0,0,1,.08-0.044v-0.089h0.04v-0.089h0.04V606.38h0.05v-0.088h0.04V606.2a0.485,0.485,0,0,0,.08-0.045l0.09-.265a0.571,0.571,0,0,1,.08-0.045,2.687,2.687,0,0,0,.08-0.266l0.09-.044v-0.089h0.04v-0.088c0.06-.045.11-0.089,0.17-0.134v-0.088c0.05-.045.11-0.089,0.17-0.133v-0.089c0.08-.075.16-0.148,0.25-0.222v-0.088l0.42-.4v-0.088c0.08-.074.17-0.148,0.25-0.222,0.11-.133.22-0.266,0.34-0.4h0.08v-0.045c0.06-.044.11-0.088,0.17-0.133l0.21-.266h0.08c0.04-.059.09-0.118,0.13-0.177h0.04c0.01-.03.03-0.06,0.04-0.089h0.08c0.12-.133.23-0.266,0.34-0.4h0.08c0.06-.074.12-0.148,0.17-0.222h0.09a0.36,0.36,0,0,1,.04-0.088h0.08a0.365,0.365,0,0,0,.04-0.089h0.09c0.01-.03.03-0.059,0.04-0.089h0.13l0.12-.177,0.17-.045c0.01-.029.03-0.059,0.04-0.088h0.09a0.885,0.885,0,0,1,.08-0.133h0.08c0.02-.03.03-0.06,0.05-0.089h0.12v-0.044c0.04-.015.09-0.03,0.13-0.045,0.01-.029.03-0.059,0.04-0.089h0.08v-0.043h0.09V601.1h0.08v-0.044h0.09a0.355,0.355,0,0,1,.04-0.09c0.05-.014.11-0.028,0.17-0.043a0.335,0.335,0,0,1,.04-0.089h0.08v-0.044q0.105-.024.21-0.045V600.7h0.08l0.09-.133h0.08v-0.045h0.13v-0.044h0.12v-0.044l0.21-.045v-0.044h0.09V600.3c0.05-.014.11-0.029,0.17-0.044v-0.044c0.09-.015.19-0.03,0.29-0.044v-0.045h0.08c0.02-.029.03-0.059,0.05-0.089h0.08a0.877,0.877,0,0,0,.08-0.132h0.09v-0.044h0.08v-0.045c0.05-.042.01,0,0.04-0.045h0.05v-0.088a0.917,0.917,0,0,0-.55.044h-0.8a0.563,0.563,0,0,1-.29.044,6.624,6.624,0,0,0-1.47-.044h-15.87v0.044h-0.29a0.46,0.46,0,0,0-.13-0.177,8.807,8.807,0,0,1,.05-1.286,7.676,7.676,0,0,1,1.76-.045h17.17a1.909,1.909,0,0,0,.46.134v-0.045c0.1-.027.08-0.014,0.12-0.089a0.311,0.311,0,0,1-.08-0.088h-0.08v-0.044h-0.09c-0.03-.045-0.05-0.089-0.08-0.133h-0.09a0.335,0.335,0,0,0-.04-0.089l-0.42-.133v-0.045h-0.08v-0.044c-0.09-.029-0.17-0.059-0.25-0.089v-0.044q-0.105-.021-0.21-0.045l-0.09-.132h-0.08v-0.045c-0.09-.029-0.17-0.059-0.25-0.089V597.2l-0.26-.045a1.006,1.006,0,0,0-.08-0.134l-0.21-.044v-0.044c-0.05-.014-0.11-0.03-0.17-0.044v-0.044h-0.08c-0.01-.03-0.03-0.06-0.04-0.089l-0.17-.045c-0.01-.029-0.03-0.059-0.04-0.088h-0.09l-0.12-.178h-0.09a0.343,0.343,0,0,0-.04-0.088c-0.05-.015-0.11-0.03-0.17-0.045a0.343,0.343,0,0,0-.04-0.088h-0.08l-0.09-.134h-0.08c-0.01-.029-0.03-0.058-0.04-0.088h-0.09a0.885,0.885,0,0,0-.08-0.133h-0.08l-0.09-.134h-0.08l-0.09-.132h-0.08c-0.01-.03-0.03-0.06-0.04-0.089h-0.09l-0.12-.178h-0.09a0.343,0.343,0,0,0-.04-0.088h-0.08c-0.06-.074-0.11-0.148-0.17-0.222h-0.08c-0.2-.222-0.39-0.443-0.59-0.665-0.25-.252-0.5-0.5-0.76-0.754v-0.089l-0.21-.177v-0.089a0.7,0.7,0,0,0-.08-0.044V593.12c-0.04-.029-0.08-0.059-0.13-0.089v-0.088l-0.12-.089v-0.089l-0.09-.044v-0.089l-0.12-.088v-0.089c-0.04-.03-0.09-0.059-0.13-0.089v-0.088c-0.03-.015-0.05-0.03-0.08-0.045v-0.089l-0.09-.044v-0.089h-0.04v-0.088h-0.04v-0.089h-0.04v-0.088l-0.09-.045a1.139,1.139,0,0,0-.04-0.178h-0.04a2.609,2.609,0,0,1-.08-0.266h-0.05v-0.133h-0.04v-0.088h-0.04v-0.09a0.579,0.579,0,0,1-.08-0.043v-0.09h-0.04c-0.02-.117-0.03-0.236-0.05-0.354h-0.04V590.37h-0.04a2.609,2.609,0,0,1-.08-0.266h-0.05v-0.177h-0.04v-0.133h-0.04c-0.04-.207-0.08-0.414-0.13-0.621H1482c-0.01-.192-0.03-0.384-0.04-0.576h-0.04v-0.71h-0.04c-0.02-.1-0.03-0.207-0.05-0.31a0.546,0.546,0,0,0,.17-0.134h0.46a0.116,0.116,0,0,0,.13.045v-0.045l0.54-.044v0.044c0.08,0.029.11,0.019,0.17,0.045a2.56,2.56,0,0,1,.04.8,1.745,1.745,0,0,1,.09.487h0.04v0.134h0.04v0.132h0.04v0.178h0.05c0.01,0.176.02,0.354,0.04,0.531h0.04c0.03,0.09.06,0.178,0.08,0.266h0.05V590.1h0.04c0.03,0.148.05,0.3,0.08,0.444h0.04v0.088h0.05v0.089a0.571,0.571,0,0,0,.08.045v0.089h0.04v0.087h0.04v0.09h0.05v0.088a0.487,0.487,0,0,0,.08.044v0.089a0.571,0.571,0,0,1,.08.045v0.089h0.05a1.127,1.127,0,0,0,.04.177c0.03,0.015.05,0.03,0.08,0.044a0.662,0.662,0,0,1,.04.134,1.276,1.276,0,0,1,.13.088v0.089a1.464,1.464,0,0,0,.13.088V592.1h0.04c0.01,0.044.03,0.089,0.04,0.133a0.571,0.571,0,0,1,.08.045v0.088c0.06,0.044.12,0.089,0.17,0.133v0.089c0.09,0.074.17,0.148,0.25,0.221V592.9c0.04,0.03.09,0.06,0.13,0.089,0.15,0.178.31,0.355,0.46,0.532,0.06,0.044.11,0.089,0.17,0.134v0.088Z" transform="translate(-1471 -587.406)"/>
</svg>
