<svg xmlns="http://www.w3.org/2000/svg" width="40" height="40" viewBox="0 0 40 40">
  <defs>
    <style>
      .cls-1 {
        fill: #fff;
        fill-rule: evenodd;
      }
    </style>
  </defs>
  <path id="zoom" class="cls-1" d="M548.992,556a14.913,14.913,0,0,1,7.729,1.641h0.156v0.077h0.157V557.8h0.156v0.078h0.156v0.078H557.5l0.078,0.156,0.312,0.078,0.078,0.156h0.157l0.078,0.157h0.156l0.078,0.156H558.6l0.078,0.156h0.156l0.234,0.312h0.157l0.156,0.235h0.156l0.39,0.468h0.156q0.351,0.392.7,0.781l0.39,0.313v0.156l0.469,0.39v0.157l0.234,0.156v0.156l0.234,0.156v0.156l0.234,0.157v0.156l0.157,0.078,0.078,0.234h0.078v0.156l0.156,0.078,0.156,0.469,0.156,0.078,0.156,0.469h0.078v0.156h0.078v0.156h0.078v0.157h0.079l0.156,0.468h0.078V565.3H563.9v0.157h0.078l0.156,0.7h0.078v0.157h0.078v0.312h0.078v0.234h0.078v0.313h0.078v0.234h0.079V567.8c0.115,0.377.2,0.927,0.312,1.327v0.859H565a7.764,7.764,0,0,1-.078,2.031v0.859q-0.312,1.405-.625,2.812h-0.078v0.156h-0.078l-0.078.469h-0.078v0.156H563.9V576.7h-0.078v0.156h-0.078v0.235H563.67q-0.078.234-.157,0.468h-0.078v0.156h-0.078v0.157h-0.078l-0.156.468-0.156.078-0.078.313-0.156.078-0.078.312-0.156.078v0.156l-0.235.157v0.156l-0.156.078V579.9l-0.234.156v0.157l-0.156.078a2.7,2.7,0,0,1-.234.312A3.771,3.771,0,0,0,562.5,581.7l0.312,0.391,2.108,2.031,1.8,1.874,5.152,5.077,0.547,0.624,1.561,1.485a5.8,5.8,0,0,0,1.015,1.015,0.139,0.139,0,0,1-.078.078l-1.639,1.718a0.133,0.133,0,0,1-.078-0.078l-10.306-10.231-2.42-2.421q-0.351-.391-0.7-0.781c-0.149-.043-0.107.048-0.156,0.078a0.825,0.825,0,0,0-.39.234v0.078l-0.235.078-0.078.156h-0.156l-0.156.235h-0.156l-0.078.156-0.234.078v0.078l-0.313.078-0.078.157-0.312.078-0.078.156H557.19V584.2h-0.156v0.078h-0.157v0.078h-0.156v0.078h-0.156v0.078l-0.468.156v0.078h-0.235v0.079l-0.312.078v0.078l-0.468.078v0.078h-0.157v0.078l-0.546.078v0.078h-0.234v0.078l-0.547.079V585.6l-1.717.234v0.078h-0.859a7.717,7.717,0,0,1-2.03.078v-0.078l-1.4-.078v-0.078H547.2v-0.078h-0.39V585.6h-0.312v-0.078h-0.313v-0.079h-0.312v-0.078h-0.312V585.29h-0.234v-0.078h-0.157v-0.078l-0.7-.156V584.9h-0.156v-0.078h-0.235v-0.079l-0.468-.156v-0.078h-0.156v-0.078h-0.156v-0.078h-0.156v-0.078H542.98V584.2h-0.156v-0.078h-0.156l-0.078-.156-0.312-.078-0.078-.157-0.313-.078v-0.078l-0.234-.078-0.078-.156h-0.156l-0.156-.235h-0.156l-0.156-.234h-0.157l-0.156-.234h-0.156l-0.39-.469h-0.156q-0.353-.39-0.7-0.781l-0.39-.312v-0.156l-0.469-.391V580.37l-0.234-.156v-0.157l-0.234-.156v-0.156l-0.235-.156v-0.156l-0.156-.079V579.2l-0.156-.078-0.078-.234H537.2l-0.078-.312h-0.078v-0.157l-0.156-.078v-0.156h-0.078v-0.156h-0.078v-0.156h-0.079v-0.157h-0.078v-0.156H536.5V577.4h-0.078l-0.156-.468h-0.078V576.7H536.11v-0.156h-0.078l-0.078-.469h-0.078v-0.156H535.8v-0.234H535.72v-0.235h-0.078l-0.078-.546h-0.079l-0.078-.7a12.527,12.527,0,0,1-.078-6.014V567.8h0.078v-0.391h0.078v-0.312h0.079l0.078-.547h0.078v-0.234H535.8v-0.235h0.078v-0.156h0.078l0.078-.468h0.078V565.3h0.078v-0.234h0.078l0.156-.468H536.5v-0.157h0.078v-0.156h0.078v-0.156h0.079v-0.156h0.078v-0.157h0.078v-0.156l0.156-.078,0.156-.469,0.156-.078v-0.156h0.078l0.078-.234,0.156-.078v-0.156l0.235-.157v-0.156l0.234-.156v-0.156l0.234-.156v-0.157l0.469-.39v-0.156l0.39-.313,0.7-.781h0.156l0.39-.468h0.156l0.156-.235h0.157l0.156-.234h0.156l0.156-.234h0.156l0.078-.156,0.234-.079v-0.078h0.157l0.078-.156,0.468-.156,0.078-.156h0.156V557.8h0.156V557.72h0.157v-0.077h0.156v-0.079h0.156v-0.078h0.156v-0.078l0.468-.156v-0.078h0.235V557.1h0.156v-0.078l0.468-.078v-0.079h0.156v-0.078l0.469-.078v-0.078h0.312v-0.078H546.1v-0.078h0.391v-0.078h0.312v-0.078h0.39v-0.078h0.391v-0.079A5.921,5.921,0,0,0,548.992,556Zm0.078,2.5a2.554,2.554,0,0,1-.781.078v0.078h-0.468v0.078h-0.39v0.078l-0.7.078v0.078h-0.234v0.078h-0.235v0.078h-0.234V559.2h-0.234v0.079h-0.234v0.078H545.4v0.078h-0.235v0.078l-0.312.078v0.078H544.62v0.078l-0.312.078v0.078h-0.157c-0.026.052-.051,0.1-0.078,0.156l-0.468.157-0.078.156h-0.156l-0.078.156-0.313.078-0.078.156-0.234.079-0.156.234h-0.156l-0.156.234h-0.156l-0.547.625h-0.156l-0.312.391-0.157.078v0.156l-0.546.468v0.157l-0.312.234v0.156l-0.156.078v0.156l-0.235.157v0.156l-0.156.078-0.078.312-0.156.079-0.156.468-0.156.078-0.235.7h-0.078l-0.078.312h-0.078l-0.078.391H538.3l-0.078.469H538.14v0.234h-0.078v0.234h-0.078v0.234h-0.078v0.313c-0.116.355-.208,0.88-0.313,1.25v0.78a7.943,7.943,0,0,0,.235,3.515l0.078,0.7h0.078v0.234h0.078v0.235h0.078v0.234h0.078l0.078,0.468h0.078v0.157h0.078v0.234h0.078l0.078,0.312h0.078v0.235h0.078c0.026,0.1.053,0.208,0.079,0.312h0.078v0.156l0.156,0.079,0.156,0.468,0.156,0.078v0.156l0.156,0.078,0.078,0.313,0.235,0.156v0.156l0.156,0.078v0.157l0.234,0.156,0.078,0.234,0.625,0.547v0.156l0.156,0.078,0.234,0.312H541.5q0.273,0.313.547,0.625H542.2l0.156,0.235h0.156l0.156,0.234h0.156l0.156,0.234,0.313,0.078,0.078,0.157,0.234,0.077v0.079h0.156v0.078h0.156v0.078h0.156v0.078h0.157l0.078,0.156h0.156v0.078h0.156v0.078h0.234V582.4l0.312,0.079v0.078H545.4v0.078h0.156v0.078h0.234v0.078h0.234v0.078h0.234v0.078h0.235v0.078h0.234V583.1l0.7,0.079v0.078h0.39v0.078h0.468v0.078h0.781a5.878,5.878,0,0,0,1.874.078v-0.078l1.249-.078,2.264-.625v-0.078l0.39-.078v-0.078l0.313-.079v-0.078l0.7-.234,0.078-.156,0.469-.156V581.7l0.234-.077,0.078-.157,0.313-.078,0.156-.234h0.156l0.078-.156h0.156l0.234-.313h0.156l0.469-.546H558.6l0.312-.391,0.156-.078v-0.156l0.625-.547v-0.156l0.234-.156V578.5l0.234-.156,0.078-.234,0.157-.078,0.078-.313,0.156-.078V577.48l0.156-.078,0.156-.468,0.156-.079V576.7h0.078l0.078-.312h0.078v-0.235h0.079l0.078-.312h0.078l0.078-.391h0.078l0.624-2.264,0.078-1.25H562.5a5.883,5.883,0,0,0-.079-1.875l-0.078-1.249h-0.078l-0.078-.781h-0.078v-0.313H562.03v-0.234h-0.078v-0.234h-0.078v-0.234H561.8l-0.078-.469H561.64V566.39h-0.078v-0.235h-0.078l-0.078-.312h-0.079l-0.234-.7-0.156-.078-0.156-.468H560.7l-0.078-.235-0.156-.078-0.078-.312-0.235-.157v-0.156L560,563.578v-0.156l-0.312-.234v-0.157l-0.625-.546v-0.156l-0.39-.313-0.078-.156h-0.156c-0.156-.182-0.312-0.365-0.469-0.547h-0.156L557.58,561h-0.156l-0.078-.156H557.19l-0.156-.235h-0.157l-0.078-.156-0.312-.078-0.078-.156-0.469-.157-0.078-.156h-0.156v-0.078l-0.312-.078v-0.078H555.16V559.6l-0.313-.078v-0.078h-0.234v-0.078h-0.156v-0.078l-0.468-.079v-0.078h-0.235v-0.078H553.52V558.97h-0.234v-0.078h-0.312c-0.355-.116-0.88-0.207-1.249-0.312Zm-0.312,5h2.5v6.248H557.5v2.5h-6.246V578.5h-2.5v-6.248h-6.246v-2.5h6.246V563.5Z" transform="translate(-535 -556)"/>
</svg>
