<svg xmlns="http://www.w3.org/2000/svg" width="18" height="9" viewBox="0 0 18 9">
  <defs>
    <style>
      .cls-1 {
        fill: #0b0b0d;
        fill-rule: evenodd;
      }
    </style>
  </defs>
  <path id="arrow" class="cls-1" d="M607,3050.98a0.8,0.8,0,0,1,.562-0.9v-0.04a1.552,1.552,0,0,1,.492-0.03v0.03h0.105v0.04l0.141,0.03c0.011,0.02.023,0.05,0.035,0.07h0.07a0.454,0.454,0,0,1,.035.07c0.059,0.04.117,0.09,0.176,0.13,0.023,0.03.047,0.07,0.07,0.1h0.07l0.6,0.6h0.07l0.246,0.27,0.632,0.54c0.129,0.13.258,0.26,0.386,0.4h0.071c0.175,0.18.351,0.36,0.527,0.53h0.035a0.379,0.379,0,0,0,.035.07h0.07l0.6,0.6h0.071c0.2,0.2.4,0.41,0.6,0.61h0.07l0.6,0.6h0.07l0.6,0.6h0.07l0.527,0.54h0.035l0.035,0.06h0.07c0.094,0.1.188,0.21,0.281,0.31,0.082,0.06.164,0.13,0.246,0.2a0.757,0.757,0,0,1,.07.1l0.106,0.03a2.089,2.089,0,0,0,.562.5,1.052,1.052,0,0,1,.211-0.2l0.316-.33h0.07a0.567,0.567,0,0,1,.035-0.07c0.047-.03.094-0.07,0.141-0.1,0.14-.15.281-0.29,0.421-0.44h0.071c0.011-.02.023-0.04,0.035-0.06,0.07-.06.14-0.11,0.21-0.17l0.317-.33h0.07c0.2-.21.4-0.41,0.6-0.61h0.07l0.6-.6h0.071l0.527-.54h0.035l0.035-.06h0.07c0.211-.21.422-0.43,0.633-0.64h0.07l0.562-.57h0.07l0.6-.6h0.071l0.6-.6h0.07c0.2-.2.4-0.41,0.6-0.61h0.07a0.865,0.865,0,0,0,.071-0.1c0.07-.05.14-0.11,0.21-0.16a0.449,0.449,0,0,1,.036-0.07h0.07c0.011-.02.023-0.05,0.035-0.07l0.14-.03v-0.04h0.106a0.9,0.9,0,0,1,1.054.61,1.071,1.071,0,0,1-.106.6c-0.128.13-.257,0.27-0.386,0.4h-0.07c-0.141.15-.281,0.29-0.422,0.44a1.133,1.133,0,0,0-.14.1l-0.036.06h-0.07c-0.035.05-.07,0.09-0.105,0.14l-0.352.3c-0.046.06-.093,0.11-0.14,0.17h-0.07c-0.035.04-.07,0.09-0.106,0.13l-0.281.24c-0.07.07-.14,0.15-0.21,0.23h-0.071l-0.6.6h-0.07l-0.562.57h-0.07c-0.118.13-.235,0.25-0.352,0.37-0.07.06-.14,0.11-0.21,0.17l-0.036.06h-0.07c-0.2.21-.4,0.41-0.6,0.61h-0.07c-0.176.18-.352,0.35-0.527,0.53h-0.035a0.449,0.449,0,0,1-.036.07h-0.07c-0.21.21-.421,0.42-0.632,0.64h-0.07l-0.562.57h-0.071l-0.316.33c-0.082.07-.164,0.13-0.246,0.2a0.865,0.865,0,0,1-.07.1h-0.07c-0.164.17-.328,0.34-0.492,0.5h-0.07a1.008,1.008,0,0,1-.07.1,1.126,1.126,0,0,1-.633.11v-0.04h-0.14v-0.03a0.746,0.746,0,0,1-.141-0.04,0.865,0.865,0,0,1-.07-0.1H615.4c-0.036-.04-0.071-0.09-0.106-0.13-0.093-.08-0.187-0.16-0.281-0.23-0.047-.06-0.093-0.12-0.14-0.17H614.8l-0.6-.6h-0.07c-0.117-.13-0.234-0.25-0.351-0.37-0.071-.06-0.141-0.11-0.211-0.17a0.454,0.454,0,0,1-.035-0.07h-0.07c-0.153-.15-0.305-0.31-0.457-0.47a1.222,1.222,0,0,1-.141-0.1v-0.03H612.8l-0.6-.6h-0.07c-0.2-.2-0.4-0.4-0.6-0.61h-0.071l-0.351-.36c-0.07-.06-0.141-0.11-0.211-0.17-0.012-.02-0.023-0.05-0.035-0.07h-0.07l-0.6-.6h-0.071l-0.246-.27c-0.21-.18-0.421-0.36-0.632-0.53-0.129-.14-0.257-0.27-0.386-0.41h-0.071l-0.351-.36c-0.07-.06-0.14-0.12-0.211-0.17-0.011-.02-0.023-0.05-0.035-0.07h-0.07c-0.152-.15-0.3-0.31-0.457-0.47-0.164-.13-0.327-0.27-0.491-0.4v-0.07l-0.071-.03v-0.07H607.07c-0.012-.06-0.023-0.13-0.035-0.2H607Z" transform="translate(-607 -3050)"/>
</svg>
