<svg xmlns="http://www.w3.org/2000/svg" width="30.062" height="30" viewBox="0 0 30.062 30">
  <defs>
    <style>
      .cls-1 {
        fill: #fff;
        fill-rule: evenodd;
      }
    </style>
  </defs>
  <path id="_1" data-name="1" class="cls-1" d="M875.985,460.258a0.637,0.637,0,0,1,.293.179v0.06H876.4l0.059,0.12h0.117l0.058,0.12h0.117c0.02,0.04.039,0.08,0.059,0.119l0.234,0.061c0.02,0.039.039,0.079,0.059,0.119h0.117l0.058,0.12h0.117c0.02,0.04.04,0.079,0.059,0.119h0.117l0.117,0.18H877.8l0.117,0.18q0.177,0.149.352,0.3v0.12l0.117,0.06,0.117,0.359h0.059v0.179h0.058v0.18h0.059v0.539h0.058v0.359h-0.058v0.658a3.9,3.9,0,0,0-.117,1.376h0.058V466h0.059l0.117,0.359h0.058v0.12h0.059V466.6c0.039,0.021.078,0.04,0.117,0.06v0.12l0.117,0.06v0.12l0.117,0.059c0.02,0.081.039,0.16,0.059,0.24l0.117,0.06c0.019,0.08.039,0.159,0.059,0.239l0.117,0.06,0.351,1.018a1.753,1.753,0,0,1-.117.957v0.24h-0.059l-0.058.239h-0.059c-0.019.1-.039,0.2-0.058,0.3l-0.117.06c-0.02.08-.04,0.16-0.059,0.24-0.039.02-.078,0.039-0.117,0.06v0.119h-0.059v0.12l-0.117.06v0.12l-0.117.059v0.12l-0.117.06c-0.02.079-.039,0.159-0.059,0.239H878.8l-0.117.36H878.62a3.371,3.371,0,0,0-.058,1.136h0.058v0.479h0.059v0.659h0.058v0.359h-0.058v0.539H878.62v0.179h-0.058v0.18H878.5l-0.117.359-0.117.06v0.12l-0.352.3-0.117.179h-0.117l-0.117.18h-0.117c-0.019.04-.039,0.08-0.059,0.12h-0.117c-0.019.039-.039,0.079-0.058,0.119H877.1l-0.059.12-0.234.06c-0.02.04-.039,0.08-0.059,0.119h-0.117c-0.019.041-.039,0.08-0.058,0.12h-0.117l-0.059.12h-0.117v0.06a0.634,0.634,0,0,1-.293.179,0.48,0.48,0,0,1-.117.24h-0.059c-0.019.08-.039,0.16-0.058,0.239h-0.059l-0.117.359h-0.058v0.18h-0.059v0.179H875.4v0.18h-0.059v0.179h-0.059v0.12h-0.058c-0.02.12-.039,0.24-0.059,0.359h-0.058v0.12h-0.059v0.12H874.99v0.119h-0.059v0.12h-0.058v0.12l-0.118.06v0.12l-0.175.119c-0.1.12-.2,0.24-0.293,0.359H874.17l-0.059.12-0.351.12v0.06c-0.137.019-.273,0.04-0.41,0.06v0.059h-0.234v0.06h-0.351v0.06h-0.527v0.06l-0.762.06v0.06l-0.41.059v0.06h-0.117l-0.058.12h-0.117l-0.118.18h-0.117l-0.41.478a4.4,4.4,0,0,1-1.873,1.317,3.791,3.791,0,0,1-1.7-.239v-0.06h-0.176V483.6h-0.176v-0.06h-0.175v-0.06h-0.176v-0.059h-0.176v-0.06l-0.878-.12-1.23.359v0.06h-0.117v0.06H863.22v0.06h-0.176v0.06H862.81a2.1,2.1,0,0,1-1.113.119V483.9h-0.234v-0.059h-0.117v-0.06H861.17v-0.06h-0.117L861,483.6l-0.235-.06-0.117-.179h-0.117l-0.234-.3a7.8,7.8,0,0,0-1-.9l-0.117-.18h-0.117l-0.058-.12h-0.117v-0.06l-0.41-.059v-0.06l-0.762-.06v-0.06h-0.527v-0.06h-0.351v-0.06H856.6v-0.059h-0.234v-0.06h-0.117v-0.06h-0.176v-0.06h-0.117v-0.06h-0.117l-0.059-.12h-0.117l-0.117-.179-0.351-.3v-0.12l-0.118-.06v-0.12h-0.058v-0.12h-0.059V480.01h-0.058v-0.12h-0.059v-0.12h-0.058v-0.179h-0.059v-0.18h-0.058v-0.12h-0.059c-0.02-.119-0.039-0.239-0.059-0.359H854.5c-0.02-.119-0.039-0.239-0.059-0.359h-0.058l-0.117-.359H854.2c-0.019-.079-0.039-0.159-0.059-0.239h-0.058a0.488,0.488,0,0,1-.117-0.24,0.629,0.629,0,0,1-.293-0.179V477.5h-0.117l-0.059-.12h-0.117c-0.019-.04-0.039-0.079-0.058-0.12h-0.117c-0.02-.039-0.039-0.079-0.059-0.119l-0.234-.06-0.059-.12h-0.117c-0.019-.04-0.039-0.08-0.058-0.119h-0.118l-0.058-.12h-0.117l-0.117-.18h-0.118l-0.585-.658v-0.12h-0.059c-0.019-.079-0.039-0.159-0.058-0.239h-0.059c-0.019-.12-0.039-0.24-0.058-0.359h-0.059v-0.479h-0.058v-0.419h0.058l0.117-2.035h-0.058V471.99h-0.059l-0.117-.36H851.1v-0.119l-0.117-.061c-0.019-.079-0.039-0.159-0.058-0.239l-0.117-.059v-0.12l-0.117-.06c-0.02-.08-0.039-0.16-0.059-0.239-0.039-.021-0.078-0.04-0.117-0.06-0.02-.08-0.039-0.16-0.059-0.24l-0.117-.06-0.351-1.017a1.757,1.757,0,0,1,.117-0.958v-0.239h0.059v-0.12h0.058v-0.18h0.059V467.74h0.058v-0.12l0.117-.06c0.02-.08.039-0.159,0.059-0.239l0.117-.06v-0.12h0.059v-0.12l0.117-.059v-0.12l0.117-.06c0.019-.08.039-0.159,0.058-0.239l0.117-.06c0.02-.08.04-0.16,0.059-0.239h0.059c0.019-.08.039-0.16,0.058-0.24h0.059a3.913,3.913,0,0,0,.058-1.078h-0.058v-0.538h-0.059V463.73h-0.058v-0.419h0.058v-0.479h0.059c0.019-.12.039-0.24,0.058-0.359h0.059c0.019-.08.039-0.16,0.058-0.24h0.059v-0.119l0.585-.659h0.118l0.117-.18H852.5c0.019-.04.039-0.079,0.058-0.119h0.118l0.058-.12h0.117c0.02-.04.039-0.08,0.059-0.119l0.234-.061c0.02-.039.039-0.079,0.059-0.119h0.117l0.058-.12H853.5l0.059-.12h0.117v-0.06a0.637,0.637,0,0,1,.293-0.179,0.488,0.488,0,0,1,.117-0.24h0.058c0.02-.079.04-0.159,0.059-0.239h0.059l0.117-.359h0.058v-0.179H854.5v-0.18h0.058v-0.179h0.059V458.7h0.059v-0.12h0.058c0.02-.12.039-0.239,0.059-0.359h0.058V458.1h0.059v-0.12h0.058v-0.119h0.059v-0.12h0.058v-0.12l0.118-.059v-0.12l0.175-.12c0.1-.119.195-0.239,0.293-0.359h0.117l0.059-.12,0.351-.119v-0.06l0.41-.06v-0.06h0.234v-0.06h0.351v-0.06h0.527v-0.059l0.762-.06v-0.06l0.41-.06v-0.06H859l0.058-.12h0.117l0.117-.179h0.118l0.409-.479a4.409,4.409,0,0,1,1.874-1.317,3.625,3.625,0,0,1,1.523.18v0.06h0.234v0.059h0.117v0.06h0.176v0.06h0.176v0.06H864.1v0.06h0.176v0.06l0.878,0.119c0.766-.217,1.475-0.5,2.225-0.718a2.941,2.941,0,0,1,1.289.12v0.06h0.117v0.06l0.234,0.059,0.058,0.12h0.118l1.054,1.018,0.292,0.359h0.117l0.118,0.179h0.117l0.058,0.12h0.117v0.06l0.41,0.06v0.06l0.762,0.06v0.059h0.527v0.06h0.351v0.06h0.234v0.06l0.41,0.06v0.06l0.351,0.119,0.059,0.12h0.117c0.1,0.12.195,0.24,0.293,0.359l0.175,0.12v0.12l0.118,0.059v0.12h0.058v0.12h0.059v0.119h0.058v0.12h0.059v0.12h0.058c0.02,0.12.039,0.239,0.059,0.359h0.058v0.12h0.059v0.18H875.4v0.179h0.058v0.18h0.059v0.179h0.058l0.117,0.359h0.059c0.019,0.08.039,0.16,0.058,0.239h0.059A0.5,0.5,0,0,1,875.985,460.258Zm-14.112-5.028v0.06l-0.293.06v0.06h-0.117l-0.176.239H861.17q-0.145.18-.293,0.359l-1,.958h-0.117l-0.059.12h-0.117l-0.058.12h-0.117v0.059h-0.176v0.06h-0.176v0.06h-0.175v0.06h-0.235v0.06h-0.41a7.35,7.35,0,0,0-1.873.419c-0.1.12-.2,0.239-0.293,0.359v0.12h-0.059v0.119h-0.058v0.12H855.9v0.12h-0.058c-0.02.12-.039,0.239-0.059,0.359h-0.058v0.12h-0.059v0.179l-0.468,1.137h-0.059c-0.02.06-.039,0.12-0.059,0.18l-0.117.06v0.12l-0.292.239c-0.02.04-.04,0.079-0.059,0.119H854.5l-0.117.18h-0.117l-0.059.12h-0.117l-0.059.12h-0.117l-0.058.119h-0.117l-0.059.12-0.234.06v0.06c-0.059.019-.117,0.04-0.176,0.06-0.019.04-.039,0.079-0.058,0.119h-0.118l-0.117.18h-0.117l-0.175.239h-0.059v0.119l-0.117.061v0.179c-0.325.869,0.311,2.106,0,3.113a10.624,10.624,0,0,1-1.054,2.035h-0.059a2.215,2.215,0,0,0-.234,1.077h0.059c0.019,0.12.039,0.24,0.058,0.359h0.059c0.019,0.08.039,0.16,0.058,0.24h0.059v0.119l0.117,0.06v0.12l0.117,0.06c0.02,0.08.039,0.16,0.059,0.239l0.117,0.06v0.12l0.117,0.06,0.058,0.239,0.117,0.06v0.119h0.059l0.117,0.359h0.059l0.117,0.719h0.058v0.957H852.5v0.539h-0.059c-0.019.319-.039,0.639-0.058,0.958h0.058v0.359H852.5v0.18l0.117,0.06v0.119h0.059l0.175,0.24h0.117l0.117,0.179h0.118l0.058,0.12,0.176,0.06V476q0.117,0.029.234,0.06l0.059,0.119h0.117l0.058,0.12h0.117l0.059,0.12H854.2l0.059,0.119h0.117l0.117,0.18h0.117c0.019,0.04.039,0.08,0.059,0.12l0.292,0.239v0.12l0.117,0.059c0.02,0.061.039,0.12,0.059,0.18H855.2l0.468,1.137v0.18h0.059v0.12h0.058c0.02,0.12.039,0.239,0.059,0.359H855.9v0.12h0.059v0.179l0.117,0.06v0.12l0.293,0.359h0.117v0.059l0.234,0.061v0.059h0.234v0.06h0.352v0.06h0.468v0.06h0.468v0.06h0.41v0.06h0.235v0.059h0.175v0.06h0.176v0.06h0.176v0.06h0.117l0.058,0.12h0.117l0.059,0.119h0.117l0.117,0.18h0.117l0.234,0.3a7.626,7.626,0,0,0,.937.838l0.176,0.24h0.117v0.059H861.7v0.06h0.176v0.06a1.5,1.5,0,0,0,1-.179l0.352-.06v-0.06H863.4V482.4h0.176v-0.06h0.176v-0.06h0.176v-0.059H864.1v-0.06l0.644-.06v-0.06a2.224,2.224,0,0,1,.879.12h0.234v0.06h0.176v0.059h0.175v0.06h0.176v0.06h0.176v0.06h0.175v0.06l0.352,0.06a1.5,1.5,0,0,0,1,.179,2.732,2.732,0,0,0,1.054-.838,5.339,5.339,0,0,1,1.7-1.317h0.234c0.8-.278,2.33-0.138,2.753-0.778,0.019-.08.039-0.159,0.058-0.239h0.059l0.117-.359h0.058v-0.18h0.059v-0.179h0.058v-0.12h0.059v-0.18l0.468-1.137h0.059c0.02-.06.039-0.119,0.059-0.18l0.117-.059v-0.12l0.292-.239c0.02-.04.04-0.08,0.059-0.12h0.117l0.117-.18h0.117l0.059-.119h0.117l0.059-.12h0.117l0.058-.12h0.117l0.059-.119q0.117-.031.234-0.06v-0.06l0.176-.06,0.058-.12h0.117l0.118-.179H877.1l0.175-.24h0.059v-0.119l0.117-.06v-0.18c0.3-.805-0.256-1.909,0-2.813V471.81h0.059c0.019-.12.039-0.239,0.058-0.36h0.059l0.117-.359H877.8v-0.119l0.117-.06c0.02-.079.04-0.16,0.059-0.239l0.117-.06v-0.12l0.117-.06c0.02-.079.039-0.159,0.059-0.239l0.117-.06v-0.12l0.117-.06c0.02-.08.039-0.159,0.059-0.239a1.392,1.392,0,0,0,.234-0.958h-0.059c-0.019-.119-0.039-0.239-0.058-0.359H878.62c-0.019-.079-0.039-0.159-0.058-0.239H878.5v-0.12l-0.117-.06v-0.12l-0.117-.059c-0.02-.08-0.039-0.16-0.059-0.24l-0.117-.06v-0.119c-0.039-.02-0.078-0.041-0.117-0.06-0.019-.08-0.039-0.16-0.059-0.239l-0.117-.061V466.9h-0.058l-0.117-.359h-0.059c-0.019-.12-0.039-0.24-0.058-0.359h-0.059v-0.36c-0.257-.9.3-2.008,0-2.813v-0.179l-0.117-.061v-0.119h-0.059l-0.175-.239h-0.117c-0.039-.06-0.078-0.12-0.118-0.18h-0.117c-0.019-.04-0.039-0.079-0.058-0.119-0.059-.02-0.117-0.041-0.176-0.06v-0.06l-0.234-.06-0.059-.12H876.1l-0.058-.119h-0.117l-0.059-.12h-0.117l-0.059-.12h-0.117l-0.117-.18h-0.117c-0.019-.04-0.039-0.079-0.059-0.119l-0.292-.239V460.8l-0.117-.06c-0.02-.06-0.039-0.12-0.059-0.18h-0.059l-0.468-1.137v-0.179h-0.059v-0.12H874.17c-0.02-.12-0.039-0.239-0.059-0.359h-0.058v-0.12h-0.059v-0.12h-0.058V458.4h-0.059v-0.12c-0.1-.12-0.195-0.239-0.293-0.359h-0.117v-0.06l-0.234-.06v-0.06H873v-0.06h-0.293v-0.06h-0.527v-0.059h-0.468v-0.06H871.3v-0.06h-0.235v-0.06h-0.175v-0.06h-0.176v-0.06h-0.176c-0.019-.04-0.039-0.079-0.058-0.12l-0.234-.059-0.059-.12h-0.117l-0.117-.18h-0.117l-0.235-.3a7.73,7.73,0,0,0-1-.9l-0.117-.179-0.234-.06v-0.06a1.982,1.982,0,0,0-1.171.06v0.06l-0.352.06v0.06h-0.175v0.059h-0.176v0.06h-0.176v0.06h-0.175v0.06h-0.176v0.06l-0.644.06v0.059l-1.113-.119v-0.06h-0.175v-0.06h-0.176v-0.06h-0.176v-0.06H863.4A3.446,3.446,0,0,0,861.873,455.23Zm2.108,3.412a9.668,9.668,0,0,1,2.459.12h0.41v0.059l0.527,0.061v0.059h0.235V459h0.175v0.06l0.586,0.119v0.061h0.117V459.3l0.351,0.06v0.06l0.234,0.06v0.06h0.118V459.6h0.175v0.06h0.117v0.061H869.6c0.02,0.039.039,0.079,0.059,0.119l0.351,0.12v0.059h0.117c0.02,0.04.039,0.081,0.059,0.12l0.234,0.06,0.059,0.12H870.6c0.019,0.04.039,0.08,0.058,0.119h0.118l0.117,0.18h0.117l0.117,0.18h0.117c0.059,0.079.117,0.159,0.176,0.239h0.117l0.351,0.419h0.059l0.058,0.12h0.117l0.059,0.12h0.059v0.119l0.527,0.479v0.12L873,462.592v0.12l0.175,0.12v0.119l0.176,0.12v0.12l0.117,0.06v0.12l0.117,0.059c0.02,0.08.039,0.16,0.059,0.24,0.039,0.02.078,0.039,0.117,0.06v0.119h0.059v0.12h0.058l0.117,0.359,0.117,0.06v0.12h0.059v0.179h0.058c0.02,0.08.04,0.16,0.059,0.239h0.059v0.18H874.4v0.12h0.059v0.18h0.058v0.119h0.059v0.18h0.058v0.18H874.7c0.019,0.139.039,0.279,0.058,0.418h0.059v0.24h0.059v0.3h0.058v0.3h0.059V467.5h0.058v0.479h0.059v2.035h-0.059c-0.019.28-.039,0.559-0.058,0.838q-0.206.809-.41,1.616h-0.059v0.12h-0.058v0.179H874.4v0.121h-0.058v0.179h-0.059c-0.019.079-.039,0.159-0.059,0.239H874.17v0.12h-0.059v0.179l-0.117.06v0.12h-0.058v0.12h-0.059v0.119h-0.058v0.12H873.76v0.12l-0.117.06v0.119l-0.117.06c-0.02.08-.039,0.16-0.059,0.24l-0.117.059v0.12l-0.176.12v0.12l-0.117.06c-0.019.059-.039,0.119-0.058,0.179l-0.234.18V475.7l-0.527.479v0.12l-0.118.06v0.06H872l-0.468.538-0.176.06-0.117.18h-0.117l-0.117.179-0.176.06-0.058.12h-0.118l-0.058.12-0.234.059-0.059.12-0.176.06v0.06h-0.117v0.06H869.9v0.059h-0.117v0.061h-0.117c-0.02.039-.039,0.079-0.059,0.119l-0.292.06v0.06h-0.117v0.059l-0.352.12v0.06l-0.351.06v0.06h-0.117v0.06H868.2v0.06h-0.176v0.059l-0.409.061v0.059h-0.235v0.06h-0.292v0.06h-0.293v0.06H866.44v0.059h-0.468v0.061h-1.288a8.34,8.34,0,0,1-3.514-.779H861v-0.059l-0.235-.061v-0.059h-0.175l-0.059-.12h-0.117v-0.06h-0.117v-0.059h-0.117v-0.061h-0.117v-0.059h-0.117v-0.06h-0.118l-0.058-.12-0.234-.06c-0.02-.04-0.039-0.08-0.059-0.119h-0.117l-0.059-.12h-0.117l-0.117-.18h-0.117l-0.117-.179h-0.117l-0.176-.24h-0.117l-0.351-.419c-0.079-.079-0.295-0.167-0.352-0.239v-0.12l-0.527-.479v-0.119l-0.234-.18v-0.12l-0.175-.119v-0.12l-0.176-.12V474.8l-0.117-.059v-0.12l-0.117-.059c-0.02-.081-0.039-0.16-0.059-0.24l-0.117-.06v-0.12h-0.059l-0.117-.359-0.117-.059v-0.121h-0.058v-0.119h-0.059v-0.18h-0.058c-0.02-.08-0.039-0.16-0.059-0.239h-0.059v-0.179h-0.058v-0.121H855.49v-0.179h-0.058v-0.12h-0.059c-0.019-.119-0.039-0.239-0.058-0.359h-0.059V471.87H855.2v-0.18h-0.059l-0.117-.838a7.617,7.617,0,0,1-.117-2.873V467.5c0.079-.283.147-0.685,0.234-0.957V466.3H855.2v-0.179h0.058l0.117-.6h0.059v-0.119h0.058v-0.18h0.059v-0.12h0.058v-0.18h0.059c0.02-.079.039-0.159,0.059-0.239h0.058v-0.179h0.059v-0.12H855.9v-0.12l0.117-.059v-0.12h0.059v-0.12h0.058v-0.12h0.059V463.73c0.039-.021.078-0.04,0.117-0.06,0.02-.08.039-0.16,0.059-0.24h0.058c0.02-.059.039-0.119,0.059-0.179l0.117-.06v-0.12l0.176-.12v-0.119l0.175-.12v-0.12l0.234-.179v-0.12l0.527-.479c0.02-.06.039-0.12,0.059-0.179l0.176-.06,0.468-.539h0.117c0.059-.08.117-0.16,0.176-0.239h0.117l0.117-.18h0.117l0.117-.18H859.3c0.02-.039.039-0.079,0.059-0.119h0.117l0.059-.12,0.234-.06,0.058-.12h0.118v-0.059h0.117V459.9h0.117v-0.06h0.117v-0.06h0.117l0.059-.12h0.117V459.6h0.175V459.54l0.235-.06v-0.06h0.175v-0.06h0.117V459.3h0.176v-0.059h0.117V459.18h0.176v-0.059h0.176v-0.06l0.409-.06v-0.06h0.235v-0.059h0.292v-0.061l1.113-.119v-0.06Zm0.059,1.2v0.06h-0.469v0.06h-0.293v0.059h-0.292v0.061l-0.469.059v0.06h-0.176v0.06h-0.175v0.06H861.99v0.06l-0.351.059v0.06l-0.235.06v0.06h-0.117v0.06h-0.175v0.06l-0.235.06v0.059l-0.234.061c-0.019.039-.039,0.079-0.058,0.119l-0.235.06-0.058.12-0.234.059L860,461.4h-0.117l-0.117.18h-0.117l-0.117.179h-0.117l-0.176.24h-0.117l-0.527.6-0.469.419v0.12l-0.234.18v0.119l-0.176.12v0.12l-0.175.119v0.12l-0.117.06v0.12h-0.059v0.12l-0.117.059c-0.02.08-.039,0.16-0.059,0.24l-0.117.06c-0.019.079-.039,0.159-0.058,0.239h-0.059l-0.117.359h-0.058v0.18H856.72c-0.02.079-.039,0.159-0.059,0.239H856.6c-0.02.12-.039,0.239-0.059,0.359h-0.058v0.18h-0.059V466.3h-0.058v0.18H856.31c-0.019.159-.039,0.319-0.058,0.479h-0.059c-0.02.2-.039,0.4-0.059,0.6h-0.058v0.479a7.389,7.389,0,0,0,.234,3.232v0.24h0.059v0.179h0.058v0.18h0.059v0.18h0.058c0.02,0.119.039,0.238,0.059,0.359h0.058c0.02,0.079.039,0.159,0.059,0.239h0.059v0.179h0.058l0.117,0.36h0.059c0.019,0.079.039,0.159,0.058,0.239l0.117,0.06c0.02,0.08.039,0.159,0.059,0.24l0.117,0.059c0.02,0.08.039,0.16,0.059,0.239,0.039,0.021.078,0.04,0.117,0.06v0.12l0.175,0.12v0.119c0.059,0.04.118,0.08,0.176,0.121v0.119l0.234,0.179v0.12q0.352,0.329.7,0.659c0.1,0.119.2,0.239,0.293,0.359h0.117c0.058,0.08.117,0.159,0.176,0.239h0.117l0.117,0.18h0.117c0.019,0.04.039,0.079,0.058,0.119h0.118l0.117,0.18h0.117v0.06h0.117c0.019,0.04.039,0.079,0.058,0.12l0.235,0.059,0.058,0.12,0.234,0.06v0.06l0.235,0.059v0.061h0.175v0.059l0.235,0.06v0.06H861.7a7.208,7.208,0,0,0,3.045.659h1.171v-0.061h0.469v-0.059h0.293v-0.06h0.292v-0.06l0.469-.06V477.8h0.176v-0.06h0.175v-0.059h0.176v-0.06l0.351-.06a8.932,8.932,0,0,0,3.748-2.992c0.058-.041.117-0.081,0.176-0.121v-0.119l0.175-.12v-0.12c0.039-.02.078-0.039,0.117-0.06,0.02-.079.039-0.159,0.059-0.239l0.117-.059c0.02-.081.039-0.16,0.059-0.24l0.117-.06c0.019-.08.039-0.16,0.058-0.239H873l0.117-.36h0.058v-0.179h0.059c0.02-.08.039-0.16,0.059-0.239h0.058c0.02-.121.039-0.24,0.059-0.359h0.058v-0.18h0.059v-0.18h0.058v-0.179h0.059c0.019-.16.039-0.32,0.058-0.479h0.059c0.02-.2.039-0.4,0.059-0.6h0.058q0.03-.718.059-1.436a8.346,8.346,0,0,0-.762-3.651v-0.18h-0.058L873,464.807H872.94c-0.019-.08-0.039-0.16-0.058-0.239l-0.117-.06c-0.02-.08-0.039-0.16-0.059-0.24l-0.117-.059c-0.02-.081-0.039-0.16-0.059-0.24l-0.117-.06v-0.12l-0.175-.119v-0.12l-0.176-.12v-0.119l-0.234-.18v-0.12l-0.352-.3-0.644-.718h-0.117l-0.176-.24h-0.117l-0.117-.179h-0.117l-0.117-.18h-0.117l-0.059-.12-0.234-.059-0.059-.12-0.234-.06c-0.019-.04-0.039-0.08-0.058-0.119l-0.235-.061V460.8l-0.351-.12v-0.06h-0.176v-0.06l-0.234-.06v-0.06l-0.351-.059v-0.06h-0.176v-0.06h-0.175V460.2h-0.176v-0.06l-0.469-.059v-0.061l-0.585-.059V459.9Zm0.761,3.292a1.771,1.771,0,0,1,.585.12l0.293,0.538q0.058,0.032.117,0.06v0.12l0.176,0.12v0.12l0.117,0.059v0.12l0.117,0.059v0.121h0.059c0.019,0.059.039,0.119,0.058,0.179l0.117,0.06v0.119l0.176,0.121v0.119l0.117,0.06c0.02,0.059.039,0.12,0.059,0.18h0.058v0.119l0.117,0.06v0.12c0.039,0.02.078,0.04,0.118,0.059v0.121l0.117,0.059v0.12c0.058,0.04.117,0.079,0.175,0.12v0.06l1,0.239v0.06l0.585,0.119v0.061l0.41,0.059v0.06l0.586,0.12v0.059a1.105,1.105,0,0,1,.937.479h0.058v0.479a0.573,0.573,0,0,0-.117.24l-0.234.179v0.12c-0.059.039-.117,0.08-0.176,0.12v0.119l-0.175.12V469l-0.235.179v0.12l-0.175.12v0.119c-0.059.04-.117,0.081-0.176,0.12v0.12l-0.234.179v0.12l-0.176.12v0.12l-0.176.119v0.12l-0.234.18v2.094a1,1,0,0,1,.059.539v1.077h-0.059c-0.019.08-.039,0.16-0.058,0.24a1.2,1.2,0,0,1-.644.179V474.8l-0.293-.059v-0.06H867.67v-0.06h-0.176v-0.059h-0.175V474.5h-0.176v-0.06h-0.176v-0.059H866.85v-0.06l-0.351-.06V474.2l-0.351-.06v-0.06h-0.117v-0.06l-0.527-.119v-0.06a3.973,3.973,0,0,0-.469-0.119v-0.061l-0.234.061v0.059h-0.176v0.06H864.45v0.06h-0.176v0.059H864.1v0.06h-0.117v0.06h-0.176v0.06H863.63v0.06h-0.176v0.06h-0.176v0.06h-0.117v0.06h-0.175v0.059H862.81v0.06h-0.176v0.061h-0.175v0.059h-0.176a1.7,1.7,0,0,1-.82.239,0.322,0.322,0,0,0-.234-0.119c-0.02-.06-0.039-0.12-0.059-0.179h-0.058v-0.121h-0.059q0.03-1.854.059-3.71l-0.235-.18v-0.12l-0.175-.119v-0.12l-0.176-.12v-0.12l-0.234-.179v-0.12c-0.059-.039-0.117-0.08-0.176-0.12v-0.119l-0.175-.12v-0.12L859.706,469v-0.12l-0.175-.12v-0.119c-0.059-.04-0.117-0.081-0.176-0.12V468.4l-0.234-.179c-0.02-.08-0.039-0.16-0.059-0.24H859c0.019-.2.039-0.4,0.058-0.6,0.112-.061.24-0.194,0.352-0.24h0.234v-0.059h0.175v-0.061H860v-0.059l0.41-.06v-0.06l0.586-.119v-0.061c0.136-.02.273-0.039,0.409-0.06v-0.059h0.235v-0.06h0.175v-0.06l0.41-.06V466.3H862.4v-0.059h0.176v-0.06c0.058-.041.117-0.08,0.175-0.12v-0.12l0.117-.059v-0.121l0.118-.059v-0.12l0.117-.06v-0.119l0.117-.06v-0.12l0.117-.06v-0.119l0.176-.121v-0.119l0.117-.06v-0.12l0.117-.059v-0.121l0.117-.059v-0.12h0.059c0.019-.059.039-0.119,0.058-0.179l0.117-.06v-0.12l0.176-.12V463.67h0.058c0.02-.06.039-0.12,0.059-0.18l0.117-.06v-0.119a1.486,1.486,0,0,1,.293-0.12v-0.06Zm0.117,1.676a2.518,2.518,0,0,1-.468.718v0.12c-0.04.019-.079,0.04-0.118,0.06v0.119c-0.058.041-.117,0.08-0.175,0.12v0.12l-0.117.06v0.12l-0.117.059v0.12h-0.059c-0.02.06-.039,0.12-0.059,0.179-0.039.021-.078,0.04-0.117,0.06v0.12l-0.175.12v0.119h-0.059l-0.176.24-0.527.12v0.059h-0.175v0.06H862.4v0.06h-0.234v0.06l-0.41.06a4.793,4.793,0,0,1-1.171.359,0.856,0.856,0,0,0,.234.419h0.058v0.12l0.176,0.119v0.12l0.117,0.06c0.02,0.06.039,0.12,0.059,0.18l0.234,0.179v0.12c0.059,0.039.117,0.08,0.176,0.12V469.6l0.175,0.12v0.12l0.235,0.179a1.418,1.418,0,0,0,.234.359v2.454h-0.059v0.539a1.924,1.924,0,0,0,.7-0.24l0.351-.059v-0.06H863.4v-0.06h0.176v-0.059h0.176v-0.061h0.176v-0.06H864.1v-0.059h0.117v-0.06h0.176v-0.06h0.176v-0.06h0.175v-0.06a1.584,1.584,0,0,1,1,.24h0.175v0.059h0.118v0.06h0.175v0.061h0.176v0.059h0.176v0.06h0.175a3.338,3.338,0,0,0,1,.359q-0.03-1.077-.059-2.155v-0.838h0.059v-0.12l0.175-.119v-0.12l0.235-.179v-0.12l0.175-.12v-0.119l0.117-.06c0.02-.06.039-0.12,0.059-0.18l0.234-.179v-0.12l0.176-.12V468.7l0.175-.119v-0.12h0.059a0.9,0.9,0,0,0,.234-0.419l-0.585-.12v-0.06h-0.235V467.8h-0.175v-0.06H868.2v-0.06l-0.585-.12V467.5h-0.235v-0.06H867.2v-0.059l-0.527-.12-0.176-.24H866.44V466.9l-0.175-.12v-0.12c-0.039-.02-0.078-0.039-0.117-0.06v-0.119l-0.117-.06V466.3h-0.059c-0.02-.059-0.039-0.119-0.059-0.179l-0.117-.06v-0.12c-0.058-.04-0.117-0.079-0.175-0.12v-0.119l-0.117-.06v-0.12a2.492,2.492,0,0,1-.469-0.718h-0.117Z" transform="translate(-849.938 -454)"/>
</svg>
