<svg xmlns="http://www.w3.org/2000/svg" width="26" height="30" viewBox="0 0 26 30">
  <defs>
    <style>
      .cls-1 {
        fill: #fff;
        fill-rule: evenodd;
      }
    </style>
  </defs>
  <path id="_2" data-name="2" class="cls-1" d="M864.581,454a3.792,3.792,0,0,1,2.036.41v0.059l0.18,0.058,0.06,0.117h0.12c0.12,0.137.24,0.273,0.359,0.41l0.12,0.058v0.118l0.12,0.058V455.4l0.12,0.059,0.12,0.351h0.06v0.117h0.059a4.109,4.109,0,0,1,.18,1.463h-0.06v0.352H868v0.175h-0.06V458.1h-0.059v0.175h-0.06v0.117h-0.06v0.117l-0.12.059-0.06.234h-0.06a0.666,0.666,0,0,0-.18.293h0.06a1.8,1.8,0,0,0,.6.117v0.058l0.48,0.059v0.058h0.179v0.059h0.18V459.5h0.24v0.059h0.12v0.058l0.539,0.118v0.058h0.119v0.059h0.18v0.058l0.36,0.117v0.059h0.119v0.058h0.12V460.2h0.12v0.058h0.12v0.058h0.12v0.059h0.12v0.059h0.119V460.5h0.12l0.06,0.118h0.12v0.058h0.12l0.06,0.117h0.119v0.058h0.12v0.059a0.452,0.452,0,0,0,.24.059,1.731,1.731,0,0,1,.359-0.351q0.45-.441.9-0.878a0.98,0.98,0,0,1,.719-0.469v-0.058h0.06v0.058h0.239v0.059a3.225,3.225,0,0,1,.9.819h0.06l1.857,1.873a1.4,1.4,0,0,1,.719,1.054l-0.3.409-1.2,1.113-0.359.409h-0.06c-0.032.112,0.036,0.08,0.06,0.117a1.25,1.25,0,0,0,.239.41l0.12,0.351h0.06l0.06,0.234h0.06v0.176h0.06v0.117h0.06l0.06,0.234h0.06v0.175h0.059v0.118h0.06l0.12,0.527a9.585,9.585,0,0,1,.659,3.628v1.58h-0.06v0.469H877.7v0.351h-0.059v0.351q-0.27.966-.54,1.932h-0.06l-0.06.292h-0.059v0.117h-0.06v0.176H876.8l-0.12.351h-0.06v0.117h-0.06v0.117H876.5v0.117h-0.06v0.117h-0.06v0.117h-0.059v0.117h-0.06v0.118H876.2v0.116l-0.12.059-0.06.234L875.9,478v0.118h-0.06v0.117c-0.04.019-.08,0.038-0.12,0.059v0.116l-0.119.059v0.117l-0.18.117v0.117l-0.18.117v0.117l-0.18.117v0.117l-0.3.234v0.118l-0.6.526-0.779.82h-0.12l-0.179.234h-0.12c-0.02.039-.04,0.077-0.06,0.117h-0.06l-0.06.117h-0.12l-0.12.175h-0.119c-0.02.04-.04,0.078-0.06,0.117l-0.18.059v0.059h-0.12l-0.06.116-0.18.059v0.059l-0.239.058-0.06.118-0.359.116c-0.021.039-.04,0.078-0.06,0.117l-0.24.059v0.059h-0.12v0.058l-0.359.117v0.059h-0.18v0.058l-0.24.059v0.058l-0.3.058v0.059h-0.18v0.059h-0.12v0.058l-0.6.117v0.059h-0.18V483.5l-0.419.059v0.059h-0.24v0.058h-0.3v0.059h-0.3v0.058h-0.359v0.058l-1.138.059v0.059a6.746,6.746,0,0,1-1.678-.059l-1.138-.059v-0.058h-0.359v-0.058h-0.3v-0.059h-0.24v-0.058h-0.3l-1.8-.586v-0.058l-0.24-.059v-0.058h-0.18V482.8l-0.359-.117v-0.058h-0.12v-0.059l-0.24-.059-0.06-.117-0.359-.116-0.06-.118-0.24-.058v-0.059l-0.179-.059-0.06-.116h-0.12V481.8l-0.18-.059c-0.02-.039-0.04-0.077-0.06-0.117h-0.119l-0.06-.116-0.18-.059-0.18-.234a12.464,12.464,0,0,1-3.235-3.571v-0.116h-0.06v-0.118h-0.06v-0.117h-0.06v-0.117h-0.059V477.06H853.5v-0.117h-0.06v-0.117h-0.06v-0.117h-0.06l-0.12-.351h-0.06v-0.176h-0.06v-0.117h-0.06v-0.176a10.5,10.5,0,0,1-.838-4.39l0.06-1.814h0.06v-0.351h0.059v-0.351h0.06v-0.234h0.06v-0.293h0.06v-0.234h0.06l0.06-.409h0.06v-0.176h0.06v-0.175h0.06v-0.176h0.06c0.02-.118.039-0.234,0.059-0.351h0.06v-0.118h0.06v-0.175h0.06l0.06-.234h0.06v-0.176h0.06l0.06-.234h0.06l0.12-.351a2.326,2.326,0,0,0,.359-0.644l-1.8-1.7a0.9,0.9,0,0,1-.12-0.527,1.962,1.962,0,0,0,.18-0.293l0.479-.409q0.448-.469.9-0.937l1.977-1.873h0.239v-0.058c0.084-.011-0.023.041,0.06,0.058h0.24q0.659,0.615,1.318,1.229a1.011,1.011,0,0,0,.6.469c0.1-.14.044-0.037,0.179-0.118v-0.058h0.12l0.06-.117,0.18-.058v-0.059l0.359-.117v-0.059h0.12V460.32h0.12v-0.058h0.12V460.2h0.12v-0.059h0.119v-0.058l0.24-.059v-0.059h0.12v-0.058h0.18v-0.058h0.119v-0.059h0.18v-0.058h0.12v-0.059h0.18v-0.059h0.179V459.56h0.18V459.5h0.18v-0.058h0.18v-0.059l0.659-.117v-0.058h0.3V459.15h0.3v-0.058c0.068-.067.023,0,0.06-0.117a1.433,1.433,0,0,1-.48-0.7h-0.06V458.1h-0.06v-0.176h-0.059v-0.175h-0.06v-0.352h-0.06a3.864,3.864,0,0,1,.179-1.463h0.06l0.12-.351h0.06v-0.117h0.06l0.06-.176,0.12-.058v-0.118l0.419-.351,0.06-.117h0.12l0.06-.117h0.119c0.021-.039.04-0.077,0.06-0.117l0.24-.058v-0.059l0.24-.058v-0.059l0.719-.117V454Zm-0.18,4.8v-1.522h0.06l0.06-.234a1.261,1.261,0,0,1,.659-0.175,0.336,0.336,0,0,0,.239.117l0.06,0.175h0.06v0.117h0.06V458.8a1.943,1.943,0,0,0,1.258-2.341H866.8v-0.117h-0.06l-0.12-.352a2.314,2.314,0,0,0-1.318-.819,2.948,2.948,0,0,0-1.2.176l-0.06.117h-0.119l-0.06.117h-0.12l-0.18.234H863.5v0.117l-0.12.058v0.118h-0.06v0.117h-0.059v0.117H863.2v0.117h-0.06A1.94,1.94,0,0,0,864.4,458.8Zm-0.419,1.288a3.794,3.794,0,0,1-.9.117v0.058h-0.36l-1.737.468v0.059l-0.3.058v0.059h-0.12v0.059h-0.18v0.058l-0.359.117V461.2h-0.12v0.058h-0.12v0.059h-0.12v0.058h-0.12v0.059h-0.119v0.058h-0.12v0.059h-0.12l-0.06.117-0.24.059-0.06.116H858.71q-0.03.06-.06,0.117h-0.12l-0.06.118h-0.12l-0.06.117h-0.12l-0.059.117h-0.12l-0.06.117h-0.06l-0.06.117h-0.12l-0.239.292h-0.12l-0.539.586-0.6.526v0.118l-0.3.233v0.118l-0.12.058v0.059c-0.04.019-.08,0.038-0.12,0.059v0.116l-0.119.059v0.117l-0.18.117v0.117l-0.12.059V465.3l-0.12.058-0.06.234-0.12.059c-0.039.117-.079,0.234-0.119,0.351l-0.12.059-0.06.234h-0.06l-0.12.351H854.4v0.175h-0.06l-0.06.235h-0.059v0.175h-0.06v0.117H854.1l-0.06.351h-0.06v0.118h-0.06l-0.18.819a10.262,10.262,0,0,0-.06,5.326v0.293l0.54,1.58h0.059l0.06,0.234h0.06v0.117h0.06v0.176h0.06v0.117l0.12,0.058v0.117h0.06v0.118h0.06v0.117h0.06V477h0.059v0.118l0.12,0.058,0.06,0.234h0.06l0.06,0.176,0.12,0.058v0.117h0.06l0.06,0.176,0.12,0.058v0.118l0.119,0.058c0.02,0.059.04,0.118,0.06,0.175l0.24,0.176v0.118l0.3,0.234v0.117l0.6,0.526q0.15,0.177.3,0.351h0.12l0.3,0.352,0.18,0.058,0.12,0.176h0.12l0.12,0.175h0.119l0.06,0.118h0.12l0.12,0.175,0.24,0.059c0.019,0.039.04,0.078,0.059,0.117l0.18,0.059v0.058c0.12,0.039.24,0.077,0.36,0.117,0.02,0.039.039,0.078,0.06,0.117l0.239,0.059v0.058l0.36,0.117v0.058h0.179V481.8h0.12v0.059l0.24,0.058v0.058l0.359,0.059v0.059h0.12v0.058l0.359,0.059v0.059h0.18v0.057l0.42,0.059v0.059h0.239V482.5l0.539,0.059v0.059h0.36v0.058l1.078,0.058V482.8a6.069,6.069,0,0,0,1.558-.059h0.659v-0.058h0.419v-0.058h0.36v-0.059h0.3V482.5l0.479-.058v-0.059l0.42-.059V482.27h0.179v-0.059h0.18v-0.059l0.36-.058v-0.059l0.3-.059v-0.058l0.24-.058V481.8h0.179v-0.059c0.12-.039.24-0.077,0.36-0.117v-0.058h0.12v-0.058l0.239-.059,0.06-.117c0.12-.04.24-0.078,0.36-0.117v-0.058l0.18-.059c0.019-.039.039-0.078,0.059-0.117l0.24-.059,0.06-.117h0.12c0.04-.058.08-0.117,0.119-0.176h0.12l0.12-.175h0.12l0.12-.176h0.12l0.3-.351h0.12l0.539-.585,0.36-.293v-0.117q0.179-.147.359-0.292v-0.118l0.24-.176v-0.116l0.179-.117V478l0.12-.058,0.06-.176h0.06v-0.117l0.12-.058,0.06-.176h0.06l0.06-.234,0.119-.058V477h0.06v-0.116h0.06v-0.117h0.06V476.65h0.06v-0.117h0.06v-0.117h0.06V476.3h0.06v-0.117h0.06l0.119-.351h0.06l0.06-.352h0.06v-0.116h0.06l0.06-.351h0.06v-0.176h0.06v-0.175h0.06l0.06-.41h0.06c0.02-.176.039-0.351,0.059-0.527h0.06v-0.293h0.06l0.06-.819a6.4,6.4,0,0,0,.06-1.464,8.221,8.221,0,0,0-.6-3.277l-0.12-.527h-0.06l-0.06-.292h-0.06c-0.019-.078-0.04-0.157-0.059-0.235H875.6v-0.175h-0.06l-0.12-.351h-0.06l-0.06-.234-0.12-.059-0.12-.351-0.119-.059-0.06-.234-0.12-.058v-0.117l-0.12-.059V465l-0.18-.117v-0.117l-0.119-.059v-0.116c-0.04-.021-0.08-0.04-0.12-0.059v-0.059l-0.12-.058V464.3l-0.3-.233v-0.118l-0.6-.526-0.539-.586h-0.12l-0.239-.292h-0.12l-0.18-.234h-0.12l-0.06-.117H871.71l-0.12-.176-0.24-.059q-0.03-.057-0.06-0.117l-0.179-.058v-0.058l-0.24-.059-0.06-.117h-0.12v-0.059h-0.12v-0.058h-0.119v-0.059h-0.12v-0.058h-0.12v-0.059h-0.12V461.2h-0.12V461.14l-0.359-.117v-0.058h-0.18v-0.059h-0.12v-0.059h-0.179v-0.058h-0.12V460.73h-0.18v-0.058h-0.18v-0.058h-0.179v-0.059l-0.42-.059v-0.058l-0.779-.118A12.742,12.742,0,0,0,863.982,460.087Zm-9.286,3.921a0.454,0.454,0,0,1,.12-0.234h0.059v-0.117L855,463.6V463.54l0.12-.059v-0.117l0.42-.351V462.9l0.479-.41,0.12-.175h0.119l0.42-.469,0.179-.058v-0.117a2.5,2.5,0,0,1-.479-0.468,2.894,2.894,0,0,1-.539-0.527h-0.06v0.058a2.849,2.849,0,0,0-.659.586l-1.018,1a1.328,1.328,0,0,0-.6.7A5.107,5.107,0,0,0,854.7,464.008Zm18.451-2.224a1.192,1.192,0,0,1,.48.351l0.06,0.117h0.119l0.42,0.468,0.239,0.176v0.117l0.42,0.351v0.117l0.12,0.059V463.6l0.119,0.059v0.117h0.06a0.462,0.462,0,0,1,.12.234h0.18a5.035,5.035,0,0,0,1.018-1.171l-2.276-2.165a0.1,0.1,0,0,0-.06.058A4.6,4.6,0,0,0,873.147,461.784Zm-8.746.117a9.94,9.94,0,0,1,9.106,4.8v0.116h0.06v0.118h0.06v0.117h0.06v0.116h0.059v0.118h0.06V467.4h0.06l0.12,0.351h0.06v0.175h0.06v0.118h0.06v0.175h0.06V468.4h0.06v0.176h0.06c0.02,0.136.039,0.273,0.06,0.409h0.059l0.06,0.468h0.06V469.8h0.06v0.352h0.06v0.585h0.06a4.291,4.291,0,0,1-.06,1.405l-0.06.936h-0.06v0.293h-0.06v0.292h-0.06V473.9h-0.059v0.175h-0.06v0.235h-0.06v0.175h-0.06V474.6h-0.06l-0.06.351h-0.06v0.117h-0.06v0.176h-0.06l-0.12.351h-0.06v0.117h-0.059l-0.12.351-0.12.059-0.06.234-0.12.058-0.06.234-0.119.059v0.117l-0.18.117v0.117l-0.18.117v0.117l-0.18.117v0.118l-0.6.526v0.117l-0.12.059v0.059H871.71l-0.42.467h-0.119l-0.18.235-0.18.058-0.06.117h-0.12l-0.06.117h-0.119c-0.02.04-.04,0.078-0.06,0.117h-0.12l-0.06.117h-0.12l-0.06.118-0.359.117-0.06.116-0.24.059v0.059l-0.239.058V480.1h-0.18v0.058l-0.24.059v0.058l-0.359.059V480.4h-0.12v0.058h-0.18v0.058h-0.179v0.059h-0.24v0.058H867.4v0.059h-0.239v0.059h-0.24v0.058h-0.359v0.058h-0.42v0.059H865.18v0.059l-1.318-.059v-0.059l-0.779-.058v-0.058h-0.24v-0.059H862.6V480.63h-0.24v-0.058h-0.24v-0.059h-0.179v-0.058h-0.18V480.4l-0.3-.059v-0.059h-0.119v-0.058h-0.18v-0.059l-0.24-.058v-0.059h-0.179v-0.058h-0.12l-0.06-.118h-0.12v-0.058h-0.12v-0.058h-0.12v-0.059h-0.12v-0.058h-0.119l-0.06-.118h-0.12l-0.06-.117h-0.12c-0.02-.039-0.04-0.077-0.06-0.117h-0.119c-0.021-.039-0.04-0.078-0.06-0.117h-0.12l-0.06-.117-0.18-.058-0.18-.235H858.71l-0.48-.526h-0.119l-0.06-.117h-0.06V478l-0.539-.467v-0.118l-0.24-.175v-0.117l-0.12-.059v-0.117l-0.18-.117-0.9-1.58V475.07h-0.06v-0.117h-0.06v-0.176h-0.06v-0.116h-0.06q-0.03-.177-0.06-0.351h-0.06v-0.235h-0.06V473.9h-0.059v-0.235c-0.089-.266-0.16-0.659-0.24-0.936v-0.585h-0.06a4.29,4.29,0,0,1,.06-1.405l0.06-.937h0.06v-0.351h0.06l0.06-.468h0.059v-0.234h0.06v-0.175h0.06V468.4h0.06v-0.176h0.06v-0.175h0.06v-0.118h0.06v-0.175h0.06l0.12-.351h0.06v-0.117h0.059v-0.118h0.06v-0.116h0.06v-0.117h0.06v-0.118h0.06V466.7h0.06v-0.118h0.06l0.06-.175,0.12-.059v-0.117l0.119-.058v-0.117h0.06l0.06-.176,0.12-.059v-0.117l0.18-.117,0.06-.175,0.359-.293V465l0.24-.176c0.14-.155.279-0.311,0.419-0.468h0.12l0.3-.351h0.12l0.12-.175,0.18-.059,0.06-.117h0.12c0.019-.039.039-0.078,0.059-0.117l1.618-.878h0.18V462.6h0.119v-0.058l0.54-.117v-0.059h0.119v-0.058h0.24v-0.059h0.18v-0.058h0.3v-0.059h0.24v-0.058h0.359v-0.059A4.8,4.8,0,0,0,864.4,461.9Zm0,1.171a4.183,4.183,0,0,1-.9.117v0.058h-0.359v0.059l-0.479.058v0.059h-0.18v0.058H862.3v0.059h-0.18V463.6h-0.179v0.059h-0.12v0.059h-0.18v0.058l-0.359.117v0.058h-0.12v0.059h-0.12v0.059h-0.12v0.058h-0.12v0.059h-0.119v0.058h-0.12l-0.06.117h-0.12v0.059l-0.18.058-0.06.118h-0.119l-0.06.116-0.18.059-0.12.176h-0.12l-0.479.526h-0.12l-0.06.117h-0.06v0.117l-0.479.41v0.117l-0.239.176v0.117l-0.12.058-0.06.176h-0.06v0.117l-0.12.059v0.117l-0.12.058c-0.04.117-.08,0.234-0.119,0.352l-0.12.058-0.18.527h-0.06l-0.06.233h-0.06l-0.06.294h-0.06v0.175h-0.06v0.176h-0.059l-0.06.409h-0.06l-0.06.527h-0.06v0.351h-0.06v0.527a5.928,5.928,0,0,0,.24,2.751v0.234h0.06V473.9h0.059v0.175h0.06v0.176h0.06v0.175h0.06v0.117h0.06v0.176h0.06l0.12,0.351h0.06v0.117h0.06V475.3h0.06c0.039,0.118.079,0.234,0.119,0.351l0.12,0.059,0.06,0.234,0.12,0.059v0.117l0.18,0.116v0.118l0.119,0.058v0.117l0.24,0.176v0.117l0.479,0.41,0.54,0.585h0.119l0.18,0.234h0.12l0.12,0.176h0.119l0.06,0.116c0.06,0.021.12,0.04,0.18,0.059v0.059h0.12l0.06,0.117,0.359,0.117,0.06,0.117,0.24,0.059v0.058l0.239,0.059v0.058h0.18v0.058l0.24,0.059v0.059l0.359,0.058v0.059h0.18V479.4h0.18v0.059h0.179v0.058l0.48,0.059v0.059l0.779,0.058v0.059l1.2,0.058v-0.058h0.838v-0.059h0.42v-0.058H866.8v-0.059l0.479-.059V479.46h0.18V479.4h0.18v-0.058h0.18v-0.059l0.359-.058a8.963,8.963,0,0,0,4.733-4.507v-0.176h0.06v-0.117h0.06q0.208-.732.419-1.463v-0.351a6.572,6.572,0,0,0-.24-3.453v-0.234q-0.3-.7-0.6-1.405l-0.12-.058c-0.04-.118-0.079-0.235-0.119-0.352l-0.12-.058v-0.117l-0.12-.059v-0.117l-0.12-.058v-0.118l-0.12-.058v-0.117l-0.179-.117-0.06-.176-0.479-.41v-0.117h-0.06l-0.12-.175h-0.12l-0.419-.468h-0.12l-0.12-.176h-0.12l-0.12-.175h-0.12l-0.059-.118h-0.12l-0.06-.117-0.18-.059v-0.058l-0.359-.117v-0.058h-0.12v-0.059h-0.12v-0.059h-0.12v-0.058l-0.359-.117v-0.058h-0.18v-0.059h-0.12V463.6h-0.179V463.54H867.7v-0.059h-0.18v-0.058h-0.18v-0.059H867.1A9.023,9.023,0,0,0,864.4,463.072Zm0.539,1a0.634,0.634,0,0,1,.6.409,0.959,0.959,0,0,1,0,.7l-0.24.175v0.059H865.12v0.058h-0.24a1.383,1.383,0,0,1-.479-0.41,3.433,3.433,0,0,1,.06-0.7l0.18-.117v-0.058l0.3-.059v-0.058Zm-5.212,3.1a0.525,0.525,0,0,0-.12-0.233h-0.06a0.852,0.852,0,0,1,.06-0.644,1.044,1.044,0,0,1,.659-0.234,1,1,0,0,1,.6.878,0.681,0.681,0,0,1-.359.351v0.058l-0.36.059v-0.059h-0.179v-0.058A0.507,0.507,0,0,0,859.728,467.168Zm10.544,0a0.557,0.557,0,0,0-.24.118v0.058a0.905,0.905,0,0,1-.659-0.058,0.991,0.991,0,0,1-.239-0.644,1.026,1.026,0,0,1,.9-0.585,0.684,0.684,0,0,1,.36.351h0.06c0.019,0.117.04,0.234,0.059,0.351h-0.059v0.176h-0.06A0.466,0.466,0,0,0,870.272,467.168Zm-3.235,3.571h1.617V470.8l0.3,0.059a1,1,0,0,1,.24.643,0.681,0.681,0,0,1-.36.352,7.084,7.084,0,0,1-1.737.058,2.537,2.537,0,0,1-.9,1.171l-0.239.059V473.2h-0.12v0.059h-0.18v0.058h-0.3v0.059a3.174,3.174,0,0,1-1.018-.117V473.2l-0.24-.058V473.08h-0.119l-0.06-.117H863.8l-0.18-.234-0.18-.117V472.5l-0.12-.059v-0.117h-0.059l-0.06-.234h-0.06a2.459,2.459,0,0,1-.12-1.112h0.06v-0.234h0.06v-0.176h0.06l0.06-.234,0.119-.058v-0.117c0.1-.079.2-0.156,0.3-0.234a1.21,1.21,0,0,1,.779-0.469c-0.016-.726-0.173-2.065.3-2.341a0.624,0.624,0,0,1,.48-0.117v0.059h0.179c0.377,0.21.239,1.19,0.24,1.755v0.586l0.479,0.175A2.159,2.159,0,0,1,867.037,470.739Zm-2.217-.234a1.109,1.109,0,0,0-.479.468,0.787,0.787,0,0,0-.12.585h0.06v0.176l0.12,0.059v0.116l0.12,0.059v0.059h0.12c0.019,0.039.039,0.077,0.059,0.117l0.6,0.058v-0.058h0.18c0.02-.04.04-0.078,0.06-0.117h0.12l0.06-.118h0.06v-0.116l0.12-.059c0.02-.195.039-0.39,0.06-0.586H865.9l-0.06-.292-0.24-.175v-0.059A1.46,1.46,0,0,0,864.82,470.505Zm-6.949.351h0.6v0.059l0.24,0.058c0.335,0.67.143,1.08-.779,1.054a0.686,0.686,0,0,1-.36-0.352,0.7,0.7,0,0,1,0-.585h0.06C857.714,470.99,857.792,470.945,857.871,470.856Zm13.659,0c0.471-.018.808-0.006,0.9,0.351a0.733,0.733,0,0,1,0,.586,3.778,3.778,0,0,1-.36.234,0.712,0.712,0,0,1-.9-0.41h-0.06a0.965,0.965,0,0,1,.179-0.644h0.12v-0.058h0.12v-0.059Zm-11.443,4.623,0.48,0.059a1.754,1.754,0,0,1,.3.41,1.056,1.056,0,0,1-.239.644l-0.18.058-0.06.118h-0.539a0.519,0.519,0,0,1-.24-0.293,0.591,0.591,0,0,1,0-.644l0.24-.176V475.6A0.534,0.534,0,0,0,860.087,475.479Zm9.226,1.054a2.151,2.151,0,0,1-.179-0.585h0.06v-0.175h0.059a0.452,0.452,0,0,1,.3-0.235v-0.059h0.359v0.059h0.12V475.6h0.12l0.3,0.351v0.176a0.143,0.143,0,0,1,.059.175h-0.059l-0.06.293a0.7,0.7,0,0,0-.12.117h-0.12v0.059h-0.539v-0.059A0.8,0.8,0,0,0,869.313,476.533Zm-4.493.878a1.882,1.882,0,0,1,.6.118,1.438,1.438,0,0,1,.18.818,0.679,0.679,0,0,1-.359.352v0.058h-0.48a1.755,1.755,0,0,1-.239-0.234,0.952,0.952,0,0,1,0-.936,1.467,1.467,0,0,1,.3-0.117v-0.059Z" transform="translate(-852 -454)"/>
</svg>
