<svg xmlns="http://www.w3.org/2000/svg" width="24.969" height="30" viewBox="0 0 24.969 30">
  <defs>
    <style>
      .cls-1 {
        fill: #fff;
        fill-rule: evenodd;
      }
    </style>
  </defs>
  <path id="Фигура_1" data-name="Фигура 1" class="cls-1" d="M870.794,459.045a5.574,5.574,0,0,1,.991.059,0.683,0.683,0,0,1,.117.234,1.3,1.3,0,0,1,.058.643,11.479,11.479,0,0,1-.058,1.872,0.666,0.666,0,0,1-.234.117,6.7,6.7,0,0,1-1.69.059,9.162,9.162,0,0,1-.291,3.217c-0.02.117-.039,0.234-0.059,0.351H869.57c-0.039.117-.078,0.234-0.116,0.351H869.4v0.117h-0.058l-0.117.351-0.116.059v0.117l-0.117.058v0.117l-0.175.117V467h-0.058a1.29,1.29,0,0,0-.35.468h-0.116a1.9,1.9,0,0,1-.7.585l-0.058.117h-0.117c-0.019.039-.038,0.078-0.058,0.117l-0.35.117v0.058l-0.349.117v0.059h-0.175V468.7h-0.117v0.059h-0.175a5.01,5.01,0,0,1-3.38,0l-0.35-.059v-0.058l-0.233-.059v-0.058h-0.117v-0.059h-0.175c-0.019-.039-0.038-0.078-0.058-0.117l-0.233-.058c-0.02-.039-0.039-0.078-0.058-0.117h-0.117v-0.059h-0.117c-0.019-.039-0.038-0.078-0.058-0.117l-0.175-.058c-0.077-.1-0.155-0.195-0.233-0.293h-0.116l-0.233-.292-0.117-.058v-0.118l-0.292-.234c-0.019-.058-0.038-0.116-0.058-0.175l-0.116-.059v-0.116l-0.117-.059c-0.019-.078-0.039-0.156-0.058-0.234l-0.117-.058c-0.019-.078-0.039-0.156-0.058-0.234h-0.058c-0.02-.078-0.039-0.156-0.059-0.234h-0.058c-0.019-.117-0.039-0.234-0.058-0.351h-0.059v-0.117h-0.058v-0.176H859.2c-0.02-.156-0.039-0.312-0.058-0.468h-0.059v-0.409a9.733,9.733,0,0,1-.058-2.223,6.7,6.7,0,0,1-1.69-.059,0.337,0.337,0,0,1-.292-0.409,1.3,1.3,0,0,1-.058-0.644c0-.554.009-1.171,0.058-1.638l0.233-.175v-0.059h0.875v-0.058H858.2a2.912,2.912,0,0,1,.35-1v-0.175h0.058c0.019-.078.039-0.156,0.058-0.234h0.058c0.02-.078.039-0.156,0.059-0.234l0.116-.059c0.02-.078.039-0.156,0.059-0.234l0.116-.058v-0.117l0.117-.059v-0.116l0.175-.118v-0.116q0.145-.119.291-0.234V456.12l0.35-.292,0.058-.117h0.117l0.291-.351h0.117l0.116-.175h0.117l0.058-.117,0.233-.059,0.059-.117,0.349-.117v-0.058h0.117v-0.059l0.35-.117v-0.058l0.349-.059v-0.058h0.117v-0.059h0.233v-0.058h0.175V454.19h0.291a4.067,4.067,0,0,1,1.924-.117h0.466v0.059h0.292v0.058h0.233v0.059h0.233v0.058h0.175v0.059h0.175v0.058h0.175v0.059h0.116v0.058h0.175V454.6l0.35,0.117v0.058l0.233,0.059,0.058,0.117L868,455.009l0.059,0.117h0.116c0.02,0.039.039,0.078,0.058,0.117h0.117l0.175,0.234h0.116l0.408,0.468,0.525,0.468v0.117l0.175,0.117v0.117l0.117,0.058v0.117L869.978,457l0.058,0.175H870.1c0.039,0.117.077,0.234,0.116,0.351h0.059v0.117h0.058c0.039,0.117.078,0.234,0.116,0.351H870.5v0.176h0.058v0.117h0.058c0.02,0.136.039,0.273,0.058,0.409h0.059C870.755,458.811,870.775,458.928,870.794,459.045Zm-6.82-1.989h0.408V457l0.583,0.058v-2.047h-0.932A8.21,8.21,0,0,0,863.974,457.056Zm-4.721,1.989h3.206v-0.058h0.058a1.4,1.4,0,0,1,.175-0.761v-0.117h0.058v-0.117l0.175-.117v-0.117h0.059v-2.515l-0.816.293v0.058h-0.117v0.058h-0.117v0.059l-0.349.117v0.058l-0.175.059-0.059.117h-0.116l-0.117.176H861l-0.35.409-0.466.409v0.117l-0.175.117v0.117l-0.117.059v0.117A3.129,3.129,0,0,0,859.253,459.045Zm7.228,0h3.264c-0.078-.273-0.155-0.546-0.233-0.819h-0.058v-0.117H869.4v-0.117h-0.058c-0.02-.078-0.039-0.156-0.058-0.234l-0.117-.058v-0.117l-0.117-.059v-0.117l-0.116-.058v-0.117l-0.233-.176v-0.117l-0.35-.292-0.291-.351h-0.117l-0.117-.176h-0.116l-0.117-.175h-0.116l-0.059-.117H867.3V455.77H867.18v-0.059h-0.116v-0.059h-0.117v-0.058h-0.116v-0.058l-0.234-.059v-0.058h-0.174c-0.109-.044-0.286-0.127-0.409-0.176v2.574A1.567,1.567,0,0,1,866.481,459.045Zm-2.273-.994v0.058h-0.175a0.783,0.783,0,0,1-.233.176,1.21,1.21,0,0,0-.292.994h0.058c0.02,0.1.039,0.195,0.059,0.293l0.466,0.409,0.583,0.059v-0.059h0.175a1.1,1.1,0,0,0,.641-1.17,1.017,1.017,0,0,1-.175-0.409l-0.175-.117v-0.059h-0.116v-0.058l-0.234-.059v-0.058h-0.582Zm-6.237,1.989v0.994h4.546a6.3,6.3,0,0,0,1.632-.058,1.636,1.636,0,0,1-1.34-.936h-4.838Zm13,0.994V460.04h-4.78a2.211,2.211,0,0,1-.816.819l-0.524.175h6.12Zm-10.958,1a8.65,8.65,0,0,0,.291,3.217h0.059c0.038,0.117.077,0.234,0.116,0.351h0.059v0.117h0.058c0.019,0.078.039,0.156,0.058,0.234l0.117,0.059v0.117l0.174,0.117v0.117H861a1.53,1.53,0,0,0,.7.7v0.058h0.117c0.039,0.058.078,0.117,0.116,0.176l0.234,0.058c0.019,0.039.038,0.078,0.058,0.117l0.233,0.059v0.058l0.35,0.117v0.058h0.175v0.059h0.174v0.058h0.234v0.059h0.233V468h0.349v0.059a3.878,3.878,0,0,0,1.632-.176l0.408-.058v-0.059h0.117V467.7h0.175v-0.059l0.233-.058v-0.058l0.233-.059,0.059-.117h0.116c0.02-.039.039-0.078,0.058-0.117h0.117l0.117-.175a4.537,4.537,0,0,0,1.69-2.633,11.42,11.42,0,0,0,.058-2.4h-8.976ZM859.2,468.58a5.622,5.622,0,0,1,1.515.059h0.117l0.932,0.994,0.409,0.351,1.457,1.521a5.043,5.043,0,0,1,.874.878,0.1,0.1,0,0,0,.058-0.059l4.139-3.744a7.012,7.012,0,0,1,2.856.468l0.35,0.059v0.058l0.233,0.059v0.058h0.175v0.059l0.233,0.058v0.059l0.233,0.058,0.058,0.117,0.233,0.059,0.059,0.117,0.233,0.058,0.058,0.117h0.117l0.116,0.176h0.117l0.116,0.175H874l0.408,0.468h0.117c0.019,0.039.038,0.078,0.058,0.117l0.175,0.117v0.117l0.408,0.351v0.117l0.175,0.117v0.117l0.174,0.117v0.117l0.117,0.059v0.117l0.117,0.058c0.019,0.059.038,0.117,0.058,0.176h0.058c0.02,0.078.039,0.156,0.058,0.234l0.117,0.058v0.176H876.1v0.117h0.059V473.2h0.058c0.039,0.117.078,0.234,0.116,0.351h0.059c0.019,0.117.039,0.234,0.058,0.351h0.058v0.117h0.059V474.2h0.058v0.176h0.058v0.234h0.058v0.234H876.8v0.234h0.058v0.409a12.872,12.872,0,0,1,.117,2.983,18.783,18.783,0,0,1-.059,2.925c-0.115.058-.237,0.184-0.349,0.234l-0.525.117c-0.55.221-1.2,0.425-1.749,0.644l-0.408.058V482.5h-0.175v0.058h-0.174v0.059h-0.175v0.058h-0.175v0.059l-0.408.058v0.059l-0.7.117v0.058H871.9v0.059H871.61v0.058h-0.233v0.059h-0.233v0.058l-0.525.059v0.058H870.27v0.059h-0.292V483.5h-0.35v0.059h-0.349v0.058h-0.408v0.059h-0.408v0.058H868v0.059h-0.583v0.058h-0.641v0.059H865.84a9.638,9.638,0,0,1-2.682,0h-0.99v-0.059h-0.642V483.79h-0.583v-0.059h-0.407v-0.058h-0.409v-0.059l-1.107-.117v-0.058l-0.641-.059v-0.058l-0.525-.059v-0.058l-0.524-.059v-0.058H857.1v-0.059h-0.233v-0.058h-0.175v-0.059l-0.7-.117v-0.058h-0.175v-0.059h-0.175V482.62h-0.175v-0.059H855.29V482.5h-0.234v-0.059l-0.349-.058v-0.059l-0.35-.058V482.21h-0.175v-0.058h-0.175v-0.059h-0.175v-0.058h-0.175v-0.059h-0.174v-0.058h-0.175v-0.059c-0.389-.155-1.116-0.174-1.224-0.585a2.5,2.5,0,0,1-.059-1.053V477.3a7.569,7.569,0,0,1,.117-1.872v-0.41H852.2v-0.234h0.059v-0.234h0.058v-0.175h0.058v-0.234h0.058v-0.117h0.059v-0.176h0.058c0.02-.117.039-0.234,0.058-0.351h0.059c0.038-.117.077-0.234,0.116-0.351h0.059v-0.117H852.9c0.039-.117.077-0.234,0.116-0.351l0.117-.058c0.019-.078.039-0.156,0.058-0.234l0.117-.059v-0.117l0.116-.058v-0.117l0.117-.059,0.058-.175,0.175-.117v-0.117l0.35-.293v-0.117l0.408-.351,0.116-.175h0.117l0.233-.293h0.117l0.116-.175h0.117c0.039-.059.078-0.117,0.116-0.176h0.117l0.058-.117,0.175-.058V469.75l0.233-.058,0.059-.117,0.349-.117V469.4h0.117v-0.058l0.35-.117v-0.059l0.349-.058v-0.059h0.175V468.99h0.117v-0.059h0.175v-0.058h0.233v-0.059H858.2v-0.058A5.632,5.632,0,0,0,859.2,468.58Zm-6.179,12.168a3.078,3.078,0,0,1,.641.234l0.525,0.117v0.058h0.175v0.059h0.175v0.058h0.175v0.059h0.175v0.058h0.174v0.059h0.175v0.058h0.233v0.059h0.175v0.058h0.175v0.059h0.175v0.058h0.233V481.8H856.4v0.058l0.641,0.117v0.059h0.233v0.058l0.467,0.059v0.058l0.524,0.059v0.058l0.583,0.059c0.541,0.167,1.249.187,1.807,0.351h0.466V482.8H861.7v0.059h0.583c0.114,0.01.117,0.058,0.117,0.058h0.991v0.059h0.641a6.913,6.913,0,0,0,1.573-.059H866.6v-0.058l1.283-.059,2.564-.409v-0.059l0.525-.058c0.576-.188,1.255-0.327,1.807-0.527h0.233l2.973-.994v-2.866a9.931,9.931,0,0,0-.233-2.867l-0.117-.643h-0.058v-0.117h-0.059c-0.019-.117-0.038-0.234-0.058-0.351H875.4l-0.117-.351h-0.058v-0.117h-0.058v-0.117h-0.059c-0.019-.078-0.038-0.156-0.058-0.234l-0.116-.059c-0.02-.078-0.039-0.156-0.059-0.234l-0.116-.058v-0.117l-0.175-.117v-0.117l-0.175-.117v-0.117H874.35a1.29,1.29,0,0,1-.35-0.468,1.33,1.33,0,0,1-.525-0.468l-0.175-.059-0.116-.175h-0.117l-0.116-.176h-0.117l-0.058-.117h-0.117l-0.058-.117h-0.116v-0.058h-0.117v-0.059h-0.117v-0.058h-0.116v-0.059h-0.117v-0.058H871.9v-0.059l-0.35-.117v-0.058l-0.35-.059a5.872,5.872,0,0,0-2.157-.409l-0.116.175h-0.117l-0.524.585h-0.117l-0.408.468h-0.058c-0.02.039-.039,0.078-0.058,0.117H867.53l-0.525.585h-0.116l-0.525.585h-0.116l-0.525.585-0.175.059-0.466.526h-0.117l-0.058.117a2.123,2.123,0,0,0-.233.176h-0.35l-2.8-2.75-1.165-1.228h-1.05v0.058H858.9v0.059h-0.291v0.058h-0.233v0.059h-0.233v0.058h-0.233v0.059H857.8v0.058l-0.35.059V470.1l-0.233.059v0.058l-0.525.176c-0.019.039-.038,0.078-0.058,0.117l-0.233.058-0.058.117-0.233.059-0.117.175h-0.117c-0.038.059-.077,0.117-0.116,0.176h-0.117l-0.349.409h-0.117l-0.058.117-0.175.117v0.117l-0.408.351v0.117l-0.175.117c-0.019.059-.039,0.117-0.058,0.176l-0.117.058c-0.019.078-.039,0.156-0.058,0.234l-0.117.059c-0.019.078-.039,0.156-0.058,0.234l-0.117.058v0.117h-0.058v0.117h-0.058v0.176h-0.059v0.117H853.6c-0.019.078-.039,0.156-0.058,0.234h-0.058V474.2h-0.059v0.176h-0.058v0.117h-0.058v0.234H853.25v0.234h-0.059v0.234h-0.058v0.351a6.667,6.667,0,0,0-.117,1.7v3.51Z" transform="translate(-852.031 -454)"/>
</svg>
