<svg xmlns="http://www.w3.org/2000/svg" width="26.031" height="30" viewBox="0 0 26.031 30">
  <defs>
    <style>
      .cls-1 {
        fill: #fff;
        fill-rule: evenodd;
      }
    </style>
  </defs>
  <path id="Фигура_2" data-name="Фигура 2" class="cls-1" d="M864.8,454a2.692,2.692,0,0,1,1.123.312h0.25v0.063l0.375,0.062c0.66,0.265,1.46.486,2.122,0.75l0.624,0.125v0.063l0.374,0.062c0.723,0.29,1.587.527,2.309,0.813l0.437,0.062v0.063l0.375,0.062c0.723,0.289,1.586.528,2.309,0.813l0.437,0.062v0.063h0.187v0.062h0.187V457.5H876.1v0.062h0.188v0.063h0.187v0.062l0.374,0.063v0.062h0.25v0.063l0.687,0.187a0.65,0.65,0,0,0,.124.125v0.125h0.063V465a18.557,18.557,0,0,1-.187,4.375l-0.063.687h-0.062l-0.063.5h-0.062v0.25h-0.063V471h-0.062v0.187h-0.062v0.25h-0.063v0.125H877.22l-0.063.375H877.1c-0.021.1-.042,0.209-0.062,0.313H876.97c-0.021.083-.041,0.167-0.062,0.25h-0.063v0.187h-0.062c-0.042.125-.083,0.25-0.125,0.375H876.6l-0.063.25-0.125.063c-0.041.125-.083,0.25-0.124,0.375l-0.125.062-0.063.25-0.124.063v0.125h-0.063c-0.021.062-.041,0.125-0.062,0.187l-0.125.063v0.125l-0.187.125v0.125l-0.125.062v0.125l-0.125.063-0.125.187H875.1v0.125l-0.312.25v0.125l-0.624.563-0.25.312h-0.125l-0.374.438h-0.125l-0.25.312h-0.125l-0.249.313h-0.125l-0.25.312h-0.124l-0.313.375h-0.124l-0.25.313h-0.125l-0.249.312h-0.125c-0.083.1-.167,0.209-0.25,0.313H870.6l-0.312.375h-0.125l-0.249.312h-0.125c-0.083.1-.167,0.209-0.25,0.313h-0.125l-0.249.312h-0.125c-0.1.125-.208,0.251-0.312,0.375h-0.125l-0.062.125h-0.063c-0.041.063-.083,0.125-0.125,0.188h-0.124l-0.25.312h-0.125l-0.249.313h-0.125l-0.312.375h-0.125l-0.25.312h-0.125l-0.249.313H866.3l-0.25.312h-0.125c-0.1.125-.208,0.251-0.312,0.375h-0.124l-0.063.125a2.206,2.206,0,0,0-.25.188H864.8a3.315,3.315,0,0,0-.312-0.25c-0.021-.042-0.042-0.083-0.062-0.125H864.3c-0.083-.1-0.167-0.208-0.25-0.313h-0.125L863.677,483h-0.125c-0.083-.1-0.167-0.208-0.25-0.313h-0.125l-0.312-.375H862.74L862.491,482h-0.125c-0.021-.042-0.042-0.083-0.062-0.125l-0.188-.125v-0.063h-0.124l-0.25-.312h-0.125L861.305,481H861.18l-0.249-.313h-0.125l-0.25-.312h-0.125l-0.249-.313h-0.125l-0.312-.375H859.62l-0.25-.312h-0.125v-0.063l-0.187-.125c-0.021-.041-0.041-0.083-0.062-0.125h-0.125l-0.25-.312H858.5l-0.313-.375H858.06c-0.084-.1-0.167-0.208-0.25-0.313h-0.125l-0.249-.312h-0.125c-0.084-.1-0.167-0.208-0.25-0.313h-0.125l-0.312-.375H856.5l-0.312-.375h-0.125l-0.249-.312-0.624-.563v-0.125l-0.375-.312-0.062-.188-0.187-.125v-0.125l-0.125-.062V474.75l-0.187-.125V474.5l-0.125-.063-0.063-.187H854v-0.125l-0.125-.063c-0.021-.062-0.042-0.125-0.062-0.187h-0.063V473.75h-0.062v-0.125h-0.063V473.5h-0.062v-0.125l-0.125-.063c-0.021-.083-0.041-0.166-0.062-0.25h-0.063c-0.041-.125-0.083-0.25-0.124-0.375h-0.063V472.5h-0.062L853,472.25h-0.062c-0.021-.1-0.042-0.208-0.062-0.313h-0.063c-0.021-.125-0.042-0.25-0.062-0.375h-0.063v-0.125H852.63v-0.25h-0.063V471h-0.062v-0.188h-0.062v-0.25H852.38c-0.02-.166-0.041-0.333-0.062-0.5h-0.063V469.75h-0.062v-0.375h-0.062v-0.438h-0.063q-0.031-.936-0.062-1.875v-6.937a12.774,12.774,0,0,1,.062-1.938,0.512,0.512,0,0,0,.125-0.125h0.125V458l0.437-.063v-0.062h0.187v-0.063h0.187V457.75h0.187v-0.063H853.5v-0.062h0.187v-0.063l0.374-.062v-0.063l0.437-.062v-0.063l0.375-.062v-0.063h0.187v-0.062h0.187v-0.063h0.187V457h0.188v-0.063h0.249v-0.062h0.187v-0.063h0.188V456.75h0.187v-0.063h0.187v-0.062h0.187v-0.063l0.375-.062v-0.063h0.25v-0.062h0.187v-0.063h0.187V456.25H858v-0.063h0.187v-0.062h0.188v-0.063l0.374-.062v-0.063H859v-0.062l0.374-.063c0.661-.264,1.461-0.486,2.122-0.75l0.624-.125v-0.062H862.3v-0.063l0.374-.062v-0.063h0.187v-0.062h0.188v-0.063h0.187V454.5h0.187v-0.063l0.437-.062v-0.063h0.187V454.25h0.187v-0.063h0.188v-0.062l0.374-.063V454Zm0,1.062v0.063l-0.624.125v0.062h-0.187v0.063H863.8v0.062h-0.187V455.5h-0.187v0.062H863.24v0.063h-0.187v0.062l-0.812.188c-0.6.241-1.335,0.448-1.935,0.687l-0.374.063v0.062h-0.25v0.063H859.5v0.062h-0.187v0.063h-0.187v0.062h-0.188V457h-0.187v0.062l-0.374.063v0.062h-0.25v0.063h-0.187v0.062h-0.187v0.063H857.56v0.062h-0.187V457.5h-0.187v0.062l-0.375.063v0.062h-0.249v0.063h-0.187v0.062h-0.188v0.063H856v0.062l-0.374.063v0.062l-0.437.063v0.062H855v0.063h-0.187v0.062h-0.187v0.063H854.44v0.062h-0.187V458.5h-0.188v0.062l-0.374.063v0.062h-0.25v0.063l-0.374.062v0.063a1.393,1.393,0,0,0-.063.687v8.688q0.126,0.843.25,1.687h0.062q0.063,0.375.125,0.75H853.5v0.188h0.062v0.187h0.062v0.188h0.063v0.187h0.062v0.125h0.063v0.188h0.062v0.125h0.063c0.02,0.1.041,0.208,0.062,0.312h0.062c0.042,0.125.084,0.25,0.125,0.375h0.063c0.041,0.125.083,0.25,0.124,0.375L854.5,473c0.042,0.125.083,0.25,0.125,0.375h0.062l0.063,0.187,0.125,0.063c0.02,0.083.041,0.167,0.062,0.25L855.126,474v0.125l0.125,0.062v0.125l0.125,0.063v0.062L855.5,474.5v0.125l0.25,0.187v0.125l0.561,0.5c0.187,0.209.375,0.417,0.562,0.625H857l0.312,0.375h0.125l0.312,0.375h0.124l0.25,0.313h0.125l0.25,0.312h0.124l0.25,0.313H859l0.125,0.187h0.062l0.062,0.125h0.125l0.312,0.375h0.125c0.083,0.1.167,0.209,0.25,0.313h0.125l0.249,0.312h0.125c0.083,0.1.167,0.209,0.25,0.313h0.125l0.312,0.375h0.124l0.25,0.312h0.125c0.083,0.1.166,0.209,0.25,0.313h0.124l0.25,0.312h0.125L862.74,481h0.125l0.312,0.375H863.3l0.25,0.312h0.125L863.926,482h0.125l0.125,0.187h0.062l0.063,0.125h0.125c0.02,0.042.041,0.084,0.062,0.125a1.327,1.327,0,0,0,.562.375V482.75l0.187-.063,0.25-.312h0.124c0.084-.1.167-0.208,0.25-0.313h0.125l0.312-.375h0.125l0.249-.312H866.8c0.083-.1.167-0.208,0.25-0.313h0.125l0.249-.312h0.125l0.312-.375h0.125l0.25-.313h0.124l0.25-.312h0.125l0.25-.313h0.124l0.312-.375h0.125l0.25-.312h0.125l0.249-.313h0.125l0.125-.187h0.062l0.063-.125h0.125l0.312-.375H871.1l0.249-.313h0.125l0.25-.312h0.124c0.084-.1.167-0.208,0.25-0.313h0.125l0.25-.312H872.6l0.312-.375h0.125l0.375-.438,0.811-.75v-0.125l0.25-.187V474.5l0.187-.125V474.25l0.187-.125,0.063-.188,0.124-.062,0.063-.25,0.125-.063c0.02-.062.041-0.125,0.062-0.187h0.062c0.042-.125.084-0.25,0.125-0.375l0.125-.063,0.063-.25h0.062v-0.125h0.062c0.042-.125.084-0.25,0.125-0.375h0.063V472h0.062c0.021-.083.042-0.167,0.062-0.25h0.063c0.021-.125.041-0.25,0.062-0.375h0.063V471.25h0.062c0.021-.125.042-0.25,0.062-0.375h0.063v-0.25h0.062v-0.188H876.6v-0.25h0.062v-0.25h0.063q0.03-.312.062-0.625h0.062l0.063-1.125a10.535,10.535,0,0,0,.062-2.375v-6.937a0.107,0.107,0,0,1-.062-0.063,1.718,1.718,0,0,1-.562-0.187H876.1v-0.063h-0.187V458.5h-0.187v-0.063h-0.187v-0.062h-0.188v-0.063H875.16V458.25h-0.187v-0.063h-0.187v-0.062h-0.25v-0.063h-0.187V458h-0.187v-0.063h-0.188v-0.062h-0.187v-0.063H873.6V457.75l-0.374-.063v-0.062h-0.25v-0.063h-0.187V457.5H872.6v-0.063h-0.187v-0.062h-0.187v-0.063H872.04V457.25l-0.375-.063v-0.062h-0.249v-0.063h-0.188V457h-0.187v-0.063h-0.187v-0.062h-0.187v-0.063h-0.188V456.75l-0.374-.063v-0.062h-0.25v-0.063h-0.187V456.5h-0.187v-0.063h-0.187v-0.062h-0.188v-0.063h-0.187V456.25l-0.374-.063v-0.062l-0.812-.188v-0.062h-0.187v-0.063h-0.187V455.75h-0.187v-0.063h-0.188v-0.062l-0.811-.188A3.607,3.607,0,0,0,864.8,455.062Zm-0.062,1.063a2.065,2.065,0,0,1,.873.125v0.062h0.25v0.063h0.187v0.062h0.187V456.5h0.188v0.062h0.187v0.063H866.8v0.062l0.375,0.063v0.062l0.624,0.125c1.612,0.646,3.44,1.044,5.055,1.688l0.811,0.187v0.063h0.188v0.062h0.187V459h0.187v0.062h0.187v0.063H874.6v0.062l0.374,0.063v0.062h0.25v0.063a2.7,2.7,0,0,1,.5.125v0.062l0.187,0.125v0.125h0.063v5.813a13.905,13.905,0,0,1-.562,5.062c-0.042.188-.083,0.375-0.125,0.563h-0.062l-0.063.25H875.1v0.187h-0.063c-0.041.125-.083,0.251-0.124,0.375h-0.063v0.125h-0.062c-0.042.125-.083,0.25-0.125,0.375l-0.125.063c-0.041.125-.083,0.25-0.125,0.375h-0.062l-0.063.187-0.124.063v0.125l-0.188.125v0.125l-0.124.062v0.125l-0.188.125c-0.02.063-.041,0.125-0.062,0.188l-0.437.375v0.125l-0.374.312-0.063.125H872.6l-0.436.5H872.04l-0.25.313h-0.125l-0.249.312h-0.125l-0.312.375h-0.125c-0.083.1-.167,0.209-0.25,0.313h-0.125l-0.249.312h-0.125l-0.125.188h-0.062l-0.063.125H869.73l-0.312.375h-0.124l-0.188.25h-0.124l-0.312.375h-0.125l-0.25.312H868.17l-0.249.313H867.8l-0.312.375h-0.125l-0.25.312h-0.125l-0.249.313H866.61l-0.25.312h-0.125l-0.312.375H865.8l-0.25.313a1.582,1.582,0,0,0-.375.25,0.785,0.785,0,0,1-.624-0.188l-0.062-.125h-0.125c-0.021-.041-0.041-0.083-0.062-0.125h-0.063l-0.124-.187-0.188-.063c-0.062-.083-0.125-0.166-0.187-0.25h-0.125l-0.125-.187h-0.062c-0.021-.042-0.042-0.083-0.062-0.125H863.24l-0.312-.375H862.8c-0.083-.1-0.167-0.208-0.25-0.313h-0.125l-0.249-.312h-0.125l-0.25-.313h-0.125l-0.249-.312h-0.125l-0.312-.375h-0.125L860.806,478h-0.063c-0.041-.063-0.083-0.125-0.125-0.188h-0.124l-0.25-.312h-0.125l-0.249-.313h-0.125c-0.1-.124-0.208-0.25-0.312-0.375h-0.125l-0.25-.312h-0.125l-0.249-.313h-0.125l-0.25-.312h-0.125l-0.249-.313H857.81q-0.187-.218-0.374-0.437h-0.125l-0.375-.438-0.125-.062V474.5l-0.436-.375V474l-0.25-.188v-0.125L856,473.625V473.5l-0.187-.125V473.25l-0.125-.063v-0.125L855.563,473c-0.021-.083-0.041-0.167-0.062-0.25l-0.125-.063v-0.125h-0.062v-0.125h-0.063v-0.125h-0.062v-0.125h-0.063v-0.125h-0.062v-0.125H855c-0.041-.125-0.083-0.25-0.124-0.375h-0.063l-0.624-2v-0.375h-0.062v-0.375h-0.063v-0.625a7.086,7.086,0,0,1-.062-1.562v-2.938a27.1,27.1,0,0,1,.062-4l0.188-.125V459.5h0.124v-0.063h0.25v-0.062h0.187v-0.063H855V459.25h0.188v-0.063h0.187v-0.062h0.187v-0.063l0.375-.062v-0.063l0.437-.062c1.733-.69,3.7-1.12,5.429-1.813l0.624-.125v-0.062h0.188v-0.063H862.8V456.75h0.187v-0.063h0.187v-0.062h0.188v-0.063l0.374-.062v-0.063h0.25v-0.062h0.187v-0.063h0.187V456.25l0.375-.063v-0.062ZM855,460.312v5.25a12.3,12.3,0,0,0,.063,2.625v0.563h0.062v0.375h0.063v0.312h0.062v0.25h0.063v0.25h0.062c0.021,0.146.042,0.292,0.062,0.438H855.5a2.616,2.616,0,0,1,1.81-2.313l1.31-.062a5.342,5.342,0,0,1,2.746.375l0.063,0.125h0.125l0.312,0.375,0.125,0.062v0.125l0.124,0.063c0.042,0.125.084,0.25,0.125,0.375H862.3v0.125h0.062v0.187h0.062a6.99,6.99,0,0,0,.125,1.188c0.394-.61,1.9-0.5,2.934-0.5l1.185,0.062a5.639,5.639,0,0,1,.812.438,2.633,2.633,0,0,1,2.122-3h1.622a3.838,3.838,0,0,1,2.122.375l0.063,0.125h0.125l0.249,0.312,0.125,0.063V469l0.187,0.125c0.042,0.125.083,0.25,0.125,0.375h0.062v0.125h0.063v0.25h0.062a1.25,1.25,0,0,0,.125.5,3.527,3.527,0,0,1,.25-0.938v-0.312h0.062V468.75h0.063v-0.563h0.062v-7.875a2.475,2.475,0,0,1-.5-0.187h-0.25v-0.063h-0.187V460H873.85v-0.063h-0.188v-0.062h-0.187v-0.063h-0.187V459.75l-0.375-.063v-0.062l-0.436-.063c-1.29-.513-2.767-0.862-4.057-1.375l-0.437-.062v-0.063L867.609,458v-0.063h-0.188v-0.062h-0.187v-0.063h-0.187V457.75H866.86v-0.063h-0.188v-0.062l-0.811-.188v-0.062h-0.187v-0.063l-0.562-.125v-0.062l-0.811.187v0.063l-0.375.062V457.5l-0.811.187v0.063h-0.187v0.062H862.74v0.063h-0.187v0.062h-0.187V458l-0.811.187v0.063l-0.375.062c-0.723.289-1.587,0.526-2.309,0.813l-0.437.062v0.063h-0.187v0.062H858.06v0.063h-0.188v0.062h-0.187V459.5l-0.374.062v0.063h-0.25v0.062h-0.187v0.063h-0.187v0.062H856.5v0.063h-0.187v0.062Zm3.62,0.688a2.44,2.44,0,0,1,2.372,1.062l0.125,0.063c0.041,0.125.083,0.25,0.125,0.375h0.062v0.125h0.062v0.187h0.063q0.032,0.625.062,1.25a3.731,3.731,0,0,1-.125,1.313h-0.062V465.5h-0.062c-0.042.125-.084,0.25-0.125,0.375l-0.125.062v0.125l-0.187.125c-0.083.1-.167,0.209-0.25,0.313h-0.125l-0.062.125h-0.125v0.062l-0.374.125v0.063h-0.188v0.062H859.37V467a2.988,2.988,0,0,1-1.248-.125v-0.063H858V466.75l-0.374-.125-0.063-.125h-0.124l-0.188-.25L857,466.062v-0.125l-0.125-.062-0.063-.25h-0.062c-0.021-.083-0.042-0.167-0.062-0.25h-0.063a4.649,4.649,0,0,1-.125-1.563l0.063-1h0.062v-0.187h0.063V462.5h0.062c0.042-.125.083-0.25,0.125-0.375l0.125-.063v-0.125l0.374-.312,0.063-.125h0.124l0.063-.125h0.125v-0.063l0.374-.125v-0.062h0.187v-0.063h0.312V461Zm11.983,0a2.44,2.44,0,0,1,2.372,1.062l0.125,0.063c0.041,0.125.083,0.25,0.125,0.375h0.062v0.125h0.062v0.187h0.063q0.031,0.625.062,1.25a3.731,3.731,0,0,1-.125,1.313h-0.062V465.5h-0.062c-0.042.125-.084,0.25-0.125,0.375l-0.125.062v0.125l-0.187.125-0.25.313h-0.125l-0.062.125h-0.125v0.062l-0.375.125v0.063h-0.187v0.062h-0.312V467a2.988,2.988,0,0,1-1.248-.125v-0.063H869.98V466.75l-0.374-.125-0.063-.125h-0.125c-0.062-.083-0.124-0.167-0.187-0.25l-0.249-.188v-0.125l-0.125-.062-0.063-.25h-0.062c-0.021-.083-0.042-0.167-0.062-0.25h-0.063a4.649,4.649,0,0,1-.125-1.563l0.063-1h0.062v-0.187h0.063V462.5h0.062c0.042-.125.083-0.25,0.125-0.375l0.125-.063v-0.125l0.374-.312c0.021-.042.042-0.083,0.062-0.125h0.125l0.063-.125h0.124v-0.063l0.375-.125v-0.062h0.187v-0.063H870.6V461Zm-11.92,1v0.062l-0.375.063-0.062.125h-0.125c-0.021.042-.042,0.083-0.062,0.125l-0.312.25v0.125l-0.125.062-0.063.375H857.5v0.75c0,1.094.079,1.374,0.749,1.813l0.062,0.125H858.5v0.062L859.308,466v-0.063l0.374-.062,0.063-.125h0.125c0.02-.042.041-0.083,0.062-0.125l0.312-.25V465.25l0.125-.063c0.021-.125.041-0.25,0.062-0.375h0.063v-1L860.431,463h-0.062v-0.188l-0.125-.062A1.47,1.47,0,0,0,858.684,462Zm11.983,0v0.062l-0.375.063-0.062.125h-0.125c-0.021.042-.042,0.083-0.062,0.125l-0.313.25v0.125l-0.124.062-0.063.375h-0.062v0.75c0,1.094.079,1.374,0.749,1.813l0.062,0.125h0.187v0.062L871.291,466v-0.063l0.374-.062,0.063-.125h0.124l0.063-.125,0.312-.25V465.25l0.125-.063c0.021-.125.041-0.25,0.062-0.375h0.063v-1L872.414,463h-0.062v-0.188l-0.125-.062A1.47,1.47,0,0,0,870.667,462Zm-6.054,1.5a2.439,2.439,0,0,1,2.371,1.062l0.125,0.063c0.042,0.125.083,0.25,0.125,0.375H867.3v0.125h0.063v0.187h0.062l0.063,1.25a3.731,3.731,0,0,1-.125,1.313H867.3V468h-0.062c-0.042.125-.083,0.25-0.125,0.375l-0.125.062v0.125c-0.062.042-.124,0.084-0.187,0.125l-0.249.313h-0.125l-0.063.125h-0.125v0.062l-0.374.125v0.063h-0.187v0.062h-0.312V469.5a2.987,2.987,0,0,1-1.248-.125v-0.063h-0.125V469.25l-0.375-.125L863.552,469h-0.125l-0.187-.25-0.25-.188v-0.125l-0.125-.062c-0.021-.083-0.041-0.167-0.062-0.25H862.74c-0.02-.083-0.041-0.167-0.062-0.25h-0.062a4.623,4.623,0,0,1-.125-1.563c0.021-.333.041-0.666,0.062-1h0.063v-0.187h0.062V465h0.062c0.042-.125.084-0.25,0.125-0.375l0.125-.063v-0.125l0.375-.312c0.02-.042.041-0.083,0.062-0.125h0.125l0.062-.125h0.125v-0.063l0.375-.125v-0.062H864.3v-0.063h0.312V463.5Zm0.062,1v0.062l-0.374.063-0.063.125h-0.124l-0.063.125-0.312.25v0.125l-0.125.062c-0.021.125-.041,0.25-0.062,0.375h-0.063v0.75c0,1.094.079,1.374,0.749,1.813l0.063,0.125h0.187v0.062L865.3,468.5v-0.063l0.375-.062,0.062-.125h0.125c0.021-.042.042-0.083,0.062-0.125l0.312-.25V467.75l0.125-.063,0.063-.375h0.062v-1c-0.021-.27-0.041-0.541-0.062-0.812H866.36v-0.188l-0.125-.062A1.469,1.469,0,0,0,864.675,464.5Zm-6.99,4.5v0.062l-0.374.063-0.063.125h-0.125c-0.02.042-.041,0.083-0.062,0.125l-0.312.25v0.125l-0.125.062a6.126,6.126,0,0,0-.125,2.063v0.687h0.063v0.125l0.125,0.063v0.125L856.874,473v0.125l0.187,0.125v0.125l0.312,0.25v0.125l0.562,0.5,0.187,0.25h0.125l0.312,0.375h0.125l0.249,0.312h0.125c0.083,0.1.167,0.209,0.25,0.313h0.125l0.312,0.375h0.125l0.249,0.312h0.125c0.083,0.1.166,0.209,0.25,0.313h0.124l0.188,0.25h0.062l0.063,0.125h0.124L861.118,477a1.4,1.4,0,0,0,.374.25v-7.063H861.43l-0.063-.375-0.124-.062v-0.125l-0.125-.063-0.25-.312h-0.125c-0.02-.042-0.041-0.083-0.062-0.125A11.3,11.3,0,0,0,857.685,469Zm11.983,0v0.062l-0.374.063-0.063.125h-0.125c-0.02.042-.041,0.083-0.062,0.125l-0.312.25v0.125l-0.125.062a6.879,6.879,0,0,0-.125,2.25v5.188h0.063a3.315,3.315,0,0,1,.312-0.25l0.062-.125h0.125l0.25-.313h0.124c0.1-.124.208-0.25,0.312-0.375h0.125l0.25-.312h0.125l0.249-.313H870.6l0.25-.312h0.125l0.312-.375h0.125l0.312-.375h0.124l0.5-.563,0.249-.187v-0.125l0.312-.25,0.063-.188,0.125-.062V473l0.187-.125V472.75l0.125-.063a3.751,3.751,0,0,0,.062-1.375,3.957,3.957,0,0,0-.125-1.5l-0.124-.062v-0.125l-0.125-.063-0.25-.312h-0.125l-0.062-.125-0.375-.063V469h-2.621Zm-7.177,9.187a0.779,0.779,0,0,1,.374.313h0.125v0.062l0.187,0.125,0.063,0.125h0.125l0.249,0.313h0.125l0.312,0.375h0.125l0.25,0.312h0.124l0.063,0.125a0.749,0.749,0,0,0,.5.25l0.312-.375h0.125l0.25-.312h0.124c0.084-.1.167-0.208,0.25-0.313H866.3l0.25-.312h0.124l0.063-.125,0.249-.188V478.5h0.125a0.793,0.793,0,0,1,.375-0.313v-4.062a5.118,5.118,0,0,0-.125-1.813l-0.125-.062v-0.125L867.047,472c-0.063-.083-0.125-0.167-0.187-0.25h-0.125l-0.063-.125a4.631,4.631,0,0,0-1.685-.125h-1.31v0.062l-0.375.063-0.062.125h-0.125c-0.021.042-.042,0.083-0.062,0.125l-0.313.25v0.125l-0.124.062a5.118,5.118,0,0,0-.125,1.813v4.062Z" transform="translate(-852 -454)"/>
</svg>
