<svg xmlns="http://www.w3.org/2000/svg" width="30" height="29" viewBox="0 0 30 29">
  <defs>
    <style>
      .cls-1 {
        fill: #fff;
        fill-rule: evenodd;
      }
    </style>
  </defs>
  <path id="Фигура_3" data-name="Фигура 3" class="cls-1" d="M872.959,461.847c0.019,0.1.039,0.2,0.058,0.3h0.059a3.324,3.324,0,0,1-.059,1.126v0.769h-0.058v0.415H872.9v0.415h-0.059v0.3h-0.058v0.3h-0.059V465.7c-0.55,1.557-1.075,2.707-2.633,3.258a5.126,5.126,0,0,1-1.756,0V468.9h-0.293a1.605,1.605,0,0,0-.585-0.178l-0.117.355h-0.058v0.119h-0.059c-0.019.1-.039,0.2-0.059,0.3h-0.058c-0.02.118-.039,0.237-0.059,0.355h-0.058v0.119H866.93l-0.117.592h-0.058v0.178H866.7v0.178h-0.058l-0.117.77a14.791,14.791,0,0,0-.41,2.724H869.1a5.964,5.964,0,0,1,1.463.06,2.259,2.259,0,0,1,1.288,1.006,0.1,0.1,0,0,0,.058-0.059c0.176-.117.026-0.054,0.117-0.177l0.351-.3v-0.118l0.41-.355v-0.119l0.351-.3V473.93l0.41-.355v-0.118l0.351-.3v-0.118l0.41-.356v-0.118l0.409-.355v-0.119l0.351-.3V471.68l0.41-.356v-0.118l0.351-.3v-0.119l0.586-.533,0.175-.237H876.7c0.02-.039.039-0.079,0.059-0.118h0.117c0.019-.04.039-0.079,0.058-0.119l0.234-.059,0.059-.119,0.293-.059v-0.059h0.117v-0.059h0.175v-0.06h0.176a2.873,2.873,0,0,1,1.814-.118,0.8,0.8,0,0,0,.117.118v0.119h0.059a0.8,0.8,0,0,1-.176.592c-0.019.1-.039,0.2-0.058,0.3h-0.059c-0.019.079-.039,0.158-0.058,0.237h-0.059v0.119h-0.059v0.178h-0.058c-0.02.079-.039,0.158-0.059,0.236h-0.058v0.178h-0.059c-0.019.079-.039,0.158-0.058,0.237h-0.059v0.119H879.1v0.177h-0.059v0.119h-0.058v0.118h-0.059v0.119H878.87v0.177h-0.059c-0.019.079-.039,0.158-0.058,0.237h-0.059v0.178h-0.058c-0.02.079-.039,0.158-0.059,0.237h-0.058v0.118H878.46v0.178H878.4v0.119h-0.058v0.118h-0.059v0.118h-0.058v0.178h-0.059c-0.019.079-.039,0.158-0.058,0.237H878.05v0.178h-0.058c-0.02.079-.039,0.158-0.059,0.237h-0.058v0.118h-0.059v0.178h-0.058c-0.02.079-.039,0.158-0.059,0.237h-0.058v0.178h-0.059l-0.058.236h-0.059v0.119h-0.058v0.178h-0.059c-0.02.079-.039,0.158-0.059,0.237h-0.058v0.118h-0.059V476.3h-0.058c-0.02.079-.039,0.158-0.059,0.237H877v0.177h-0.059c-0.019.079-.039,0.158-0.058,0.237h-0.059v0.119h-0.058v0.177H876.7c-0.019.079-.039,0.158-0.058,0.237h-0.059V477.6h-0.058v0.178H876.47l-0.117.355h-0.059v0.118h-0.058v0.119h-0.058v0.118h-0.059v0.119H876.06v0.118H876v0.119h-0.059c-0.019.059-.039,0.118-0.058,0.177l-0.117.06V479.2l-0.117.059v0.119l-0.234.178v0.118l-0.41.355-0.41.474H874.48l-0.117.178-0.175.059-0.059.119h-0.117c-0.019.039-.039,0.079-0.059,0.118l-0.234.059c-0.019.04-.039,0.079-0.058,0.119l-0.234.059v0.059H873.31v0.059l-0.351.119v0.059l-0.352.059v0.06h-0.175v0.059h-0.176v0.059h-0.175v0.059h-0.234v0.06l-0.469.059v0.059h-0.117v0.059h-0.175v0.06h-0.117v0.059h-0.176v0.059h-0.117v0.059H870.5v0.059h-0.117v0.06h-0.175v0.059l-0.293.059v0.059H869.8v0.06h-0.175V482.7l-0.293.059v0.059h-0.117v0.06h-0.176v0.059H868.92v0.059h-0.175v0.059h-0.117v0.06h-0.176v0.059h-0.117v0.059h-0.176v0.059h-0.117v0.059h-0.175v0.06H867.75v0.059h-0.176v0.059H867.4v0.059h-0.176v0.06h-0.176V483.7h-0.234v0.059h-0.234v0.059h-0.292v0.059h-0.41v0.06l-1.229.059v-0.059l-1.112-.06v-0.059h-0.293v-0.059h-0.234V483.7h-0.234v-0.059h-0.234v-0.06h-0.117v-0.059l-0.351-.059v-0.059h-0.117v-0.06H861.78v-0.059l-0.234-.059v-0.059H861.37v-0.059l-0.234-.06v-0.059h-0.175v-0.059l-0.234-.059v-0.06h-0.176v-0.059h-0.117V482.7l-0.234-.059v-0.06h-0.176v-0.059l-0.234-.059V482.4h-0.175v-0.06l-0.234-.059v-0.059h-0.176v-0.059h-0.117v-0.059l-0.234-.06v-0.059h-0.176v-0.059l-0.234-.059v-0.06h-0.175v-0.059l-0.235-.059v-0.059h-0.175v-0.06h-0.117v-0.059l-0.234-.059v-0.059h-0.176v-0.06h-0.117v-0.059h-0.176v-0.059h-0.117v-0.059h-0.175V481.1H856.63v-0.06l-0.351-.059V480.92h-0.117v-0.059h-0.176V480.8H855.81v-0.059h-0.175v-0.059h-0.176v-0.059h-0.234v-0.06H855.05v-0.059h-0.176v-0.059H854.64v-0.059h-0.234v-0.059h-0.293v-0.06h-0.234v-0.059l-0.527-.059v-0.059h-0.409v-0.06h-0.41v-0.059h-0.468v-0.059h-0.527v-0.059h-0.585v-0.06h-0.527v-0.059c-0.1-.038-0.153-0.025-0.234-0.059a0.638,0.638,0,0,0-.117-0.118v-0.119h-0.059v-3.85a4.38,4.38,0,0,1,.059-1.3,0.631,0.631,0,0,1,.175-0.3h0.059v-0.119l0.234-.178,0.468-.533,0.176-.059,0.234-.3h0.117l0.117-.178h0.117l0.117-.177h0.117l0.059-.119,0.234-.059c0.019-.04.039-0.079,0.058-0.119l0.352-.118v-0.059h0.117c0.019-.04.039-0.079,0.058-0.119l0.293-.059v-0.059h0.117V471.68h0.175v-0.06h0.117v-0.059l0.352-.059v-0.059h0.234a5.65,5.65,0,0,1,3.394.059l0.468,0.059v0.059h0.176v0.06h0.176v0.059h0.175V471.8H858.8v0.059h0.117v0.059l0.527,0.119v0.059l0.293,0.059v0.06h0.117v0.059h0.175v0.059l0.352,0.119v0.059h0.117v0.059h0.117v0.059l0.526,0.178c1.23,0.664,2.182,1.488,3.98,1.6,0.02-.316.039-0.632,0.059-0.947h0.058v-0.771h0.059V471.8a10.034,10.034,0,0,0-.059-2.251v-0.829h-0.058v-0.592h-0.059v-0.534h-0.058v-0.355H865v-0.415H864.94v-0.355h-0.058v-0.3h-0.059c-0.019-.178-0.039-0.355-0.058-0.533h-0.059V465.4h-0.058v-0.237h-0.059v-0.237h-0.058v-0.178h-0.059v-0.237h-0.058v-0.118h-0.059v-0.178H864.3v-0.178h-0.059v-0.177H864.18v-0.178h-0.059v-0.178h-0.058c-0.02-.079-0.039-0.158-0.059-0.236h-0.058c-0.02-.1-0.039-0.2-0.059-0.3h-0.058v-0.118H863.77v-0.119h-0.059v-0.118h-0.058V462.5h-0.059c-0.019-.059-0.039-0.118-0.058-0.177-0.213.04-.5,0.12-0.7,0.177h-0.469v0.06a6.379,6.379,0,0,1-1.58-.06v-0.059h-0.292V462.38l-0.41-.059v-0.059h-0.117V462.2H859.79v-0.059l-0.234-.059v-0.059l-0.234-.06-0.059-.118h-0.117l-0.117-.178a4.861,4.861,0,0,1-1.7-2.547q-0.145-.77-0.293-1.54v-2.251a2.3,2.3,0,0,1,.41-0.3,3.94,3.94,0,0,1,1.288.059H859.5v0.06h0.468v0.059h0.468v0.059h0.293v0.059h0.292v0.06h0.234v0.059h0.234c1.621,0.589,2.76,1.181,3.336,2.843v0.3a3.892,3.892,0,0,1-.234,2.31v0.178h-0.058v0.178h-0.059c-0.058.158-.117,0.315-0.175,0.473h0.058a2.978,2.978,0,0,0,.41.83v0.118h0.058V462.8h0.059v0.177h0.058v0.119H865c0.02,0.1.039,0.2,0.059,0.3h0.058v0.178h0.059v0.118h0.058c0.02,0.138.039,0.277,0.059,0.415h0.058v0.177h0.059v0.178h0.058v0.178h0.059v0.237h0.058l0.117,0.711h0.059v0.3h0.058v0.237h0.059v0.355h0.058v0.355h0.059v0.356h0.058v0.474h0.059v0.533h0.059a1.742,1.742,0,0,0,.117.829V468.9h0.058c0.02-.1.039-0.2,0.059-0.3h0.058v-0.118h0.059v-0.119h0.058a0.92,0.92,0,0,0-.175-0.473c-0.02-.158-0.039-0.316-0.059-0.474h-0.058v-0.356a4.013,4.013,0,0,1-.117-1.362h0.058v-0.474a6.057,6.057,0,0,1,.761-1.777l0.351-.3,0.234-.3h0.117l0.117-.178h0.117c0.02-.039.039-0.079,0.059-0.118l0.351-.119,0.058-.118h0.118v-0.059l0.351-.06v-0.059h0.117v-0.059l0.409-.059v-0.06h0.176v-0.059H869.8v-0.059l1.112-.119h0.527v-0.059a2.389,2.389,0,0,1,.819.059h0.527c0.019,0.04.039,0.079,0.058,0.119h0.118Zm-14.983-5.805c-0.034,2.413.527,4.255,1.99,5.153a3.045,3.045,0,0,0,.468.119v0.059h0.176v0.059h0.175v0.06a5.072,5.072,0,0,0,2.166-.06v-0.059h-0.059a2.11,2.11,0,0,0-.644-0.77l-0.468-.533h-0.117l-0.176-.237H861.37l-0.058-.118-0.176-.06V459.6h-0.117l-0.058-.118h-0.117v-0.06h-0.117v-0.059H860.61V459.3h-0.117a1.633,1.633,0,0,0-.41-0.237,0.791,0.791,0,0,1,0-.711,0.756,0.756,0,0,1,.585-0.118v0.059h0.117v0.059H860.9v0.059h0.117v0.06l0.234,0.059v0.059l0.234,0.059,0.059,0.119h0.117v0.059l0.176,0.059c0.019,0.04.039,0.079,0.058,0.119h0.117l0.117,0.177h0.117l0.234,0.3H862.6l0.41,0.473,0.176,0.119v0.118l0.117,0.06,0.292,0.414a0.1,0.1,0,0,0,.059-0.059h0.058c0.02-.118.039-0.237,0.059-0.355h0.059v-0.3a2.478,2.478,0,0,0,.117-1.066h-0.059V458.53h-0.058v-0.178H863.77c-0.02-.079-0.039-0.158-0.059-0.237h-0.058c-0.02-.079-0.039-0.158-0.059-0.237l-0.117-.059V457.7l-0.117-.06-0.292-.355h-0.117l-0.117-.178-0.235-.059A8.6,8.6,0,0,0,857.976,456.042Zm12.407,9.122h-0.117l-0.117.178h-0.117l-0.175.237H869.74l-1.171,1.243v0.119l-0.117.059v0.119l-0.175.118v0.119c-0.04.019-.079,0.039-0.118,0.059a1.182,1.182,0,0,0-.175.414,3.72,3.72,0,0,0,1.522.178H869.8v-0.059h0.176v-0.059h0.175v-0.06h0.117V467.77h0.117l0.059-.118h0.117c0.019-.04.039-0.079,0.059-0.119l0.351-.3v-0.118l0.117-.06v-0.118l0.117-.059,0.117-.356a8.39,8.39,0,0,0,.761-3.85c-2.211-.028-4.024.493-4.682,2.014v0.178H867.34v0.177h-0.058v0.237h-0.059v0.3h-0.059q0.03,0.739.059,1.48h0.059v-0.118a1.2,1.2,0,0,0,.292-0.415l0.117-.059v-0.118l0.176-.119v-0.118l0.292-.237v-0.119l0.586-.533,0.292-.355h0.117l0.176-.237h0.117c0.019-.04.039-0.079,0.059-0.119a1.092,1.092,0,0,1,.643-0.177c0.067,0.067,0,.023.117,0.059a0.857,0.857,0,0,1,.176.651C870.375,465.113,870.419,465.046,870.383,465.164Zm-19.372,13.683,1.405,0.118v0.059h0.468v0.06h0.41v0.059h0.351V479.2h0.234v0.059l0.527,0.06v0.059l0.527,0.059,2.282,0.77v0.059h0.117v0.06h0.176v0.059h0.117v0.059H857.8v0.059l0.234,0.059v0.06h0.117v0.059h0.176v0.059l0.234,0.059v0.06h0.176v0.059l0.234,0.059v0.059h0.175v0.06l0.235,0.059v0.059H859.5v0.059h0.175v0.059l0.234,0.06v0.059h0.176v0.059l0.234,0.059v0.06h0.176v0.059l0.234,0.059v0.059h0.117v0.06h0.175v0.059l0.234,0.059v0.059h0.176v0.06l0.234,0.059v0.059l0.527,0.178v0.059l0.351,0.059v0.059h0.117v0.06l0.41,0.059v0.059h0.175v0.059h0.234v0.06l0.82,0.059a3.6,3.6,0,0,0,1.638-.059h0.352v-0.06h0.234v-0.059h0.234V482.7h0.175v-0.059h0.176v-0.06h0.176v-0.059h0.175V482.46h0.117V482.4h0.176v-0.06h0.117v-0.059h0.175v-0.059h0.117v-0.059h0.176v-0.059h0.117v-0.06h0.176v-0.059h0.117v-0.059h0.175v-0.059h0.117v-0.06h0.176v-0.059h0.117V481.69h0.176v-0.059h0.117v-0.06H869.8v-0.059h0.117v-0.059h0.176v-0.059h0.117v-0.06h0.175v-0.059l0.293-.059v-0.059h0.117V481.1h0.176v-0.06h0.117v-0.059l1.112-.237,1.229-.592c0.019-.04.039-0.079,0.058-0.119H873.6l0.117-.177h0.117l0.176-.237h0.117l0.059-.119,0.351-.3v-0.118l0.292-.237v-0.119l0.117-.059c0.02-.059.039-0.118,0.059-0.178h0.058v-0.118l0.118-.059,0.117-.356h0.058V477.84h0.059l0.117-.356h0.058v-0.177h0.059v-0.119h0.058c0.02-.079.039-0.158,0.059-0.237h0.058v-0.177h0.059c0.019-.079.039-0.158,0.058-0.237H876v-0.178h0.058V476.24h0.059v-0.118h0.059V476h0.058v-0.178h0.058v-0.119h0.059c0.02-.079.039-0.158,0.059-0.237h0.058v-0.177h0.059c0.019-.079.039-0.158,0.058-0.237h0.059v-0.178H876.7c0.02-.079.039-0.158,0.059-0.237h0.058v-0.118h0.059v-0.178h0.058c0.02-.079.039-0.158,0.059-0.237h0.058V473.99h0.059v-0.178h0.058c0.02-.079.039-0.158,0.059-0.237h0.058V473.4h0.059c0.019-.079.039-0.158,0.059-0.237h0.058v-0.118h0.059v-0.178h0.058v-0.118h0.059v-0.119H877.7v-0.118h0.059v-0.178h0.058c0.02-.079.039-0.158,0.059-0.237h0.058v-0.178h0.059l0.058-.236h0.059v-0.119h0.058v-0.178h0.059v-0.118h0.058q0.206-.532.41-1.066a1.98,1.98,0,0,0-.878.3H877.7v0.059h-0.117v0.059h-0.117c-0.019.04-.039,0.079-0.058,0.119h-0.118l-0.117.178h-0.117l-0.175.236-0.117.06v0.118l-0.351.3v0.119l-0.41.355v0.119l-0.351.3v0.118l-0.41.356V473.1l-0.41.356v0.118l-0.351.3v0.119l-0.409.355v0.119h-0.059l-0.117.177-0.176.119v0.118l-0.409.356v0.118l-0.351.3v0.119l-0.41.355v0.118l-0.351.3c-0.02.237-.039,0.474-0.059,0.71h-0.058c-0.02.119-.039,0.237-0.059,0.356l-0.117.059c-0.019.079-.039,0.158-0.058,0.237l-0.117.059v0.119l-0.118.059-0.234.3h-0.117c-0.019.04-.039,0.079-0.058,0.119l-0.234.059c-0.02.039-.039,0.079-0.059,0.118h-0.175a5.908,5.908,0,0,1-2.049.178h-3.57a12,12,0,0,0-3.1.178h-0.292v0.059l-0.586.118v0.06c-0.079.022,0-.019-0.058-0.06a3.494,3.494,0,0,1-.351-0.888h0.117v-0.059l0.585-.119v-0.059h0.293v-0.059h0.292v-0.06h0.41v-0.059h0.7A8.249,8.249,0,0,1,865,477.9h3.8c1.278,0,1.841.147,2.283-.77h0.058c0.02-.257.039-0.513,0.059-0.77a1.528,1.528,0,0,0-.937-0.948h-1.638a19.638,19.638,0,0,1-4.565-.177l-0.527-.06-1.288-.533-0.058-.118-0.351-.119c-0.02-.039-0.039-0.079-0.059-0.118h-0.117v-0.059h-0.117l-0.059-.119-0.351-.118c-0.019-.04-0.039-0.079-0.058-0.119h-0.117v-0.059h-0.117v-0.059h-0.176v-0.06l-0.234-.059v-0.059h-0.117v-0.059H860.2v-0.059h-0.117V473.4l-0.351-.118V473.22h-0.176v-0.06h-0.117V473.1l-0.293-.059v-0.059l-0.351-.06v-0.059h-0.117v-0.059l-0.585-.119v-0.059h-0.176v-0.059h-0.175v-0.059h-0.234a5.057,5.057,0,0,0-3.044-.119H854.23v0.06h-0.175v0.059l-0.293.059v0.059h-0.117v0.059h-0.176v0.06l-0.234.059v0.059l-0.234.059c-0.019.04-.039,0.079-0.058,0.119h-0.117l-0.059.118H852.65c-0.019.04-.039,0.079-0.058,0.119l-0.235.059-0.117.178h-0.117l-0.175.237h-0.117l-0.469.533-0.351.3v4.265Z" transform="translate(-850 -455)"/>
</svg>
