<svg xmlns="http://www.w3.org/2000/svg" width="21.031" height="30.062" viewBox="0 0 21.031 30.062">
  <defs>
    <style>
      .cls-1 {
        fill: #fff;
        fill-rule: evenodd;
      }
    </style>
  </defs>
  <path id="Фигура_4" data-name="Фигура 4" class="cls-1" d="M874.881,483.843a25.1,25.1,0,0,1-4.458.117h-3.109a5.935,5.935,0,0,1-1.583-.117h-0.294a8.1,8.1,0,0,1-2.4-1.169l-0.411-.467-0.352-.293V481.8l-0.176-.117v-0.117l-0.176-.117c-0.019-.078-0.039-0.156-0.058-0.234l-0.118-.058c-0.019-.078-0.039-0.156-0.058-0.234h-0.059V480.8h-0.059l-0.117-.351H861.39v-0.175h-0.058V480.1h-0.059v-0.176h-0.059v-0.233h-0.058V479.46H861.1v-0.292h-0.059q-0.029-1.082-.058-2.163h-3.344l-1.7-.058v-0.058l-0.352-.059v-0.058l-0.352-.117V476.6h-0.118L855,476.421H854.88l-0.176-.234-0.176-.117v-0.117l-0.176-.116V475.72h-0.059c-0.019-.078-0.039-0.156-0.058-0.234h-0.059c-0.02-.117-0.039-0.234-0.059-0.351h-0.058V474.9H854v-18.76h0.059V455.85h0.058v-0.175h0.059V455.5l0.117-.058v-0.117h0.059c0.019-.078.039-0.156,0.059-0.234l0.234-.175V454.8l0.176-.058,0.235-.293h0.117v-0.058l0.352-.117v-0.058a7.7,7.7,0,0,1,2.522-.176h6.569a11.905,11.905,0,0,1,2.522.059v0.058l0.352,0.059v0.058l0.235,0.059v0.058h0.117c0.039,0.058.078,0.117,0.118,0.175h0.117l0.117,0.176,0.294,0.233v0.117l0.117,0.059v0.117l0.117,0.058c0.02,0.078.039,0.156,0.059,0.234h0.058v0.175H868.9v0.234a6.549,6.549,0,0,1,.117,1.753V461.4l0.176,0.117v0.117l0.235,0.175v0.117l0.235,0.175v0.117l0.117,0.058v0.059L869.9,462.4v0.117l0.235,0.175V462.8l0.234,0.176V463.1l0.235,0.175v0.117l0.235,0.175v0.117l0.234,0.175v0.117l0.235,0.176v0.116l0.117,0.059v0.058l0.118,0.059v0.117l0.234,0.175v0.117l0.235,0.175v0.117l0.234,0.175v0.117l0.235,0.176v0.116l0.235,0.176v0.117l0.234,0.175v0.117l0.235,0.175V466.6l0.117,0.058v0.059l0.117,0.058V466.9l0.235,0.176v0.116l0.235,0.176v0.117L874,467.538v0.117l0.117,0.058v0.117l0.118,0.059,0.117,0.35h0.059v0.117h0.058l0.117,0.351h0.059c0.02,0.117.039,0.234,0.059,0.351A8.534,8.534,0,0,1,875,472.1v11.572l-0.117.058v0.117Zm-19.473-28.4a0.48,0.48,0,0,1-.118.234h-0.058q-0.088.262-.176,0.526H855v17.356a3.207,3.207,0,0,0,.293,1.87l0.176,0.117c0.515,0.512,1.064.409,2.053,0.409h4.986v-5.259l-0.235-.175V470.4l-0.293-.234v-0.117l-0.352-.292v-0.117l-0.293-.234v-0.117L860.98,469v-0.117l-0.294-.234v-0.116l-0.117-.059v-0.117l-0.117-.058v-0.117h-0.059c-0.019-.078-0.039-0.156-0.058-0.234h-0.059v-0.175h-0.059a3.4,3.4,0,0,1,0-1.344h0.059v-0.176a2.481,2.481,0,0,1,2.229-1.461v-9.759h-6.276v0.058h-0.235v0.059l-0.234.058v0.059h-0.118v0.058A0.488,0.488,0,0,1,855.408,455.441Zm8.094-.409v10.052a1.978,1.978,0,0,1,.821.642l0.117,0.059V465.9l0.47,0.409v0.058h0.117V455.032H863.5Zm2.522,0v12.506l0.352,0.292v0.117l0.938,0.877v0.117l0.7,0.642V456.376q-0.087-.293-0.176-0.584l-0.117-.059A1.594,1.594,0,0,0,866.024,455.032Zm-9.561,1.519h1.056v6.429a3.46,3.46,0,0,1-1,.058,8.242,8.242,0,0,1-.059-2.045v-4.442Zm2.523,0h1v3.974h-1v-3.974Zm10.675,23.9-0.294.935a1.558,1.558,0,0,1-.821-0.35l-0.352-.117-0.058-.117h-0.118l-0.058-.117h-0.118l-0.117-.175h-0.117c-0.039-.059-0.079-0.117-0.118-0.175h-0.117l-0.528-.585-0.293-.234V479.4l-0.235-.175v-0.117l-0.117-.058c-0.02-.059-0.039-0.117-0.059-0.175h-0.058v-0.117l-0.118-.059c-0.019-.078-0.039-0.156-0.058-0.234l-0.118-.058v-0.117h-0.058c-0.02-.078-0.039-0.156-0.059-0.234h-0.059v-0.175h-0.058c-0.02-.078-0.039-0.156-0.059-0.234h-0.059c-0.058-.214-0.117-0.428-0.175-0.643h-3.285q0.029,1.023.059,2.046,0.146,0.525.293,1.052h0.059v0.117h0.058v0.117h0.059v0.116h0.058v0.117h0.059v0.117l0.117,0.059v0.116l0.118,0.059v0.117l0.176,0.117v0.117l0.293,0.233c0.117,0.137.235,0.273,0.352,0.409H863.8l0.117,0.176h0.118l0.058,0.117,0.176,0.058v0.058l0.235,0.059v0.058l0.352,0.117v0.059h0.176v0.058h0.117v0.059h0.176v0.058a10.9,10.9,0,0,0,2.992.175H874v-9.35c0-1.493.175-3.5-.293-4.558h-0.059l-0.117-.351h-0.059V468.59h-0.059c-0.019-.078-0.039-0.156-0.058-0.234l-0.118-.058v-0.117l-0.175-.117v-0.117l-0.176-.117v-0.117l-0.235-.175v-0.117l-0.235-.175v-0.117l-0.117-.058v-0.059l-0.117-.058v-0.117l-0.235-.176v-0.116l-0.117-.059v-0.058l-0.117-.059v-0.117l-0.235-.175V465.96l-0.235-.175v-0.117l-0.234-.175v-0.117l-0.235-.176v-0.116l-0.235-.176v-0.117l-0.234-.175V464.5l-0.235-.175v-0.117l-0.234-.175v-0.117l-0.235-.176v-0.116l-0.235-.176V463.33l-0.117-.058-0.176-.292h-0.059v7.714a1.516,1.516,0,0,1,.294.35q0.409,0.381.821,0.76v0.117l0.117,0.059v0.058a1.713,1.713,0,0,1,.587.643,2.5,2.5,0,0,0-.646.643,0.105,0.105,0,0,1-.058-0.059l-0.88-.818V472.33l-0.938-.876v-0.117l-0.411-.351-0.821-.935-0.645-.584V469.35l-0.939-.877v-0.117l-0.938-.876v-0.117l-0.118-.059c-0.1-.117-0.2-0.233-0.293-0.35l-0.528-.468v-0.117l-0.234-.175v-0.058h-0.118l-0.117-.176-0.293-.058v-0.059h-0.235v-0.058h-0.293v0.058h-0.293V465.9l-0.235.058v0.059h-0.117c-0.059.077-.118,0.155-0.176,0.233l-0.118.059a1.562,1.562,0,0,0-.176,1.286h0.059v0.116h0.059v0.117l0.117,0.059c0.02,0.058.039,0.117,0.059,0.175l0.234,0.175v0.117l0.352,0.292v0.117L862.388,469v0.117l0.351,0.292v0.117l0.176,0.117V469.7l0.118,0.059v0.117l0.352,0.292v0.117l0.352,0.292v0.117l0.293,0.234v0.116l0.352,0.293v0.117l0.293,0.233V471.8l0.352,0.292v0.117l0.293,0.234v0.117l0.352,0.292v0.117l0.235,0.175v0.117h0.058a9.6,9.6,0,0,1,.059,2.162v0.526h0.059V476.3h0.058V476.6H866.2v0.176h0.059v0.175h0.058v0.175h0.059V477.3h0.059v0.116h0.058v0.176h0.059v0.117h0.059v0.117l0.117,0.058,0.117,0.351,0.118,0.058v0.117l0.117,0.058c0.019,0.059.039,0.117,0.058,0.176l0.176,0.117v0.117l0.47,0.409,0.234,0.292h0.118l0.117,0.175h0.117c0.039,0.059.078,0.117,0.118,0.175l0.234,0.059,0.059,0.117,0.234,0.058A1.547,1.547,0,0,0,869.661,480.453Zm-12.9-9.934h3.46a2.085,2.085,0,0,1,.294.409v2.337a1.34,1.34,0,0,1-.235,1.111,1.462,1.462,0,0,1-.88.116H857.4c-0.4,0-.731.019-0.821-0.292a1.893,1.893,0,0,1-.118-0.993v-1.695c0.02-.253.039-0.507,0.059-0.76h0.059C856.639,470.674,856.7,470.6,856.757,470.519Zm0.762,0.993V473.5h1.994v-1.987h-1.994Zm5.983,4.441h1.525v-2.279l-0.176-.117v-0.116l-0.293-.234V473.09l-0.352-.292v-0.117l-0.294-.234V472.33h-0.058a1.027,1.027,0,0,1-.293-0.409H863.5v4.032Z" transform="translate(-854 -453.938)"/>
</svg>
