<svg xmlns="http://www.w3.org/2000/svg" width="30" height="30" viewBox="0 0 30 30">
  <defs>
    <style>
      .cls-1 {
        fill: #fff;
        fill-rule: evenodd;
      }
    </style>
  </defs>
  <path id="Фигура_5" data-name="Фигура 5" class="cls-1" d="M872.91,457.223a3.9,3.9,0,0,1,.938.293l0.761,0.175v0.059l0.235,0.059v0.058l0.234,0.059,0.059,0.117h0.117l0.176,0.234h0.117v0.059l0.176,0.117v0.117l0.234,0.176v0.117l0.117,0.059,0.117,0.351h0.059v0.118h0.059c0.175,0.585.351,1.172,0.527,1.757l0.176,0.118v0.058h0.117l0.234,0.293h0.117c0.059,0.078.118,0.156,0.176,0.235h0.117l0.235,0.293h0.117q0.322,0.41.644,0.82c0.02,0.1.04,0.2,0.059,0.293h0.059v0.117h0.058q0.088,0.526.176,1.055h-0.059v0.879H879v0.82h-0.059v0.234l0.117,0.059v0.117h0.059v0.117h0.059v0.117h0.058v0.118H879.3v0.117h0.058v0.117l0.118,0.059c0.019,0.078.039,0.156,0.058,0.234h0.059v0.117h0.058c0.039,0.117.079,0.234,0.118,0.352h0.058v0.175h0.059V468.3h0.058v0.293H880v0.82h-0.059c-0.019.176-.039,0.352-0.058,0.527h-0.059v0.176h-0.058l-0.118.352H879.59v0.117h-0.059V470.7h-0.058v0.117h-0.059v0.118h-0.059v0.117H879.3v0.117h-0.059v0.117H879.18V471.4h-0.059l-0.117.352h-0.059a1.194,1.194,0,0,0,.059.586q0.029,0.908.058,1.816H879v0.235h-0.059c-0.019.117-.039,0.234-0.058,0.351h-0.059l-0.117.352h-0.059v0.117l-0.117.059v0.117l-0.527.468-0.235.293h-0.117l-0.117.176-0.234.176v0.059h-0.118v0.058a1.017,1.017,0,0,1-.41.293,3.9,3.9,0,0,1-.293.938c-0.058.253-.117,0.507-0.175,0.761H876.25c-0.02.078-.039,0.157-0.059,0.235h-0.058c-0.02.078-.039,0.156-0.059,0.234l-0.117.059v0.117l-0.234.176v0.117h-0.059l-0.117.176H875.43l-0.176.234h-0.117l-0.059.117-0.351.117v0.059h-0.118v0.059l-1.757.527-0.118.176h-0.058v0.117l-0.293.234v0.117l-0.235.176v0.117c-0.1.079-.2,0.157-0.293,0.235v0.117q-0.409.322-.82,0.644l-0.293.059v0.059h-0.117v0.058l-1.055.176v-0.059h-0.879V483h-0.82v-0.059h-0.234l-0.059.117h-0.117v0.059h-0.117v0.059h-0.117v0.058h-0.118V483.3h-0.117v0.058h-0.117l-0.059.118-0.234.058v0.059h-0.117v0.058l-0.352.118v0.058h-0.176v0.059H865.7v0.058H865.41V484h-0.82v-0.059l-0.528-.058v-0.059h-0.175v-0.058l-0.352-.118V483.59h-0.117v-0.059H863.3v-0.058h-0.117v-0.059h-0.118v-0.059h-0.117V483.3h-0.117v-0.059h-0.117V483.18H862.6v-0.059L862.246,483v-0.059a1.194,1.194,0,0,0-.586.059l-1.816.058V483h-0.235v-0.059l-0.351-.058v-0.059l-0.352-.117v-0.059h-0.117l-0.059-.117h-0.117l-0.469-.527-0.292-.235v-0.117l-0.176-.117-0.176-.234h-0.059v-0.118h-0.058a1.017,1.017,0,0,1-.293-0.41l-0.762-.175v-0.059h-0.176v-0.059l-0.761-.175V480.25l-0.235-.059v-0.058l-0.234-.059-0.059-.117h-0.117l-0.117-.176h-0.117v-0.058l-0.235-.176V479.43l-0.234-.176v-0.117l-0.117-.059-0.117-.351H853.75v-0.118h-0.059q-0.263-.879-0.527-1.757l-0.176-.118v-0.058h-0.117l-0.234-.293h-0.118c-0.058-.078-0.117-0.156-0.175-0.235h-0.117c-0.079-.1-0.157-0.2-0.235-0.293h-0.117l-0.645-.82c-0.019-.1-0.039-0.2-0.058-0.293h-0.059v-0.117h-0.058q-0.088-.556-0.176-1.113h0.058v-0.821H851v-0.82h0.059v-0.234l-0.118-.059v-0.117h-0.058v-0.117H850.82v-0.117h-0.058v-0.118H850.7v-0.117h-0.059v-0.117l-0.117-.059c-0.019-.078-0.039-0.156-0.058-0.234H850.41v-0.117h-0.058l-0.118-.352h-0.058v-0.176h-0.059V469.7h-0.058V469.41H850v-0.82h0.059c0.019-.176.039-0.352,0.058-0.528h0.059v-0.175h0.058c0.039-.118.079-0.235,0.118-0.352h0.058v-0.117h0.059V467.3h0.058v-0.117h0.059v-0.118h0.058v-0.117H850.7v-0.117h0.059v-0.117h0.058V466.6h0.059l0.117-.352h0.059A1.194,1.194,0,0,0,851,465.66q-0.03-.908-0.059-1.816H851v-0.235h0.059c0.019-.117.039-0.234,0.058-0.351h0.059l0.117-.352h0.059v-0.117l0.117-.059v-0.117l0.527-.468c0.078-.1.156-0.2,0.235-0.293h0.117l0.117-.176,0.234-.176v-0.059h0.117v-0.058a1.027,1.027,0,0,1,.411-0.293,3.9,3.9,0,0,1,.293-0.938c0.058-.254.117-0.508,0.175-0.761h0.059v-0.118h0.059l0.117-.351q0.292-.353.586-0.7h0.117l0.117-.176h0.117l0.059-.117,0.351-.117V457.75h0.118v-0.059l1.757-.527,0.118-.176h0.058v-0.117l0.293-.234V456.52c0.078-.059.156-0.118,0.235-0.176v-0.117l0.292-.235v-0.117l0.821-.645,0.293-.058v-0.059h0.117v-0.058l1.113-.176v0.058h0.821V455h0.82v0.059h0.234l0.059-.118h0.117v-0.058h0.117V454.82h0.117v-0.058h0.118V454.7h0.117v-0.059h0.117v-0.058h0.117l0.059-.117,0.234-.059v-0.058l0.352-.118v-0.058h0.175v-0.059H864.3v-0.058h0.293V454h0.82v0.059l0.527,0.058v0.059h0.176v0.058l0.352,0.118v0.058h0.117v0.059H866.7v0.058h0.117v0.059h0.118v0.058h0.117V454.7h0.117v0.059h0.117v0.058H867.4v0.059L867.754,455v0.059A1.194,1.194,0,0,0,868.34,455l1.816-.059V455h0.235v0.059l0.351,0.058v0.059l0.352,0.117v0.059h0.117l0.058,0.117h0.118l0.468,0.527c0.1,0.078.2,0.156,0.293,0.235v0.117l0.176,0.117L872.5,456.7h0.059v0.117h0.058A1.027,1.027,0,0,1,872.91,457.223Zm-8.2-2.051-0.645.234v0.059h-0.117v0.058h-0.117v0.059h-0.117v0.059l-0.234.058c-0.02.039-.04,0.078-0.059,0.117H863.3v0.059h-0.117v0.059h-0.118v0.058h-0.117v0.059h-0.117v0.058h-0.117v0.059H862.6v0.059a1.453,1.453,0,0,1-.645-0.059h-0.7v-0.059h-0.82v-0.058h-0.059v0.058h-0.41v0.059h-0.176v0.059h-0.176v0.058h-0.117l-0.7.645v0.117l-0.234.176v0.117l-0.293.234v0.117l-0.235.176v0.117h-0.058l-0.117.176a2.7,2.7,0,0,1-.469.117v0.059h-0.176V458.4h-0.176v0.058h-0.176v0.059H856.68v0.058H856.5v0.059h-0.176v0.058h-0.176v0.059h-0.234v0.059l-0.352.117v0.058h-0.117l-0.117.176q-0.175.147-.352,0.293v0.117h-0.058l-0.117.352h-0.059v0.176h-0.059l-0.117.586h-0.058v0.234h-0.059v0.176h-0.059v0.176h-0.058V461.5h-0.059v0.117h-0.058v0.117l-0.235.176-0.058.117h-0.117l-0.352.41H853.34l-0.293.352H852.93l-0.645.7v0.176h-0.058v0.117h-0.059v0.176h-0.059v1.055h0.059V465.6h0.059a3.392,3.392,0,0,1,0,.937h-0.059l-0.117.352h-0.059v0.117h-0.058v0.117h-0.059v0.117h-0.059v0.117h-0.058v0.118H851.7v0.117h-0.058c-0.02.078-.04,0.156-0.059,0.234h-0.059v0.117h-0.058l-0.117.352h-0.059v0.176a1.36,1.36,0,0,0-.117.82h0.058c0.02,0.137.039,0.273,0.059,0.41h0.059l0.117,0.352h0.058v0.117h0.059v0.117h0.059c0.019,0.078.039,0.156,0.058,0.234l0.117,0.059V470.7h0.059v0.117h0.059v0.118h0.058v0.117h0.059l0.117,0.351h0.059a1.453,1.453,0,0,1-.059.645v0.644a4.358,4.358,0,0,0-.059,1.348h0.059v0.176h0.059c0.019,0.1.039,0.2,0.058,0.293l0.645,0.7h0.117l0.176,0.234h0.117l0.176,0.235h0.117l0.234,0.293h0.117v0.058l0.176,0.117c0.059,0.215.117,0.43,0.176,0.645h0.058v0.176h0.059v0.176h0.059v0.175h0.058V477.5h0.059v0.176h0.058v0.176h0.059v0.234h0.059l0.117,0.352h0.058v0.117q0.177,0.146.352,0.293l0.117,0.176h0.117v0.058l0.352,0.117v0.059h0.176v0.058l0.41,0.059v0.059h0.234v0.058h0.176v0.059h0.176v0.058h0.176v0.059H857.5v0.059h0.117v0.058h0.117c0.059,0.078.118,0.156,0.176,0.235l0.117,0.058v0.117l0.41,0.352v0.117l0.352,0.293v0.117l0.176,0.117,0.351,0.411,0.352,0.117v0.058h0.117v0.059a4.439,4.439,0,0,0,1.817-.059h0.585l0.118-.058v0.058h0.234v0.059l0.352,0.117v0.059h0.117v0.058h0.117v0.059l0.234,0.059v0.058h0.118V482.3h0.117v0.058h0.117v0.059h0.117v0.059h0.117v0.058l0.235,0.059a1.662,1.662,0,0,0,1.113.234v-0.059l0.41-.058v-0.059l0.352-.117v-0.058h0.117v-0.059h0.117v-0.059l0.234-.058,0.059-.117H866.7v-0.059h0.117v-0.059h0.118v-0.058h0.117v-0.059l0.351-.117v-0.059a1.453,1.453,0,0,1,.645.059h0.7v0.059h0.82v0.058h0.059v-0.058h0.41v-0.059h0.176v-0.059h0.176v-0.058h0.117l0.644-.586v-0.117l0.293-.235V480.66l0.293-.234v-0.117c0.078-.059.156-0.118,0.235-0.176v-0.117h0.058l0.117-.176,0.645-.176v-0.059h0.176v-0.058h0.175v-0.059h0.176V479.43H873.5v-0.059h0.176v-0.059h0.176v-0.058h0.234V479.2l0.352-.117V479.02h0.117q0.145-.177.293-0.352l0.175-.117c0.02-.078.04-0.156,0.059-0.235h0.059c0.019-.078.039-0.156,0.058-0.234h0.059c0.019-.137.039-0.273,0.058-0.41h0.059l0.117-.586h0.059V476.91h0.058v-0.176h0.059V476.5h0.059v-0.117h0.058v-0.117c0.078-.059.156-0.118,0.235-0.176l0.058-.117h0.117l0.352-.411h0.117l0.293-.351h0.117l0.117-.176,0.411-.351,0.117-.352h0.058v-0.117h0.059a4.439,4.439,0,0,0-.059-1.817v-0.586l-0.058-.117h0.058v-0.234h0.059l0.117-.352h0.059v-0.117h0.058v-0.117h0.059v-0.117h0.059v-0.117h0.058v-0.118H878.3v-0.117h0.058v-0.117h0.059v-0.117h0.059v-0.117h0.058v-0.118h0.059V469.82h0.058V469.7h0.059c0.019-.137.039-0.273,0.058-0.41h0.059a1.36,1.36,0,0,0-.117-0.82V468.3h-0.059l-0.117-.352h-0.058v-0.117h-0.059l-0.117-.351-0.117-.059V467.3h-0.059v-0.117h-0.059v-0.118h-0.058v-0.117h-0.059l-0.117-.351h-0.059a1.453,1.453,0,0,1,.059-0.645v-0.7h0.059v-0.82h0.058v-0.059h-0.058v-0.41h-0.059v-0.176h-0.059v-0.176h-0.058v-0.117l-0.645-.7h-0.117l-0.176-.234H876.66l-0.234-.293h-0.117l-0.176-.235h-0.117v-0.058l-0.176-.117a2.7,2.7,0,0,1-.117-0.469h-0.059v-0.176h-0.059v-0.176h-0.058v-0.176h-0.059V460.68H875.43V460.5h-0.059v-0.176h-0.059v-0.176h-0.058v-0.234H875.2l-0.117-.352h-0.059v-0.117l-0.175-.117q-0.147-.176-0.293-0.352h-0.117v-0.058l-0.352-.117v-0.059h-0.176v-0.059l-0.586-.117v-0.058h-0.234v-0.059H872.91V458.4h-0.176v-0.059H872.5v-0.059h-0.117v-0.058h-0.117l-0.176-.235-0.117-.058v-0.117l-0.411-.352V457.34H871.5l-0.117-.176-0.176-.117V456.93l-0.41-.352-0.117-.176h-0.118v-0.058l-0.351-.117v-0.059a3.689,3.689,0,0,0-1.231-.059v0.059H868.4v0.059h-0.644v0.058H867.7v-0.058h-0.234v-0.059l-0.352-.117v-0.059h-0.117v-0.058h-0.117v-0.059h-0.117v-0.059h-0.117v-0.058h-0.118V455.7h-0.117A2.819,2.819,0,0,0,864.707,455.172Zm0.117,2.109a1.864,1.864,0,0,1,.586.117,0.809,0.809,0,0,1,.176.645h-0.059c-0.019.078-.039,0.156-0.058,0.234a1.218,1.218,0,0,1-.645.176,0.325,0.325,0,0,0-.234-0.117,1.218,1.218,0,0,1-.176-0.645,0.588,0.588,0,0,0,.117-0.234,1.5,1.5,0,0,1,.293-0.117v-0.059Zm-2.519.293a2.937,2.937,0,0,1,.468.117,1.106,1.106,0,0,1,.176.7c-0.067.066-.023,0-0.058,0.117l-0.176.117v0.058H862.6v0.059l-0.821.176-1.816.762-0.059.117-0.351.117-0.059.117h-0.117l-0.059.117H859.2v0.059l-0.176.059-0.058.117h-0.117l-0.118.175h-0.117l-0.117.176h-0.117l-0.176.235h-0.117q-0.264.292-.527,0.586-0.294.262-.586,0.527V462.2l-0.293.234v0.118l-0.176.117v0.117l-0.117.059v0.117l-0.176.117c-0.02.078-.039,0.156-0.059,0.234l-0.117.059c-0.019.059-.039,0.117-0.058,0.176h-0.059l-0.117.351-0.117.059c-0.02.078-.04,0.156-0.059,0.234h-0.059l-0.117.352h-0.058v0.176h-0.059c-0.02.078-.039,0.156-0.059,0.234h-0.058l-0.528,1.7c-0.019.2-.039,0.391-0.058,0.586a8.8,8.8,0,0,0,.176,4.336v0.234h0.058c0.02,0.137.039,0.274,0.059,0.411h0.058V472.4h0.059v0.176H855.1v0.117h0.058v0.176h0.059v0.117h0.058v0.176h0.059l0.117,0.352h0.059v0.117h0.058v0.117h0.059v0.117h0.059v0.117h0.058V474.1H855.8v0.117l0.117,0.058c0.019,0.078.039,0.157,0.059,0.235l0.117,0.058c0.019,0.079.039,0.157,0.058,0.235l0.117,0.058v0.118l0.176,0.117v0.117l0.117,0.059v0.117l0.176,0.117c0.02,0.058.039,0.117,0.059,0.176l0.351,0.293v0.117l0.528,0.469,0.234,0.293h0.117l0.293,0.351h0.117l0.118,0.176,0.175,0.058,0.059,0.118h0.117l0.059,0.117,0.176,0.058v0.059h0.117l0.058,0.117,0.176,0.059v0.058l0.235,0.059,0.058,0.117H859.9v0.059h0.117v0.058h0.118v0.059h0.117v0.059h0.117v0.058h0.117v0.059l0.352,0.117v0.059h0.176v0.058h0.117v0.059l0.293,0.058v0.059h0.234v0.059h0.117v0.058h0.235v0.059h0.175V479.2h0.235v0.059h0.234v0.058l0.586,0.059v0.059h0.41v0.058h0.586v0.059a5.809,5.809,0,0,0,1.524-.059l1-.058v-0.059h0.293v-0.059h0.293v-0.058h0.234V479.2h0.234v-0.058h0.176v-0.059h0.235V479.02H868.4v-0.059h0.118V478.9h0.175v-0.058h0.176v-0.059h0.117v-0.058h0.176v-0.059l0.352-.117v-0.059h0.117v-0.058h0.117v-0.059h0.117v-0.059h0.117v-0.058H870.1V478.2h0.117l0.058-.117,0.235-.059,0.058-.117,0.235-.058c0.019-.039.039-0.078,0.058-0.118h0.118l0.117-.175h0.117c0.019-.039.039-0.078,0.058-0.118h0.118l0.117-.175,0.176-.059,0.293-.351h0.117l0.469-.528,0.293-.234v-0.117l0.351-.293c0.02-.059.039-0.118,0.059-0.176l0.117-.059v-0.117l0.176-.117v-0.117l0.175-.117v-0.118l0.118-.058c0.019-.078.039-0.156,0.058-0.235l0.117-.058c0.02-.078.039-0.157,0.059-0.235l0.117-.058V474.1h0.059V473.98h0.058v-0.117h0.059v-0.117h0.059v-0.117h0.058v-0.117h0.059l0.117-.352h0.059v-0.176h0.058v-0.117h0.059c0.019-.117.039-0.234,0.058-0.351h0.059V472.4h0.058v-0.175h0.059v-0.235h0.059v-0.176H875.2v-0.234h0.059v-0.234h0.058v-0.293h0.059v-0.293h0.059v-0.41h0.058v-0.586h0.059a5.809,5.809,0,0,0-.059-1.524c-0.019-.332-0.039-0.664-0.058-1h-0.059v-0.293h-0.059v-0.293h-0.058v-0.234H875.2v-0.235h-0.058v-0.234h-0.059v-0.176h-0.059V465.6h-0.058v-0.176H874.9V465.25h-0.058v-0.117h-0.059v-0.176h-0.058c-0.02-.078-0.04-0.156-0.059-0.234h-0.059v-0.176h-0.058l-0.117-.352h-0.059c-0.02-.078-0.039-0.156-0.059-0.234L874.2,463.9l-0.117-.351-0.117-.059v-0.117l-0.117-.059c-0.02-.078-0.04-0.156-0.059-0.234l-0.176-.117v-0.117l-0.117-.059v-0.117l-0.176-.117v-0.118l-0.293-.234v-0.117q-0.293-.264-0.586-0.527-0.263-.294-0.527-0.586H871.8c-0.078-.1-0.156-0.2-0.235-0.293h-0.117l-0.117-.176h-0.117l-0.059-.117h-0.117l-0.117-.176-0.234-.059c-0.02-.039-0.04-0.078-0.059-0.117l-0.176-.058v-0.059L870.1,459.8c-0.02-.039-0.04-0.078-0.059-0.117l-0.234-.059v-0.059l-0.235-.058v-0.059h-0.176v-0.058h-0.117v-0.059l-0.234-.059v-0.058l-1.758-.528-0.117-.175h-0.059c-0.019-.2-0.039-0.391-0.058-0.586a0.637,0.637,0,0,1,.293-0.235v-0.058a1.284,1.284,0,0,1,.644,0,12.858,12.858,0,0,1,1.817.7l0.937,0.41,0.059,0.117,0.234,0.059,0.059,0.117,0.234,0.059,0.059,0.117H871.5l0.058,0.117h0.118l0.117,0.176h0.117c0.019,0.039.039,0.078,0.059,0.117h0.117l0.058,0.117h0.059c0.019,0.039.039,0.078,0.059,0.117h0.117l0.234,0.293h0.117l0.586,0.645,0.586,0.527v0.117l0.293,0.235v0.117l0.176,0.117v0.117l0.176,0.118v0.117l0.117,0.058c0.019,0.059.039,0.117,0.059,0.176h0.058v0.117l0.117,0.059v0.117l0.117,0.059c0.02,0.078.04,0.156,0.059,0.234l0.117,0.059v0.117h0.059v0.117h0.058v0.117h0.059v0.117h0.059v0.118h0.058v0.117h0.059v0.117h0.058l0.118,0.351h0.058v0.176h0.059c0.019,0.078.039,0.156,0.058,0.235h0.059c0.019,0.117.039,0.234,0.059,0.351h0.058v0.176h0.059v0.176h0.058V465.6h0.059v0.175h0.059c0.019,0.157.039,0.313,0.058,0.469h0.059c0.019,0.195.039,0.391,0.058,0.586a10.343,10.343,0,0,1-.234,5.332V472.4h-0.059v0.176h-0.058v0.176h-0.059v0.176h-0.058V473.1h-0.059v0.117H875.9V473.4H875.84c-0.02.078-.039,0.156-0.059,0.234h-0.058v0.176h-0.059l-0.117.351h-0.059v0.117H875.43v0.118h-0.059l-0.117.351-0.117.059c-0.02.078-.039,0.156-0.059,0.234l-0.117.059c-0.02.078-.039,0.156-0.059,0.234h-0.058l-0.059.176-0.117.058v0.118l-0.117.058-0.059.176-0.176.117v0.117l-0.117.059c-0.019.059-.039,0.117-0.058,0.176q-0.177.146-.352,0.293v0.117l-0.586.527-0.469.528h-0.117l-0.234.293h-0.117c-0.02.039-.04,0.078-0.059,0.117h-0.059l-0.058.117h-0.117c-0.02.039-.04,0.078-0.059,0.117H871.8l-0.117.176h-0.118l-0.058.117-0.176.059V478.9l-0.234.059-0.059.117-0.234.059-0.059.117h-0.117v0.058h-0.117v0.059h-0.117v0.059h-0.118v0.058h-0.117v0.059h-0.117v0.058l-0.352.118v0.058l-1.933.645h-0.293v0.058h-0.293v0.059h-0.352V480.6h-0.41v0.058h-0.644v0.059a5.809,5.809,0,0,1-1.524-.059l-1.054-.058v-0.059h-0.352v-0.059h-0.293v-0.058h-0.234v-0.059h-0.293v-0.058l-0.41-.059v-0.059h-0.176v-0.058H861.25v-0.059l-0.352-.058v-0.059h-0.117V479.9h-0.176V479.84h-0.117v-0.059l-0.293-.058v-0.059l-0.351-.117v-0.059h-0.117V479.43h-0.118v-0.059l-0.351-.117-0.059-.117-0.234-.059-0.059-.117h-0.117l-0.059-.117-0.234-.059-0.059-.117H858.32l-0.058-.117-0.176-.059-0.117-.176h-0.117c-0.02-.039-0.04-0.078-0.059-0.117l-0.176-.058q-0.145-.177-0.293-0.352h-0.117l-0.527-.586-0.528-.469v-0.117l-0.293-.234v-0.117l-0.175-.118v-0.117l-0.176-.117V475.8l-0.176-.117v-0.118l-0.117-.058-0.059-.176H855.1c-0.02-.078-0.04-0.156-0.059-0.234l-0.117-.059c-0.02-.078-0.039-0.156-0.059-0.234l-0.117-.059-0.117-.351H854.57v-0.118h-0.058v-0.117h-0.059l-0.117-.351h-0.059v-0.176h-0.058c-0.02-.078-0.039-0.156-0.059-0.234H854.1q-0.235-.7-0.469-1.407V471.7a10.564,10.564,0,0,1,0-5.449c0.019-.156.039-0.312,0.058-0.469h0.059V465.6h0.059v-0.176h0.058V465.25h0.059v-0.176h0.058c0.02-.117.039-0.234,0.059-0.351H854.1c0.019-.079.039-0.157,0.058-0.235h0.059v-0.176h0.058l0.117-.351h0.059v-0.117h0.059v-0.117h0.058v-0.118h0.059v-0.117h0.058v-0.117h0.059v-0.117h0.059v-0.117l0.117-.059c0.019-.078.039-0.156,0.058-0.234h0.059c0.019-.059.039-0.118,0.059-0.176l0.117-.059V462.5h0.058l0.059-.176,0.117-.058v-0.117l0.176-.118V461.91l0.176-.117v-0.117l0.293-.235v-0.117l0.586-.527,0.586-.645h0.117l0.234-.293h0.117l0.059-.117h0.059l0.058-.117h0.117l0.059-.117H858.2l0.117-.176h0.117l0.059-.117,0.176-.059V459.1l0.234-.059,0.059-.117,0.234-.059,0.059-.117,0.351-.117V458.57h0.118v-0.058h0.117v-0.059h0.117V458.4l0.351-.118v-0.058h0.176V458.16h0.117V458.1h0.176v-0.059H860.9v-0.059l0.352-.058v-0.059l0.586-.117v-0.059h0.176v-0.058h0.293v-0.059Zm-1.524,5.274h7.735a2.538,2.538,0,0,1,.878.058v0.059l0.235,0.058,0.234,0.293,0.117,0.059v0.117l0.118,0.059v0.117l0.117,0.059v0.117l0.117,0.058c0.019,0.059.039,0.117,0.059,0.176h0.058V464.2l0.117,0.059v0.117l0.118,0.059v0.117l0.117,0.058v0.118l0.117,0.058V464.9l0.117,0.059,0.059,0.176h0.058v0.117l0.117,0.059c0.02,0.058.04,0.117,0.059,0.175h0.059V465.6l0.117,0.058v0.117l0.117,0.059v0.117l0.117,0.059c0.02,0.078.039,0.156,0.059,0.234h0.058l0.059,0.176,0.117,0.058V466.6l0.117,0.058v0.117l0.118,0.059v0.117l0.117,0.059v0.117l0.117,0.059V467.3h0.059a1.941,1.941,0,0,1,0,.937H872.5c-0.02.078-.039,0.156-0.059,0.235l-0.234.175v0.118l-0.41.351v0.117l-0.41.352V469.7l-0.41.352v0.117l-0.411.351v0.118l-0.175.117-0.118.176h-0.058v0.117l-0.41.351c-0.512.708-1.129,1.285-1.641,1.993l-0.176.117-0.176.234h-0.058v0.117l-0.469.41v0.118l-0.469.41v0.117l-0.527.469V475.5l-0.176.117a2.161,2.161,0,0,1-.879.7,0.893,0.893,0,0,1-.644-0.117l-0.235-.059-0.117-.175-0.469-.411v-0.117l-0.41-.351v-0.117l-0.468-.411v-0.117h-0.059l-0.176-.234-0.176-.117c-0.648-.9-1.46-1.622-2.109-2.52l-0.469-.41v-0.117h-0.058l-0.176-.235-0.176-.117v-0.117l-0.176-.117c-0.058-.078-0.117-0.156-0.175-0.235h-0.059v-0.117l-0.469-.41v-0.117l-0.41-.352v-0.117l-0.41-.351v-0.118l-0.234-.175c-0.02-.079-0.04-0.157-0.059-0.235h-0.059c-0.019-.234-0.039-0.469-0.058-0.7h0.058V467.3H857.5c0.019-.059.039-0.117,0.059-0.176h0.058v-0.117l0.117-.059v-0.117l0.118-.059v-0.117l0.117-.058c0.019-.079.039-0.157,0.058-0.235l0.117-.058v-0.118l0.118-.058v-0.117l0.117-.059v-0.117h0.058l0.059-.176,0.117-.058v-0.118l0.117-.058v-0.117l0.118-.059v-0.117l0.117-.059v-0.117l0.117-.059v-0.117l0.117-.058v-0.118l0.117-.058V464.43l0.118-.059v-0.117l0.117-.059v-0.117l0.117-.059V463.9h0.059l0.058-.175,0.117-.059v-0.117l0.117-.059v-0.117l0.118-.059,0.234-.293h0.117v-0.058l0.293-.059v-0.058Zm1.055,4.336,0.879-3.165h-1.7q-0.147.264-.293,0.528l-0.118.058v0.118l-0.117.058V464.9l-0.117.059v0.117l-0.117.059v0.117l-0.117.059v0.117h-0.059c-0.019.058-.039,0.117-0.059,0.176l-0.117.058v0.117l-0.117.059v0.117l-0.117.059v0.117l-0.117.058v0.118l-0.117.058v0.117l-0.118.059c-0.019.078-.039,0.156-0.058,0.234l-0.117.059v0.117l-0.118.059c-0.019.058-.039,0.117-0.058,0.176h2.871Zm1.23,0h3.868c-0.039-.2-0.079-0.391-0.118-0.586h-0.058v-0.235H866.7v-0.176h-0.058c-0.02-.136-0.04-0.273-0.059-0.41h-0.059c-0.019-.136-0.039-0.273-0.058-0.41h-0.059v-0.234h-0.058V464.9h-0.059v-0.175H866.23v-0.235h-0.058c-0.02-.136-0.039-0.273-0.059-0.41h-0.058a1.146,1.146,0,0,0-.586-0.059h-1.524a0.1,0.1,0,0,1-.058.059q-0.088.411-.176,0.82h-0.059v0.235h-0.058v0.176h-0.059v0.234h-0.058v0.234A6.445,6.445,0,0,0,863.066,467.184Zm4.219-3.165,0.879,3.165h2.871v-0.059a2.8,2.8,0,0,1-.41-0.645l-0.117-.058c-0.02-.078-0.039-0.156-0.059-0.235l-0.117-.058v-0.117l-0.117-.059v-0.117l-0.117-.059V465.66l-0.118-.058v-0.118l-0.117-.058v-0.117l-0.117-.059v-0.117h-0.059c-0.019-.059-0.039-0.117-0.058-0.176l-0.117-.059v-0.117l-0.118-.058v-0.118l-0.117-.058V464.43h-0.058c-0.02-.059-0.039-0.118-0.059-0.176l-0.117-.059c-0.02-.058-0.039-0.117-0.059-0.176h-1.7Zm-8.2,4.336a2.557,2.557,0,0,0,.41.528l0.117,0.058v0.118l0.118,0.058v0.059l0.292,0.234c0.544,0.75,1.215,1.359,1.758,2.109l0.41,0.352v0.117l0.411,0.352v0.117l0.41,0.352v0.117l0.469,0.41v0.117l0.175,0.117v-0.117h-0.058c-0.02-.117-0.039-0.234-0.059-0.351h-0.058v-0.118h-0.059v-0.175h-0.059v-0.176H863.3v-0.176h-0.059v-0.176c-0.345-.864-0.651-1.829-1-2.695V469.41h-0.059v-0.176h-0.058v-0.175H862.07v-0.176h-0.058v-0.117h-0.059c-0.019-.118-0.039-0.235-0.059-0.352h-0.058a1.641,1.641,0,0,0-.762-0.059h-1.992Zm4.043,0q0.147,0.528.293,1.055h0.059v0.117h0.058V469.7h0.059l1.347,4.043h0.118a1.32,1.32,0,0,1,.175-0.469c0.02-.117.039-0.234,0.059-0.351h0.059V472.75h0.058v-0.176h0.059V472.4h0.058v-0.175h0.059v-0.118h0.058q0.06-.263.118-0.527h0.058V471.4h0.059v-0.175h0.058v-0.176H866v-0.176h0.059v-0.117h0.058c0.02-.117.039-0.235,0.059-0.352h0.058c0.039-.176.079-0.351,0.118-0.527h0.058c0.02-.117.039-0.235,0.059-0.352a4.3,4.3,0,0,0,.41-1.172h-3.75Zm5.039,0q-0.234.616-.469,1.231l-0.117.527h-0.059v0.117h-0.058v0.176H867.4q-0.146.528-.293,1.055h-0.058v0.117h-0.059v0.176h-0.058v0.176h-0.059v0.175h-0.059v0.176h-0.058v0.176H866.7c-0.019.117-.039,0.234-0.058,0.352h-0.059v0.117h-0.059c-0.058.215-.117,0.429-0.175,0.644h0.058l4.512-5.156v-0.059h-2.754Z" transform="translate(-850 -454)"/>
</svg>
