<svg xmlns="http://www.w3.org/2000/svg" width="30" height="30" viewBox="0 0 30 30">
  <defs>
    <style>
      .cls-1 {
        fill: #fff;
        fill-rule: evenodd;
      }
    </style>
  </defs>
  <path id="Фигура_6" data-name="Фигура 6" class="cls-1" d="M864.589,454h0.82a4.452,4.452,0,0,1,1.877,1.7l0.586,0.528,0.176,0.235a0.516,0.516,0,0,1,.234.117h0.587v-0.059H869.1v-0.058h0.235V456.4h0.176v-0.059h0.176v-0.058h0.176v-0.059h0.117V456.17l0.352-.059a2.647,2.647,0,0,1,1.817-.235h0.176v0.059h0.117v0.059l0.235,0.058,0.176,0.235,0.117,0.058v0.118l0.117,0.058v0.118h0.059c0.02,0.078.039,0.156,0.059,0.234h0.058c0.02,0.117.039,0.235,0.059,0.352h0.059c0.019,0.156.039,0.313,0.058,0.469H873.5c0.019,0.2.039,0.391,0.058,0.586h0.059v0.352h0.059v0.293h0.058v0.235h0.059V459.4h0.059v0.117h0.058v0.176l0.118,0.058v0.118h0.058a0.209,0.209,0,0,0,.176.117,2.462,2.462,0,0,0,.938.352h0.293l1.525,0.352v0.058l0.234,0.059v0.058l0.235,0.059,0.058,0.117h0.118c0.058,0.079.117,0.157,0.176,0.235H877.9c0.579,0.819.187,1.869-.117,2.639l-0.117.527a2.267,2.267,0,0,0-.235,1.29h0.059c0.019,0.078.039,0.157,0.058,0.235,0.079,0.058.157,0.117,0.235,0.176l0.469,0.527h0.117l0.294,0.352h0.117l0.528,0.587,0.293,0.234v0.118l0.117,0.058v0.117l0.117,0.059a2.018,2.018,0,0,1,.059,1.466h-0.059a3.421,3.421,0,0,1-.879,1.055l-0.235.294H878.6l-0.293.351h-0.118l-0.469.528-0.176.117a0.524,0.524,0,0,1-.117.235,2.117,2.117,0,0,0,0,.762c0.31,0.949,1.225,2.627.469,3.694l-0.234.176-0.059.118h-0.117l-0.059.117h-0.117v0.058H877.2v0.059l-0.352.059v0.058h-0.176V477.4l-0.469.059v0.058l-0.645.059v0.059H875.2v0.058h-0.234a1.421,1.421,0,0,0-.938.528,2.883,2.883,0,0,0-.411,1.114v0.352h-0.059c-0.019.195-.039,0.391-0.058,0.586h-0.059c-0.019.157-.039,0.313-0.058,0.469h-0.059c-0.02.118-.039,0.235-0.059,0.352h-0.058c-0.02.078-.039,0.156-0.059,0.235H873.09v0.117l-0.117.059v0.117l-0.117.059-0.176.234a2.689,2.689,0,0,1-2.521-.117h-0.176v-0.059h-0.176v-0.058h-0.176v-0.059h-0.176v-0.059a3.135,3.135,0,0,0-1.114-.176v0.059h-0.176l-0.821.762v0.118l-0.351.293v0.117l-0.294.234a3.728,3.728,0,0,1-1.114.939h-0.176v0.058a2.284,2.284,0,0,1-1.348-.234L864,483.611h-0.117l-0.235-.293q-0.321-.293-0.645-0.586v-0.117l-0.293-.235v-0.117l-0.176-.117a2.445,2.445,0,0,0-.879-0.763,3.139,3.139,0,0,0-1.114.176v0.059h-0.176v0.059h-0.176v0.058h-0.176v0.059h-0.176a2.9,2.9,0,0,1-2.052.293h-0.176v-0.059h-0.117l-0.059-.117h-0.117l-0.176-.234-0.117-.059V481.5l-0.117-.059v-0.117h-0.059c-0.02-.079-0.039-0.157-0.059-0.235h-0.058c-0.02-.117-0.039-0.234-0.059-0.352h-0.058c-0.02-.156-0.04-0.312-0.059-0.469H856.5c-0.019-.195-0.039-0.391-0.058-0.586H856.38v-0.352q-0.147-.528-0.293-1.055l-0.117-.059V478.1l-0.176-.059-0.059-.117-0.938-.293h-0.352v-0.059l-0.586-.059v-0.058h-0.293V477.4h-0.235v-0.059h-0.176v-0.058l-0.352-.059v-0.059h-0.117V477.1h-0.117l-0.059-.117h-0.117c-0.02-.04-0.039-0.079-0.059-0.118l-0.234-.176v-0.117l-0.118-.059c-0.019-.078-0.039-0.156-0.058-0.234h-0.059a3.181,3.181,0,0,1,.293-2.052c0.039-.176.079-0.352,0.118-0.528a2.577,2.577,0,0,0,.293-1.466H852.51c-0.019-.078-0.039-0.156-0.058-0.235-0.079-.058-0.157-0.117-0.235-0.176l-0.469-.527h-0.117l-0.235-.293h-0.117l-0.586-.645-0.294-.235v-0.117l-0.176-.117v-0.118h-0.058v-0.117h-0.059V469.48c-0.5-1.252.9-2.26,1.583-2.756l0.528-.586c0.078-.059.156-0.118,0.235-0.176a0.524,0.524,0,0,1,.117-0.235v-0.234h0.058v-0.059h-0.058v-0.41H852.51c-0.019-.157-0.039-0.313-0.058-0.469h-0.059v-0.118h-0.059v-0.176h-0.058v-0.176h-0.059V463.91h-0.059l-0.117-.528a2.89,2.89,0,0,1-.234-1.466c0.328-1.026,1.042-1.148,2.052-1.466l0.645-.059v-0.058l0.586-.059v-0.059h0.235a3.888,3.888,0,0,1,.527-0.234,0.525,0.525,0,0,1,.118-0.117v-0.118l0.117-.058c0.019-.1.039-0.2,0.058-0.293H856.2l0.117-.763h0.059q0.029-.323.059-0.645H856.5v-0.293h0.059c0.019-.156.039-0.313,0.059-0.469h0.058c0.02-.117.039-0.235,0.059-0.352h0.058c0.02-.078.039-0.156,0.059-0.234h0.059v-0.118l0.117-.058v-0.118l0.234-.175v-0.059h0.118l0.058-.117h0.118v-0.059h0.117v-0.059h0.176v-0.058H858.2v-0.059h0.234v0.059h0.411v0.058h0.234v0.059h0.235v0.059h0.175v0.058h0.176v0.059h0.176a4.463,4.463,0,0,0,1.877.469,0.542,0.542,0,0,1,.234-0.117l0.176-.235,0.586-.528v-0.117l0.352-.293v-0.117l0.528-.469,0.234-.294h0.118l0.117-.175h0.117v-0.059H864.3v-0.059l0.294-.058V454Zm-0.469,28.5a1.071,1.071,0,0,1,.41.294v0.058h0.117v0.059l0.293,0.058v0.059c0.106,0.02.093-.051,0.118-0.059h0.176a2.484,2.484,0,0,0,.7-0.644l0.293-.235V481.97l0.118-.059v-0.059l0.234-.175v-0.118l0.528-.469,0.234-.293h0.118l0.058-.117,0.352-.118V480.5h0.117v-0.059h0.293v-0.059a1.849,1.849,0,0,1,.88.118l0.821,0.176v0.058H870.1V480.8l0.352,0.059a2.207,2.207,0,0,0,1.642.234c0.061-.113.185-0.239,0.234-0.352,0.02-.117.039-0.234,0.059-0.352h0.058c0.02-.175.04-0.351,0.059-0.527h0.059v-0.293h0.058c0.02-.215.039-0.43,0.059-0.645h0.059v-0.235H872.8v-0.235h0.059v-0.175h0.058V478.1h0.059c0.02-.079.039-0.157,0.059-0.235h0.058v-0.117l0.352-.469h0.117l0.118-.176h0.117v-0.059l0.235-.058v-0.059H874.2v-0.059h0.176V476.81h0.235v-0.059h0.234v-0.059h0.294v-0.058l0.645-.059v-0.059h0.293v-0.058h0.234V476.4h0.235v-0.058h0.176l0.41-.294a1.867,1.867,0,0,0-.059-1.114h-0.058V474.7H876.96v-0.118H876.9c-0.02-.117-0.04-0.234-0.059-0.351h-0.059v-0.176h-0.058v-0.176h-0.059V473.7h-0.059v-0.176H876.55c-0.02-.156-0.039-0.313-0.059-0.469a2.343,2.343,0,0,1-.059-1h0.059v-0.176a3.509,3.509,0,0,1,.88-1.055l0.175-.235h0.118l0.293-.352h0.117l0.176-.234a2.409,2.409,0,0,0,.762-0.88,1.183,1.183,0,0,0-.586-1l-0.293-.351a4.454,4.454,0,0,1-1.7-1.877,2.656,2.656,0,0,1,.118-1.231v-0.235h0.058v-0.176h0.059v-0.176h0.059V463.91h0.058c0.02-.118.039-0.235,0.059-0.352a2.5,2.5,0,0,0,.293-1.642l-0.469-.293-0.352-.059v-0.059l-0.586-.058v-0.059l-0.645-.058v-0.059h-0.293v-0.059h-0.235v-0.058l-0.527-.118v-0.058l-0.235-.059V460.86h-0.117l-0.059-.117H873.5v-0.058l-0.235-.176v-0.118l-0.117-.058v-0.118l-0.117-.058V460.04h-0.059v-0.176h-0.059v-0.176h-0.058v-0.176H872.8v-0.235h-0.058v-0.234H872.68l-0.117-.938H872.5v-0.294h-0.059v-0.234h-0.058V457.4h-0.059c-0.11-.275-0.042-0.44-0.352-0.528a1.2,1.2,0,0,0-.938,0v0.059H870.8v0.058h-0.176v0.059h-0.117v0.059l-0.352.058v0.059h-0.176v0.059h-0.176v0.058h-0.176V457.4h-0.176v0.059l-0.528.058v0.059h-0.762a4.42,4.42,0,0,1-1.993-1.759l-0.469-.411-0.176-.234h-0.118v-0.059a0.724,0.724,0,0,1-.175-0.117h-0.47v0.058a2.432,2.432,0,0,0-1,.939q-0.177.145-.352,0.293V456.4l-0.586.528-0.176.234h-0.118l-0.058.118H862.36l-0.058.117h-0.117v0.059h-0.176a2.08,2.08,0,0,1-1.466-.059l-0.528-.117v-0.059h-0.176v-0.059h-0.176v-0.058h-0.176v-0.059h-0.175V456.99h-0.176v-0.058H858.96v-0.059l-0.528-.058v-0.059l-0.469.059-0.117.175h-0.059l-0.117.352h-0.059v0.176h-0.058c-0.039.274-.079,0.547-0.118,0.821a8.488,8.488,0,0,1-.586,1.994l-0.117.058v0.118l-0.176.117v0.059h-0.117c-0.04.058-.079,0.117-0.118,0.175l-0.234.059v0.059H855.97v0.058h-0.176V461.1h-0.176v0.059h-0.176v0.058h-0.235v0.059h-0.293v0.059h-0.352v0.058l-0.586.059v0.058h-0.293v0.059a1,1,0,0,0-.821.469,1.755,1.755,0,0,0,.059,1.056h0.058v0.176h0.059v0.175H853.1v0.176h0.058v0.176h0.059v0.118h0.058q0.06,0.262.118,0.527h0.058c0.02,0.176.039,0.352,0.059,0.528h0.059V465.9a4.454,4.454,0,0,1-1.7,1.877l-0.469.527-0.234.176V468.6H851.1a0.71,0.71,0,0,1-.117.176v0.411h0.058V469.3l0.118,0.059v0.117l0.645,0.586,0.117,0.176h0.117l0.293,0.352h0.118l0.175,0.235,0.528,0.469v0.117l0.117,0.059v0.117l0.118,0.059c0.019,0.078.039,0.156,0.058,0.234h0.059v0.235a2.065,2.065,0,0,1-.059,1.172v0.235H853.39V473.7h-0.059v0.176h-0.059v0.176h-0.058v0.176a2.865,2.865,0,0,0-.352,1.817l0.41,0.294h0.176V476.4l2.17,0.411v0.058h0.176v0.059h0.117v0.059l0.293,0.058,0.059,0.117h0.117l0.117,0.176,0.176,0.059v0.117l0.176,0.118a9.878,9.878,0,0,1,.645,2.286v0.294a1.636,1.636,0,0,0,.469.879,0.675,0.675,0,0,0,.528.117v-0.058h0.293V481.09h0.234v-0.059h0.176v-0.058h0.176v-0.059h0.176v-0.058h0.176V480.8h0.117v-0.059h0.176V480.68h0.176v-0.059h0.176v-0.059H860.6a2.227,2.227,0,0,1,2.755,1.056l0.176,0.117,0.117,0.176h0.059v0.117h0.059A1.287,1.287,0,0,1,864.12,482.5Zm0.469-23.982a10.092,10.092,0,0,1,5.628,1.466l0.235,0.059c0.019,0.039.039,0.078,0.059,0.117l0.234,0.058,0.059,0.118h0.117l0.117,0.176h0.118l0.058,0.117h0.117l0.176,0.234h0.118l0.234,0.294h0.117l0.528,0.586c0.1,0.078.2,0.156,0.293,0.235v0.117l0.293,0.234v0.118c0.079,0.058.157,0.117,0.235,0.176,0.019,0.058.039,0.117,0.059,0.175l0.117,0.059v0.117l0.117,0.059,0.059,0.176h0.058v0.117l0.118,0.059c0.019,0.058.039,0.117,0.058,0.176h0.059l0.117,0.352,0.117,0.058c0.02,0.078.039,0.157,0.059,0.235h0.059v0.117h0.058l0.118,0.352h0.058v0.176h0.059v0.117h0.059v0.176h0.058v0.117h0.059c0.019,0.117.039,0.235,0.058,0.352h0.059v0.176h0.059v0.176h0.058v0.176h0.059v0.234h0.059c0.019,0.157.039,0.313,0.058,0.469h0.059v0.352h0.058v0.352h0.059v0.528h0.059a7.832,7.832,0,0,1-.059,1.876c-0.019.293-.039,0.587-0.059,0.88H875.26v0.293H875.2c-0.019.176-.039,0.352-0.058,0.528h-0.059c-0.02.136-.039,0.273-0.059,0.41h-0.058v0.176h-0.059v0.176h-0.059v0.176h-0.058c-0.02.1-.039,0.195-0.059,0.293h-0.058V473h-0.059v0.176h-0.059l-0.117.352H874.38v0.117h-0.058v0.118h-0.059l-0.117.351-0.117.059c-0.02.078-.04,0.156-0.059,0.235l-0.117.058c-0.02.078-.039,0.157-0.059,0.235l-0.117.058v0.118l-0.176.117v0.117l-0.117.059v0.117l-0.118.059V475.4l-0.117.059v0.117l-0.293.235v0.117l-0.645.586-0.293.352H871.8l-0.234.293h-0.117l-0.059.118h-0.059l-0.058.117h-0.117c-0.02.039-.04,0.078-0.059,0.117H870.98c-0.02.039-.04,0.078-0.059,0.118H870.8l-0.059.117h-0.117l-0.059.117h-0.117l-0.059.117-0.352.118-0.058.117-0.235.059v0.058l-0.351.117v0.059h-0.176v0.059l-0.235.058v0.059l-0.293.059V478.8l-0.352.059v0.059h-0.176v0.058h-0.176v0.059h-0.234V479.1H867.52v0.059h-0.234v0.059l-0.587.058v0.059l-1.055.059v0.058a3.944,3.944,0,0,1-1.29-.058l-1.055-.059v-0.059h-0.294v-0.058h-0.293v-0.059h-0.234V479.1h-0.235v-0.058h-0.234v-0.059h-0.176v-0.058h-0.176v-0.059h-0.176V478.8h-0.176v-0.058h-0.117v-0.059h-0.176v-0.059l-0.235-.058V478.51H860.6v-0.059l-0.352-.117v-0.058l-0.235-.059-0.058-.117-0.352-.118-0.059-.117h-0.117l-0.059-.117h-0.117l-0.059-.117h-0.117v-0.059l-0.176-.059-0.058-.117h-0.118l-0.058-.117h-0.059c-0.019-.039-0.039-0.078-0.059-0.118h-0.117l-0.234-.293H858.08l-0.586-.645-0.352-.293v-0.117l-0.293-.235v-0.117l-0.117-.059v-0.058l-0.117-.059v-0.117l-0.118-.059v-0.117l-0.176-.117v-0.118L856.2,474.7c-0.02-.078-0.039-0.157-0.059-0.235l-0.117-.058c-0.019-.079-0.039-0.157-0.058-0.235l-0.118-.059-0.117-.351h-0.059v-0.118h-0.058v-0.117h-0.059l-0.117-.352h-0.059V473h-0.058v-0.117h-0.059v-0.176h-0.059v-0.117h-0.058v-0.176H855.09v-0.176h-0.059V472.06h-0.058c-0.02-.137-0.039-0.274-0.059-0.41h-0.059v-0.294a8.293,8.293,0,0,1-.175-3.811v-0.41q0.234-.88.469-1.759h0.058v-0.118h0.059v-0.176h0.059c0.019-.078.039-0.156,0.058-0.234h0.059v-0.176H855.5c0.04-.117.079-0.235,0.118-0.352h0.058V464.2h0.059l0.117-.352,0.118-.059c0.019-.078.039-0.156,0.058-0.234h0.059c0.019-.059.039-0.118,0.058-0.176l0.118-.059c0.019-.078.039-0.156,0.058-0.234l0.176-.118v-0.117l0.118-.059v-0.117l0.175-.117,0.059-.176,0.352-.293v-0.117l0.293-.235,0.528-.586h0.117l0.234-.294h0.118l0.176-.234,0.176-.059,0.058-.117h0.117c0.02-.039.04-0.078,0.059-0.117l0.176-.059v-0.059h0.117l0.059-.117,0.234-.058,0.059-.118h0.117v-0.058h0.118v-0.059h0.117v-0.059h0.117v-0.058h0.117v-0.059h0.118V459.57h0.117v-0.058l0.352-.117v-0.059h0.176v-0.059h0.117v-0.058l0.352-.059V459.1h0.176v-0.058h0.176v-0.059h0.175v-0.059l0.411-.058v-0.059h0.293V458.75h0.293v-0.059h0.293v-0.059A6.2,6.2,0,0,0,864.589,458.515Zm-0.059,1a4.808,4.808,0,0,1-1.055.117v0.059h-0.352v0.058l-0.528.059v0.059l-0.41.058v0.059h-0.176v0.059h-0.176V460.1h-0.176v0.059l-0.235.058v0.059h-0.175v0.059l-0.235.058v0.059h-0.176c-0.019.039-.039,0.078-0.059,0.117H860.66v0.059h-0.117v0.059h-0.117v0.058h-0.118V460.8h-0.117v0.058l-0.176.059-0.058.117-0.235.059-0.117.176h-0.118l-0.058.117h-0.117l-0.059.117-0.176.059-0.293.352h-0.117l-0.469.528-0.294.234V462.8c-0.1.079-.2,0.157-0.293,0.235v0.117l-0.117.059v0.059l-0.117.058v0.117l-0.118.059v0.117l-0.117.059v0.117l-0.117.059v0.117l-0.117.059c-0.02.078-.039,0.156-0.059,0.234l-0.117.059-0.117.352h-0.059v0.117H856.5l-0.117.352h-0.059v0.176h-0.058v0.117H856.2c-0.02.1-.039,0.2-0.059,0.293h-0.058l-0.411,1.525V467.6a7.849,7.849,0,0,0,.235,3.87v0.234h0.059v0.176h0.058v0.176h0.059v0.176h0.058v0.176H856.2v0.117h0.059v0.176h0.058c0.039,0.117.078,0.235,0.118,0.352H856.5v0.117h0.059v0.117h0.059l0.117,0.352,0.117,0.059c0.02,0.078.039,0.156,0.059,0.234L857.025,474c0.019,0.078.039,0.156,0.059,0.235l0.175,0.117v0.117l0.118,0.059v0.117l0.176,0.117v0.118l0.293,0.234v0.117l0.586,0.528,0.293,0.352h0.118l0.234,0.293,0.176,0.059,0.059,0.117h0.117l0.117,0.176h0.117l0.059,0.117,0.176,0.059v0.059h0.117l0.059,0.117,0.352,0.117,0.058,0.117,0.235,0.059v0.059l0.234,0.058v0.059h0.176v0.059l0.235,0.058v0.059l1.7,0.528,1.349,0.117a3.468,3.468,0,0,0,1.172.058v-0.058h0.645v-0.059l0.7-.058v-0.059h0.235v-0.059H867.4V478.1h0.234v-0.059h0.176v-0.059h0.176v-0.058l0.352-.059v-0.059l0.293-.058v-0.059l0.235-.058v-0.059h0.176v-0.059l0.234-.058V477.4l0.235-.059,0.058-.117,0.235-.059,0.059-.117,0.234-.058v-0.059l0.176-.059,0.059-.117h0.117l0.117-.176h0.117l0.118-.176h0.117l0.235-.293h0.117l0.527-.586,0.294-.235v-0.117l0.293-.235v-0.117l0.117-.059V474.7l0.117-.059v-0.117l0.118-.059v-0.117l0.117-.059v-0.117l0.117-.059V474l0.117-.059c0.02-.078.04-0.156,0.059-0.234l0.117-.059c0.039-.117.078-0.234,0.118-0.352h0.058v-0.117H873.5l0.117-.352h0.059v-0.176h0.058v-0.117h0.059c0.02-.1.039-0.195,0.059-0.293h0.058l0.411-1.525c0.019-.273.039-0.547,0.058-0.82h0.059a7.45,7.45,0,0,0-.059-1.818c-0.019-.274-0.039-0.548-0.058-0.821l-0.411-1.525h-0.058V465.61h-0.059v-0.176h-0.059v-0.117h-0.058v-0.176h-0.059l-0.117-.352h-0.059v-0.117h-0.058c-0.04-.117-0.079-0.235-0.118-0.352A9.6,9.6,0,0,0,864.53,459.512Zm-2.932,4.515a1.926,1.926,0,0,1,1.994.821l0.117,0.058c0.02,0.079.039,0.157,0.059,0.235a1.755,1.755,0,0,1,.234,1.173h-0.058v0.293h-0.059v0.117h-0.059c-0.019.1-.039,0.2-0.058,0.293l-0.118.059v0.117l-0.234.176-0.176.235h-0.117l-0.059.117-0.528.176v0.059l-0.644.058v-0.058l-0.587-.059v-0.059h-0.117V467.78l-0.235-.059L860.9,467.6h-0.118c-0.019-.039-0.039-0.078-0.058-0.118l-0.293-.234v-0.117l-0.118-.059-0.117-.352h-0.059v-0.176a1.557,1.557,0,0,1-.117-0.821h0.059v-0.293h0.058v-0.176h0.059v-0.117h0.059c0.019-.078.039-0.156,0.058-0.235l0.176-.117v-0.117l0.235-.176v-0.059h0.117l0.059-.117h0.117c0.019-.039.039-0.078,0.059-0.117h0.176v-0.059h0.117v-0.059H861.6v-0.058Zm7.5,0.117a2.462,2.462,0,0,1,.7.762,6.079,6.079,0,0,0-.938.939l-0.293.234-1.7,1.759-1.114,1.056-2.99,3.049-0.176.117-1.114,1.173a3.219,3.219,0,0,0-.586.586,0.1,0.1,0,0,1-.059-0.058,2.421,2.421,0,0,1-.645-0.7l0.586-.528,1.408-1.466,3.987-3.928,0.762-.821,1.348-1.29,0.118-.176A4,4,0,0,0,869.1,464.144Zm-7.387.88v0.058H861.54a1.2,1.2,0,0,0-.352.411,1.035,1.035,0,0,0,.234,1.348,0.591,0.591,0,0,1,.235.118l0.469,0.058a1.008,1.008,0,0,0,.762-0.586,1.028,1.028,0,0,0,.117-0.7,0.477,0.477,0,0,1-.117-0.234H862.83v-0.117l-0.176-.118V465.2h-0.118l-0.058-.118Zm5.8,4.984c1.161-.022,1.59.133,2.052,0.821l0.118,0.058q0.087,0.264.176,0.528h0.058v0.293h0.059a1.557,1.557,0,0,1-.117.821v0.176h-0.059l-0.117.352-0.118.059v0.117l-0.117.058-0.234.294H869.1l-0.058.117-0.235.059v0.058l-0.352.059v0.058H867.52v-0.058l-0.351-.059v-0.058l-0.235-.059-0.059-.117h-0.117c-0.02-.039-0.039-0.079-0.059-0.118l-0.293-.234v-0.117l-0.117-.059-0.117-.352h-0.059v-0.117h-0.059V472.3A1.427,1.427,0,0,1,866,471.65h0.058v-0.294h0.059v-0.117h0.059l0.117-.352,0.117-.058v-0.118l0.293-.234,0.059-.117h0.117l0.059-.118h0.117v-0.058h0.118v-0.059l0.351-.059v-0.058Zm0.117,1a0.572,0.572,0,0,1-.234.117l-0.059.117a1,1,0,0,0-.351,1h0.058v0.176l0.118,0.059v0.117h0.058l0.176,0.234a0.545,0.545,0,0,1,.234.118c0.816,0.024.967-.041,1.232-0.587a0.782,0.782,0,0,0,.117-0.586,3.992,3.992,0,0,1-.176-0.411l-0.234-.175v-0.059A1.846,1.846,0,0,0,867.637,471.005Z" transform="translate(-850 -454)"/>
</svg>
