<svg xmlns="http://www.w3.org/2000/svg" width="30" height="30" viewBox="0 0 30 30">
  <defs>
    <style>
      .cls-1 {
        fill: #fff;
        fill-rule: evenodd;
      }
    </style>
  </defs>
  <path id="Фигура_7" data-name="Фигура 7" class="cls-1" d="M875.577,458.362v0.117l0.76,0.7V459.3l0.292,0.234v0.117l0.234,0.175L876.922,460l0.117,0.058v0.117l0.117,0.058v0.117l0.175,0.117v0.117l0.117,0.058c0.019,0.059.039,0.117,0.058,0.176h0.059v0.117l0.117,0.058c0.019,0.078.039,0.156,0.058,0.234l0.117,0.058,0.117,0.351,0.117,0.059v0.116h0.058v0.117h0.059v0.117h0.058v0.117h0.059v0.117h0.058V462.4h0.059v0.117H878.5l0.117,0.351h0.059v0.175h0.058c0.019,0.078.039,0.156,0.058,0.234h0.059q0.351,1.082.7,2.162v0.293c0.083,0.266.154,0.66,0.234,0.935v0.409h0.059v0.468H879.9v0.935h0.059a4.056,4.056,0,0,1-.059,1.227,11.257,11.257,0,0,1-.526,3.274v0.233h-0.058v0.176H879.26v0.175H879.2v0.175h-0.059v0.176h-0.058v0.175h-0.059c-0.019.117-.039,0.234-0.058,0.351h-0.059v0.117h-0.058v0.175h-0.059c-0.019.078-.039,0.156-0.058,0.234h-0.058v0.175h-0.059l-0.117.351h-0.058v0.117h-0.059v0.117h-0.058v0.117h-0.059v0.117h-0.058v0.117h-0.059v0.116h-0.058v0.117l-0.117.059-0.117.351H877.8c-0.02.058-.039,0.116-0.059,0.175l-0.117.058c-0.019.078-.039,0.156-0.058,0.234h-0.059c-0.019.059-.039,0.117-0.058,0.175l-0.117.059v0.117l-0.175.117v0.117l-0.117.058v0.117l-0.176.117v0.117l-0.234.175a5.8,5.8,0,0,1-.584.76,1.277,1.277,0,0,0-.468.526H875.46q-0.321.351-.643,0.7H874.7c-0.078.1-.156,0.195-0.233,0.293H874.35l-0.059.117h-0.058l-0.059.117h-0.117l-0.117.175-0.175.058-0.058.117H873.59l-0.059.117-0.175.059v0.058h-0.117l-0.059.117h-0.117c-0.019.039-.038,0.078-0.058,0.117l-0.175.058V481.8l-0.234.058-0.059.117H872.42v0.059l-0.35.116-0.059.117-0.234.059v0.058h-0.116v0.059l-0.351.117v0.058h-0.176v0.059l-0.233.058v0.058h-0.176v0.059h-0.117v0.058h-0.175v0.059h-0.117v0.058l-0.351.059v0.058h-0.117V483.2h-0.234v0.058h-0.175v0.058h-0.175v0.059l-0.409.058V483.5l-0.468.058v0.059l-0.935.117v0.058H867.1v0.059h-0.468v0.058h-0.7v0.058a7.794,7.794,0,0,1-1.871-.058l-1.169-.058c-0.472-.138-1.075-0.2-1.52-0.351h-0.234v-0.059h-0.175v-0.058h-0.234V483.32h-0.176v-0.058h-0.175V483.2H860.2v-0.059h-0.176v-0.058l-0.35-.059V482.97H859.56v-0.059h-0.176v-0.058h-0.117v-0.059h-0.175v-0.058l-0.234-.058v-0.059h-0.117v-0.058h-0.175V482.5l-0.351-.117v-0.058l-0.234-.059-0.058-.117h-0.117v-0.058h-0.117v-0.058h-0.117v-0.059h-0.117l-0.058-.117-0.234-.058-0.059-.117h-0.117c-0.019-.039-0.038-0.078-0.058-0.117h-0.117l-0.058-.117h-0.117v-0.058l-0.176-.059-0.058-.117h-0.117l-0.117-.175h-0.117l-0.058-.117-0.176-.058-0.175-.234h-0.117l-0.234-.293h-0.117v-0.058L855,480.164a1.493,1.493,0,0,0-.585-0.526v-0.117q-0.379-.351-0.76-0.7V478.7l-0.292-.234v-0.117l-0.234-.175c-0.019-.059-0.039-0.117-0.058-0.176l-0.117-.058v-0.117l-0.117-.058v-0.117l-0.175-.117v-0.117l-0.117-.059v-0.116l-0.117-.059c-0.02-.058-0.039-0.117-0.059-0.175h-0.058v-0.117h-0.059v-0.117l-0.116-.058c-0.039-.117-0.079-0.234-0.117-0.351l-0.117-.059v-0.117h-0.059v-0.116h-0.058v-0.117h-0.059v-0.117h-0.058v-0.117h-0.059v-0.117h-0.058v-0.117h-0.058q-0.06-.175-0.117-0.351h-0.059c-0.019-.1-0.039-0.194-0.058-0.292H851.2v-0.117h-0.058v-0.175h-0.059v-0.117h-0.058c-0.02-.117-0.039-0.234-0.059-0.351h-0.058v-0.117h-0.059c-0.019-.117-0.039-0.234-0.058-0.35h-0.059v-0.234h-0.058v-0.176h-0.058l-0.117-.643H850.44l-0.117-.876h-0.058c-0.02-.254-0.039-0.507-0.059-0.76h-0.058v-0.468h-0.059v-0.877h-0.058a3.477,3.477,0,0,1,.058-1.169v-0.876h0.059v-0.468h0.058v-0.409h0.059v-0.351h0.058v-0.35h0.059v-0.234h0.058v-0.293H850.5l0.117-.642h0.058v-0.176h0.058l0.117-.584h0.059v-0.117h0.058c0.02-.117.039-0.234,0.059-0.351h0.058v-0.117h0.059v-0.175H851.2c0.02-.078.039-0.156,0.059-0.234h0.058v-0.175h0.059q0.057-.175.117-0.351h0.058V462.4h0.058v-0.117h0.059v-0.117h0.058v-0.117h0.059v-0.117h0.058V461.81H851.9v-0.116l0.117-.059c0.038-.117.078-0.234,0.117-0.351l0.116-.058c0.02-.078.039-0.156,0.059-0.234l0.117-.058v-0.117h0.058l0.059-.176,0.117-.058v-0.117l0.175-.117v-0.117l0.117-.058v-0.117l0.175-.117v-0.117l0.234-.175v-0.117l0.292-.234V459.18l0.643-.584,0.059-.176,0.234-.117,0.584-.643h0.117l0.234-.292h0.117l0.175-.234h0.117l0.117-.175h0.117l0.117-.175H856.4l0.058-.117,0.176-.059V456.55h0.117l0.058-.117h0.117c0.02-.039.039-0.078,0.058-0.117H857.1l0.059-.117,0.234-.058,0.058-.117h0.117v-0.059h0.117v-0.058h0.117v-0.058h0.117c0.019-.04.039-0.078,0.058-0.117l0.234-.059v-0.058l0.351-.117v-0.059h0.175v-0.058h0.117v-0.059l0.234-.058v-0.058h0.175v-0.059h0.117v-0.058h0.176V455.03h0.117v-0.058l1.929-.585,1.753-.292h0.7v-0.058a7.743,7.743,0,0,1,1.871.058h0.526l1.052,0.117v0.058H867.8v0.059H868.1v0.058h0.292v0.059h0.234V454.5h0.234v0.059h0.233v0.058l0.76,0.175v0.059h0.117v0.058h0.176v0.059l0.35,0.058v0.059l0.234,0.058v0.059H870.9v0.058l0.233,0.058v0.059h0.176v0.058l0.351,0.117v0.059h0.116v0.058l0.234,0.059,0.059,0.117h0.117v0.058H872.3v0.058h0.116v0.059h0.117l0.059,0.117h0.117V456.2h0.117v0.059l0.175,0.058c0.02,0.039.039,0.078,0.058,0.117h0.117l0.059,0.117h0.117v0.058l0.175,0.059,0.059,0.117h0.117l0.116,0.175h0.117l0.117,0.175h0.117l0.176,0.234h0.117c0.038,0.059.077,0.117,0.116,0.176h0.059c0.019,0.039.039,0.078,0.058,0.116h0.117l0.059,0.117A2.7,2.7,0,0,0,875.577,458.362Zm-11.458-3.156a2.182,2.182,0,0,1-.643.058v0.058l-0.818.059v0.058h-0.351V455.5h-0.292v0.058h-0.234v0.059h-0.234v0.058h-0.234v0.059l-0.409.058v0.059h-0.175v0.058h-0.176v0.058h-0.175v0.059H860.2v0.058h-0.117v0.059l-0.351.058v0.059l-0.234.058v0.059h-0.117v0.058h-0.175v0.058l-0.351.117v0.059h-0.117v0.058l-0.35.117-0.059.117-0.351.117v0.058l-0.175.059-0.059.117-0.233.058v0.059l-0.176.058-0.058.117h-0.117l-0.117.175h-0.117l-0.058.117h-0.117l-0.117.176H856.52l-0.176.233h-0.116l-0.293.351h-0.117l-0.584.643-0.585.526v0.117l-0.351.292v0.117l-0.233.176v0.116l-0.176.117v0.117l-0.117.059v0.117h-0.058c-0.02.058-.039,0.117-0.059,0.175l-0.175.117c-0.019.078-.039,0.156-0.058,0.234l-0.117.058c-0.02.059-.039,0.117-0.059,0.175h-0.058c-0.02.078-.039,0.156-0.059,0.234l-0.117.059v0.117h-0.058v0.117H852.9v0.116h-0.058v0.117h-0.058v0.117H852.72V462.8h-0.058v0.117H852.6v0.117h-0.058v0.117h-0.059c-0.019.078-.039,0.156-0.058,0.234h-0.059v0.117h-0.058v0.175h-0.059V463.8h-0.058v0.175h-0.058v0.117h-0.059c-0.02.117-.039,0.234-0.058,0.351H851.96v0.175H851.9v0.176h-0.059v0.175h-0.058v0.175h-0.059v0.234h-0.058v0.234h-0.059v0.234h-0.058c-0.02.175-.039,0.35-0.058,0.526h-0.059v0.35h-0.058l-0.117,1.111v0.584H851.2a3.473,3.473,0,0,0,.059,1.169V470.4h0.058v0.467h0.059v0.41h0.058v0.35h0.059v0.234h0.058v0.292h0.058v0.234h0.059c0.019,0.156.039,0.312,0.058,0.468h0.059v0.175h0.058v0.175H851.9v0.176h0.058v0.175h0.059c0.019,0.117.038,0.234,0.058,0.351h0.059v0.117h0.058V474.2h0.058v0.117h0.059v0.175h0.058l0.117,0.351h0.059v0.117H852.6v0.117h0.059V475.2h0.058v0.117h0.059v0.117h0.058v0.116H852.9v0.117h0.059v0.117h0.058V475.9l0.117,0.059c0.02,0.078.039,0.156,0.059,0.233h0.058l0.059,0.176,0.117,0.058c0.019,0.078.039,0.156,0.058,0.234l0.175,0.117c0.02,0.058.039,0.117,0.059,0.175h0.058v0.117l0.117,0.059v0.117l0.234,0.175v0.117l0.175,0.117v0.117l0.351,0.292v0.117l0.643,0.584,0.526,0.585h0.117l0.293,0.351h0.116c0.059,0.077.117,0.155,0.176,0.233h0.117l0.117,0.176h0.117l0.058,0.117h0.117l0.117,0.175h0.117l0.058,0.117,0.176,0.058v0.059l0.233,0.058,0.059,0.117,0.175,0.059v0.058l0.351,0.117,0.059,0.117,0.35,0.117v0.058h0.117v0.059l0.351,0.116v0.059h0.175v0.058H859.5v0.059l0.234,0.058V481.8l0.351,0.058v0.059H860.2v0.058l2.1,0.585h0.351v0.058h0.351v0.059h0.467v0.058h0.643a7.082,7.082,0,0,0,1.754.058v-0.058h0.643v-0.058h0.468v-0.059h0.409v-0.058l0.585-.059v-0.058l0.467-.059v-0.058l0.468-.059V482.21h0.175v-0.059h0.176v-0.058h0.175v-0.058l0.351-.059v-0.058h0.117v-0.059h0.175V481.8H870.2v-0.059h0.175v-0.058h0.117v-0.059l0.293-.058v-0.059l0.35-.116v-0.059h0.117v-0.058l0.351-.117,0.059-.117,0.35-.117,0.059-.117,0.234-.058V480.69l0.175-.058,0.058-.117h0.117v-0.059l0.176-.058,0.058-.117h0.117l0.117-.175h0.117l0.117-.176h0.117l0.175-.233h0.117l0.292-.351h0.117l0.585-.643,0.584-.526V478.06l0.351-.292v-0.117l0.176-.117v-0.117c0.077-.059.155-0.117,0.233-0.175v-0.117l0.117-.059c0.02-.058.039-0.117,0.059-0.175h0.058v-0.117l0.176-.117c0.019-.078.039-0.156,0.058-0.234l0.117-.058c0.019-.059.039-0.117,0.058-0.176h0.059c0.019-.077.039-0.155,0.058-0.233l0.117-.059V475.78h0.059v-0.117H877.1v-0.117h0.059V475.43h0.058v-0.117h0.058V475.2h0.059v-0.117h0.058v-0.117h0.059l0.117-.351h0.058v-0.175h0.059c0.019-.078.039-0.156,0.058-0.234H877.8c0.019-.1.039-0.195,0.058-0.292h0.059c0.019-.117.039-0.234,0.058-0.351h0.058v-0.175h0.059v-0.176h0.058v-0.175h0.059v-0.175h0.058l0.117-.7h0.059c0.019-.175.039-0.35,0.058-0.526h0.059v-0.35h0.058v-0.41h0.059V470.4h0.058v-0.819h0.058q-0.029-.993-0.058-1.987h-0.058l-0.117-1.227H878.5c-0.019-.176-0.039-0.351-0.058-0.526h-0.059V465.61h-0.058v-0.234h-0.059v-0.234h-0.058v-0.175h-0.059v-0.175h-0.058v-0.176h-0.059v-0.175h-0.058c-0.019-.117-0.039-0.234-0.058-0.351h-0.059v-0.117H877.8V463.8H877.74c-0.019-.078-0.039-0.156-0.058-0.234h-0.059v-0.175h-0.058l-0.117-.351h-0.059v-0.117h-0.058V462.8h-0.059v-0.117h-0.058V462.57h-0.058v-0.117H877.1v-0.116h-0.058V462.22H876.98V462.1l-0.117-.059c-0.019-.078-0.039-0.156-0.058-0.234h-0.059c-0.019-.058-0.039-0.116-0.058-0.175l-0.117-.058c-0.019-.078-0.039-0.156-0.058-0.234l-0.176-.117v-0.117h-0.058c-0.02-.058-0.039-0.117-0.059-0.175l-0.117-.059v-0.117l-0.233-.175v-0.117l-0.176-.117v-0.117l-0.351-.292v-0.117l-0.584-.526-0.585-.643h-0.117l-0.292-.351h-0.117l-0.175-.233h-0.117l-0.117-.176h-0.117l-0.117-.175h-0.117l-0.058-.117-0.176-.058v-0.059h-0.117l-0.058-.117-0.175-.058v-0.059l-0.234-.058-0.059-.117-0.35-.117-0.059-.117-0.351-.117v-0.058h-0.117v-0.059l-0.35-.117v-0.058h-0.176v-0.058h-0.117v-0.059l-0.234-.058V456.2l-0.35-.058v-0.059H869.79v-0.058l-0.351-.059v-0.058h-0.175v-0.058h-0.176V455.79h-0.175v-0.058h-0.234v-0.059h-0.234v-0.058h-0.233v-0.059h-0.234V455.5h-0.293v-0.059h-0.292v-0.058h-0.351v-0.059h-0.526A10.465,10.465,0,0,0,864.119,455.206Zm-0.233,2.338a10.824,10.824,0,0,1,2.689.116h0.409l1.987,0.527v0.058l0.293,0.058v0.059h0.117v0.058h0.175v0.059l0.351,0.117v0.058h0.117v0.059h0.117v0.058h0.116v0.058h0.117v0.059h0.117v0.058h0.117v0.059h0.117l0.059,0.117,0.233,0.058,0.059,0.117h0.117l0.058,0.117h0.117l0.059,0.117h0.117l0.058,0.117h0.117l0.117,0.175h0.117L872.07,460h0.117l0.233,0.292h0.117l0.526,0.584,0.585,0.526v0.117l0.292,0.234v0.117l0.117,0.058v0.059l0.117,0.058v0.117l0.117,0.059v0.117l0.176,0.116v0.117l0.116,0.059c0.02,0.058.039,0.117,0.059,0.175H874.7c0.02,0.078.039,0.156,0.059,0.234l0.117,0.058,0.117,0.351,0.117,0.059c0.019,0.078.039,0.155,0.058,0.233h0.059v0.117h0.058l0.117,0.351h0.058v0.175h0.059c0.019,0.078.039,0.156,0.058,0.234h0.059c0.019,0.1.039,0.195,0.058,0.292h0.059v0.176h0.058v0.175h0.059v0.175h0.058v0.176h0.058v0.234a9.925,9.925,0,0,1,.293,5.026v0.351H876.22v0.292h-0.058v0.234H876.1v0.234h-0.058v0.175h-0.059v0.234h-0.058v0.175H875.87v0.176h-0.059v0.175h-0.058v0.176h-0.059v0.116h-0.058v0.176h-0.059c-0.019.078-.039,0.156-0.058,0.234H875.46v0.175H875.4l-0.117.351h-0.058v0.117h-0.059c-0.019.077-.039,0.155-0.058,0.233l-0.117.059-0.117.35-0.117.059c-0.02.078-.039,0.156-0.059,0.234l-0.117.058v0.117l-0.116.059v0.116l-0.176.117v0.117l-0.117.059v0.117l-0.234.175v0.117l-0.292.234V476.6l-0.351.292-0.76.818H872.42l-0.233.292H872.07l-0.117.176-0.176.058-0.058.117H871.6l-0.058.117-0.176.059v0.058h-0.117l-0.058.117h-0.117l-0.059.117-0.233.058-0.059.117h-0.117v0.059h-0.117v0.058h-0.117v0.058h-0.117v0.059h-0.116v0.058h-0.117v0.059h-0.117V479.4l-0.351.117v0.059h-0.175v0.058h-0.117V479.7h-0.176v0.058h-0.117v0.058l-0.526.117v0.059h-0.233v0.058h-0.176v0.059H867.8v0.058h-0.234v0.059h-0.292v0.058h-0.292v0.058l-0.877.059a6.6,6.6,0,0,1-2.221,0h-0.468v-0.059h-0.351v-0.058h-0.351v-0.058h-0.292v-0.059H862.19v-0.058h-0.233v-0.059h-0.176v-0.058h-0.234a11.536,11.536,0,0,1-6.021-4.559l-0.117-.059-0.935-1.695V473.5h-0.059v-0.117h-0.058c-0.02-.1-0.039-0.195-0.059-0.292H854.24v-0.176h-0.058v-0.175h-0.059v-0.176h-0.058V472.39h-0.059v-0.175h-0.058v-0.234h-0.059v-0.234h-0.058v-0.234h-0.059v-0.292a1.758,1.758,0,0,1-.117-0.7h0.059c0.019-.078.039-0.156,0.058-0.234a0.8,0.8,0,0,1,.643-0.175v0.058l0.234,0.058,0.059,0.176h0.058v0.117h0.059v0.292h0.058V471.1h0.059V471.4q0.291,0.877.584,1.754h0.059c0.038,0.117.077,0.234,0.116,0.351h0.059v0.117h0.058v0.116h0.059v0.117h0.058v0.117h0.059v0.117h0.058V474.2l0.117,0.059c0.02,0.077.039,0.155,0.059,0.233h0.058c0.02,0.059.039,0.117,0.058,0.176l0.117,0.058v0.117l0.117,0.058v0.117l0.176,0.117v0.117l0.175,0.117c0.02,0.059.039,0.117,0.058,0.175l0.351,0.293v0.117l0.526,0.467,0.234,0.293h0.117l0.234,0.292h0.117l0.175,0.234,0.176,0.058,0.058,0.117h0.117c0.02,0.039.039,0.078,0.058,0.117l0.176,0.058v0.059h0.117l0.058,0.117,0.234,0.058c0.02,0.039.039,0.078,0.058,0.117h0.117V478h0.117v0.059h0.117v0.058h0.117v0.059h0.117v0.058H860.5l0.058,0.117h0.176v0.059l0.234,0.058v0.059l1.636,0.526,0.877,0.116v0.059l1.462,0.058a8.736,8.736,0,0,0,3.274-.526l0.526-.117v-0.058l0.292-.058v-0.059l0.234-.058v-0.059h0.175v-0.058l0.234-.059v-0.058h0.117l0.058-.117,0.351-.117c0.02-.039.039-0.078,0.058-0.117l0.234-.058,0.059-.117h0.117v-0.059l0.175-.058,0.059-.117h0.116l0.117-.175h0.117l0.059-.117,0.175-.059,0.292-.35h0.117l0.468-.527,0.292-.233v-0.117l0.351-.293c0.02-.058.039-0.116,0.058-0.175l0.176-.117v-0.117l0.117-.058v-0.117l0.175-.117v-0.117l0.117-.058c0.02-.078.039-0.156,0.059-0.234l0.116-.059c0.02-.077.039-0.155,0.059-0.233l0.117-.059,0.117-.351h0.058v-0.116h0.059V473.5h0.058l0.117-.351h0.059v-0.175h0.058v-0.117h0.058v-0.176h0.059v-0.117H874.7V472.39h0.059v-0.175h0.058v-0.176h0.059l0.351-1.636q0.029-.76.058-1.52a9.321,9.321,0,0,0-.818-3.858V464.85h-0.059l-0.117-.351h-0.058v-0.117h-0.059v-0.117h-0.058v-0.116h-0.059v-0.117H874v-0.117H873.94V463.8h-0.058l-0.059-.176-0.116-.058c-0.02-.078-0.039-0.156-0.059-0.234l-0.117-.058v-0.117l-0.175-.117v-0.117l-0.117-.058v-0.117l-0.234-.176v-0.117l-0.292-.233V462.1l-0.351-.293-0.468-.526-0.175-.058-0.234-.292h-0.117l-0.117-.176h-0.117l-0.117-.175H870.9l-0.059-.117h-0.117l-0.058-.117H870.55l-0.059-.117-0.175-.058v-0.059H870.2v-0.058h-0.117V460h-0.117V459.94h-0.117l-0.058-.117h-0.117v-0.058l-0.234-.059v-0.058h-0.175v-0.059l-0.234-.058v-0.059h-0.175v-0.058h-0.117v-0.058l-0.526-.117V459.18h-0.176v-0.058h-0.175v-0.059h-0.176v-0.058h-0.292a8.8,8.8,0,0,0-3.917-.176h-0.35v0.059h-0.293v0.058H862.6v0.059h-0.233v0.058h-0.234v0.059h-0.175v0.058h-0.176v0.059h-0.234V459.3l-0.292.059v0.058h-0.117v0.058h-0.175v0.059h-0.117v0.058l-0.293.059-0.058.117h-0.117v0.058h-0.117v0.059h-0.117v0.058h-0.117V460H859.91v0.058h-0.117v0.058h-0.116l-0.059.117H859.5l-0.058.117h-0.117v0.059l-0.176.058c-0.019.039-.038,0.078-0.058,0.117h-0.117l-0.117.175h-0.117l-0.058.117h-0.059l-0.058.117h-0.117l-0.234.292H858.1l-0.467.526-0.293.234v0.117l-0.351.292c-0.019.059-.038,0.117-0.058,0.176l-0.175.117v0.117l-0.176.116V463.1l-0.117.059v0.117l-0.117.058v0.117l-0.116.059-0.059.233-0.117.059v0.117h-0.058v0.117h-0.059v0.117h-0.058v0.116l-0.351.585h-0.117v0.058a0.83,0.83,0,0,1-.526,0V464.85h-0.117l-0.058-.117h-0.059c-0.019-.1-0.039-0.195-0.058-0.292h-0.059a2.393,2.393,0,0,1,.351-0.819c0.019-.077.039-0.155,0.059-0.233l0.116-.059c0.02-.078.039-0.156,0.059-0.234l0.117-.058c0.019-.078.039-0.156,0.058-0.234l0.117-.058v-0.117h0.059c0.019-.059.039-0.117,0.058-0.176l0.117-.058v-0.117l0.175-.117a11.522,11.522,0,0,1,4.911-3.858H860.9v-0.058h0.117v-0.058l1.988-.527A3.258,3.258,0,0,0,863.886,457.544Zm-2.806,17.009c-0.013-1.143-.114-2.048.467-2.63l0.117-.176a3.24,3.24,0,0,1,1.812-.292h3.1a3.09,3.09,0,0,1,1.753.292l0.176,0.234h0.058V472.1l0.117,0.058v0.117h0.059c0.019,0.078.039,0.156,0.058,0.234h0.059v0.351a7.2,7.2,0,0,1,.058,1.695h0.117l0.117-.176h0.117l0.292-.35h0.117l0.175-.234,0.117-.059v-0.116l0.409-.351V473.15l0.176-.117v-0.117l0.117-.058v-0.117l0.117-.059c0.019-.078.039-0.155,0.058-0.233l0.117-.059v-0.117h0.058v-0.117h0.059v-0.117h0.058v-0.116h0.059v-0.117h0.058c0.02-.1.039-0.195,0.059-0.293h0.058c0.135-.308.051-0.6,0.409-0.7a0.45,0.45,0,0,1,.41-0.117,0.67,0.67,0,0,1,.35.351,0.829,0.829,0,0,1,0,.643h-0.058c-0.068.159-.042,0.32-0.117,0.467H872.3v0.117h-0.059c-0.058.176-.117,0.351-0.175,0.526l-0.117.059-0.117.35h-0.059c-0.019.059-.039,0.117-0.058,0.176l-0.117.058v0.117l-0.175.117v0.117l-0.117.058v0.117l-0.293.234v0.117l-0.526.468-0.175.233H870.2l-0.234.293-0.175.058-0.059.117h-0.117c-0.019.039-.038,0.078-0.058,0.117l-0.175.058v0.059h-0.117l-0.059.117-0.234.058-0.058.117-0.234.059v0.058l-0.351.117v0.058h-0.175v0.059l-0.234.058v0.059h-0.175v0.058h-0.176V476.6h-0.175v0.058h-0.175v0.059h-0.234v0.058H866.75v0.058h-0.292v0.059h-0.409v0.058h-0.585v0.059h-0.935v-0.059h-0.585v-0.058h-0.409v-0.059h-0.293v-0.058h-0.233v-0.058h-0.234v-0.059H862.6V476.6h-0.175V476.54h-0.175a7.687,7.687,0,0,1-3.274-2.338l-0.234-.175V473.91l-0.234-.176v-0.116l-0.116-.059c-0.02-.058-0.039-0.117-0.059-0.175h-0.058v-0.117l-0.117-.059-0.117-.35-0.117-.059c-0.02-.078-0.039-0.156-0.059-0.234h-0.058c-0.02-.077-0.039-0.155-0.059-0.233h-0.058v-0.176h-0.058v-0.117h-0.059c-0.019-.1-0.039-0.194-0.058-0.292h-0.059v-0.175H857.4V471.4h-0.059c-0.019-.136-0.039-0.272-0.058-0.409h-0.059c-0.019-.194-0.039-0.389-0.058-0.584H857.1c-0.019-.331-0.039-0.663-0.058-0.994h-0.059v-0.818h0.059v-0.643H857.1V467.6h0.059c0.019-.195.039-0.39,0.058-0.584h0.059c0.019-.137.039-0.273,0.058-0.41H857.4v-0.175h0.058v-0.175h0.059v-0.117h0.058v-0.175h0.059v-0.117h0.058v-0.176h0.058c0.02-.078.039-0.156,0.059-0.234h0.058c0.02-.077.039-0.155,0.059-0.233l0.117-.059,0.117-.35,0.117-.059v-0.117h0.058c0.02-.058.039-0.117,0.059-0.175l0.116-.059v-0.117l0.117-.058c0.02-.058.039-0.117,0.059-0.175l0.292-.234v-0.117l0.526-.468,0.176-.234h0.116l0.234-.292h0.117l0.117-.175h0.117l0.059-.117h0.116l0.059-.117h0.117l0.058-.117,0.234-.058,0.059-.117,0.233-.059v-0.058h0.117V461.81l0.351-.116v-0.059h0.176v-0.058h0.116v-0.059h0.176V461.46h0.175V461.4H862.6v-0.058h0.176v-0.059l0.467-.058v-0.058l0.644-.059v-0.058h0.584v-0.059h1.052v0.059l0.936,0.058v0.059h0.292v0.058l0.468,0.058v0.059h0.175V461.4h0.175v0.059h0.176v0.058h0.175v0.059h0.117v0.058h0.176v0.059l0.35,0.116v0.059h0.117v0.058l0.234,0.059,0.058,0.117,0.234,0.058v0.059l0.176,0.058,0.058,0.117h0.117c0.02,0.039.039,0.078,0.058,0.117h0.117l0.059,0.117,0.175,0.058,0.234,0.292h0.117l0.468,0.527c0.078,0.058.156,0.116,0.233,0.175V463.8l0.293,0.234v0.117l0.175,0.116v0.117l0.117,0.059v0.117l0.117,0.058c0.019,0.059.039,0.117,0.058,0.176h0.059l0.117,0.35,0.117,0.059c0.019,0.078.039,0.156,0.058,0.233h0.059V465.9a1.784,1.784,0,0,1-.234.234,0.677,0.677,0,0,1-.526.117v-0.059H871.31c-0.1-.117-0.195-0.234-0.293-0.35v-0.117h-0.058V465.61l-0.117-.059v-0.117h-0.058v-0.116l-0.117-.059v-0.117l-0.117-.058v-0.117l-0.176-.117v-0.117l-0.35-.292v-0.117l-0.117-.059-0.234-.292h-0.117l-0.292-.351h-0.117l-0.117-.175h-0.117c-0.02-.039-0.039-0.078-0.058-0.117h-0.117l-0.059-.117-0.175-.058V463.1l-0.351-.117v-0.058h-0.117v-0.058l-0.351-.117v-0.059H867.51v-0.058h-0.117V462.57l-0.526-.117V462.4h-0.234v-0.058h-0.292v-0.059H865.99V462.22h-0.526v-0.059h-0.935v0.059h-0.585v0.058h-0.292v0.059h-0.293V462.4h-0.175v0.058H862.95a7.414,7.414,0,0,0-3.916,3.157c-0.02.078-.039,0.156-0.059,0.234h-0.058l-0.117.35h-0.059v0.176h-0.058v0.117h-0.059v0.175h-0.058v0.117h-0.059c-0.019.136-.039,0.273-0.058,0.409h-0.058v0.234h-0.059v0.292h-0.058v0.292h-0.059v0.643h-0.058q0.029,0.643.058,1.286h0.059v0.351h0.058v0.292h0.059v0.234h0.058v0.175h0.058v0.234h0.059v0.117h0.058v0.175h0.059v0.117h0.058v0.176H858.8l0.117,0.35h0.058c0.02,0.078.039,0.156,0.059,0.234l0.116,0.059,0.059,0.233h0.058l0.059,0.176,0.117,0.058v0.117l0.175,0.117v0.117l0.351,0.292c0.019,0.059.039,0.117,0.058,0.175l0.117,0.059,0.176,0.234h0.117l0.058,0.117,0.234,0.175v0.058h0.117v0.059A0.459,0.459,0,0,0,861.08,474.553Zm3.39-10.054,1.345,0.059v0.058l0.35,0.059v0.058h0.117v0.059l0.293,0.058,0.058,0.117,0.234,0.058,0.117,0.176H867.1l0.292,0.35,0.175,0.117v0.117l0.176,0.117c0.019,0.078.039,0.156,0.058,0.234l0.117,0.058v0.117h0.059v0.117h0.058c0.02,0.117.039,0.234,0.059,0.351h0.058v0.175h0.059a5.664,5.664,0,0,1,.058,1.4h-0.058v0.234h-0.059c-0.019.136-.039,0.273-0.058,0.409h-0.059v0.117h-0.058v0.117h-0.059v0.117h-0.058v0.117H867.8v0.116l-0.175.117v0.117l-0.292.234-0.351.409h-0.117l-0.059.117-0.233.059c-0.02.039-.039,0.078-0.059,0.116l-0.877.293H865.23V471.1a4.287,4.287,0,0,1-1.286-.175V470.87h-0.175v-0.058l-0.351-.117v-0.058l-0.234-.059-0.058-.117h-0.117l-0.234-.292-0.409-.351V469.7l-0.176-.117c-0.019-.077-0.039-0.155-0.058-0.233h-0.059c-0.039-.117-0.078-0.234-0.116-0.351H861.9v-0.175a2.753,2.753,0,0,1-.117-1.579c0.02-.175.039-0.35,0.059-0.526H861.9V466.6h0.059v-0.175h0.058v-0.117h0.058v-0.117l0.117-.058c0.02-.078.039-0.156,0.059-0.234l0.175-.117v-0.117l0.409-.35,0.059-.117h0.117l0.117-.176,0.233-.058,0.059-.117Zm0.117,1.169-0.643.234-0.058.117h-0.117l-0.059.117h-0.117v0.058l-0.234.176v0.117l-0.175.116v0.117h-0.058c-0.02.078-.039,0.156-0.059,0.234h-0.058c-0.02.117-.039,0.234-0.059,0.351h-0.058q0.028,0.584.058,1.169h0.059v0.117h0.058v0.175l0.117,0.059v0.117L863.3,469v0.117l0.351,0.292,0.058,0.117h0.117l0.059,0.117,0.233,0.058v0.059l0.351,0.058v0.059h0.351v0.058l0.7-.058v-0.059l0.351-.058V469.7l0.234-.058c0.02-.039.039-0.078,0.058-0.117h0.117l0.293-.351,0.117-.058V469l0.116-.058v-0.117l0.117-.059,0.117-.526a2.165,2.165,0,0,0,.059-0.935h-0.059c-0.019-.117-0.039-0.234-0.058-0.351h-0.059c-0.019-.078-0.039-0.156-0.058-0.234h-0.059V466.6l-0.175-.116V466.37l-0.234-.176v-0.058h-0.117l-0.058-.117-0.175-.058V465.9h-0.117A2.317,2.317,0,0,0,864.587,465.668Zm-10.522,1.052a2.337,2.337,0,0,1,.526.059,1.046,1.046,0,0,1,.234.7,1.268,1.268,0,0,1-.468.409,0.651,0.651,0,0,1-.7-0.759h0.059c0.019-.078.039-0.156,0.058-0.234a1.421,1.421,0,0,1,.293-0.117V466.72Zm17.888,1.169a0.9,0.9,0,0,1,.818,0,0.714,0.714,0,0,1,.176.643h-0.059c-0.019.078-.039,0.156-0.058,0.234-0.337.168-.5,0.305-0.819,0l-0.175-.117v-0.175h-0.059V468.24h0.059v-0.175h0.058Zm-9.47,4.735a0.453,0.453,0,0,1-.176.117c-0.066.741-.058,1.68-0.058,2.513a0.105,0.105,0,0,1,.058.059,2.638,2.638,0,0,1,.643.233h0.234v0.059h0.234v0.058h0.234v0.059H864a5.086,5.086,0,0,0,2.573-.117h0.233v-0.059h0.234v-0.058h0.176V475.43h0.175v-0.059l0.292-.058v-0.059a1.293,1.293,0,0,0,.059-0.643v-1.695h-0.059v-0.175h-0.058a2.613,2.613,0,0,0-1.345-.117h-3.8Z" transform="translate(-850 -454)"/>
</svg>
