<svg xmlns="http://www.w3.org/2000/svg" width="51" height="60.03" viewBox="0 0 51 60.03">
  <defs>
    <style>
      .cls-1 {
        fill: #016faf;
        fill-rule: evenodd;
      }
    </style>
  </defs>
  <path id="Фигура_10" data-name="Фигура 10" class="cls-1" d="M1284.77,4114c2.18-.04,2.76.64,3.97,1.52,0.28,0.31.55,0.63,0.82,0.94h0.24c0.11,0.15.23,0.31,0.35,0.47h0.23c0.08,0.11.16,0.23,0.23,0.35h0.24c0.07,0.11.15,0.23,0.23,0.35h0.23c0.08,0.12.16,0.23,0.24,0.35l0.46,0.12c0.04,0.07.08,0.15,0.12,0.23l0.47,0.12c0.04,0.08.08,0.15,0.12,0.23,0.11,0.04.23,0.08,0.35,0.12v0.12c0.15,0.04.31,0.07,0.46,0.11v0.12h0.24v0.12H1294v0.11h0.23v0.12h0.24v0.12l0.46,0.12v0.11c0.35,0.12.71,0.24,1.06,0.35v0.12h0.35v0.12h0.35v0.12h0.23v0.11h0.35v0.12h0.35v0.12h0.35v0.11h0.47v0.12h0.47v0.12h0.46v0.11h0.35v0.12h0.59c0.6,0.19,1.49.29,2.1,0.47h1.28v0.12h1.17v0.11h0.94v0.12h0.46v0.12h0.24v0.12c0.23,0.03.46,0.07,0.7,0.11v0.12h0.23c0.04,0.08.08,0.16,0.12,0.23l0.46,0.12c0.08,0.12.16,0.23,0.24,0.35h0.23c0.24,0.28.47,0.55,0.7,0.82l0.24,0.12v0.23c0.11,0.08.23,0.16,0.35,0.24v0.23c0.07,0.04.15,0.08,0.23,0.12v0.23h0.12c0.04,0.16.07,0.31,0.11,0.47h0.12c0.08,0.35.16,0.7,0.23,1.05h0.12v0.59h0.12v2.69a20.354,20.354,0,0,1,.11,4.45,17.415,17.415,0,0,1-.11,3.86v1.29l-0.12,2.58h-0.12c-0.03.78-.07,1.56-0.11,2.34-0.19.63-.28,1.59-0.47,2.22v0.7h-0.12c-0.07.59-.15,1.18-0.23,1.76h-0.12c-0.04.31-.08,0.63-0.11,0.94h-0.12v0.47h-0.12c-0.04.27-.08,0.54-0.11,0.81h-0.12v0.36h-0.12c-0.08.39-.15,0.78-0.23,1.17h-0.12v0.23h-0.12c-0.07.35-.15,0.7-0.23,1.05h-0.12c-0.03.2-.07,0.39-0.11,0.59h-0.12v0.23h-0.12v0.35h-0.11c-0.08.24-.16,0.47-0.24,0.71h-0.11v0.23h-0.12v0.24h-0.12c-0.04.19-.07,0.39-0.11,0.58l-0.24.12v0.23h-0.11v0.24h-0.12v0.23h-0.12v0.23h-0.11v0.24l-0.24.12c-0.04.15-.08,0.31-0.11,0.46l-0.24.12v0.24h-0.11v0.23l-0.24.12v0.23c-0.08.04-.15,0.08-0.23,0.12v0.23l-0.24.12v0.23c-0.07.04-.15,0.08-0.23,0.12v0.23c-0.08.04-.15,0.08-0.23,0.12v0.24a2.557,2.557,0,0,0-.24.11c-0.04.12-.07,0.24-0.11,0.35-0.16.12-.31,0.24-0.47,0.36v0.23l-0.47.35v0.23c-0.23.2-.46,0.39-0.7,0.59-0.04.12-.08,0.23-0.11,0.35-0.36.31-.71,0.63-1.06,0.94l-0.46.58h-0.24c-0.31.35-.62,0.71-0.93,1.06h-0.23c-0.12.15-.24,0.31-0.35,0.46h-0.24c-0.12.16-.23,0.32-0.35,0.47h-0.23c-0.08.12-.16,0.24-0.24,0.35h-0.23c-0.08.12-.16,0.24-0.23,0.36h-0.24c-0.04.07-.07,0.15-0.11,0.23h-0.24c-0.07.12-.15,0.23-0.23,0.35l-0.47.12a2.4,2.4,0,0,0-.11.23l-0.36.12v0.12c-0.15.04-.31,0.07-0.46,0.11l-0.12.24h-0.23c-0.04.07-.08,0.15-0.12,0.23h-0.23v0.12h-0.24v0.12H1294v0.11h-0.23l-0.12.24h-0.23v0.11h-0.24v0.12h-0.23v0.12h-0.23v0.11h-0.24v0.12h-0.23v0.12h-0.24v0.12h-0.23v0.11h-0.23v0.12c-0.24.08-.47,0.16-0.7,0.23v0.12l-0.59.12v0.12h-0.23v0.11h-0.35v0.12l-0.47.12v0.11h-0.35V4173h-0.23v0.12c-0.24.04-.47,0.08-0.7,0.11v0.12h-0.24v0.12h-0.35v0.12h-0.35v0.11h-0.35v0.12h-0.58v0.12c-1.07.3-2.76-.57-3.39-0.82h-0.35V4173h-0.23v-0.12h-0.35v-0.11l-0.47-.12v-0.12h-0.35v-0.11l-0.47-.12v-0.12h-0.35v-0.12h-0.23v-0.11l-0.47-.12v-0.12h-0.23v-0.11h-0.24v-0.12h-0.23v-0.12h-0.23v-0.12h-0.24v-0.11H1278v-0.12h-0.23v-0.12h-0.24v-0.11h-0.23v-0.12h-0.23c-0.04-.08-0.08-0.16-0.12-0.23-0.23-.08-0.47-0.16-0.7-0.24-0.04-.08-0.08-0.16-0.12-0.23h-0.23v-0.12h-0.24v-0.12c-0.11-.04-0.23-0.07-0.35-0.11-0.04-.08-0.07-0.16-0.11-0.24l-0.47-.12c-0.04-.07-0.08-0.15-0.12-0.23h-0.23c-0.08-.12-0.16-0.23-0.23-0.35h-0.24c-0.04-.08-0.08-0.16-0.11-0.23h-0.24c-0.08-.12-0.15-0.24-0.23-0.36h-0.24c-0.03-.07-0.07-0.15-0.11-0.23h-0.24c-0.11-.16-0.23-0.31-0.35-0.47h-0.23c-0.12-.15-0.23-0.31-0.35-0.47h-0.23c-0.28-.31-0.55-0.62-0.82-0.93h-0.23c-0.24-.28-0.47-0.55-0.71-0.82-0.38-.35-0.77-0.7-1.16-1.06-0.04-.11-0.08-0.23-0.12-0.35l-0.7-.58v-0.24c-0.16-.11-0.31-0.23-0.47-0.35v-0.23c-0.11-.08-0.23-0.16-0.35-0.24v-0.23c-0.11-.08-0.23-0.16-0.35-0.23l-0.12-.36c-0.07-.03-0.15-0.07-0.23-0.11v-0.24a2.4,2.4,0,0,0-.23-0.11c-0.04-.12-0.08-0.24-0.12-0.35h-0.12v-0.24c-0.07-.04-0.15-0.08-0.23-0.12-0.04-.15-0.08-0.31-0.12-0.46-0.07-.04-0.15-0.08-0.23-0.12-0.04-.16-0.08-0.31-0.12-0.47-0.07-.04-0.15-0.08-0.23-0.12v-0.23h-0.12v-0.24h-0.11v-0.23h-0.12v-0.23c-0.08-.04-0.16-0.08-0.23-0.12-0.04-.16-0.08-0.31-0.12-0.47h-0.12c-0.08-.23-0.15-0.47-0.23-0.7h-0.12v-0.35h-0.12v-0.24h-0.11c-0.04-.15-0.08-0.31-0.12-0.47h-0.12v-0.35h-0.11v-0.23h-0.12c-0.04-.2-0.08-0.39-0.12-0.59h-0.11v-0.35h-0.12v-0.23h-0.12q-0.69-2.46-1.4-4.92c-0.27-1.79-.54-3.59-0.82-5.38v-1.17h-0.11v-1.53h-0.12v-2.1a12.691,12.691,0,0,1-.12-2.81v-5.62h0.12v-2.81h0.12v-0.59h0.11v-0.35h0.12v-0.35h0.12v-0.35h0.12c0.03-.16.07-0.31,0.11-0.47h0.12v-0.23c0.08-.04.15-0.08,0.23-0.12v-0.23c0.12-.08.24-0.16,0.35-0.24v-0.23c0.16-.12.31-0.24,0.47-0.35l0.47-.59h0.23c0.08-.12.16-0.23,0.23-0.35,0.16-.04.32-0.08,0.47-0.12,0.04-.07.08-0.15,0.12-0.23h0.23v-0.12c0.24-.04.47-0.08,0.7-0.11v-0.12h0.24v-0.12h0.46v-0.12h0.94v-0.11h1.17v-0.12h1.28c0.61-.18,1.5-0.28,2.1-0.47h0.59v-0.12h0.35v-0.11h0.46v-0.12h0.47v-0.12h0.47v-0.11h0.35v-0.12h0.35v-0.12h0.35v-0.11h0.23v-0.12l1.05-.24v-0.11c0.24-.08.47-0.16,0.7-0.24v-0.11h0.24v-0.12h0.23v-0.12h0.24v-0.12h0.23v-0.11h0.23v-0.12h0.24v-0.12h0.23v-0.11h0.23v-0.12c0.12-.04.24-0.08,0.35-0.12,0.04-.08.08-0.15,0.12-0.23l0.47-.12c0.04-.08.08-0.16,0.11-0.23h0.24v-0.12h0.23c0.08-.12.16-0.23,0.23-0.35h0.24c0.08-.12.15-0.24,0.23-0.35h0.24c0.07-.12.15-0.24,0.23-0.35h0.23c0.08-.12.16-0.24,0.24-0.35h0.23c0.31-.36.62-0.71,0.93-1.06h0.24l0.58-.7h0.24a1.627,1.627,0,0,1,.11-0.23h0.24v-0.12l0.46-.12v-0.12c0.24-.04.47-0.07,0.7-0.11V4114Zm0.59,3.51c-0.24.2-.47,0.39-0.7,0.59-0.08.11-.16,0.23-0.24,0.35h-0.23c-0.27.31-.55,0.62-0.82,0.93h-0.23c-0.12.16-.23,0.32-0.35,0.47h-0.24c-0.07.12-.15,0.24-0.23,0.35h-0.23l-0.24.36h-0.23c-0.04.07-.08,0.15-0.12,0.23h-0.23c-0.04.08-.08,0.16-0.12,0.23h-0.23l-0.12.24h-0.23c-0.04.08-.08,0.15-0.12,0.23l-0.46.12c-0.04.08-.08,0.16-0.12,0.23-0.24.08-.47,0.16-0.7,0.24-0.04.07-.08,0.15-0.12,0.23-0.15.04-.31,0.08-0.47,0.12v0.12c-0.23.07-.46,0.15-0.7,0.23v0.12h-0.35v0.11h-0.23v0.12l-0.47.12v0.11h-0.35v0.12h-0.23v0.12c-1.36.43-2.73,0.86-4.09,1.29-0.43.04-.86,0.07-1.28,0.11v0.12h-0.59v0.12h-0.7v0.11h-0.82v0.12h-1.28v0.12h-1.29v0.12h-0.58v0.11h-0.35v0.12h-0.23c-0.04.08-.08,0.16-0.12,0.23h-0.23c-0.12.16-.24,0.32-0.35,0.47h-0.12v0.24c-0.08.04-.16,0.08-0.23,0.11-0.04.16-.08,0.32-0.12,0.47h-0.12v0.47h-0.12v3.16a24.579,24.579,0,0,0-.11,5.04,11.767,11.767,0,0,0,.11,2.57v2.22h0.12v1.41h0.12v1.17h0.12v1.05c0.18,0.66.27,1.59,0.46,2.23v0.7h0.12l0.12,1.05h0.11l0.24,1.41h0.11v0.47h0.12c0.04,0.27.08,0.54,0.12,0.82h0.11v0.35h0.12v0.35h0.12v0.35h0.11c0.04,0.23.08,0.47,0.12,0.7h0.12v0.24h0.11v0.35h0.12v0.23h0.12c0.04,0.2.08,0.39,0.11,0.59h0.12c0.08,0.23.16,0.47,0.24,0.7h0.11v0.23h0.12v0.35h0.12v0.24h0.11v0.23l0.24,0.12v0.23h0.11v0.24h0.12v0.23h0.12v0.24a1.627,1.627,0,0,0,.23.11c0.04,0.16.08,0.32,0.12,0.47h0.11c0.04,0.12.08,0.24,0.12,0.35,0.08,0.04.16,0.08,0.23,0.12,0.04,0.16.08,0.31,0.12,0.47,0.12,0.08.23,0.15,0.35,0.23v0.24c0.08,0.04.16,0.08,0.23,0.11v0.24c0.12,0.08.24,0.15,0.35,0.23v0.24c0.16,0.11.32,0.23,0.47,0.35v0.23c0.16,0.12.31,0.24,0.47,0.35v0.24l1.05,0.93,0.12,0.36h0.23c0.47,0.5.93,1.01,1.4,1.52h0.24l0.46,0.58c0.12,0.04.24,0.08,0.35,0.12,0.04,0.08.08,0.16,0.12,0.23h0.23c0.12,0.16.24,0.32,0.35,0.47h0.24a2.557,2.557,0,0,1,.11.24,3.58,3.58,0,0,1,.35.11v0.12h0.24c0.04,0.08.08,0.16,0.11,0.23h0.24l0.12,0.24h0.23c0.04,0.08.08,0.15,0.12,0.23h0.23l0.12,0.24h0.23v0.11h0.23l0.12,0.24c0.16,0.04.31,0.08,0.47,0.11,0.04,0.08.07,0.16,0.11,0.24h0.24v0.12h0.23v0.11h0.23v0.12h0.24v0.12h0.23v0.11h0.24v0.12h0.23v0.12h0.23v0.12c0.16,0.03.31,0.07,0.47,0.11v0.12l0.47,0.12v0.11h0.23v0.12h0.35v0.12c0.16,0.04.31,0.08,0.47,0.11v0.12h0.35v0.12h0.23v0.12h0.35v0.11h0.24v0.12h0.35v0.12h0.23v0.11l1.52,0.36v-0.12l1.05-.24v-0.11h0.23v-0.12h0.35v-0.12c0.2-.04.39-0.07,0.59-0.11v-0.12h0.23v-0.12h0.35v-0.12h0.23v-0.11l0.59-.12v-0.12c0.23-.07.47-0.15,0.7-0.23v-0.12h0.23v-0.11h0.24v-0.12h0.23v-0.12h0.23v-0.12h0.24v-0.11h0.23v-0.12h0.23v-0.12h0.24v-0.11h0.23l0.12-.24c0.23-.08.47-0.15,0.7-0.23l0.12-.24c0.15-.04.31-0.07,0.46-0.11l0.12-.24h0.23c0.04-.08.08-0.15,0.12-0.23h0.23l0.12-.24h0.23v-0.11c0.12-.04.24-0.08,0.35-0.12,0.04-.08.08-0.16,0.12-0.23h0.23l0.12-.24c0.12-.04.23-0.08,0.35-0.12,0.08-.11.16-0.23,0.24-0.35h0.23c0.08-.11.15-0.23,0.23-0.35h0.24l0.58-.7h0.23c0.51-.55,1.02-1.09,1.52-1.64,0.35-.31.7-0.62,1.05-0.94v-0.23l0.59-.47v-0.23c0.07-.04.15-0.08,0.23-0.12v-0.12c0.08-.04.16-0.07,0.23-0.11v-0.24a2.557,2.557,0,0,1,.24-0.11v-0.24c0.11-.08.23-0.15,0.35-0.23v-0.24a2.4,2.4,0,0,1,.23-0.11l0.12-.36h0.12v-0.23c0.07-.04.15-0.08,0.23-0.12,0.04-.15.08-0.31,0.12-0.46,0.07-.04.15-0.08,0.23-0.12,0.04-.12.08-0.24,0.12-0.35h0.11v-0.24h0.12v-0.23h0.12v-0.24h0.11v-0.23h0.12v-0.23h0.12v-0.24h0.11v-0.23h0.12v-0.24h0.12v-0.23h0.11c0.04-.16.08-0.31,0.12-0.47h0.12v-0.23h0.11v-0.35h0.12v-0.24h0.12c0.04-.19.08-0.39,0.11-0.58h0.12c0.08-.35.16-0.71,0.23-1.06h0.12v-0.23h0.12c0.04-.27.08-0.55,0.12-0.82h0.11v-0.35h0.12v-0.35h0.12c0.07-.51.15-1.02,0.23-1.52h0.12v-0.47h0.11v-0.47h0.12v-0.59h0.12v-0.58h0.11v-0.7h0.12v-0.82h0.12v-0.71h0.11l0.12-2.22h0.12c0.04-.82.07-1.64,0.11-2.46v-1.29a11.113,11.113,0,0,0,.12-2.57,23.862,23.862,0,0,0-.12-5.04v-0.93a6.5,6.5,0,0,0-.35-3.05c-0.07-.03-0.15-0.07-0.23-0.11v-0.24h-0.12c-0.11-.15-0.23-0.31-0.35-0.47h-0.23c-0.04-.07-0.08-0.15-0.12-0.23h-0.23v-0.12h-0.35v-0.11h-0.59v-0.12h-1.28v-0.12h-1.28v-0.12h-0.82v-0.11h-0.7v-0.12h-0.59V4125h-0.7c-1.36-.39-2.72-0.78-4.09-1.17v-0.11h-0.23v-0.12h-0.35v-0.12h-0.23v-0.12h-0.35v-0.11l-0.47-.12v-0.12h-0.23v-0.11h-0.35v-0.12c-0.24-.08-0.47-0.16-0.71-0.23v-0.12l-0.46-.12c-0.04-.08-0.08-0.16-0.12-0.23-0.23-.08-0.47-0.16-0.7-0.24-0.04-.07-0.08-0.15-0.12-0.23l-0.46-.12c-0.04-.08-0.08-0.15-0.12-0.23h-0.23v-0.12c-0.12-.04-0.24-0.08-0.35-0.12-0.04-.07-0.08-0.15-0.12-0.23h-0.23c-0.04-.08-0.08-0.16-0.12-0.23h-0.24c-0.07-.12-0.15-0.24-0.23-0.36h-0.23c-0.08-.11-0.16-0.23-0.24-0.35h-0.23c-0.12-.15-0.23-0.31-0.35-0.47h-0.23c-0.08-.11-0.16-0.23-0.24-0.35-0.15-.11-0.31-0.23-0.46-0.35-0.04-.08-0.08-0.15-0.12-0.23h-0.23l-0.12-.24A2.294,2.294,0,0,0,1285.36,4117.51Zm-0.12,11.47a15.219,15.219,0,0,1,13.31,7.73c0.08,0.23.16,0.47,0.24,0.7h0.12c0.07,0.24.15,0.47,0.23,0.71h0.12c0.03,0.23.07,0.46,0.11,0.7a14.139,14.139,0,0,1,0,10.3c-0.04.23-.08,0.47-0.11,0.7h-0.12c-0.08.24-.16,0.47-0.23,0.7h-0.12v0.24h-0.12c-0.08.23-.15,0.47-0.23,0.7l-0.24.12v0.23c-0.07.04-.15,0.08-0.23,0.12-0.04.16-.08,0.31-0.12,0.47-0.11.08-.23,0.15-0.35,0.23v0.24c-0.07.03-.15,0.07-0.23,0.11-0.04.12-.08,0.24-0.12,0.35-0.23.2-.46,0.39-0.7,0.59v0.23c-0.23.2-.46,0.39-0.7,0.59-0.04.08-.08,0.15-0.12,0.23h-0.23c-0.19.24-.39,0.47-0.58,0.7h-0.24c-0.07.12-.15,0.24-0.23,0.36h-0.23c-0.08.11-.16,0.23-0.24,0.35-0.15.04-.31,0.08-0.46,0.11l-0.12.24c-0.12.04-.23,0.08-0.35,0.12v0.11c-0.23.08-.47,0.16-0.7,0.24v0.11h-0.24v0.12c-0.23.08-.46,0.16-0.7,0.24v0.11h-0.35v0.12h-0.35v0.12h-0.23v0.11h-0.35v0.12h-0.47v0.12h-0.35v0.11h-0.47v0.12h-0.7v0.12h-0.7v0.12h-1.63v0.11h-0.47v-0.11h-1.63v-0.12l-1.41-.12v-0.12h-0.46v-0.11h-0.35v-0.12l-0.82-.12v-0.11h-0.23v-0.12l-0.71-.12v-0.11c-0.23-.08-0.46-0.16-0.7-0.24v-0.12h-0.23v-0.11h-0.23v-0.12h-0.24v-0.12H1278v-0.11c-0.12-.04-0.23-0.08-0.35-0.12l-0.12-.24c-0.15-.03-0.31-0.07-0.46-0.11-0.08-.12-0.16-0.24-0.24-0.35h-0.23l-0.12-.24c-0.12-.04-0.23-0.08-0.35-0.12-0.19-.23-0.39-0.46-0.58-0.7h-0.24l-0.58-.7c-0.08-.04-0.16-0.08-0.23-0.12v-0.23c-0.24-.2-0.47-0.39-0.7-0.59v-0.23c-0.12-.08-0.24-0.16-0.35-0.23l-0.12-.36a2.557,2.557,0,0,1-.24-0.11c-0.03-.16-0.07-0.31-0.11-0.47l-0.24-.12v-0.23c-0.07-.04-0.15-0.08-0.23-0.12-0.08-.23-0.15-0.47-0.23-0.7h-0.12v-0.24h-0.12c-0.07-.23-0.15-0.46-0.23-0.7h-0.12c-0.04-.23-0.07-0.47-0.11-0.7h-0.12v-0.23h-0.12c-0.04-.28-0.07-0.55-0.11-0.82h-0.12v-0.47h-0.12v-0.35h-0.11v-0.71h-0.12v-0.7h-0.12v-1.64h-0.11v-0.47h0.11l0.12-2.34,0.93-3.27h0.12c0.04-.16.08-0.32,0.12-0.47h0.11v-0.24h0.12v-0.23h0.12v-0.24h0.11v-0.23h0.12v-0.23h0.12c0.04-.12.08-0.24,0.11-0.35l0.24-.12c0.04-.16.08-0.31,0.11-0.47,0.12-.08.24-0.16,0.36-0.23v-0.24c0.07-.04.15-0.08,0.23-0.12,0.04-.11.08-0.23,0.12-0.35,0.23-.19.46-0.39,0.7-0.58v-0.24c0.07-.04.15-0.07,0.23-0.11,0.19-.24.39-0.47,0.58-0.71h0.24c0.19-.23.39-0.46,0.58-0.7h0.23c0.08-.12.16-0.23,0.24-0.35,0.12-.04.23-0.08,0.35-0.12,0.04-.07.08-0.15,0.12-0.23l0.46-.12c0.04-.08.08-0.15,0.12-0.23h0.23l0.12-.24c0.23-.07.47-0.15,0.7-0.23v-0.12h0.23v-0.11c0.24-.08.47-0.16,0.7-0.24v-0.12c0.24-.03.47-0.07,0.71-0.11v-0.12h0.23v-0.12c1.01-.23,2.02-0.47,3.04-0.7C1284.12,4128.95,1284.9,4129.28,1285.24,4128.98Zm0.12,3.52c-0.31.26-.94-0.02-1.4,0.11-0.7.16-1.41,0.32-2.11,0.47v0.12h-0.23v0.12h-0.35v0.11h-0.35v0.12c-0.23.08-.47,0.16-0.7,0.23v0.12l-0.47.12c-0.04.08-.08,0.15-0.12,0.23h-0.23v0.12c-0.12.04-.23,0.08-0.35,0.12-0.04.07-.08,0.15-0.12,0.23h-0.23c-0.08.12-.16,0.23-0.23,0.35h-0.24c-0.31.35-.62,0.7-0.93,1.06l-0.7.58v0.23c-0.12.08-.24,0.16-0.35,0.24v0.23l-0.24.12c-0.03.12-.07,0.23-0.11,0.35h-0.12v0.24a2.4,2.4,0,0,0-.23.11c-0.04.16-.08,0.31-0.12,0.47h-0.12c-0.07.23-.15,0.47-0.23,0.7h-0.12v0.35h-0.11v0.36h-0.12v0.23h-0.12v0.35h-0.11v0.47h-0.12c-0.12.97-.23,1.95-0.35,2.93h0.12v1.52h0.11v0.7h0.12v0.47h0.12v0.47c0.35,0.82.7,1.64,1.05,2.45,0.08,0.04.15,0.08,0.23,0.12v0.24h0.12a3.58,3.58,0,0,1,.11.35,2.557,2.557,0,0,0,.24.11v0.24c0.11,0.08.23,0.15,0.35,0.23v0.24l1.05,0.93c0.19,0.24.39,0.47,0.58,0.71h0.24c0.07,0.11.15,0.23,0.23,0.35h0.23c0.04,0.08.08,0.15,0.12,0.23,0.12,0.04.23,0.08,0.35,0.12v0.11h0.23l0.12,0.24c0.24,0.08.47,0.16,0.7,0.23v0.12l0.47,0.12v0.11l0.7,0.12v0.12h0.23v0.12h0.35v0.11l0.94,0.12v0.12h0.7v0.11h1.52a0.2,0.2,0,0,0,.23.12v-0.12h1.52v-0.11h0.7v-0.12h0.47v-0.12h0.46v-0.11h0.35v-0.12h0.24v-0.12h0.35v-0.12h0.35v-0.11c0.23-.08.47-0.16,0.7-0.24v-0.11l0.47-.12c0.04-.08.07-0.16,0.11-0.24h0.24v-0.11c0.11-.04.23-0.08,0.35-0.12a2.4,2.4,0,0,0,.11-0.23h0.24c0.08-.12.15-0.24,0.23-0.35h0.24c0.31-.36.62-0.71,0.93-1.06l0.7-.58v-0.24c0.12-.08.23-0.15,0.35-0.23v-0.24a1.627,1.627,0,0,0,.23-0.11c0.04-.12.08-0.24,0.12-0.35h0.12v-0.24c0.08-.04.15-0.08,0.23-0.12,0.04-.15.08-0.31,0.12-0.46h0.11c0.08-.24.16-0.47,0.24-0.71h0.12v-0.35h0.11v-0.23h0.12v-0.35a9.558,9.558,0,0,0,.47-5.15l-0.12-1.29h-0.12v-0.47h-0.11v-0.35h-0.12v-0.23h-0.12v-0.36h-0.11v-0.35h-0.12c-0.08-.23-0.16-0.47-0.24-0.7h-0.11c-0.04-.16-0.08-0.31-0.12-0.47a2.4,2.4,0,0,0-.23-0.11v-0.24h-0.12c-0.04-.12-0.08-0.23-0.12-0.35-0.07-.04-0.15-0.08-0.23-0.12v-0.23c-0.12-.08-0.23-0.16-0.35-0.24v-0.23l-0.7-.58c-0.31-.36-0.62-0.71-0.93-1.06h-0.24c-0.08-.12-0.15-0.23-0.23-0.35h-0.24a1.627,1.627,0,0,0-.11-0.23c-0.12-.04-0.24-0.08-0.35-0.12v-0.12h-0.24c-0.04-.08-0.07-0.15-0.11-0.23l-0.47-.12v-0.12c-0.23-.07-0.47-0.15-0.7-0.23v-0.12h-0.35v-0.11h-0.35v-0.12h-0.24v-0.12h-0.35v-0.12A23.75,23.75,0,0,0,1285.36,4132.5Zm5.25,6.32a4.863,4.863,0,0,1,1.4.23c0.12,0.16.24,0.31,0.35,0.47h0.12a3.113,3.113,0,0,1,.24,1.64,1.055,1.055,0,0,0-.24.47c-0.15.11-.31,0.23-0.47,0.35l-0.93,1.05c-1.71,1.68-3.43,3.36-5.14,5.04l-1.63,1.63a2.952,2.952,0,0,1-.7.71c-0.39.04-.78,0.08-1.17,0.11v-0.11l-0.59-.12c-0.11-.16-0.23-0.31-0.35-0.47-0.42-.39-0.85-0.78-1.28-1.17-0.47-.51-0.94-1.01-1.4-1.52l-0.59-.47a1.078,1.078,0,0,0-.23-0.47,2.142,2.142,0,0,1,.12-1.17c0.04-.11.07-0.23,0.11-0.35h0.12v-0.23h0.12a0.386,0.386,0,0,1,.35-0.24,1.629,1.629,0,0,1,1.28-.35v0.12h0.35v0.12a3.58,3.58,0,0,1,.35.11c0.54,0.48,1.46,1.89,2.22,1.99a3.571,3.571,0,0,1,.7-0.7l1.4-1.4c1.64-1.68,3.27-3.36,4.91-5.04l0.58-.12v-0.11Z" transform="translate(-1260 -4114)"/>
</svg>
