<svg xmlns="http://www.w3.org/2000/svg" width="60" height="49" viewBox="0 0 60 49">
  <defs>
    <style>
      .cls-1 {
        fill: #016faf;
        fill-rule: evenodd;
      }
    </style>
  </defs>
  <path id="Фигура_7" data-name="Фигура 7" class="cls-1" d="M1259.92,3770h50.16v0.12l0.94,0.12v0.11c0.23,0.08.46,0.16,0.7,0.24v0.12h0.23v0.11h0.24a2.557,2.557,0,0,1,.11.24h0.24c0.08,0.12.16,0.24,0.23,0.35h0.24a2.557,2.557,0,0,1,.11.24c0.16,0.12.32,0.23,0.47,0.35v0.24c0.12,0.08.24,0.15,0.36,0.23v0.24c0.07,0.04.15,0.08,0.23,0.12v0.23h0.12c0.07,0.24.15,0.47,0.23,0.71h0.12v0.35h0.12v0.47h0.11v0.59H1315v38.64h-0.12c-0.08.47-.15,0.94-0.23,1.41h-0.12c-0.08.24-.16,0.47-0.23,0.71h-0.12v0.23c-0.08.04-.16,0.08-0.23,0.12v0.24c-0.12.07-.24,0.15-0.36,0.23V3817a1.627,1.627,0,0,1-.23.11c-0.12.16-.24,0.32-0.35,0.48h-0.24c-0.07.11-.15,0.23-0.23,0.35h-0.24a2.557,2.557,0,0,1-.11.24h-0.24v0.11c-0.23.08-.47,0.16-0.7,0.24v0.12c-0.23.04-.47,0.07-0.7,0.11v0.12h-0.47V3819h-50.16v-0.12h-0.47v-0.12c-0.23-.04-0.47-0.07-0.7-0.11v-0.12c-0.23-.08-0.47-0.16-0.7-0.24v-0.11h-0.24a2.557,2.557,0,0,1-.11-0.24h-0.24c-0.08-.12-0.16-0.24-0.23-0.35h-0.24l-0.12-.24c-0.15-.12-0.31-0.24-0.46-0.35v-0.24c-0.12-.08-0.24-0.16-0.36-0.23v-0.24c-0.07-.04-0.15-0.08-0.23-0.12v-0.23h-0.12c-0.08-.24-0.15-0.47-0.23-0.71h-0.12v-0.35h-0.12v-0.47h-0.11v-0.59H1255V3777.3a8.975,8.975,0,0,1,.35-3.18v-0.35h0.12v-0.24h0.12c0.07-.23.15-0.47,0.23-0.7,0.39-.47.78-0.95,1.17-1.42h0.24c0.07-.11.15-0.23,0.23-0.35h0.24a2.557,2.557,0,0,1,.11-0.24h0.24v-0.11c0.23-.08.47-0.16,0.7-0.24v-0.12c0.23-.04.47-0.08,0.7-0.11v-0.12h0.47V3770Zm51.56,8.95c0.02-2.71.39-4.24-1.52-5.18v-0.12c-0.73-.32-2.64-0.12-3.63-0.12h-45.94v0.12h-0.35v0.12l-0.47.12c-0.16.19-.31,0.39-0.47,0.59a2.4,2.4,0,0,0-.23.11,1.055,1.055,0,0,1-.24.47,3.96,3.96,0,0,0,.12,2.12c0.08,0.04.16,0.08,0.23,0.12v0.24h0.12c0.12,0.16.24,0.31,0.35,0.47h0.24a2.557,2.557,0,0,1,.11.24c0.69,0.42,2.24.23,3.29,0.23h46.64v0.12h0.7A4.03,4.03,0,0,0,1311.48,3778.95Zm-52.96,2.59v30.16a7.084,7.084,0,0,0,.11,2.24h0.12c0.04,0.15.08,0.31,0.12,0.47,0.08,0.04.15,0.07,0.23,0.11,0.16,0.2.31,0.4,0.47,0.59l0.47,0.12v0.12a12.524,12.524,0,0,0,3.4.12h43.36c1.26,0,2.86.16,3.63-.36,0.08-.12.16-0.23,0.23-0.35,0.16-.12.32-0.24,0.47-0.35,0.47-.71.35-2.03,0.35-3.18v-5.78h-9.37c-1.52-.04-3.05-0.07-4.57-0.11v-0.12h-0.35v-0.12h-0.47v-0.12h-0.24v-0.11h-0.35v-0.12h-0.23v-0.12h-0.24a2.557,2.557,0,0,0-.11-0.24c-0.16-.04-0.32-0.07-0.47-0.11-0.12-.16-0.24-0.32-0.35-0.48h-0.24c-0.04-.07-0.08-0.15-0.12-0.23-0.15-.12-0.31-0.24-0.46-0.35v-0.24c-0.16-.12-0.32-0.23-0.47-0.35-0.04-.16-0.08-0.32-0.12-0.47-0.08-.04-0.16-0.08-0.23-0.12v-0.24h-0.12c-0.04-.15-0.08-0.31-0.12-0.47h-0.12c-0.03-.23-0.07-0.47-0.11-0.71h-0.12v-0.47h-0.12v-0.82a2.665,2.665,0,0,1-.11-1.18h0.11v-0.82h0.12v-0.47h0.12v-0.36h0.11c0.04-.15.08-0.31,0.12-0.47h0.12v-0.35c0.08-.04.15-0.08,0.23-0.12,0.04-.16.08-0.31,0.12-0.47,0.08-.04.16-0.08,0.23-0.12v-0.23c0.32-.28.63-0.55,0.94-0.83,0.12-.16.24-0.31,0.35-0.47h0.24l0.12-.24h0.23c0.04-.07.08-0.15,0.12-0.23l1.05-.36v-0.11h0.24v-0.12c1.06-.42,3.35-0.24,4.8-0.24h9.84v-6.12c0-1.67.04-2.48-.82-3.3a1.627,1.627,0,0,0-.11-0.23c-0.95-.64-2.77-0.48-4.34-0.48h-46.17C1259.53,3781.86,1259.02,3781.7,1258.52,3781.54Zm39.72,14.14v0.12c-0.23.03-.47,0.07-0.7,0.11v0.12h-0.24a2.557,2.557,0,0,1-.11.24h-0.24c-0.11.15-.23,0.31-0.35,0.47h-0.12v0.23c-0.07.04-.15,0.08-0.23,0.12v0.24h-0.12v0.23h-0.11v0.36h-0.12v0.58c-0.47,1.69,1.53,3.59,3.05,3.3h0.82a3.125,3.125,0,0,0,1.87-4.36c-0.04-.15-0.08-0.31-0.12-0.47-0.11-.08-0.23-0.15-0.35-0.23-0.15-.2-0.31-0.39-0.47-0.59A4.226,4.226,0,0,0,1298.24,3795.68Zm6.56,0c0.08,0.23.16,0.47,0.24,0.7h0.12a9.462,9.462,0,0,1,.35,3.42c-0.24.71-.47,1.41-0.71,2.12h6.57a7.926,7.926,0,0,0,.11-2.12v-4.12h-6.68Z" transform="translate(-1255 -3770)"/>
</svg>
