<svg xmlns="http://www.w3.org/2000/svg" width="58" height="60" viewBox="0 0 58 60">
  <defs>
    <style>
      .cls-1 {
        fill: #016faf;
        fill-rule: evenodd;
      }
    </style>
  </defs>
  <path id="Фигура_9" data-name="Фигура 9" class="cls-1" d="M784.411,4114c3.022-.03,3.959,1.23,5.431,2.69l1.417,1.17a8.609,8.609,0,0,0,1.535,1.53,3.875,3.875,0,0,0,2.243-.12c1.652-.2,3.306-0.39,4.958-0.59,0.709,0.2,1.417.39,2.125,0.59,0.04,0.08.079,0.16,0.118,0.23l0.473,0.12c0.118,0.16.236,0.31,0.354,0.47H803.3v0.12c0.118,0.07.236,0.15,0.354,0.23v0.24c0.118,0.07.236,0.15,0.354,0.23v0.23l0.236,0.12v0.24h0.118c0.04,0.15.079,0.31,0.118,0.46H804.6c0.157,0.67.314,1.33,0.472,1.99v0.71h0.118v0.58c0.187,0.61.284,1.5,0.472,2.11v0.59a9.489,9.489,0,0,1,.354.93l0.354,0.24v0.11l0.473,0.12c0.039,0.08.078,0.16,0.118,0.24,0.629,0.27,1.259.54,1.889,0.82,0.039,0.07.078,0.15,0.118,0.23,0.236,0.08.472,0.16,0.708,0.23v0.12h0.236v0.12h0.236v0.12h0.236v0.11l0.473,0.12c0.039,0.08.078,0.16,0.118,0.23l0.472,0.12,0.118,0.24H811.8c0.039,0.07.079,0.15,0.118,0.23h0.236c0.04,0.08.079,0.16,0.118,0.23,0.2,0.16.394,0.32,0.591,0.47v0.24c0.078,0.04.157,0.07,0.236,0.11v0.24l0.236,0.12c0.039,0.15.079,0.31,0.118,0.46h0.118v0.36h0.118v0.23h0.118v0.47a3.616,3.616,0,0,1,0,2.22v0.47H813.69v0.24h-0.118v0.35h-0.118v0.23h-0.118v0.35h-0.118c-0.079.24-.158,0.47-0.236,0.7h-0.118V4140h-0.118v0.23h-0.118c-0.276.63-.551,1.25-0.827,1.88h-0.118v0.23h-0.118c-0.079.24-.157,0.47-0.236,0.7h-0.118v0.36h-0.118v0.46a0.215,0.215,0,0,0-.118.24h0.118v0.47h0.118v0.35h0.118c0.079,0.23.157,0.47,0.236,0.7h0.118v0.24H811.8v0.23h0.118v0.23h0.118v0.24h0.118v0.23h0.118v0.24h0.118v0.23h0.118v0.23h0.119v0.24h0.118v0.23h0.118v0.24h0.118c0.078,0.23.157,0.47,0.236,0.7h0.118v0.35h0.118v0.24h0.118v0.35h0.118v0.23h0.118v0.47h0.118a8.287,8.287,0,0,1,0,2.22h-0.118v0.47H813.69v0.24h-0.118v0.35h-0.118v0.23h-0.118v0.24c-0.079.04-.158,0.08-0.236,0.11v0.24l-0.236.12v0.23c-0.2.16-.394,0.31-0.591,0.47-0.039.08-.078,0.15-0.118,0.23h-0.236l-0.118.24h-0.236c-0.039.08-.079,0.15-0.118,0.23l-0.472.12c-0.04.08-.079,0.15-0.118,0.23H810.62v0.12h-0.236v0.12h-0.236v0.11h-0.236v0.12h-0.236v0.12H809.44v0.12H809.2v0.11h-0.236c-0.04.08-.079,0.16-0.118,0.24h-0.236v0.11h-0.237v0.12h-0.236v0.12h-0.236v0.12h-0.236v0.11h-0.236v0.12H807.2v0.12h-0.236c-0.04.07-.079,0.15-0.118,0.23h-0.237v0.12H806.37v0.11l-0.354.24v0.23H805.9v0.24H805.78v0.47h-0.118v0.58h-0.118v0.7h-0.118v0.71h-0.118v0.7c-0.236,1.09-.472,2.19-0.708,3.28h-0.119c-0.039.16-.078,0.31-0.118,0.47h-0.118v0.23l-0.236.12v0.23l-0.354.24v0.23l-0.354.24v0.11h-0.236c-0.118.16-.236,0.32-0.354,0.47l-0.473.12c-0.039.08-.078,0.15-0.118,0.23l-0.59.12v0.12h-0.354v0.11a8.069,8.069,0,0,1-2.716.12v-0.12h-0.944v-0.11l-1.653-.12a6.127,6.127,0,0,0-3.069-.23v0.11a7.1,7.1,0,0,0-1.653,1.53h-0.118c-0.04.07-.079,0.15-0.118,0.23h-0.236c-0.236.27-.473,0.55-0.709,0.82-0.354.31-.708,0.62-1.062,0.94-0.118.15-.236,0.31-0.354,0.47h-0.237c-0.118.15-.236,0.31-0.354,0.46l-0.708.24v0.11h-0.236v0.12a6.889,6.889,0,0,1-2.6.35v-0.11H783.7v-0.12l-0.708-.12v-0.12c-0.236-.07-0.472-0.15-0.709-0.23v-0.12H782.05c-0.118-.15-0.236-0.31-0.354-0.46H781.46c-0.708-.75-1.417-1.49-2.125-2.23H779.1c-0.551-.59-1.1-1.17-1.653-1.76H777.21v-0.11a3.96,3.96,0,0,0-2.243.11c-1.574.2-3.149,0.39-4.723,0.59v-0.12h-1.062v-0.12h-0.354v-0.11h-0.354v-0.12h-0.355v-0.12h-0.236v-0.11h-0.236v-0.12l-0.354-.12c-0.039-.08-0.079-0.15-0.118-0.23h-0.236c-0.158-.2-0.315-0.39-0.472-0.59l-0.237-.12v-0.23l-0.236-.12v-0.23l-0.236-.12v-0.23H765.64c-0.039-.16-0.079-0.31-0.118-0.47H765.4c-0.236-1.09-.472-2.19-0.708-3.28-0.079-.7-0.158-1.41-0.236-2.11h-0.118v-0.58a9.7,9.7,0,0,1-.355-0.94l-0.354-.24v-0.11l-0.472-.12c-0.039-.08-0.079-0.16-0.118-0.23-0.63-.28-1.259-0.55-1.889-0.82l-0.118-.24c-0.236-.08-0.472-0.15-0.709-0.23v-0.12h-0.236v-0.12h-0.236v-0.11h-0.236v-0.12l-0.472-.12c-0.039-.08-0.079-0.15-0.118-0.23l-0.472-.12c-0.04-.08-0.079-0.15-0.118-0.23H758.2c-0.039-.08-0.078-0.16-0.118-0.24h-0.236c-0.039-.08-0.078-0.15-0.118-0.23-0.2-.16-0.393-0.31-0.59-0.47v-0.23l-0.236-.12v-0.24a2.384,2.384,0,0,1-.236-0.11c-0.04-.16-0.079-0.31-0.118-0.47h-0.118v-0.35h-0.118v-0.24H756.2v-0.58h-0.118a4.7,4.7,0,0,1,.118-2.11v-0.47h0.119v-0.23h0.118v-0.35h0.118v-0.24h0.118v-0.35h0.118c0.079-.23.157-0.47,0.236-0.7h0.118v-0.24h0.118v-0.23h0.118v-0.24h0.118v-0.23h0.118v-0.23h0.118v-0.24h0.118v-0.23h0.118v-0.24h0.118c0.04-.15.079-0.31,0.118-0.46h0.119v-0.24h0.118c0.078-.23.157-0.47,0.236-0.7h0.118v-0.35h0.118v-0.47a0.2,0.2,0,0,0,.118-0.24h-0.118v-0.46h-0.118v-0.36h-0.118c-0.079-.23-0.158-0.46-0.236-0.7h-0.118v-0.23H758.2v-0.24h-0.118v-0.23h-0.118v-0.24h-0.118v-0.23H757.73v-0.23h-0.118v-0.24c-0.945-1.76-2.249-3.77-1.18-6.2v-0.36h0.118v-0.23h0.118v-0.23l0.236-.12v-0.24c0.078-.04.157-0.07,0.236-0.11v-0.24c0.2-.15.394-0.31,0.59-0.47,0.04-.07.079-0.15,0.118-0.23h0.236c0.04-.08.079-0.16,0.118-0.23h0.237c0.039-.08.078-0.16,0.118-0.24l0.472-.12c0.039-.07.079-0.15,0.118-0.23h0.236v-0.12h0.236v-0.11h0.236v-0.12h0.236v-0.12h0.236v-0.12h0.237v-0.11H760.8v-0.12h0.236c0.039-.08.079-0.16,0.118-0.23h0.236v-0.12h0.236v-0.12h0.236v-0.12H762.1v-0.11h0.237v-0.12h0.236v-0.12h0.236v-0.11h0.236l0.118-.24H763.4v-0.12h0.236v-0.11l0.354-.24a11.1,11.1,0,0,0,.591-2.22v-0.7c0.287-.96.391-2.24,0.708-3.17,0.039-.27.079-0.54,0.118-0.82h0.118c0.039-.15.079-0.31,0.118-0.46h0.118v-0.24l0.236-.12v-0.23c0.118-.08.236-0.16,0.355-0.23v-0.24c0.118-.08.236-0.16,0.354-0.23v-0.12h0.236c0.118-.16.236-0.31,0.354-0.47a6.7,6.7,0,0,1,5.2-.58c0.55,0.03,1.1.07,1.652,0.11v0.12c0.9,0.08,1.811.16,2.716,0.23a4.787,4.787,0,0,0,1.771-1.52c0.551-.47,1.1-0.94,1.652-1.4l1.181-1.29H781.7c0.118-.16.236-0.31,0.354-0.47h0.236v-0.12c0.237-.08.473-0.15,0.709-0.23v-0.12l0.708-.12v-0.11h0.708V4114Zm0,3.51a1.087,1.087,0,0,1-.472.24c-0.433.47-.866,0.93-1.3,1.4h-0.236l-2.48,2.58h-0.236c-0.079.12-.157,0.23-0.236,0.35h-0.236c-0.039.08-.079,0.16-0.118,0.23h-0.236v0.12l-0.472.12v0.12h-0.355v0.11h-0.472v0.12h-0.826v0.12h-0.591v-0.12h-1.062v-0.12h-0.827v-0.11l-1.652-.12v-0.12c-0.9-.08-1.811-0.15-2.716-0.23v0.11l-0.59.12c-0.118.16-.236,0.31-0.354,0.47h-0.118c-0.04.16-.079,0.31-0.118,0.47h-0.118q-0.177,1.29-.355,2.58c-0.172.58-.3,1.4-0.472,1.99v0.7h-0.118v0.47h-0.118c-0.039.23-.079,0.47-0.118,0.7h-0.118c-0.039.16-.079,0.31-0.118,0.47h-0.118v0.23l-0.236.12v0.23l-0.354.24v0.23h-0.118c-0.079.12-.158,0.24-0.237,0.35h-0.236c-0.078.12-.157,0.24-0.236,0.36H765.4c-0.039.07-.079,0.15-0.118,0.23l-0.472.12c-0.04.08-.079,0.15-0.118,0.23H764.46v0.12h-0.236v0.12h-0.237v0.11h-0.236v0.12h-0.236v0.12h-0.236v0.11h-0.236v0.12h-0.236c-0.04.08-.079,0.16-0.118,0.24h-0.236v0.11h-0.237v0.12H761.98v0.12h-0.236v0.11h-0.236v0.12h-0.236v0.12h-0.236c-0.039.08-.079,0.15-0.118,0.23h-0.236v0.12h-0.236v0.12a1.011,1.011,0,0,0-.709.7c-0.507.51-.117,1.51,0.118,1.99h0.118v0.35h0.118c0.079,0.24.158,0.47,0.236,0.7h0.119v0.24h0.118v0.23h0.118v0.24H760.8v0.23h0.118v0.23h0.118V4140h0.118v0.23h0.118v0.24h0.118v0.23h0.118v0.24h0.118c0.04,0.15.079,0.31,0.118,0.46h0.118v0.24h0.118v0.35H762.1v0.23h0.118v0.36h0.119v0.58h0.118a6.186,6.186,0,0,1-.237,2.58H762.1v0.23H761.98v0.35h-0.118c-0.039.16-.078,0.32-0.118,0.47h-0.118c-0.275.63-.551,1.25-0.826,1.88h-0.118v0.23h-0.118v0.23h-0.118v0.24h-0.119c-0.078.23-.157,0.47-0.236,0.7h-0.118v0.35h-0.118c-0.078.24-.157,0.47-0.236,0.71H759.5a2.614,2.614,0,0,0,.236,1.52c0.158,0.11.315,0.23,0.473,0.35v0.12c0.236,0.07.472,0.15,0.708,0.23l0.118,0.24h0.236v0.11h0.236v0.12h0.236v0.12h0.236v0.11h0.236v0.12l0.473,0.12c0.039,0.08.078,0.15,0.118,0.23h0.236v0.12h0.236v0.12h0.236v0.11h0.236v0.12h0.236v0.12h0.237v0.11h0.236v0.12H764.7c0.039,0.08.078,0.16,0.118,0.24,0.157,0.03.315,0.07,0.472,0.11l0.118,0.24h0.236c0.079,0.11.158,0.23,0.236,0.35h0.236c0.079,0.12.158,0.23,0.237,0.35h0.118v0.23l0.354,0.24v0.23l0.236,0.12v0.23h0.118c0.039,0.16.079,0.32,0.118,0.47h0.118v0.35h0.118v0.35h0.118v0.47h0.118v0.71c0.295,0.99.412,2.29,0.709,3.28v0.7a2.115,2.115,0,0,0,2.479,1.75v-0.11h0.826v-0.12h0.827v-0.12h0.826v-0.11h0.826v-0.12h0.827v-0.12h1.062v-0.11h0.473v0.11h0.944a9.533,9.533,0,0,1,3.9,2.7l0.945,1.05h0.236l1.3,1.41a1.059,1.059,0,0,1,.472.23h1.181v-0.12c0.158-.04.315-0.08,0.472-0.11l1.3-1.41H787.6c0.236-.27.472-0.55,0.708-0.82,0.748-.7,1.5-1.41,2.244-2.11h0.236c0.039-.08.078-0.15,0.118-0.23l0.472-.12v-0.12h0.236v-0.11h0.354a6.244,6.244,0,0,1,3.778,0h0.827v0.11l1.652,0.12a4.7,4.7,0,0,0,1.889.23v-0.11l0.591-.12c0.118-.16.236-0.31,0.354-0.47h0.118c0.039-.15.079-0.31,0.118-0.47h0.118c0.118-.86.236-1.71,0.354-2.57,0.173-.59.3-1.41,0.472-1.99v-0.71h0.118v-0.47h0.118c0.04-.23.079-0.46,0.119-0.7h0.118c0.039-.15.078-0.31,0.118-0.47h0.118v-0.23l0.236-.12v-0.23l0.354-.24v-0.23h0.118c0.079-.12.158-0.23,0.236-0.35h0.236c0.079-.12.158-0.24,0.236-0.35H804.6c0.039-.08.078-0.16,0.118-0.24,0.157-.04.314-0.08,0.472-0.11l0.118-.24h0.236v-0.12h0.236v-0.11h0.236v-0.12h0.236v-0.12h0.236v-0.11h0.237v-0.12h0.236v-0.12H807.2c0.039-.08.079-0.15,0.118-0.23h0.236v-0.12h0.236v-0.12h0.236v-0.11h0.236v-0.12H808.5v-0.12h0.237v-0.11h0.236c0.039-.08.078-0.16,0.118-0.24h0.236v-0.12h0.236v-0.11a1.041,1.041,0,0,0,.708-0.71c0.508-.51.118-1.51-0.118-1.99H810.03v-0.35h-0.118c-0.079-.23-0.157-0.47-0.236-0.7h-0.118v-0.24H809.44v-0.23h-0.118v-0.23H809.2v-0.24h-0.118v-0.23h-0.118v-0.24H808.85v-0.23h-0.118v-0.24h-0.118v-0.23H808.5v-0.23h-0.118c-0.039-.16-0.078-0.32-0.118-0.47h-0.118v-0.24h-0.118v-0.35h-0.118v-0.23h-0.118v-0.35h-0.118v-0.59h-0.118a6.2,6.2,0,0,1,.236-2.58h0.118v-0.23h0.118v-0.35h0.118c0.04-.16.079-0.31,0.118-0.47h0.118c0.276-.62.551-1.25,0.827-1.87h0.118v-0.24h0.118v-0.23h0.118v-0.24h0.118c0.079-.23.157-0.46,0.236-0.7h0.118v-0.35h0.118c0.079-.23.158-0.47,0.236-0.7H810.5a2.634,2.634,0,0,0-.237-1.53c-0.157-.11-0.315-0.23-0.472-0.35v-0.11l-0.708-.24c-0.04-.08-0.079-0.15-0.118-0.23h-0.236v-0.12H808.5v-0.12h-0.236v-0.11h-0.236v-0.12h-0.236v-0.12c-0.157-.04-0.315-0.08-0.472-0.11l-0.118-.24h-0.236v-0.12h-0.236v-0.11h-0.237v-0.12h-0.236v-0.12h-0.236v-0.11H805.78v-0.12h-0.236v-0.12h-0.236c-0.039-.08-0.079-0.15-0.118-0.23l-0.472-.12c-0.04-.08-0.079-0.16-0.118-0.23h-0.237c-0.078-.12-0.157-0.24-0.236-0.36h-0.236c-0.078-.11-0.157-0.23-0.236-0.35h-0.118v-0.23l-0.354-.24v-0.23l-0.236-.12v-0.23h-0.118c-0.04-.16-0.079-0.31-0.118-0.47h-0.118v-0.35h-0.119v-0.35h-0.118v-0.47h-0.118v-0.7c-0.294-1-.412-2.3-0.708-3.28v-0.71a1.862,1.862,0,0,0-1.063-1.52,1.844,1.844,0,0,0-1.416-.23v0.11h-0.827v0.12H797.4v0.12h-0.826v0.12h-0.827v0.11h-0.826v0.12h-1.063v0.12l-1.417-.12v-0.12c-0.275-.04-0.551-0.07-0.826-0.11v-0.12h-0.236v-0.12l-0.472-.12c-0.04-.07-0.079-0.15-0.118-0.23h-0.236c-0.709-.66-1.417-1.33-2.126-1.99-0.275-.31-0.55-0.62-0.826-0.94h-0.236c-0.433-.47-0.866-0.93-1.3-1.4a1.1,1.1,0,0,1-.472-0.24h-1.181Zm-7.083,10.89c3.5-.05,5.445,1.49,6.493,3.87h0.118v0.23h0.118v0.36a5.075,5.075,0,0,1,.118,3.39v0.47h-0.118v0.23h-0.118c-0.118.36-.236,0.71-0.354,1.06l-0.236.12v0.23c-0.118.08-.236,0.16-0.354,0.23v0.24c-0.236.19-.472,0.39-0.709,0.58-0.039.08-.078,0.16-0.118,0.24h-0.236c-0.118.15-.236,0.31-0.354,0.47-0.157.04-.315,0.07-0.472,0.11v0.12l-0.709.24v0.11l-0.708.12v0.12H779.1v0.11a8.361,8.361,0,0,1-2.715-.11v-0.12h-0.355v-0.12h-0.354v-0.11l-0.708-.24v-0.12c-0.158-.04-0.315-0.07-0.472-0.11-0.119-.16-0.237-0.32-0.355-0.47H773.9c-0.2-.24-0.393-0.47-0.59-0.7l-0.236-.12v-0.24c-0.158-.11-0.315-0.23-0.472-0.35-0.04-.15-0.079-0.31-0.118-0.47H772.37c-0.079-.23-0.158-0.46-0.237-0.7h-0.118v-0.35a4.977,4.977,0,0,1-.236-2.93q0.06-.525.118-1.05h0.118v-0.24h0.118v-0.35h0.118v-0.23h0.119v-0.24c0.078-.04.157-0.07,0.236-0.11,0.039-.16.078-0.32,0.118-0.47,0.2-.16.393-0.31,0.59-0.47v-0.23h0.118l0.236-.36H773.9c0.118-.15.236-0.31,0.354-0.46H774.5c0.039-.08.078-0.16,0.118-0.24h0.236c0.039-.08.078-0.15,0.118-0.23h0.354v-0.12l0.472-.12v-0.11l0.827-.12v-0.12h0.708v-0.12Zm18.653,2.46a4.737,4.737,0,0,1,1.535.24c0.118,0.15.236,0.31,0.354,0.47h0.118a2.737,2.737,0,0,1,.236,1.52,1.065,1.065,0,0,0-.236.47l-0.236.12c-0.2.23-.393,0.46-0.59,0.7-0.512.47-1.023,0.93-1.535,1.4-0.944.98-1.889,1.96-2.833,2.93l-12.633,12.42-3.541,3.63c-0.236.19-.473,0.39-0.709,0.58-0.865.86-1.17,1.76-2.951,1.76-0.183-.21-0.511-0.27-0.709-0.47s-0.259-.52-0.472-0.7v-1.06a3.841,3.841,0,0,0,.354-0.58c0.315-.28.63-0.55,0.945-0.82,0.59-.63,1.18-1.25,1.771-1.88q3.3-3.21,6.611-6.44l2.361-2.46,7.438-7.26c0.472-.51.944-1.01,1.417-1.52,0.629-.59,1.259-1.17,1.889-1.76l0.826-.93A3.647,3.647,0,0,0,795.981,4130.86Zm-20.07,5.98a1.029,1.029,0,0,1,.473.23v0.12h0.236v0.12c0.157,0.03.314,0.07,0.472,0.11v0.12h0.472v0.12l1.417-.12v-0.12h0.236v-0.11l0.472-.12c0.04-.08.079-0.16,0.118-0.24,0.236-.19.472-0.39,0.709-0.58,0.039-.16.078-0.31,0.118-0.47h0.118v-0.35h0.118v-0.7c0.037-.17.134,0.04,0.118-0.12H780.87q-0.06-.585-0.118-1.17c-0.282-.2-0.073-0.09-0.236-0.35H780.4v-0.24h-0.118c-0.118-.15-0.236-0.31-0.354-0.47h-0.236c-0.039-.07-0.079-0.15-0.118-0.23h-0.236v-0.12H779.1v-0.11a3.238,3.238,0,0,0-3.66,1.28c-0.039.2-.079,0.39-0.118,0.59a3.877,3.877,0,0,0-.236,1.05l0.472,1.41h0.118A1,1,0,0,1,775.911,4136.84Zm14.994,10.07a8.83,8.83,0,0,1,3.423.35v0.12c0.237,0.08.473,0.15,0.709,0.23v0.12l0.472,0.12c0.118,0.15.236,0.31,0.354,0.46H796.1c0.2,0.24.394,0.47,0.591,0.71a2.384,2.384,0,0,0,.236.11v0.24c0.157,0.12.315,0.23,0.472,0.35,0.039,0.16.079,0.31,0.118,0.47h0.118c0.079,0.23.157,0.47,0.236,0.7h0.118v0.35h0.118v0.47a4.972,4.972,0,0,1,0,3.05q-0.117.525-.236,1.05h-0.118v0.23h-0.118v0.24l-0.236.12c-0.039.15-.079,0.31-0.118,0.46-0.2.16-.394,0.32-0.59,0.47v0.24h-0.118c-0.079.11-.158,0.23-0.237,0.35H796.1c-0.118.15-.236,0.31-0.354,0.47h-0.236c-0.039.07-.079,0.15-0.118,0.23l-0.354.12v0.11h-0.354v0.12l-0.473.12v0.12c-0.275.04-.551,0.07-0.826,0.11v0.12h-0.708v0.12a4.093,4.093,0,0,1-2.125-.24h-0.473l-1.889-.93c-0.157-.2-0.314-0.39-0.472-0.59l-0.354-.12v-0.23c-0.2-.16-0.394-0.31-0.59-0.47v-0.23l-0.236-.12v-0.23l-0.237-.12v-0.24h-0.118v-0.35h-0.118v-0.23h-0.118v-0.35h-0.118v-0.47H785.71v-0.59h-0.118a4.587,4.587,0,0,1,.236-2.34v-0.47h0.118v-0.23h0.118v-0.35h0.118c0.079-.24.158-0.47,0.237-0.71,0.078-.03.157-0.07,0.236-0.11v-0.24c0.118-.08.236-0.15,0.354-0.23v-0.24c0.2-.15.393-0.31,0.59-0.46l0.236-.36h0.236c0.118-.15.236-0.31,0.354-0.46l0.473-.12v-0.12c0.236-.08.472-0.15,0.708-0.23v-0.12h0.354v-0.12A3.242,3.242,0,0,0,790.905,4146.91Zm3.187,4.22a1.028,1.028,0,0,1-.472-0.24v-0.12h-0.236v-0.11l-0.472-.12v-0.12h-0.591v-0.11c-0.432.03-.865,0.07-1.3,0.11v0.12h-0.236v0.12c-0.158.04-.315,0.08-0.473,0.11-0.039.08-.078,0.16-0.118,0.24-0.236.19-.472,0.39-0.708,0.58-0.039.16-.079,0.32-0.118,0.47h-0.118v0.35h-0.118v0.71c-0.037.16-.134-0.05-0.118,0.11h0.118q0.058,0.585.118,1.17c0.282,0.2.073,0.09,0.236,0.36h0.118v0.23h0.118c0.118,0.16.236,0.31,0.354,0.47h0.236c0.04,0.08.079,0.15,0.118,0.23h0.237v0.12h0.236v0.12a3.255,3.255,0,0,0,3.66-1.29c0.039-.2.078-0.39,0.118-0.59a3.915,3.915,0,0,0,.236-1.05l-0.473-1.41h-0.118A0.939,0.939,0,0,1,794.092,4151.13Z" transform="translate(-756 -4114)"/>
</svg>
