<svg xmlns="http://www.w3.org/2000/svg" width="60" height="57" viewBox="0 0 60 57">
  <defs>
    <style>
      .cls-1 {
        fill: #016faf;
        fill-rule: evenodd;
      }
    </style>
  </defs>
  <path id="Фигура_8" data-name="Фигура 8" class="cls-1" d="M281.293,4116.01c4.6-.09,8.561.28,11.7,1.64,0.351,0.07.7,0.15,1.053,0.23V4118h0.234v0.11h0.352v0.12l0.468,0.12v0.11h0.351v0.12c0.234,0.08.468,0.16,0.7,0.23v0.12h0.234v0.12h0.235v0.11h0.234v0.12H297.1v0.12h0.234v0.11h0.234l0.117,0.24c0.234,0.08.468,0.15,0.7,0.23,0.039,0.08.078,0.16,0.117,0.23h0.234v0.12h0.235v0.12c0.117,0.04.234,0.08,0.351,0.11l0.117,0.24h0.234v0.12c0.117,0.03.234,0.07,0.351,0.11l0.117,0.24h0.234c0.078,0.11.156,0.23,0.234,0.35h0.234c0.078,0.11.156,0.23,0.234,0.35h0.235c0.117,0.15.234,0.31,0.351,0.46h0.234c0.156,0.2.312,0.39,0.468,0.59H302.6c0.507,0.54,1.015,1.09,1.522,1.63l1.17,1.05v0.24c0.195,0.15.39,0.31,0.586,0.46v0.24a2.464,2.464,0,0,0,.234.11v0.12l0.234,0.12v0.23l0.351,0.24v0.23l0.234,0.12v0.23c0.117,0.08.234,0.15,0.351,0.23v0.24c0.078,0.04.156,0.07,0.234,0.11,0.039,0.12.078,0.24,0.117,0.35h0.117c0.039,0.16.078,0.31,0.117,0.47l0.234,0.12c0.04,0.15.079,0.31,0.118,0.46l0.234,0.12c0.078,0.23.156,0.47,0.234,0.7l0.234,0.12c0.039,0.15.078,0.31,0.117,0.47h0.117c0.078,0.23.156,0.46,0.234,0.7H309.5v0.35h0.117v0.23h0.117c0.039,0.16.078,0.31,0.117,0.47h0.117v0.35h0.117v0.23H310.2v0.35h0.118v0.24h0.117l0.819,2.91a10.913,10.913,0,0,1-.117,2.92l-0.117,1.17h-0.117v0.35H310.79v0.35h-0.117v0.35h-0.117v0.35h-0.117c-0.078.24-.156,0.47-0.235,0.7h-0.117c-0.039.16-.078,0.32-0.117,0.47l-0.234.12v0.23h-0.117c-0.039.12-.078,0.23-0.117,0.35l-0.234.12v0.23c-0.195.16-.39,0.31-0.585,0.47v0.23l-1.4,1.17a0.218,0.218,0,0,0,.117.12c0.468,0.5.937,1.01,1.405,1.52h0.234l1.756,1.86h0.234c0.624,0.67,1.248,1.33,1.873,1.99h0.234c0.117,0.16.234,0.31,0.351,0.47H313.6v0.23c0.156,0.12.312,0.23,0.468,0.35,0.039,0.16.078,0.31,0.117,0.47a2.464,2.464,0,0,0,.234.11c0.039,0.2.078,0.39,0.117,0.59h0.117v0.23h0.118v0.47a4.2,4.2,0,0,1-.118,3.04v0.35h-0.117v0.23h-0.117c-0.078.23-.156,0.47-0.234,0.7l-0.234.12v0.23c-0.195.16-.39,0.31-0.585,0.47-0.195.23-.39,0.46-0.585,0.7h-0.235c-0.039.08-.078,0.15-0.116,0.23-0.586.23-1.171,0.47-1.756,0.7l-1.405.12v-0.12h-0.936v-0.11h-0.469v-0.12h-0.351v-0.12h-0.234v-0.12h-0.234v-0.11H306.81v-0.12h-0.234v-0.12h-0.234c-0.078-.11-0.156-0.23-0.234-0.35h-0.234l-0.7-.81-0.351-.24c-0.039-.11-0.078-0.23-0.117-0.35-0.585-.54-1.171-1.09-1.756-1.63v-0.24l-1.99-1.86v-0.24l-1.17-1.05c-0.195-.23-0.39-0.47-0.585-0.7l-0.234-.12v-0.23c-0.547-.51-1.093-1.01-1.639-1.52-0.078-.11-0.156-0.23-0.234-0.35h-0.117v-0.23c-0.508-.47-1.015-0.94-1.522-1.4a1.845,1.845,0,0,0-.819-0.82v0.12c-0.235.04-.469,0.07-0.7,0.11v0.12H293.7c-0.039.08-.078,0.16-0.117,0.23h-0.234c-0.195.24-.39,0.47-0.585,0.7l-0.234.12v0.23l-0.234.12v0.23h-0.117v0.24h-0.118v0.35h-0.117v0.58h-0.117a5.049,5.049,0,0,0,.234,2.1h0.118v0.24H292.3c0.039,0.15.078,0.31,0.117,0.47a2.464,2.464,0,0,1,.234.11v0.24a2.464,2.464,0,0,1,.234.11c0.117,0.16.234,0.31,0.351,0.47h0.234c0.039,0.08.078,0.16,0.117,0.23l0.468,0.12v0.12h0.234v0.11h0.352v0.12h0.585v0.12h1.521v0.11h0.7V4157H297.8v0.12h0.351v0.11H298.5v0.12h0.234v0.12h0.235v0.11l0.351,0.12c0.039,0.08.078,0.16,0.117,0.23h0.234c0.234,0.28.468,0.55,0.7,0.82,0.195,0.16.39,0.31,0.585,0.47v0.23l0.234,0.12c0.039,0.16.078,0.31,0.118,0.47h0.117c0.078,0.23.156,0.46,0.234,0.7h0.117v0.35a5.322,5.322,0,0,1,.234,3.15v0.58h-0.117c-0.039.24-.078,0.47-0.117,0.71H301.66c-0.039.15-.078,0.31-0.117,0.46h-0.117v0.24c-0.078.04-.157,0.07-0.235,0.11v0.24c-0.077.04-.156,0.07-0.234,0.11v0.24l-0.936.81c-0.117.16-.234,0.32-0.351,0.47h-0.234l-0.117.24c-0.156.03-.312,0.07-0.469,0.11l-0.117.24c-0.117.03-.234,0.07-0.351,0.11v0.12c-0.234.08-.468,0.15-0.7,0.23l-0.117.24h-0.234v0.11H297.1v0.12h-0.234v0.12h-0.234v0.11h-0.235v0.12h-0.234v0.12h-0.234v0.11l-0.7.24v0.11h-0.351v0.12h-0.234v0.12c-0.2.04-.391,0.08-0.586,0.11v0.12H293.7v0.12h-0.234v0.11h-0.351v0.12h-0.351v0.12h-0.351v0.11h-0.352v0.12h-0.468v0.12h-0.351v0.12h-0.468v0.11h-0.468v0.12h-0.469v0.12c-0.39.03-.78,0.07-1.17,0.11v0.12h-0.819v0.12h-0.82v0.11l-3.394.12a23.865,23.865,0,0,1-7.96-1.17l-0.819-.12v-0.11H274.5v-0.12h-0.352v-0.12H273.8v-0.11h-0.234v-0.12h-0.351v-0.12h-0.234v-0.11h-0.351v-0.12H272.4v-0.12h-0.351v-0.11l-0.7-.24v-0.11h-0.234v-0.12h-0.234v-0.12h-0.234v-0.11h-0.234v-0.12h-0.234v-0.12h-0.234v-0.11h-0.234l-0.117-.24c-0.235-.08-0.469-0.15-0.7-0.23-0.039-.08-0.078-0.16-0.117-0.23l-0.468-.12v-0.12c-0.117-.04-0.234-0.08-0.351-0.11l-0.117-.24H267.6c-0.039-.08-0.078-0.15-0.117-0.23h-0.235c-0.077-.12-0.156-0.24-0.234-0.35h-0.234c-0.078-.12-0.156-0.24-0.234-0.35H266.31c-0.078-.12-0.156-0.24-0.234-0.35h-0.234c-0.078-.12-0.156-0.24-0.234-0.35l-0.351-.12c-0.234-.27-0.469-0.54-0.7-0.82H264.32c-0.39-.43-0.78-0.85-1.17-1.28-0.234-.2-0.469-0.39-0.7-0.59v-0.23c-0.273-.23-0.546-0.47-0.819-0.7v-0.23c-0.156-.12-0.312-0.24-0.468-0.35v-0.24c-0.117-.08-0.234-0.15-0.351-0.23v-0.24c-0.117-.07-0.234-0.15-0.352-0.23v-0.23l-0.234-.12c-0.039-.12-0.078-0.23-0.117-0.35h-0.117v-0.23l-0.234-.12v-0.23l-0.234-.12v-0.23l-0.234-.12c-0.039-.16-0.078-0.31-0.117-0.47-0.078-.04-0.156-0.07-0.234-0.11-0.078-.24-0.156-0.47-0.234-0.7l-0.234-.12c-0.078-.24-0.156-0.47-0.234-0.7h-0.118v-0.24H258V4157h-0.117c-0.078-.23-0.156-0.47-0.234-0.7h-0.117v-0.35h-0.117v-0.23H257.3v-0.35H257.18v-0.24h-0.117v-0.35h-0.117v-0.23h-0.117c-0.039-.24-0.078-0.47-0.117-0.7H256.6v-0.35h-0.117v-0.35h-0.117v-0.35h-0.117v-0.35h-0.117q-0.117-.705-0.235-1.41h-0.117v-0.58h-0.117v-0.47h-0.117v-0.7h-0.117v-0.7h-0.117c-0.039-.78-0.078-1.55-0.117-2.33h-0.117a14.226,14.226,0,0,1,.117-3.51v-1.4h0.117v-0.93h0.117v-0.7h0.117v-0.7h0.117v-0.59c0.391-1.32.781-2.64,1.171-3.97h0.117v-0.23h0.117v-0.35h0.117v-0.24H257.3v-0.35h0.117c0.039-.15.078-0.31,0.117-0.46h0.117v-0.35h0.117c0.078-.24.156-0.47,0.234-0.7h0.117v-0.24h0.118c0.078-.23.156-0.46,0.234-0.7l0.234-.12c0.078-.23.156-0.46,0.234-0.7a2.464,2.464,0,0,0,.234-0.11v-0.24h0.117v-0.23H259.4c0.039-.12.078-0.23,0.117-0.35l0.234-.12v-0.23h0.117c0.039-.12.078-0.23,0.117-0.35l0.234-.12v-0.23c0.117-.08.234-0.16,0.352-0.23v-0.24c0.117-.08.234-0.15,0.351-0.23v-0.24c0.117-.07.234-0.15,0.351-0.23v-0.23c0.195-.16.39-0.31,0.585-0.47v-0.23c0.351-.31.7-0.63,1.054-0.94v-0.23l0.234-.12c0.2-.23.39-0.46,0.585-0.7h0.234l1.054-1.17h0.234c0.156-.19.312-0.39,0.468-0.58h0.234c0.117-.16.234-0.31,0.351-0.47h0.234c0.078-.11.156-0.23,0.234-0.35h0.234v-0.11l0.352-.12c0.039-.08.078-0.16,0.117-0.23h0.234l0.234-.36c0.156-.03.312-0.07,0.468-0.11l0.117-.24c0.117-.03.234-0.07,0.351-0.11v-0.12l0.468-.12c0.039-.07.078-0.15,0.117-0.23h0.235v-0.12h0.234v-0.11h0.234v-0.12h0.234v-0.12h0.234v-0.11h0.234v-0.12h0.234v-0.12h0.234v-0.11h0.234v-0.12c0.234-.08.469-0.16,0.7-0.23v-0.12h0.351v-0.12h0.234V4118h0.351v-0.12h0.234v-0.12c0.234-.04.468-0.08,0.7-0.11,0.815-.33,1.824-0.66,2.693-0.94l1.053-.12v-0.11h0.7v-0.12h0.7v-0.12h0.819v-0.11A3.705,3.705,0,0,0,281.293,4116.01Zm0.468,3.5a3.715,3.715,0,0,1-1.171.12v0.12h-0.819v0.11h-0.7v0.12h-0.585v0.12h-0.469v0.11H277.43v0.12h-0.351v0.12h-0.468v0.11h-0.352v0.12h-0.351v0.12h-0.351v0.12c-0.234.03-.468,0.07-0.7,0.11v0.12h-0.234v0.12H274.27v0.11h-0.234v0.12h-0.352v0.12c-0.234.07-.468,0.15-0.7,0.23v0.12h-0.234v0.11h-0.234v0.12H272.28v0.12h-0.234v0.11h-0.235v0.12h-0.234v0.12h-0.234c-0.039.07-.078,0.15-0.117,0.23l-0.468.12v0.11l-0.351.12c-0.039.08-.078,0.16-0.117,0.23l-0.468.12c-0.078.12-.157,0.23-0.234,0.35h-0.235l-0.117.24H269c-0.078.11-.156,0.23-0.234,0.35h-0.234c-0.078.11-.156,0.23-0.234,0.35h-0.234c-0.156.19-.312,0.39-0.468,0.58h-0.234l-1.054,1.17c-0.546.5-1.092,1.01-1.639,1.52v0.23c-0.195.16-.39,0.31-0.585,0.47v0.23c-0.156.12-.312,0.23-0.468,0.35v0.23l-0.351.24v0.23l-0.234.12c-0.039.11-.078,0.23-0.117,0.35H262.8v0.23l-0.234.12c-0.039.12-.078,0.23-0.117,0.35H262.33c-0.039.15-.078,0.31-0.117,0.47-0.078.04-.156,0.07-0.234,0.11-0.078.24-.156,0.47-0.234,0.7l-0.234.12c-0.039.16-.078,0.31-0.117,0.47h-0.117c-0.078.23-.156,0.46-0.234,0.7h-0.117v0.35h-0.117v0.23h-0.117c-0.039.16-.078,0.31-0.117,0.47h-0.118c-0.039.19-.078,0.39-0.117,0.58h-0.117c-0.39,1.33-.78,2.65-1.17,3.97v0.7h-0.117v0.7h-0.117v0.82H258.7v1.4h-0.117c0.039,1.4.078,2.81,0.117,4.21h0.117v0.93h0.117v0.7h0.117v0.59h0.117v0.58h0.117c0.078,0.47.156,0.93,0.234,1.4h0.117v0.35h0.117v0.35h0.117v0.35h0.117v0.35h0.117c0.039,0.24.078,0.47,0.117,0.7h0.117c0.039,0.16.078,0.32,0.117,0.47h0.118v0.35h0.117c0.039,0.16.078,0.31,0.117,0.47h0.117v0.35h0.117c0.039,0.15.078,0.31,0.117,0.47h0.117c0.039,0.15.078,0.31,0.117,0.46l0.234,0.12v0.23h0.117v0.24h0.117V4157h0.117v0.23l0.234,0.12c0.039,0.16.078,0.31,0.117,0.47h0.117c0.039,0.11.078,0.23,0.117,0.35l0.234,0.12v0.23l0.235,0.12v0.23c0.117,0.08.234,0.16,0.351,0.23v0.24c0.117,0.07.234,0.15,0.351,0.23v0.23l0.234,0.12c0.039,0.12.078,0.23,0.117,0.35,0.195,0.16.39,0.31,0.585,0.47v0.23l1.288,1.17c0.429,0.47.858,0.93,1.287,1.4h0.235c0.117,0.16.234,0.31,0.351,0.47h0.234c0.117,0.15.234,0.31,0.351,0.46h0.234c0.078,0.12.156,0.24,0.234,0.35h0.234l0.117,0.24,0.352,0.12v0.11h0.234l0.117,0.24c0.117,0.03.234,0.07,0.351,0.11v0.12h0.234v0.12h0.234c0.039,0.07.078,0.15,0.117,0.23,0.234,0.08.468,0.16,0.7,0.23l0.117,0.24c0.157,0.04.313,0.07,0.469,0.11v0.12H272.4v0.12c0.234,0.07.468,0.15,0.7,0.23v0.12h0.351v0.11l0.468,0.12v0.12h0.352v0.11H274.5v0.12l0.7,0.12v0.11h0.351v0.12h0.234v0.12c0.39,0.08.781,0.15,1.171,0.23v0.12h0.468a22.588,22.588,0,0,0,11.354.23c0.507-.08,1.015-0.15,1.522-0.23v-0.12h0.351v-0.11h0.351v-0.12l0.819-.12v-0.12h0.234v-0.11l0.7-.12v-0.12H293v-0.11h0.351v-0.12l0.468-.12v-0.11h0.351v-0.12c0.234-.08.469-0.16,0.7-0.23v-0.12h0.234v-0.12c0.156-.04.312-0.07,0.468-0.11l0.117-.24c0.234-.07.468-0.15,0.7-0.23,0.039-.08.078-0.16,0.117-0.23l0.469-.12v-0.12c0.117-.04.234-0.08,0.351-0.11l0.117-.24h0.234v-0.11l0.351-.24v-0.23l0.234-.12v-0.23h0.117v-0.24H298.5v-0.35h0.117a3.755,3.755,0,0,0-.351-2.22,2.464,2.464,0,0,1-.234-0.11v-0.24h-0.117c-0.078-.11-0.156-0.23-0.234-0.35h-0.234c-0.039-.07-0.078-0.15-0.117-0.23l-0.468-.12v-0.11c-0.564-.23-1.355.06-1.99-0.12v-0.12h-0.7v-0.11H293.7v-0.12h-0.351v-0.12H293v-0.11h-0.234v-0.12H292.53v-0.12H292.3v-0.11h-0.235v-0.12h-0.234c-0.039-.08-0.078-0.16-0.117-0.23h-0.234c-0.078-.12-0.156-0.24-0.234-0.35h-0.234c-0.234-.28-0.468-0.55-0.7-0.82-0.156-.12-0.312-0.24-0.469-0.35v-0.24c-0.117-.07-0.234-0.15-0.351-0.23-0.039-.16-0.078-0.31-0.117-0.47-0.078-.04-0.156-0.07-0.234-0.11v-0.24h-0.117v-0.23H288.9v-0.35h-0.117v-0.23h-0.117v-0.35H288.55v-0.47a7.074,7.074,0,0,1-.234-2.8h0.117v-0.59h0.117v-0.47h0.117c0.039-.23.078-0.46,0.117-0.7H288.9c0.078-.23.156-0.46,0.234-0.7h0.117v-0.23l0.234-.12v-0.23l0.234-.12v-0.23c0.195-.16.391-0.31,0.586-0.47v-0.23l0.234-.12v-0.12h0.234c0.156-.19.312-0.38,0.468-0.58a2.9,2.9,0,0,0,.937-0.58,5.415,5.415,0,0,1-1.171-1.29c-0.585-.54-1.171-1.09-1.756-1.63-0.039-.12-0.078-0.24-0.117-0.35a7.309,7.309,0,0,1-1.053-1.05c-0.235.04-.781,0.04-1.054,0.11v0.12a7.646,7.646,0,0,1-3.394-.47h-0.351v-0.11h-0.235v-0.12H282.7v-0.12c-0.156-.04-0.312-0.08-0.468-0.11v-0.12l-0.468-.12c-0.039-.08-0.078-0.15-0.117-0.23H281.41l-0.117-.24h-0.234c-0.117-.15-0.234-0.31-0.352-0.46h-0.234c-0.195-.24-0.39-0.47-0.585-0.7l-0.234-.12v-0.23l-0.234-.12c-0.039-.12-0.078-0.23-0.117-0.35h-0.117v-0.23l-0.234-.12c-0.039-.16-0.078-0.31-0.117-0.47h-0.117c-0.039-.15-0.079-0.31-0.118-0.47h-0.116v-0.35h-0.118c-0.039-.15-0.078-0.31-0.117-0.46h-0.117c-0.429-1.4-.858-2.81-1.287-4.21v-0.58c-0.331-1.05-.5-2.42-0.82-3.5v-0.82h-0.117v-0.82h-0.117v-0.82h-0.117V4125c-0.039-.19-0.078-0.39-0.117-0.58h0.117c0.189-.71.248-1.21,0.937-1.4a1.613,1.613,0,0,1,1.287-.24v0.12h0.937c1.538,0.45,3.445.45,4.916,0.93l1.053,0.12,3.98,1.17v0.12h0.234v0.11h0.351v0.12H289.6v0.12h0.351v0.11l0.7,0.24v0.11l0.468,0.12c0.039,0.08.078,0.16,0.117,0.23h0.234l0.117,0.24h0.234c0.078,0.11.156,0.23,0.234,0.35H292.3c0.039,0.08.078,0.15,0.117,0.23,0.156,0.12.312,0.24,0.468,0.35v0.24c0.156,0.11.312,0.23,0.468,0.35v0.23l0.234,0.12v0.23l0.234,0.12c0.039,0.15.078,0.31,0.117,0.46h0.117c0.078,0.24.156,0.47,0.234,0.7H294.4v0.35h0.118v0.35h0.117v0.36h0.117v0.46h0.117v0.7h0.117a12.64,12.64,0,0,1-.117,3.04l1.287,1.17c0.039,0.07.078,0.15,0.117,0.23h0.234c0.547,0.58,1.093,1.17,1.639,1.75h0.117l0.117,0.24h0.234l1.756,1.86h0.234c0.624,0.67,1.249,1.33,1.873,1.99h0.234c0.585,0.62,1.171,1.25,1.756,1.87h0.351c0.078-.12.156-0.24,0.234-0.35h0.234c0.234-.27.468-0.55,0.7-0.82,0.117-.08.234-0.16,0.351-0.23v-0.24c0.117-.07.234-0.15,0.351-0.23v-0.23l0.234-.12v-0.23h0.117c0.039-.16.078-0.32,0.117-0.47h0.117l0.234-1.05h0.117v-0.59a5.322,5.322,0,0,0-.234-3.15l-0.234-1.05h-0.117c-0.039-.19-0.078-0.39-0.117-0.58H306.81v-0.24h-0.117v-0.35h-0.117c-0.078-.23-0.156-0.47-0.234-0.7h-0.117v-0.23h-0.117v-0.24h-0.117v-0.23h-0.117v-0.23h-0.118v-0.24h-0.117v-0.23h-0.117v-0.23H305.4v-0.24c-0.078-.04-0.156-0.07-0.234-0.11-0.039-.16-0.078-0.32-0.117-0.47h-0.117c-0.039-.12-0.078-0.23-0.117-0.35l-0.234-.12v-0.23h-0.117c-0.039-.12-0.078-0.24-0.117-0.35l-0.234-.12v-0.23l-0.351-.24v-0.23l-0.234-.12c-0.039-.11-0.078-0.23-0.118-0.35-0.156-.11-0.312-0.23-0.468-0.35v-0.23c-0.234-.2-0.468-0.39-0.7-0.58v-0.24c-0.195-.15-0.39-0.31-0.585-0.47-0.351-.38-0.7-0.77-1.054-1.16h-0.234c-0.195-.24-0.39-0.47-0.585-0.7l-0.351-.12c-0.078-.12-0.156-0.23-0.234-0.35h-0.234c-0.079-.12-0.157-0.23-0.235-0.35l-0.351-.12c-0.039-.08-0.078-0.15-0.117-0.23h-0.234l-0.117-.24c-0.117-.03-0.234-0.07-0.351-0.11v-0.12h-0.234c-0.039-.08-0.078-0.15-0.117-0.23l-0.469-.12c-0.038-.08-0.077-0.15-0.116-0.23l-0.469-.12c-0.039-.08-0.078-0.16-0.117-0.23h-0.234v-0.12h-0.234v-0.12h-0.234v-0.11h-0.234v-0.12h-0.234v-0.12h-0.234v-0.11l-0.7-.24v-0.11h-0.351v-0.12h-0.234v-0.12H293v-0.11h-0.234v-0.12l-0.7-.12v-0.11h-0.234v-0.12l-0.819-.12v-0.12h-0.351v-0.11l-0.82-.12v-0.12c-0.351-.03-0.7-0.07-1.053-0.11v-0.12H288.2v-0.12h-0.7v-0.11h-0.819v-0.12Zm-2.341,7.13a11.38,11.38,0,0,0,.468,2.33v0.59h0.117v0.58h0.117v0.58h0.117v0.47h0.117v0.47h0.117c0.078,0.47.156,0.93,0.234,1.4h0.118c0.039,0.27.078,0.55,0.117,0.82h0.117l0.234,1.05h0.117c0.039,0.19.078,0.39,0.117,0.58h0.117c0.039,0.16.078,0.31,0.117,0.47h0.117c0.039,0.16.078,0.31,0.117,0.47a2.464,2.464,0,0,0,.234.11v0.24c0.234,0.19.468,0.39,0.7,0.58,0.039,0.08.078,0.16,0.117,0.23h0.235l0.117,0.24h0.234c0.039,0.08.078,0.15,0.117,0.23H284.1v0.12h0.234v0.12h0.351v0.11a5.851,5.851,0,0,0,3.161,0c0.546-.27,1.092-0.54,1.638-0.82,0.078-.11.156-0.23,0.234-0.35,0.234-.19.469-0.38,0.7-0.58a5.192,5.192,0,0,0,.936-4.09v-0.58h-0.117v-0.35h-0.117v-0.35h-0.117v-0.23h-0.117v-0.24l-0.234-.12v-0.23l-0.234-.12v-0.23l-0.234-.12c-0.156-.19-0.313-0.39-0.469-0.58h-0.234c-0.039-.08-0.078-0.16-0.117-0.23h-0.234v-0.12H288.9v-0.12h-0.234v-0.11h-0.234v-0.12H288.2v-0.12c-0.351-.07-0.7-0.15-1.054-0.23v-0.12h-0.351v-0.11h-0.351v-0.12h-0.351v-0.12h-0.468v-0.11l-0.937-.12v-0.12c-0.312-.04-0.624-0.08-0.936-0.11v-0.12l-1.054-.12v-0.12c-0.429-.03-0.858-0.07-1.287-0.11A7.175,7.175,0,0,0,279.42,4126.64Zm-12.759,10.86H269v0.11l0.937,0.12v0.12h0.234v0.12h0.351v0.11l0.468,0.12v0.12h0.234c0.039,0.07.078,0.15,0.117,0.23h0.234c0.078,0.12.156,0.23,0.234,0.35h0.235c0.195,0.23.39,0.47,0.585,0.7l0.234,0.12v0.23c0.117,0.08.234,0.16,0.351,0.23,0.039,0.16.078,0.32,0.117,0.47l0.234,0.12V4141h0.117v0.24H273.8v0.35h0.117v0.23h0.118v0.47h0.116v0.46h0.118v2.34h-0.118v0.47h-0.116v0.46h-0.118v0.24H273.8v0.35h-0.117v0.23h-0.117v0.23l-0.234.12c-0.039.16-.078,0.31-0.117,0.47-0.117.08-.234,0.15-0.351,0.23v0.24c-0.234.19-.468,0.38-0.7,0.58-0.039.08-.078,0.16-0.117,0.23h-0.235c-0.078.12-.156,0.24-0.234,0.35h-0.234l-0.117.24h-0.234v0.11l-0.468.12v0.12h-0.351v0.11h-0.234v0.12l-0.937.12v0.11a11.226,11.226,0,0,1-2.809-.11v-0.12h-0.351v-0.12c-0.234-.04-0.468-0.07-0.7-0.11v-0.12H264.9v-0.12h-0.234c-0.039-.07-0.078-0.15-0.117-0.23H264.32c-0.039-.08-0.078-0.16-0.117-0.23h-0.234c-0.117-.16-0.234-0.31-0.351-0.47h-0.234v-0.12c-0.117-.08-0.234-0.15-0.351-0.23v-0.23l-0.469-.36v-0.23l-0.234-.12v-0.23l-0.234-.12v-0.23h-0.117v-0.23h-0.117v-0.35h-0.117v-0.35h-0.117v-0.35h-0.117v-0.59h-0.117c0.039-.89.078-1.79,0.117-2.68h0.117c0.039-.24.078-0.47,0.117-0.7h0.117v-0.24h0.117c0.039-.19.078-0.39,0.117-0.58h0.117c0.039-.12.078-0.24,0.117-0.35l0.234-.12v-0.23c0.156-.12.313-0.24,0.469-0.35v-0.24h0.117c0.078-.11.156-0.23,0.234-0.35h0.234c0.117-.15.234-0.31,0.351-0.46H264.2l0.117-.24h0.234c0.039-.08.078-0.15,0.117-0.23C265.335,4137.97,266,4137.73,266.661,4137.5Zm26.571,1.17a5.089,5.089,0,0,1-1.756,1.75,0.2,0.2,0,0,0,.117.11l1.054,1.17,0.234,0.12v0.23c0.663,0.63,1.326,1.25,1.99,1.87v0.23l0.234,0.12c0.195,0.23.39,0.47,0.585,0.7l1.171,1.05v0.24c0.585,0.54,1.17,1.09,1.755,1.63,0.039,0.12.078,0.24,0.117,0.35,0.664,0.63,1.327,1.25,1.99,1.87v0.23c0.664,0.63,1.327,1.25,1.99,1.87v0.24c0.624,0.58,1.249,1.16,1.873,1.75v0.23c0.663,0.62,1.327,1.25,1.99,1.87v0.23l1.287,1.17c0.156,0.2.313,0.39,0.469,0.59a1.052,1.052,0,0,1,.468.23c1.12,0.04,2.131-.1,2.341-0.94a1.754,1.754,0,0,0,.351-1.4h-0.117c-0.039-.19-0.078-0.39-0.117-0.58h-0.117v-0.23l-0.351-.24-0.937-1.05h-0.234l-1.873-1.98h-0.234l-0.117-.24c-0.234-.19-0.468-0.39-0.7-0.58l-1.054-1.17H305.4l-1.872-1.98H303.3l-0.117-.24c-0.234-.19-0.468-0.39-0.7-0.58l-1.053-1.17h-0.235c-0.585-.62-1.17-1.25-1.755-1.87H299.2v-0.12c-0.156-.11-0.313-0.23-0.469-0.35-0.468-.5-0.936-1.01-1.4-1.51H297.1l-0.117-.24c-0.195-.15-0.391-0.31-0.586-0.46l-1.053-1.17-0.351-.12c-0.507-.54-1.015-1.09-1.522-1.63h-0.234Zm-26.1,2.33v0.12l-0.585.12v0.11H266.31v0.12h-0.234c-0.039.08-.078,0.15-0.117,0.23-0.195.16-.39,0.31-0.585,0.47-0.078.23-.156,0.47-0.234,0.7h-0.117v0.35H264.9a2.928,2.928,0,0,0,.118,1.4v0.35h0.117c0.078,0.24.156,0.47,0.234,0.7,0.195,0.16.39,0.31,0.585,0.47,0.039,0.08.078,0.16,0.117,0.23l0.7,0.24v0.11h0.351v0.12h1.4a2.936,2.936,0,0,0,1.99-3.97v-0.35l-0.234-.12C269.552,4141.29,269.018,4140.96,267.129,4141Zm12.057,11.68c0.232,0.04.234,0.12,0.234,0.12h1.17a7.408,7.408,0,0,1,4.331,3.03v0.24h0.117c0.078,0.23.156,0.46,0.234,0.7h0.118c0.038,0.23.077,0.46,0.117,0.7h0.117c0.078,0.62.156,1.24,0.234,1.87h-0.117v1.16h-0.117v0.47h-0.117v0.35H285.39v0.35h-0.118c-0.039.16-.078,0.31-0.117,0.47h-0.117v0.23l-0.234.12c-0.039.16-.078,0.31-0.117,0.47-0.156.11-.312,0.23-0.468,0.35v0.23l-0.234.12c-0.117.15-.234,0.31-0.351,0.46H283.4c-0.078.12-.156,0.24-0.234,0.35h-0.235l-0.117.24H282.58c-0.039.08-.078,0.15-0.117,0.23-0.7.24-1.4,0.47-2.107,0.7a9.09,9.09,0,0,1-3.394-.35v-0.11h-0.234v-0.12h-0.234v-0.12h-0.235v-0.12h-0.234v-0.11h-0.234c-0.078-.12-0.156-0.24-0.234-0.35h-0.234c-0.117-.16-0.234-0.31-0.351-0.47-0.273-.23-0.546-0.47-0.82-0.7v-0.23l-0.351-.24v-0.23h-0.117v-0.23h-0.117v-0.24H273.45v-0.23h-0.117v-0.24h-0.117l-0.117-.81a5.781,5.781,0,0,1-.234-2.57c0.195-.62.39-1.25,0.585-1.87h0.117v-0.23l0.234-.12v-0.23l0.235-.12v-0.23l0.351-.24v-0.23c0.156-.12.312-0.24,0.468-0.35l0.117-.24h0.234c0.117-.15.234-0.31,0.351-0.46l0.468-.12c0.039-.08.078-0.15,0.117-0.23h0.235v-0.12l0.468-.12v-0.11H277.2v-0.12h0.351v-0.12h0.468v-0.11A4.039,4.039,0,0,0,279.186,4152.68Zm-0.7,3.62v0.12c-0.2.04-.391,0.07-0.586,0.11l-0.117.24h-0.234c-0.478.33-1.535,1.89-1.17,3.03h0.117v0.47h0.117a2.961,2.961,0,0,0,1.17,1.52,1.094,1.094,0,0,1,.468.23l1.756,0.12a4.225,4.225,0,0,0,1.99-1.52c0.039-.19.078-0.39,0.117-0.58a2.98,2.98,0,0,0-1.99-3.74h-1.638Z" transform="translate(-255 -4116)"/>
</svg>
