<svg xmlns="http://www.w3.org/2000/svg" width="58" height="60" viewBox="0 0 58 60">
  <defs>
    <style>
      .cls-1 {
        fill: #016faf;
        fill-rule: evenodd;
      }
    </style>
  </defs>
  <path id="Фигура_6" data-name="Фигура 6" class="cls-1" d="M785.938,3810.85h-0.821v0.12l-1.055-.12a2.837,2.837,0,0,1-.469.82v0.23l-0.234.12c-0.078.23-.156,0.47-0.235,0.7l-0.234.12v0.23h-0.117v0.24h-0.117v0.23h-0.118v0.23l-0.234.12v0.24h-0.117v0.23H782.07v0.23l-0.235.12c-0.078.23-.156,0.47-0.234,0.7l-0.235.12c-0.078.23-.156,0.47-0.234,0.7l-0.235.12c-0.078.23-.156,0.47-0.234,0.7l-0.235.12c-0.078.23-.156,0.47-0.234,0.7l-0.234.12c-0.078.23-.157,0.47-0.235,0.7l-0.234.12c-0.078.23-.156,0.46-0.235,0.7l-0.234.12v0.23h-0.117v0.23h-0.118v0.24H778.67v0.23l-0.234.12c-0.078.23-.157,0.47-0.235,0.7l-0.234.12c-0.039.15-.078,0.31-0.117,0.47-0.117.07-.235,0.15-0.352,0.23v0.23l-0.234.12c-0.117.16-.235,0.31-0.352,0.47h-0.234c-0.039.08-.078,0.16-0.118,0.23h-0.234l-0.117.24h-0.352v0.11h-0.234v0.12a9.549,9.549,0,0,1-3.165.24H760.736a8.766,8.766,0,0,1-2.7-.12v-0.12h-0.234v-0.12h-0.235c-0.039-.07-0.078-0.15-0.117-0.23H757.22c-0.117-.16-0.235-0.31-0.352-0.47a2.464,2.464,0,0,0-.234-0.11v-0.24l-0.235-.12a3.876,3.876,0,0,1-.351-2.1h0.117v-0.47h0.117c0.039-.16.078-0.31,0.117-0.47h0.117c0.04-.15.079-0.31,0.118-0.47,0.078-.04.156-0.07,0.234-0.11,0.078-.24.156-0.47,0.235-0.71a2.464,2.464,0,0,0,.234-0.11v-0.24h0.117v-0.23h0.117v-0.23h0.118v-0.24l0.234-.12c0.078-.23.156-0.46,0.234-0.7,0.079-.04.157-0.08,0.235-0.11v-0.24h0.117v-0.23h0.117v-0.24c0.078-.04.157-0.07,0.235-0.11,0.078-.24.156-0.47,0.234-0.71a2.479,2.479,0,0,0,.235-0.11v-0.24h0.117v-0.23h0.117v-0.24a2.464,2.464,0,0,0,.234-0.11c0.079-.24.157-0.47,0.235-0.7l0.234-.12c0.078-.24.157-0.47,0.235-0.7l0.234-.12c0.078-.23.156-0.47,0.235-0.7l0.234-.12v-0.23h0.117v-0.24h0.118v-0.23h0.117v-0.24c0.078-.04.156-0.07,0.234-0.11,0.078-.24.156-0.47,0.235-0.71a2.464,2.464,0,0,0,.234-0.11c0.078-.24.156-0.47,0.234-0.7l0.235-.12v-0.24h0.117v-0.23h0.117v-0.23l0.235-.12c0.078-.23.156-0.47,0.234-0.7l0.235-.12c0.078-.23.156-0.47,0.234-0.7l0.235-.12c0.078-.23.156-0.47,0.234-0.7l0.234-.12c0.078-.23.157-0.47,0.235-0.7l0.234-.12v-0.23h0.117v-0.24h0.118v-0.23h0.117v-0.23l0.234-.12c0.039-.16.078-0.31,0.117-0.47h0.118a3.7,3.7,0,0,0,.469-1.05h0.117v-0.12h-0.117a0.921,0.921,0,0,0-.235-0.23v-0.24c-0.117-.07-0.234-0.15-0.352-0.23v-0.24a2.464,2.464,0,0,1-.234-0.11v-0.24a2.464,2.464,0,0,1-.234-0.11c-0.039-.12-0.079-0.24-0.118-0.35h-0.117c-0.039-.16-0.078-0.32-0.117-0.47l-0.234-.12v-0.23H764.6v-0.24h-0.117v-0.23H764.37v-0.24a2.464,2.464,0,0,1-.234-0.11c-0.118-.35-0.235-0.7-0.352-1.06h-0.117c-0.039-.15-0.079-0.31-0.118-0.46h-0.117c-0.039-.2-0.078-0.39-0.117-0.59H763.2v-0.23H763.08v-0.35h-0.117v-0.35h-0.117v-0.36h-0.117v-0.35c-1.066-2.7-1.716-8.13-.7-11.47v-0.58h0.117v-0.47h0.117v-0.58h0.117c0.039-.28.078-0.55,0.117-0.82h0.118v-0.35h0.117v-0.36h0.117v-0.35h0.117v-0.35h0.117v-0.23H763.2v-0.35h0.117v-0.24h0.117c0.039-.19.078-0.39,0.117-0.58h0.118c0.078-.24.156-0.47,0.234-0.7h0.117v-0.24h0.118v-0.23h0.117v-0.24h0.117v-0.23h0.117v-0.23l0.235-.12c0.039-.16.078-0.31,0.117-0.47l0.234-.12c0.039-.15.078-0.31,0.117-0.46h0.118l0.117-.36a2.464,2.464,0,0,0,.234-0.11v-0.24c0.117-.07.235-0.15,0.352-0.23v-0.23l0.234-.12v-0.24a2.369,2.369,0,0,0,.235-0.11v-0.12l0.234-.12v-0.23c0.2-.16.391-0.31,0.586-0.47V3772c0.391-.35.782-0.7,1.172-1.06l1.055-1.17h0.235c0.156-.19.312-0.39,0.469-0.58h0.234l0.117-.24H770.7c0.039-.07.078-0.15,0.117-0.23h0.234c0.078-.12.157-0.23,0.235-0.35h0.234c0.039-.08.078-0.16,0.117-0.23h0.235l0.117-.24h0.234c0.039-.08.079-0.15,0.118-0.23h0.234l0.117-.24c0.235-.07.469-0.15,0.7-0.23,0.039-.08.078-0.16,0.117-0.23h0.234v-0.12h0.235v-0.12h0.234v-0.12h0.235v-0.11h0.234v-0.12h0.234v-0.12c0.235-.07.469-0.15,0.7-0.23v-0.12h0.351v-0.11h0.235v-0.12l3.751-1.17,2.227-.24a16.061,16.061,0,0,1,6.447.12l1.289,0.12v0.11l0.938,0.12v0.12h0.469v0.12h0.351v0.11h0.352v0.12h0.352v0.12c0.234,0.04.468,0.07,0.7,0.11v0.12h0.234v0.12h0.352v0.12h0.234v0.11h0.352v0.12c0.234,0.08.469,0.16,0.7,0.23v0.12H795.2v0.12h0.234v0.11h0.235v0.12H795.9v0.12h0.234v0.12h0.235v0.11H796.6l0.118,0.24c0.156,0.04.312,0.07,0.468,0.11,0.04,0.08.079,0.16,0.118,0.24h0.234c0.039,0.08.078,0.15,0.117,0.23h0.235v0.12l0.351,0.12c0.039,0.07.078,0.15,0.118,0.23H798.6c0.078,0.12.156,0.23,0.234,0.35h0.235c0.117,0.16.234,0.31,0.352,0.47h0.234c0.117,0.15.234,0.31,0.352,0.47h0.234l1.055,1.17,1.289,1.17v0.23c0.2,0.16.391,0.31,0.586,0.47v0.23l0.235,0.12v0.12a2.464,2.464,0,0,0,.234.11v0.24l0.235,0.12v0.23c0.117,0.08.234,0.16,0.351,0.23v0.24c0.079,0.04.157,0.08,0.235,0.11v0.24l0.234,0.12c0.039,0.15.078,0.31,0.117,0.46l0.235,0.12c0.039,0.16.078,0.31,0.117,0.47l0.235,0.12v0.23h0.117v0.23h0.117v0.24h0.117v0.23h0.117v0.24h0.118c0.078,0.23.156,0.46,0.234,0.7h0.117c0.039,0.19.078,0.39,0.118,0.58h0.117v0.24h0.117c0.039,0.23.078,0.47,0.117,0.7h0.117v0.23h0.118l0.351,1.53h0.117q0.353,1.755.7,3.51v1.28h0.117a12.212,12.212,0,0,1-.117,3.16v1.29h-0.118v0.82h-0.117l-0.117,1.29H807.74v0.46h-0.117v0.47h-0.118v0.47h-0.117v0.35h-0.117v0.35h-0.117v0.35h-0.117v0.36h-0.118c-0.039.23-.078,0.46-0.117,0.7h-0.117v0.23h-0.117v0.35h-0.117c-0.079.24-.157,0.47-0.235,0.7H806.1v0.24h-0.117c-0.039.19-.079,0.39-0.118,0.58l-0.234.12v0.23h-0.117v0.24H805.4v0.23h-0.118v0.24h-0.117v0.23l-0.234.12v0.23l-0.235.12c-0.039.15-.078,0.31-0.117,0.47h-0.117c-0.039.11-.078,0.23-0.117,0.35a2.479,2.479,0,0,1-.235.11v0.24c-0.117.08-.234,0.16-0.351,0.23v0.24c-0.068.11-.322,0.06-0.235,0.35h0.117a3.348,3.348,0,0,0,.469,1.05h0.117c0.079,0.24.157,0.47,0.235,0.7l0.234,0.12c0.078,0.23.157,0.47,0.235,0.7l0.234,0.12c0.078,0.23.156,0.47,0.235,0.7l0.234,0.12c0.078,0.23.156,0.47,0.234,0.7l0.235,0.12v0.23h0.117v0.24h0.117v0.23l0.235,0.12c0.078,0.23.156,0.47,0.234,0.7l0.235,0.12c0.078,0.23.156,0.47,0.234,0.7l0.234,0.12c0.079,0.23.157,0.46,0.235,0.7a2.464,2.464,0,0,0,.234.11v0.24h0.117v0.23h0.118v0.24h0.117v0.23l0.234,0.12c0.078,0.23.157,0.47,0.235,0.7l0.234,0.12c0.078,0.23.157,0.47,0.235,0.7l0.234,0.12c0.078,0.23.156,0.46,0.235,0.7l0.234,0.12c0.078,0.23.156,0.46,0.234,0.7,0.079,0.04.157,0.08,0.235,0.11,0.078,0.24.156,0.47,0.234,0.71a2.479,2.479,0,0,0,.235.11v0.24h0.117v0.23h0.117v0.24c0.078,0.04.156,0.07,0.235,0.11,0.078,0.24.156,0.47,0.234,0.71a2.464,2.464,0,0,1,.234.11c0.079,0.24.157,0.47,0.235,0.7l0.234,0.12v0.24h0.118v0.23h0.117v0.23h0.117v0.24a2.464,2.464,0,0,0,.234.11c0.078,0.24.157,0.47,0.235,0.71,0.078,0.04.156,0.07,0.234,0.11,0.039,0.16.078,0.32,0.117,0.47H813.6c0.039,0.16.078,0.31,0.117,0.47h0.117v0.47h0.117a3.876,3.876,0,0,1-.351,2.1l-0.235.12v0.24a2.464,2.464,0,0,0-.234.11c-0.156.2-.313,0.39-0.469,0.59-0.234.08-.469,0.15-0.7,0.23v0.12a8.319,8.319,0,0,1-2.579.12H797.542a9.283,9.283,0,0,1-3.165-.24v-0.12h-0.234v-0.11h-0.235v-0.12l-0.469-.12c-0.039-.07-0.078-0.15-0.117-0.23h-0.234c-0.117-.16-0.235-0.31-0.352-0.47l-0.234-.12v-0.23c-0.117-.08-0.235-0.16-0.352-0.23-0.039-.16-0.078-0.32-0.117-0.47l-0.234-.12c-0.079-.23-0.157-0.47-0.235-0.7l-0.234-.12v-0.23h-0.118v-0.24H791.1v-0.23h-0.117v-0.23l-0.235-.12c-0.078-.24-0.156-0.47-0.234-0.7l-0.234-.12c-0.078-.23-0.157-0.47-0.235-0.7l-0.234-.12c-0.078-.23-0.156-0.47-0.235-0.7l-0.234-.12c-0.078-.23-0.156-0.47-0.234-0.7l-0.235-.12V3816h-0.117v-0.24h-0.117v-0.23l-0.235-.12c-0.078-.23-0.156-0.47-0.234-0.7l-0.235-.12c-0.078-.23-0.156-0.46-0.234-0.7l-0.235-.12v-0.23h-0.117v-0.23h-0.117v-0.24H787.11v-0.23l-0.235-.12c-0.078-.23-0.156-0.47-0.234-0.7l-0.234-.12v-0.23A3.166,3.166,0,0,1,785.938,3810.85Zm-2.462-43.3a3.722,3.722,0,0,1-1.172.12v0.11h-0.7v0.12h-0.7l-3.751,1.17v0.12c-0.234.08-.468,0.15-0.7,0.23v0.12h-0.234v0.12h-0.235v0.11H775.74v0.12h-0.235v0.12h-0.234v0.12h-0.234c-0.039.07-.079,0.15-0.118,0.23l-0.468.12c-0.04.07-.079,0.15-0.118,0.23H774.1c-0.039.08-.078,0.16-0.117,0.23h-0.235l-0.234.36h-0.235c-0.039.07-.078,0.15-0.117,0.23h-0.234c-0.078.12-.157,0.23-0.235,0.35l-0.351.12c-0.2.23-.391,0.47-0.586,0.7H771.52c-0.273.31-.547,0.62-0.82,0.94-0.157.11-.313,0.23-0.469,0.35v0.23c-0.235.2-.469,0.39-0.7,0.59-0.039.11-.078,0.23-0.117,0.35-0.117.07-.234,0.15-0.351,0.23v0.24a2.369,2.369,0,0,0-.235.11v0.24c-0.117.07-.234,0.15-0.352,0.23v0.23l-0.234.12c-0.039.16-.078,0.31-0.117,0.47l-0.235.12c-0.039.15-.078,0.31-0.117,0.46l-0.234.12c-0.078.24-.157,0.47-0.235,0.7h-0.117v0.24h-0.117c-0.078.23-.156,0.47-0.235,0.7h-0.117v0.35H766.6v0.23H766.48v0.36h-0.117v0.23h-0.118c-0.039.23-.078,0.47-0.117,0.7h-0.117v0.35h-0.117c-0.039.28-.078,0.55-0.118,0.82h-0.117v0.47h-0.117l-0.117,1.17h-0.117v0.82H765.19v1.17h-0.117a11.007,11.007,0,0,0,.117,2.93v1.17h0.118v0.7h0.117v0.7h0.117v0.47h0.117v0.47h0.117v0.46h0.118v0.36h0.117v0.35h0.117V3794h0.117c0.039,0.23.079,0.47,0.118,0.7h0.117c0.039,0.2.078,0.39,0.117,0.59h0.117c0.039,0.15.078,0.31,0.117,0.46h0.118v0.24h0.117v0.35l0.234,0.12v0.23h0.118v0.23h0.117v0.24h0.117v0.23h0.117v0.24c0.078,0.03.156,0.07,0.235,0.11,0.039,0.16.078,0.31,0.117,0.47h0.117c0.039,0.12.078,0.23,0.117,0.35l0.235,0.12v0.23l0.351,0.24v0.23l0.235,0.12c0.039,0.12.078,0.23,0.117,0.35,0.156,0.12.313,0.23,0.469,0.35v0.23l1.289,1.17c0.313,0.36.625,0.71,0.938,1.06h0.234c0.157,0.19.313,0.39,0.469,0.58h0.235c0.078,0.12.156,0.24,0.234,0.35H773.4l0.117,0.24h0.234c0.039,0.08.078,0.15,0.117,0.23,1.055,0.59,2.11,1.17,3.165,1.76h0.352v0.11h0.234v0.12l0.586,0.12v0.11h0.352v0.12h0.352v0.12h0.351v0.12h0.469v0.11h0.469v0.12h0.469v0.12h0.586v0.11h0.586v0.12h0.938v0.12h1.993a0.316,0.316,0,0,0,.351.12v-0.12h1.993v-0.12h0.938v-0.12h0.586v-0.11h0.586v-0.12h0.469v-0.12h0.468v-0.11h0.469v-0.12h0.352v-0.12h0.352v-0.12h0.351v-0.11h0.235v-0.12h0.351v-0.12H792.5v-0.11h0.351v-0.12c0.235-.08.469-0.16,0.7-0.23v-0.12h0.234v-0.12h0.235v-0.11l0.7-.24c0.039-.08.078-0.16,0.117-0.23l0.469-.12c0.039-.08.078-0.16,0.117-0.23l0.469-.12c0.078-.12.156-0.24,0.234-0.35h0.235l0.117-.24h0.235c0.078-.11.156-0.23,0.234-0.35h0.234c0.118-.15.235-0.31,0.352-0.47h0.234l1.055-1.17,1.29-1.17v-0.23c0.156-.12.312-0.23,0.469-0.35,0.039-.12.078-0.23,0.117-0.35l0.234-.12v-0.23l0.352-.24v-0.23l0.234-.12c0.04-.15.079-0.31,0.118-0.47,0.078-.04.156-0.07,0.234-0.11,0.039-.12.078-0.24,0.117-0.35h0.118v-0.24h0.117v-0.23h0.117v-0.24h0.117v-0.23h0.117v-0.23H802.7v-0.24h0.117v-0.23h0.117c0.078-.24.156-0.47,0.234-0.7h0.118v-0.36H803.4v-0.23h0.117c0.039-.23.078-0.47,0.117-0.7h0.118v-0.35h0.117v-0.35h0.117v-0.36h0.117v-0.46h0.117c0.04-.32.079-0.63,0.118-0.94h0.117v-0.7h0.117v-0.82c0.668-2.35.071-6.11-.586-7.96v-0.47h-0.117q-0.117-.525-0.235-1.05H803.52v-0.23H803.4v-0.36h-0.117v-0.23h-0.118v-0.35h-0.117c-0.078-.23-0.156-0.47-0.234-0.7H802.7v-0.24h-0.118c-0.078-.23-0.156-0.46-0.234-0.7l-0.234-.12c-0.04-.15-0.079-0.31-0.118-0.46l-0.234-.12c-0.039-.16-0.078-0.31-0.117-0.47l-0.235-.12v-0.23c-0.117-.08-0.234-0.16-0.351-0.23v-0.24c-0.079-.04-0.157-0.08-0.235-0.11v-0.24c-0.117-.08-0.234-0.16-0.352-0.23-0.039-.12-0.078-0.24-0.117-0.35-0.234-.2-0.469-0.39-0.7-0.59v-0.23c-0.352-.32-0.7-0.63-1.055-0.94-0.117-.16-0.234-0.31-0.352-0.47h-0.234c-0.156-.19-0.313-0.39-0.469-0.58h-0.234c-0.118-.16-0.235-0.31-0.352-0.47h-0.234c-0.079-.12-0.157-0.23-0.235-0.35h-0.234c-0.039-.08-0.078-0.16-0.118-0.24-0.117-.03-0.234-0.07-0.351-0.11v-0.12h-0.235c-0.039-.08-0.078-0.16-0.117-0.23l-0.469-.12c-0.039-.08-0.078-0.16-0.117-0.23l-0.7-.24v-0.12h-0.235v-0.11h-0.234v-0.12h-0.235v-0.12c-0.234-.08-0.468-0.15-0.7-0.23v-0.12h-0.351v-0.12H792.15v-0.11l-0.7-.12v-0.12H791.1v-0.11h-0.352v-0.12h-0.351v-0.12c-0.313-.04-0.625-0.08-0.938-0.11A19.93,19.93,0,0,0,783.476,3767.55Zm15.942,16.62h-0.235a2.593,2.593,0,0,1-.938.7c-0.078.12-.156,0.23-0.234,0.35h-0.235c-0.078.12-.156,0.23-0.234,0.35h-0.234c-0.039.08-.078,0.16-0.118,0.24h-0.234c-0.039.07-.078,0.15-0.117,0.23l-0.352.12c-0.078.11-.156,0.23-0.234,0.35h-0.235c-0.039.08-.078,0.15-0.117,0.23h-0.234c-0.079.12-.157,0.24-0.235,0.35H795.2c-0.078.12-.157,0.24-0.235,0.35h-0.234l-0.117.24h-0.235c-0.078.12-.156,0.23-0.234,0.35h-0.235c-0.078.12-.156,0.23-0.234,0.35h-0.235c-0.078.12-.156,0.23-0.234,0.35h-0.234l-0.118.24h-0.234v0.11a0.927,0.927,0,0,1-.469.24c0.039,0.23.078,0.47,0.117,0.7h0.118v0.47H792.5v0.35h0.117v0.35h0.117v0.35h0.117v0.35h0.118v0.35h0.117v0.35h0.117c0.313,1.1.625,2.19,0.938,3.28,0.192,0.48,1.018,2.2.7,3.04h-0.117v0.24c-0.313.27-.625,0.54-0.938,0.82a2.869,2.869,0,0,1-1.524-.12v-0.12h-0.234c-0.078-.11-0.156-0.23-0.234-0.35h-0.235c-0.078-.12-0.156-0.23-0.234-0.35H791.1c-0.039-.08-0.078-0.16-0.117-0.23h-0.235l-0.234-.36h-0.234c-0.078-.11-0.157-0.23-0.235-0.35h-0.234c-0.039-.07-0.078-0.15-0.117-0.23h-0.235c-0.078-.12-0.156-0.23-0.234-0.35h-0.235c-0.078-.12-0.156-0.24-0.234-0.35l-0.352-.12c-0.039-.08-0.078-0.16-0.117-0.23h-0.234c-0.04-.08-0.079-0.16-0.118-0.24H787.7c-0.078-.11-0.156-0.23-0.235-0.35h-0.234c-0.078-.12-0.156-0.23-0.234-0.35h-0.235c-0.039-.08-0.078-0.16-0.117-0.23h-0.234c-0.04-.08-0.079-0.16-0.118-0.24-0.117-.04-0.234-0.08-0.351-0.11-0.079-.12-0.157-0.24-0.235-0.36h-0.234v-0.11a1.634,1.634,0,0,1-.352-0.24,0.218,0.218,0,0,0-.117.12,0.994,0.994,0,0,0-.469.23v0.12H784.3c-0.039.08-.078,0.16-0.118,0.24h-0.234c-0.078.11-.156,0.23-0.234,0.35h-0.235c-0.078.11-.156,0.23-0.234,0.35h-0.235c-0.039.08-.078,0.15-0.117,0.23h-0.234l-0.118.24c-0.117.03-.234,0.07-0.351,0.11-0.078.12-.157,0.24-0.235,0.35h-0.234l-0.117.24h-0.235c-0.039.08-.078,0.15-0.117,0.23l-0.352.12c-0.078.12-.156,0.23-0.234,0.35h-0.235c-0.039.08-.078,0.16-0.117,0.23h-0.234c-0.078.12-.156,0.24-0.235,0.35h-0.234l-0.234.36h-0.235c-0.039.07-.078,0.15-0.117,0.23h-0.235c-0.078.12-.156,0.23-0.234,0.35h-0.234c-0.079.12-.157,0.24-0.235,0.35a2,2,0,0,1-1.758.12c-0.664-.16-0.645-0.59-1.055-0.94a7.366,7.366,0,0,1,.82-3.39q0.118-.585.235-1.17h0.117V3794h0.117v-0.35h0.118v-0.35H776.8v-0.36h0.117v-0.35h0.117v-0.35h0.117v-0.35h0.118v-0.35h0.117v-0.35H777.5v-0.35h0.117v-0.47a4.139,4.139,0,0,0,.352-1.05,0.915,0.915,0,0,1-.469-0.24v-0.11l-0.352-.12-0.117-.24H776.8c-0.039-.07-0.078-0.15-0.117-0.23h-0.235c-0.078-.12-0.156-0.23-0.234-0.35h-0.235c-0.078-.12-0.156-0.23-0.234-0.35h-0.235l-0.117-.24h-0.234c-0.078-.11-0.157-0.23-0.235-0.35h-0.234c-0.078-.11-0.156-0.23-0.234-0.35-0.118-.04-0.235-0.08-0.352-0.11l-0.117-.24h-0.235c-0.039-.08-0.078-0.15-0.117-0.23H773.4c-0.04-.08-0.079-0.16-0.118-0.24-0.117-.04-0.234-0.07-0.351-0.11l-0.235-.36h-0.234c-0.039-.07-0.078-0.15-0.117-0.23h-0.235c-0.078-.12-0.156-0.23-0.234-0.35h-0.235c-0.039-.08-0.078-0.16-0.117-0.23l-0.352-.12v-0.12a0.915,0.915,0,0,0-.468-0.23,1.106,1.106,0,0,0-.235-0.47h-0.117v-0.35h-0.117a1.76,1.76,0,0,1,.937-1.99c0.419-.41,1.784-0.23,2.579-0.23h6.916a0.191,0.191,0,0,1,.117-0.12q0.352-1.23.7-2.46H781.6c0.039-.27.078-0.55,0.117-0.82h0.117c0.039-.23.078-0.47,0.117-0.7h0.118v-0.35h0.117v-0.35H782.3v-0.35h0.117v-0.35h0.117v-0.36h0.118c0.039-.23.078-0.46,0.117-0.7h0.117v-0.47h0.117v-0.35h0.117v-0.35h0.118v-0.35h0.117v-0.35h0.117v-0.23h0.117v-0.24c0.274-.19.547-0.39,0.821-0.58a2.494,2.494,0,0,1,1.289.11c1.066,0.3,1.029,1.35,1.407,2.34h0.117v0.47h0.117c0.039,0.24.078,0.47,0.117,0.7,0.5,1.25.906,2.72,1.407,3.98v0.35h0.117v0.35H789.1v0.36h0.117c0.039,0.23.078,0.46,0.117,0.7h0.117a8,8,0,0,0,2.462.12H798.6v0.11h0.352v0.12l0.351,0.12c0.039,0.07.079,0.15,0.118,0.23h0.117a2.455,2.455,0,0,1,.351,1.64h-0.117v0.23h-0.117v0.24h-0.117C799.5,3783.93,799.457,3784.05,799.418,3784.17ZM785,3779.14c-0.039.19-.078,0.39-0.117,0.58h-0.117v0.47h-0.118c-0.039.23-.078,0.47-0.117,0.7h-0.117v0.35H784.3v0.35h-0.118v0.35h-0.117v0.36h-0.117v0.35h-0.117V3783h-0.117v0.35h-0.118a1.028,1.028,0,0,1-.7.94,2.427,2.427,0,0,1-1.758.35H777.5v0.11h0.117a2.723,2.723,0,0,0,.7.47c0.039,0.08.078,0.16,0.117,0.23h0.234l0.235,0.36h0.234c0.078,0.11.156,0.23,0.235,0.35h0.234c0.039,0.08.078,0.15,0.117,0.23h0.235c0.078,0.12.156,0.24,0.234,0.35,0.855,0.61,1.638.87,1.641,2.34-0.508,1.52-1.016,3.05-1.524,4.57h0.117a2.388,2.388,0,0,1,.821-0.59c0.039-.08.078-0.15,0.117-0.23H781.6c0.078-.12.156-0.24,0.234-0.35h0.235c0.078-.12.156-0.24,0.234-0.35h0.234l0.118-.24h0.234c0.078-.12.156-0.23,0.234-0.35h0.235c0.078-.12.156-0.23,0.234-0.35a3.3,3.3,0,0,1,1.759-.59v0.12l0.586,0.12v0.12h0.234c0.039,0.07.078,0.15,0.117,0.23h0.235c0.078,0.12.156,0.23,0.234,0.35h0.235c0.039,0.08.078,0.16,0.117,0.23h0.234l0.235,0.36h0.234c0.078,0.11.156,0.23,0.235,0.35h0.234c0.039,0.07.078,0.15,0.117,0.23h0.235c0.078,0.12.156,0.23,0.234,0.35H789.1c0.078,0.12.156,0.24,0.234,0.35h0.234a1.269,1.269,0,0,0,.235.24c-0.508-1.52-1.016-3.05-1.524-4.57a2.3,2.3,0,0,1,.234-1.28c0.235-.2.469-0.39,0.7-0.59v-0.12h0.234c0.078-.11.156-0.23,0.235-0.35h0.234c0.039-.08.078-0.15,0.117-0.23h0.235c0.078-.12.156-0.24,0.234-0.35h0.234c0.079-.12.157-0.24,0.235-0.35h0.234l0.118-.24h0.234c0.078-.12.156-0.23,0.235-0.35h0.234c0.039-.08.078-0.15,0.117-0.23l0.469-.24v-0.11h-4.806a2.016,2.016,0,0,0-.82-0.35,0.853,0.853,0,0,0-.235-0.24v-0.23l-0.234-.12c-0.039-.23-0.078-0.47-0.117-0.7h-0.118v-0.35h-0.117v-0.35h-0.117v-0.36h-0.117v-0.35H785.82v-0.35H785.7v-0.35h-0.117C785.359,3780.32,785.424,3779.5,785,3779.14Zm15.941,25.39c-0.237.35-.108,0.05-0.351,0.23-0.235.28-.469,0.55-0.7,0.82h-0.234c-0.117.16-.234,0.32-0.352,0.47h-0.234c-0.078.12-.156,0.23-0.235,0.35l-0.351.12c-0.039.08-.078,0.16-0.117,0.23h-0.235l-0.117.24c-0.117.04-.235,0.08-0.352,0.11v0.12l-0.469.12c-0.039.08-.078,0.15-0.117,0.23l-0.351.12v0.12h-0.235v0.11h-0.234v0.12h-0.235v0.12h-0.234v0.11h-0.235v0.12h-0.234v0.12h-0.234v0.12h-0.235v0.11l-0.7.24v0.11h-0.352v0.12h-0.234v0.12h-0.352v0.11h-0.234v0.12c-1.094.31-2.188,0.63-3.282,0.94a0.96,0.96,0,0,1,.234.47h0.117v0.23l0.235,0.12c0.078,0.23.156,0.47,0.234,0.7l0.234,0.12c0.079,0.23.157,0.46,0.235,0.7l0.234,0.12c0.079,0.23.157,0.46,0.235,0.7a2.464,2.464,0,0,0,.234.11c0.078,0.24.157,0.47,0.235,0.71a2.464,2.464,0,0,0,.234.11c0.078,0.24.156,0.47,0.235,0.71,0.078,0.04.156,0.07,0.234,0.11,0.078,0.24.156,0.47,0.234,0.71a2.369,2.369,0,0,1,.235.11c0.078,0.24.156,0.47,0.234,0.7l0.235,0.12v0.24h0.117v0.23h0.117v0.23h0.117v0.24c0.079,0.04.157,0.08,0.235,0.11,0.078,0.24.156,0.47,0.234,0.71,0.078,0.04.157,0.07,0.235,0.11,0.078,0.24.156,0.47,0.234,0.71,0.078,0.03.156,0.07,0.235,0.11v0.24H795.2c0.078,0.11.156,0.23,0.234,0.35h0.117a0.2,0.2,0,0,1,.118.12h14.417v-0.12a0.969,0.969,0,0,1-.234-0.47h-0.117v-0.23l-0.235-.12c-0.078-.24-0.156-0.47-0.234-0.7l-0.235-.12c-0.078-.23-0.156-0.47-0.234-0.7l-0.235-.12c-0.078-.23-0.156-0.47-0.234-0.7l-0.235-.12c-0.078-.23-0.156-0.47-0.234-0.7l-0.234-.12V3816h-0.118v-0.24h-0.117v-0.23l-0.234-.12c-0.078-.23-0.156-0.47-0.235-0.7l-0.234-.12v-0.23h-0.117v-0.23h-0.117v-0.24l-0.235-.12c-0.078-.23-0.156-0.46-0.234-0.7-0.079-.04-0.157-0.08-0.235-0.11v-0.24H805.63v-0.23h-0.117v-0.24H805.4v-0.23l-0.235-.12c-0.078-.23-0.156-0.47-0.234-0.7l-0.235-.12c-0.078-.23-0.156-0.46-0.234-0.7l-0.235-.12c-0.078-.23-0.156-0.46-0.234-0.7l-0.234-.12c-0.079-.23-0.157-0.46-0.235-0.7a2.464,2.464,0,0,0-.234-0.11c-0.079-.24-0.157-0.47-0.235-0.71-0.078-.04-0.156-0.07-0.234-0.11-0.078-.24-0.157-0.47-0.235-0.71a2.464,2.464,0,0,1-.234-0.11c-0.078-.24-0.156-0.47-0.234-0.71a2.369,2.369,0,0,1-.235-0.11v-0.24h-0.117v-0.23h-0.117v-0.23h-0.118v-0.24a2.464,2.464,0,0,0-.234-0.11v-0.24h-0.117C801.017,3804.62,801.228,3804.72,800.941,3804.53Zm-32.117.12a3.349,3.349,0,0,1-.586,1.05c-0.039.16-.078,0.31-0.117,0.47a2.479,2.479,0,0,1-.235.11c-0.078.24-.156,0.47-0.234,0.71a2.464,2.464,0,0,1-.234.11c-0.079.24-.157,0.47-0.235,0.71-0.078.04-.156,0.07-0.234,0.11-0.078.24-.157,0.47-0.235,0.71a2.464,2.464,0,0,0-.234.11c-0.078.24-.156,0.47-0.235,0.7l-0.234.12c-0.078.24-.156,0.47-0.235,0.7l-0.234.12c-0.078.24-.156,0.47-0.234,0.7l-0.235.12c-0.078.23-.156,0.47-0.234,0.7l-0.235.12c-0.078.23-.156,0.47-0.234,0.7l-0.234.12v0.23h-0.118v0.24H763.9v0.23h-0.117v0.23l-0.235.12c-0.078.24-.156,0.47-0.234,0.7l-0.235.12c-0.039.16-.078,0.31-0.117,0.47h-0.117v0.23l-0.234.12c-0.078.23-.157,0.47-0.235,0.7l-0.234.12c-0.078.23-.156,0.47-0.235,0.7l-0.234.12c-0.078.23-.156,0.47-0.234,0.7l-0.235.12c-0.078.23-.156,0.47-0.234,0.7l-0.235.12c-0.078.23-.156,0.46-0.234,0.7l-0.235.12v0.23H760.15v0.23h-0.117l-0.117.36h14.417c0.134-.14,0-0.05.235-0.12,0.078-.12.156-0.24,0.234-0.35h0.117v-0.24a2.479,2.479,0,0,1,.235-0.11c0.078-.24.156-0.47,0.234-0.71,0.078-.04.156-0.07,0.235-0.11,0.078-.24.156-0.47,0.234-0.71a2.464,2.464,0,0,0,.234-0.11v-0.24h0.118v-0.23h0.117v-0.23h0.117v-0.24l0.235-.12c0.078-.23.156-0.46,0.234-0.7a2.464,2.464,0,0,1,.234-0.11c0.079-.24.157-0.47,0.235-0.71,0.078-.04.156-0.07,0.234-0.11,0.078-.24.157-0.47,0.235-0.71a2.464,2.464,0,0,0,.234-0.11c0.078-.24.156-0.47,0.235-0.71a2.464,2.464,0,0,0,.234-0.11v-0.24h0.117v-0.23h0.117v-0.23l0.235-.12c0.078-.24.156-0.47,0.234-0.7l0.235-.12c0.039-.16.078-0.31,0.117-0.47h0.117a2.76,2.76,0,0,0,.469-1.17c-0.586-.12-1.172-0.23-1.758-0.35v-0.12c-0.508-.11-1.016-0.23-1.524-0.35v-0.12h-0.234v-0.11h-0.352v-0.12h-0.235v-0.12H775.74v-0.11l-0.7-.24v-0.11H774.8v-0.12h-0.234v-0.12h-0.235v-0.12H774.1v-0.11h-0.235v-0.12H773.63v-0.12H773.4c-0.04-.07-0.079-0.15-0.118-0.23l-0.469-.12c-0.039-.08-0.078-0.15-0.117-0.23l-0.469-.12c-0.039-.08-0.078-0.15-0.117-0.23h-0.234c-0.078-.12-0.157-0.24-0.235-0.35H771.4l-0.117-.24h-0.235c-0.078-.12-0.156-0.23-0.234-0.35h-0.235c-0.117-.15-0.234-0.31-0.351-0.47H770c-0.039-.08-0.078-0.15-0.117-0.23A2.269,2.269,0,0,0,768.824,3804.65Z" transform="translate(-756 -3764)"/>
</svg>
