<svg xmlns="http://www.w3.org/2000/svg" width="35" height="40" viewBox="0 0 35 40">
  <defs>
    <style>
      .cls-1 {
        fill: #016faf;
        fill-rule: evenodd;
      }
    </style>
  </defs>
  <path id="Фигура_13" data-name="Фигура 13" class="cls-1" d="M985.647,971.28v-0.157a1,1,0,0,1-.394-0.467l-0.315-.234-0.078-.313-0.158-.078v-0.156c-0.052-.026-0.105-0.051-0.157-0.078-0.026-.1-0.053-0.208-0.079-0.312h-0.079v-0.156h-0.078v-0.156H984.23q-0.08-.234-0.157-0.468h-0.079v-0.234h-0.079v-0.156h-0.079l-0.078-.39h-0.079v-0.312H983.6V967.3h-0.079v-0.234h-0.078v-0.313h-0.079v-0.468h-0.079V965.9h-0.078v-0.624h-0.079v-0.78h-0.079a5.842,5.842,0,0,1,.079-1.873V962h0.079l0.078-.78h0.079V960.9h0.079l0.078-.546H983.6v-0.235h0.079v-0.234h0.079l0.078-.468h0.079c0.026-.13.052-0.26,0.079-0.39h0.079l0.078-.313h0.079v-0.234h0.079v-0.155h0.078v-0.234h0.079c0.053-.157.105-0.312,0.157-0.469H984.7v-0.156h0.079v-0.156h0.079v-0.156h0.078V957h0.079v-0.156H985.1v-0.156h0.078v-0.156h0.079v-0.156h0.079v-0.156l0.157-.078,0.158-.468,0.157-.078c0.053-.156.105-0.312,0.158-0.469l0.157-.077c0.026-.105.053-0.208,0.079-0.312l0.157-.079c0.026-.1.053-0.208,0.079-0.312h0.079c0.026-.078.052-0.155,0.078-0.234l0.158-.078c0.026-.1.052-0.208,0.079-0.312l0.157-.078V953.49l0.158-.078v-0.156l0.157-.078v-0.156l0.157-.078v-0.156h0.079c0.026-.078.053-0.156,0.079-0.235l0.157-.077v-0.157l0.236-.155v-0.157l0.158-.077v-0.157l0.236-.155v-0.157l0.157-.077v-0.157l0.237-.156v-0.156l0.157-.077v-0.157l0.236-.156v-0.156l0.158-.078v-0.156l0.314-.234v-0.156l0.158-.078c0.026-.078.052-0.156,0.079-0.234l0.315-.235v-0.155l0.236-.157V948.73c0.052-.026.105-0.051,0.157-0.078v-0.077c0.052-.027.105-0.053,0.158-0.078V948.34l0.314-.234V947.95l0.158-.078,0.157-.234h0.079v-0.156l0.394-.312v-0.156l0.472-.39a0.945,0.945,0,0,1,.945-0.624v0.077h0.236l0.315,0.391,0.157,0.078V946.7l0.472,0.39v0.156l0.158,0.078V947.4l0.236,0.156v0.156l0.393,0.313v0.155l0.158,0.079,0.079,0.234,0.314,0.233v0.156l0.315,0.235v0.156c0.079,0.052.158,0.1,0.237,0.156v0.156l0.314,0.234v0.156l0.237,0.156v0.156l0.157,0.078v0.156l0.236,0.156v0.157l0.236,0.155v0.156c0.053,0.026.105,0.053,0.158,0.078v0.157l0.236,0.155V951.7l0.157,0.078v0.157l0.236,0.156v0.156l0.158,0.077c0.026,0.079.052,0.157,0.079,0.234h0.078v0.157l0.158,0.078v0.156l0.157,0.078v0.156l0.158,0.078v0.156l0.157,0.078v0.156l0.157,0.078v0.156l0.158,0.078v0.156h0.079v0.156l0.157,0.078c0.026,0.1.053,0.209,0.079,0.312,0.052,0.026.105,0.052,0.155,0.079,0.03,0.077.05,0.155,0.08,0.234h0.08v0.155h0.08v0.157h0.08v0.156c0.05,0.026.1,0.051,0.15,0.078v0.156h0.08v0.156h0.08v0.156h0.08v0.156c0.05,0.026.11,0.052,0.16,0.078v0.156H1001v0.156h0.08v0.156h0.07v0.156h0.08V957h0.08v0.156h0.08v0.156h0.08v0.156h0.08v0.156h0.08l0.15,0.469h0.08v0.234h0.08c0.03,0.1.05,0.207,0.08,0.312h0.08v0.234h0.08v0.156h0.08v0.234h0.08v0.156h0.07c0.24,0.832.48,1.665,0.71,2.5v0.624h0.08a7.5,7.5,0,0,1-.08,2.029v0.78h-0.08V965.9h-0.08v0.468h-0.07v0.39h-0.08v0.313h-0.08v0.312h-0.08v0.234h-0.08v0.312h-0.08v0.156h-0.08c-0.02.156-.05,0.312-0.07,0.468h-0.08c-0.06.156-.11,0.312-0.16,0.468h-0.08v0.156h-0.08v0.156h-0.08v0.156h-0.08v0.157h-0.07V969.8h-0.08v0.156h-0.08c-0.03.078-.05,0.156-0.08,0.235l-0.16.077v0.157c-0.08.052-.16,0.1-0.23,0.155v0.157c-0.14.1-.27,0.207-0.4,0.312V971.2c-0.05.026-.1,0.052-0.16,0.078v0.077c-0.07.027-.15,0.053-0.23,0.079-0.16.182-.316,0.364-0.474,0.546h-0.157l-0.158.234h-0.157l-0.158.234-0.472.156c-0.026.052-.052,0.1-0.079,0.156-0.105.026-.21,0.053-0.315,0.078v0.078l-0.314.079v0.077h-0.237v0.078l-0.314.079v0.078H997.14v0.077H996.9v0.078h-0.237v0.079h-0.236v0.077h-0.393V973.7h-0.394v0.079h-0.472a9.071,9.071,0,0,1-3.385.078h-0.709v-0.078h-0.472V973.7h-0.393V973.62h-0.394v-0.077h-0.236v-0.079h-0.236v-0.078H989.11v-0.077c-0.157-.027-0.314-0.053-0.472-0.078v-0.079l-0.315-.078V973l-0.708-.235-0.079-.156-0.472-.156-0.158-.234h-0.157l-0.158-.234h-0.157l-0.079-.156A2.037,2.037,0,0,0,985.647,971.28Zm7.4-23.564-0.393.547-0.158.077V948.5l-0.315.233v0.156l-0.314.235v0.156l-0.315.234v0.156l-0.158.078v0.078l-0.157.078v0.156l-0.236.156v0.156l-0.236.156v0.156l-0.237.157v0.155l-0.236.156v0.156l-0.236.156v0.157l-0.236.155c-0.026.079-.053,0.157-0.079,0.234l-0.157.079v0.156l-0.158.077v0.157h-0.078c-0.027.077-.053,0.156-0.079,0.234l-0.158.078v0.156l-0.236.156v0.156l-0.157.078-0.079.234h-0.079v0.156l-0.157.078v0.156c-0.052.026-.105,0.053-0.158,0.078v0.157l-0.157.077v0.157l-0.157.077v0.156l-0.158.079-0.078.312h-0.079l-0.079.234-0.157.077v0.157H987.3v0.156c-0.053.026-.1,0.051-0.157,0.078-0.053.155-.106,0.312-0.158,0.468l-0.157.078v0.156h-0.079v0.156H986.67v0.156h-0.079v0.156l-0.157.078v0.156h-0.079v0.156h-0.078v0.156H986.2v0.156h-0.079v0.157H986.04v0.155h-0.078v0.157h-0.079l-0.157.468h-0.079V958.8h-0.079c-0.026.1-.052,0.208-0.079,0.312h-0.078v0.234h-0.079V959.5h-0.079v0.234h-0.079v0.156H985.1c-0.026.156-.053,0.312-0.079,0.469h-0.079v0.233H984.86v0.234h-0.079v0.234H984.7v0.313h-0.079l-0.078.78h-0.079v0.7h-0.079a7.627,7.627,0,0,0,.158,2.341v0.546h0.078q0.04,0.39.079,0.78h0.079v0.313h0.079v0.311h0.078v0.235h0.079v0.234H985.1v0.155h0.078c0.027,0.157.053,0.313,0.079,0.469h0.079c0.026,0.1.052,0.208,0.079,0.312h0.078c0.027,0.1.053,0.208,0.079,0.312l0.158,0.078,0.078,0.312h0.079l0.079,0.234,0.157,0.078v0.156l0.315,0.234v0.156l0.315,0.234c0.131,0.156.262,0.313,0.394,0.468H987.3c0.052,0.079.105,0.157,0.157,0.235h0.158l0.157,0.234h0.158l0.078,0.156h0.158v0.078h0.157v0.078h0.158v0.078h0.157v0.078H988.8v0.078h0.157V971.9h0.236v0.078h0.158v0.078l0.472,0.078v0.078h0.315a9.588,9.588,0,0,0,3.149.39h1.18v-0.078h0.551V972.45h0.473v-0.078h0.393v-0.078h0.236v-0.078h0.315v-0.078l0.473-.078v-0.078h0.157V971.9l0.472-.078c0.027-.052.053-0.1,0.079-0.156h0.157v-0.078h0.158v-0.078l0.315-.078v-0.079l0.236-.077c0.026-.052.052-0.105,0.079-0.157h0.157c0.053-.077.1-0.155,0.157-0.233h0.158l0.393-.468,0.394-.313v-0.156c0.105-.078.214-0.156,0.314-0.234v-0.156c0.05-.026.11-0.052,0.16-0.078a2.156,2.156,0,0,1,.08-0.234h0.08V969.1l0.15-.078c0.27-.624.53-1.249,0.79-1.873v-0.311a9.54,9.54,0,0,0,.24-5.072c-0.03-.234-0.06-0.469-0.08-0.7h-0.08v-0.234h-0.08V960.59h-0.08v-0.233h-0.08v-0.235h-0.08c-0.02-.156-0.05-0.312-0.07-0.468H1001V959.5h-0.08v-0.234h-0.08c-0.03-.1-0.05-0.208-0.08-0.312h-0.08v-0.235h-0.08q-0.075-.232-0.15-0.468h-0.08v-0.155h-0.08v-0.157h-0.08v-0.155h-0.08v-0.157h-0.08v-0.156h-0.076v-0.156H999.9v-0.156h-0.079V957h-0.079v-0.156h-0.078v-0.156l-0.158-.078c-0.026-.1-0.052-0.208-0.079-0.312l-0.157-.078-0.157-.468-0.158-.078c-0.026-.1-0.052-0.208-0.079-0.313l-0.157-.077v-0.157l-0.157-.077c-0.027-.105-0.053-0.208-0.079-0.312l-0.158-.079V954.5l-0.157-.077V954.27l-0.157-.077v-0.157c-0.053-.025-0.105-0.052-0.158-0.078V953.8h-0.079l-0.078-.234-0.158-.078v-0.156l-0.157-.078V953.1H997.3c-0.026-.078-0.052-0.156-0.079-0.234l-0.157-.078v-0.156l-0.236-.156v-0.157l-0.158-.077v-0.156l-0.157-.079c-0.026-.077-0.053-0.155-0.079-0.234l-0.236-.155v-0.157l-0.236-.156v-0.156l-0.158-.078v-0.156l-0.157-.077c-0.026-.079-0.052-0.157-0.079-0.235l-0.236-.156v-0.156l-0.315-.234V949.9l-0.315-.234v-0.156l-0.314-.234v-0.156l-0.237-.157v-0.155q-0.2-.158-0.393-0.312V948.34l-0.394-.311v-0.157l-0.157-.078v-0.078h-0.158Zm19.444,10.455v0.157c0.16,0.13.31,0.26,0.47,0.389v0.157c0.16,0.13.32,0.26,0.47,0.39v0.156c0.11,0.078.21,0.156,0.32,0.234v0.156c0.1,0.078.21,0.156,0.31,0.234V960.2c0.11,0.078.21,0.157,0.32,0.234v0.156c0.05,0.026.1,0.052,0.16,0.079v0.155c0.08,0.052.15,0.1,0.23,0.156v0.157c0.05,0.025.11,0.052,0.16,0.078v0.156l0.24,0.155v0.157c0.05,0.025.1,0.052,0.15,0.078a2.085,2.085,0,0,1,.08.234h0.08v0.156c0.05,0.026.11,0.052,0.16,0.078,0.02,0.1.05,0.208,0.08,0.312h0.08c0.02,0.078.05,0.156,0.07,0.234,0.06,0.026.11,0.052,0.16,0.078v0.156h0.08v0.156c0.05,0.026.11,0.052,0.16,0.078,0.02,0.1.05,0.208,0.08,0.312l0.15,0.078v0.156h0.08v0.156h0.08V964.1h0.08v0.157h0.08v0.155h0.08v0.157h0.08l0.15,0.468h0.08v0.234h0.08v0.156h0.08v0.234h0.08v0.156h0.08c0.02,0.182.05,0.364,0.08,0.546h0.08V966.6h0.07v0.312h0.08V967.3h0.08v0.624H1018v1.248h-0.08c-0.03.39-.05,0.781-0.08,1.17h-0.08v0.391h-0.07c-0.03.207-.06,0.416-0.08,0.623h-0.08v0.157h-0.08v0.234h-0.08v0.234h-0.08v0.156h-0.08l-0.15.468c-0.06.026-.11,0.052-0.16,0.078v0.156h-0.08V973l-0.24.155v0.157c-0.1.077-.21,0.155-0.31,0.234l-0.63.7h-0.16c-0.03.051-.05,0.1-0.08,0.156h-0.16c-0.02.052-.05,0.1-0.07,0.156l-0.48.156v0.078h-0.15v0.078c-0.27.052-.53,0.1-0.79,0.156V975.1l-0.79.078a7.931,7.931,0,0,1-2.04.078c-0.45-.1-0.9-0.208-1.34-0.312v-0.078h-0.16v-0.078h-0.24v-0.078h-0.15v-0.078h-0.16c-0.03-.052-0.05-0.105-0.08-0.156-0.11-.026-0.21-0.052-0.31-0.078-0.06-.078-0.11-0.156-0.16-0.235h-0.16c-0.1-.129-0.21-0.259-0.31-0.389-0.19-.157-0.37-0.313-0.56-0.468v-0.157c-0.07-.052-0.15-0.1-0.23-0.155-0.03-.1-0.05-0.209-0.08-0.313-0.05-.026-0.11-0.052-0.16-0.078V972.45h-0.08l-0.15-.468h-0.08v-0.234h-0.08v-0.234h-0.08V971.28h-0.08v-0.234h-0.08v-0.312h-0.08v-0.391h-0.08v-0.468h-0.07v-0.858h-0.08V968h0.08c0.02-.364.05-0.728,0.07-1.092h0.08V966.6h0.08c0.05-.26.11-0.52,0.16-0.78h0.08v-0.156h0.08v-0.234h0.08v-0.156h0.07c0.03-.13.06-0.261,0.08-0.39h0.08c0.05-.156.11-0.312,0.16-0.469h0.08v-0.155h0.08l0.15-.469c0.06-.026.11-0.052,0.16-0.077,0.05-.157.11-0.313,0.16-0.469,0.05-.026.1-0.052,0.16-0.078,0.02-.1.05-0.208,0.08-0.312l0.15-.078v-0.156c0.06-.026.11-0.052,0.16-0.078v-0.156c0.05-.026.11-0.052,0.16-0.078,0.02-.1.05-0.208,0.08-0.312h0.08c0.02-.078.05-0.157,0.07-0.234,0.06-.026.11-0.053,0.16-0.078v-0.157l0.24-.155v-0.156l0.15-.078V960.98l0.24-.156v-0.155l0.24-.157v-0.155c0.08-.053.15-0.105,0.23-0.157v-0.156c0.11-.078.21-0.156,0.32-0.234v-0.156c0.1-.078.21-0.156,0.31-0.234v-0.156l0.48-.39v-0.157c0.23-.207.47-0.416,0.7-0.623v-0.078h0.63A0.24,0.24,0,0,0,1012.49,958.171Zm-0.63,1.561-0.39.546-0.24.156v0.156c-0.1.079-.21,0.156-0.31,0.234v0.156c-0.11.078-.21,0.157-0.32,0.235v0.156l-0.24.155v0.157c-0.05.025-.1,0.052-0.15,0.078v0.156l-0.24.156v0.156c-0.05.026-.1,0.052-0.16,0.078v0.156l-0.15.078V962.7c-0.06.026-.11,0.052-0.16,0.078v0.156c-0.05.026-.11,0.052-0.16,0.078v0.156c-0.05.026-.1,0.052-0.16,0.078V963.4l-0.15.079c-0.03.1-.06,0.207-0.08,0.311-0.06.026-.11,0.053-0.16,0.078-0.05.157-.11,0.312-0.16,0.468l-0.15.078c-0.03.1-.06,0.209-0.08,0.313h-0.08c-0.05.156-.11,0.312-0.16,0.468h-0.08v0.234H1008v0.156h-0.08c-0.02.1-.05,0.208-0.07,0.312h-0.08l-0.48,1.56v0.625h-0.07c0.02,0.572.05,1.144,0.07,1.716h0.08v0.468h0.08v0.312h0.08v0.313h0.08v0.233h0.08v0.234h0.08v0.157h0.08v0.156h0.07v0.156H1008v0.156h0.08v0.156c0.05,0.026.11,0.052,0.16,0.078v0.156c0.1,0.078.21,0.156,0.31,0.234v0.156c0.06,0.026.11,0.053,0.16,0.078v0.078h0.16c0.08,0.1.16,0.209,0.23,0.313h0.16c0.03,0.051.05,0.1,0.08,0.155h0.16v0.078c0.1,0.027.21,0.052,0.31,0.079v0.077l0.79,0.157v0.078a9.687,9.687,0,0,0,2.28.077v-0.077h0.4v-0.078h0.31V973.7h0.24V973.62h0.23v-0.077l0.32-.079v-0.078h0.16a1.087,1.087,0,0,1,.08-0.155h0.15c0.05-.079.11-0.157,0.16-0.234h0.16c0.08-.1.15-0.209,0.23-0.313h0.08v-0.156l0.24-.156v-0.156c0.05-.026.1-0.052,0.16-0.078,0.02-.1.05-0.208,0.07-0.312,0.06-.026.11-0.052,0.16-0.078v-0.234h0.08v-0.157h0.08c0.05-.234.1-0.467,0.16-0.7h0.08v-0.391h0.07V969.8h0.08v-0.78h0.08a3.747,3.747,0,0,0-.16-1.638v-0.312h-0.07v-0.313h-0.08c-0.06-.234-0.11-0.468-0.16-0.7h-0.08V965.9h-0.08c-0.02-.13-0.05-0.26-0.08-0.39h-0.08l-0.15-.468h-0.08v-0.156h-0.08c-0.05-.156-0.11-0.312-0.16-0.469-0.05-.025-0.1-0.051-0.16-0.078-0.05-.156-0.1-0.311-0.15-0.468-0.06-.025-0.11-0.052-0.16-0.078-0.03-.1-0.05-0.208-0.08-0.311-0.05-.027-0.1-0.053-0.16-0.079v-0.156l-0.15-.078v-0.156c-0.06-.026-0.11-0.052-0.16-0.078-0.03-.1-0.05-0.208-0.08-0.312-0.05-.026-0.1-0.052-0.16-0.078v-0.156c-0.08-.052-0.15-0.1-0.23-0.156v-0.156c-0.06-.026-0.11-0.052-0.16-0.078v-0.157c-0.05-.025-0.11-0.051-0.16-0.077a2.248,2.248,0,0,0-.08-0.235c-0.08-.052-0.15-0.1-0.23-0.155v-0.156c-0.06-.026-0.11-0.053-0.16-0.078v-0.079c-0.05-.025-0.11-0.052-0.16-0.078v-0.156c-0.1-.078-0.21-0.155-0.31-0.234v-0.156c-0.11-.077-0.21-0.156-0.32-0.234A0.74,0.74,0,0,0,1011.86,959.732Zm-25.741,1.639h0.63a1.728,1.728,0,0,0,.315.39q-0.04,1.4-.079,2.809h0.079v0.7h0.079l0.078,0.7H987.3v0.312h0.079l0.078,0.468h0.079v0.156h0.079c0.078,0.234.157,0.469,0.236,0.7h0.079l0.078,0.234,0.158,0.078v0.156l0.315,0.234v0.156h0.078l0.158,0.234h0.157l0.236,0.312a7.606,7.606,0,0,0,2.205.936h0.629v0.078H992.1v0.078c0.221,0.131.142-.067,0.236,0.234h0.079v0.625a1.721,1.721,0,0,0-.394.312,6.3,6.3,0,0,1-5.274-2.887c-0.026-.1-0.053-0.209-0.079-0.312h-0.079l-0.157-.468h-0.079v-0.234h-0.078v-0.157H986.2q-0.2-.7-0.394-1.4V965.35a8.029,8.029,0,0,1,.079-3.824A0.59,0.59,0,0,0,986.119,961.371Zm24.641,11.079a1.3,1.3,0,0,1-.08-0.858,3.332,3.332,0,0,1,.47-0.312h0.63V971.2h0.32v-0.079h0.23v-0.077h0.24v-0.078c0.1-.027.21-0.052,0.31-0.078v-0.079h0.16l0.24-.311h0.15a1.225,1.225,0,0,0,.08-0.157h0.08v-0.155h0.08c0.05-.157.11-0.313,0.16-0.469h0.08v-0.234h0.08v-0.468h0.07c-0.02-.442-0.05-0.884-0.07-1.326a1.223,1.223,0,0,1,.78-0.39v0.078h0.16a0.465,0.465,0,0,1,.24.234,3.884,3.884,0,0,1,.07,2.418h-0.07c-0.11.286-.21,0.573-0.32,0.859-0.05.026-.1,0.051-0.16,0.078v0.155l-0.39.313c-0.03.052-.05,0.1-0.08,0.156h-0.16l-0.15.234h-0.16c-0.03.052-.05,0.1-0.08,0.156-0.16.052-.31,0.1-0.47,0.156v0.078h-0.16v0.078h-0.24v0.078h-0.15v0.078h-0.32a2.7,2.7,0,0,1-1.34.156c-0.02-.052-0.05-0.1-0.07-0.156h-0.16Zm-8.27.156h0.08v0.078h0.32v0.078c0.15,0.13.31,0.26,0.47,0.39v0.157c0.1,0.077.21,0.155,0.31,0.234V973.7c0.06,0.027.11,0.052,0.16,0.079v0.078l0.16,0.077v0.157c0.08,0.052.16,0.1,0.23,0.156V974.4l0.24,0.156c0.03,0.078.05,0.156,0.08,0.234,0.05,0.026.1,0.052,0.16,0.078v0.156l0.15,0.078v0.156h0.08a2.156,2.156,0,0,1,.08.234l0.24,0.156v0.156h0.08v0.156c0.05,0.027.1,0.052,0.15,0.078,0.03,0.1.06,0.208,0.08,0.313,0.06,0.025.11,0.052,0.16,0.077,0.03,0.105.05,0.208,0.08,0.312,0.05,0.027.1,0.052,0.16,0.079v0.155h0.07v0.157h0.08v0.155h0.08v0.157h0.08V977.6h0.08v0.156h0.08v0.156h0.08l0.15,0.468h0.08v0.234h0.08v0.156h0.08c0.05,0.26.11,0.521,0.16,0.78h0.08v0.391a4.7,4.7,0,0,1-.08,2.184v0.391h-0.08v0.312h-0.08v0.234h-0.08V983.3h-0.08v0.155h-0.08l-0.15.469c-0.06.026-.11,0.052-0.16,0.078v0.156c-0.05.026-.11,0.052-0.16,0.078v0.156c-0.08.052-.16,0.1-0.23,0.156-0.19.208-.37,0.416-0.55,0.624h-0.16v0.078h-0.16c-0.03.052-.05,0.1-0.08,0.156l-0.31.078v0.078h-0.16v0.079c-0.45.1-.89,0.207-1.34,0.312a4.3,4.3,0,0,1-1.81-.157H1001v-0.078h-0.24v-0.077h-0.24v-0.079l-0.31-.078V985.4h-0.16c-0.02-.052-0.05-0.1-0.076-0.156h-0.158c-0.026-.052-0.052-0.1-0.079-0.156H999.58l-0.236-.312-0.473-.39v-0.156l-0.157-.078-0.63-1.326-0.078-.7a5.883,5.883,0,0,1-.158-2.106q0.237-.819.472-1.639H998.4l0.158-.468h0.078v-0.156h0.079V977.6h0.079v-0.156h0.078v-0.157h0.079v-0.155h0.079v-0.157h0.079V976.82l0.157-.079c0.026-.1.053-0.207,0.079-0.312h0.078c0.027-.077.053-0.156,0.079-0.234l0.158-.077,0.078-.313,0.158-.078v-0.156h0.079c0.026-.078.056-0.156,0.076-0.234,0.05-.026.11-0.052,0.16-0.078V975.1l0.24-.156v-0.156l0.15-.078v-0.156c0.06-.027.11-0.052,0.16-0.078,0.03-.078.05-0.156,0.08-0.234l0.24-.156v-0.157l0.15-.077v-0.078c0.06-.027.11-0.052,0.16-0.079v-0.155q0.2-.158.39-0.312v-0.157c0.16-.13.32-0.259,0.48-0.39h0.23v-0.078Zm0,1.717-0.15.312c-0.06.026-.11,0.052-0.16,0.078v0.156l-0.24.156v0.156c-0.08.052-.16,0.1-0.23,0.156v0.156l-0.24.156v0.156h-0.08c-0.03.078-.05,0.156-0.08,0.234-0.05.026-.1,0.052-0.16,0.079v0.155c-0.07.052-.15,0.1-0.23,0.156-0.03.105-.05,0.208-0.08,0.312-0.05.027-.11,0.052-0.16,0.079a2.14,2.14,0,0,1-.08.233h-0.08c-0.02.1-.05,0.209-0.07,0.313-0.06.026-.11,0.052-0.16,0.078-0.05.156-.11,0.312-0.16,0.468h-0.08v0.156h-0.076v0.156H999.9v0.156h-0.079l-0.157.468H999.58v0.234H999.5v0.234h-0.079v0.234h-0.078v0.234h-0.079V980.1h-0.079a4.856,4.856,0,0,0,.158,1.873v0.39h0.078v0.234H999.5v0.156h0.079v0.234h0.079v0.157l0.157,0.077v0.157l0.158,0.077v0.157c0.056,0.025.106,0.052,0.156,0.078,0.11,0.129.21,0.26,0.32,0.39h0.15a1.153,1.153,0,0,1,.08.156l0.32,0.078v0.078h0.31v0.078h0.24v0.078h0.55v0.078h0.86v-0.078h0.56v-0.078h0.23v-0.078h0.32V984.31h0.15v-0.078h0.16c0.03-.052.05-0.1,0.08-0.156h0.16c0.08-.1.16-0.208,0.23-0.312,0.11-.078.21-0.156,0.32-0.234,0.03-.1.05-0.208,0.08-0.313,0.05-.025.1-0.051,0.16-0.077,0.02-.13.05-0.26,0.07-0.391h0.08v-0.156h0.08v-0.234h0.08v-0.39a4.831,4.831,0,0,0,.16-1.873h-0.08v-0.312h-0.08V979.55h-0.08c-0.02-.182-0.05-0.364-0.08-0.546h-0.08c-0.02-.1-0.05-0.208-0.07-0.312h-0.08v-0.156h-0.08c-0.03-.13-0.05-0.26-0.08-0.39-0.05-.026-0.11-0.052-0.16-0.078v-0.156h-0.08v-0.156h-0.08V977.6h-0.07v-0.156h-0.08v-0.157h-0.08c-0.03-.077-0.05-0.155-0.08-0.234-0.05-.025-0.11-0.051-0.16-0.078-0.02-.1-0.05-0.207-0.08-0.311h-0.08c-0.02-.078-0.05-0.157-0.07-0.235-0.06-.025-0.11-0.052-0.16-0.077V976.2l-0.16-.077v-0.157l-0.24-.156v-0.156l-0.15-.078v-0.156c-0.11-.078-0.21-0.156-0.32-0.234v-0.156c-0.08-.052-0.16-0.1-0.23-0.156A1.569,1.569,0,0,0,1002.49,974.323Zm-1.65,8.426c-0.1-.333-0.37-0.612-0.47-0.936a2.083,2.083,0,0,1,.47-1.794,0.938,0.938,0,0,1,.79.077,0.65,0.65,0,0,0,.15.157v0.156h0.08c0.16,0.442-.34.68-0.15,1.17h0.07v0.156l0.24,0.156v0.078h0.16v0.078c0.08,0.053.16,0.1,0.23,0.156v0.156h0.08a2.806,2.806,0,0,1-.08.7c-0.07.025-.15,0.052-0.23,0.078v0.077h-0.16V983.3C1001.55,983.442,1001.16,982.842,1000.84,982.749Z" transform="translate(-983 -946)"/>
</svg>
