<svg xmlns="http://www.w3.org/2000/svg" width="31" height="40" viewBox="0 0 31 40">
  <defs>
    <style>
      .cls-1 {
        fill: #016faf;
        fill-rule: evenodd;
      }
    </style>
  </defs>
  <path id="Фигура_12" data-name="Фигура 12" class="cls-1" d="M626.262,954.049h2.013v0.078l0.387,0.078,0.078,0.235,0.155,0.078v3.829a0.135,0.135,0,0,1,.077.078l0.774,0.157v0.078H629.9v0.078l0.7,0.156v0.078h0.155v0.078h0.232v0.079c0.155,0.051.31,0.1,0.465,0.156v0.078h0.155v0.078h0.154v0.079l0.465,0.155c0.026,0.053.052,0.105,0.077,0.157l0.465,0.156c0.026,0.052.052,0.1,0.077,0.157H633v0.078l0.233,0.078c0.025,0.052.051,0.1,0.077,0.156h0.155l0.155,0.235h0.155l0.077,0.156,0.232,0.078c0.078,0.1.155,0.209,0.233,0.312h0.154l0.852,0.938,0.7,0.625v0.157l0.387,0.313,0.078,0.234,0.154,0.078v0.156l0.155,0.078v0.157l0.155,0.078v0.157c0.052,0.025.1,0.051,0.155,0.078v0.155l0.155,0.079v0.156l0.155,0.078v0.157h0.077v0.156h0.077v0.156h0.078v0.156l0.155,0.079v0.156h0.077v0.156h0.078v0.234h0.077v0.157h0.077l0.078,0.313h0.077l0.078,0.39h0.077l0.078,0.469h0.077v0.234h0.077V967.8h0.078v0.235H638.8v0.312h0.078c0.026,0.209.051,0.417,0.077,0.626h0.078c0.025,0.286.051,0.573,0.077,0.859h0.077v0.625h0.078v3.986a5.575,5.575,0,0,1,1.394.156,2.717,2.717,0,0,1,.309.469v3.048a2.9,2.9,0,0,1-.077,1.251,0.526,0.526,0,0,1-.31.39c-0.289.286-1.874,0.156-2.478,0.156h-6.891a5.45,5.45,0,0,1-2.245,4.846l-0.155.234h-0.155c-0.025.052-.051,0.1-0.077,0.156l-0.31.078v0.079H628.12v0.078l-0.464.156v0.078h-0.233V985.7h-0.154v0.077h-0.31a4.937,4.937,0,0,1-2.942,0h-0.31a5.856,5.856,0,0,1-3.949-5.861h-5.575c-1.253,0-2.664.027-3.793-.078L610,979.37v-3.439c0-.654-0.05-1.191.465-1.329a2.057,2.057,0,0,1,1.239-.156V970.46h0.077v-0.625h0.078c0.025-.286.051-0.573,0.077-0.859h0.077l0.078-.626h0.077v-0.312h0.078V967.8h0.077v-0.235H612.4v-0.234h0.077c0.026-.156.052-0.312,0.077-0.469h0.078c0.026-.13.051-0.26,0.077-0.39h0.078c0.026-.105.051-0.209,0.077-0.313h0.078v-0.157h0.077v-0.234H613.1v-0.156h0.078v-0.156l0.155-.079v-0.156h0.077v-0.156h0.078v-0.156h0.077v-0.157l0.155-.078v-0.156l0.155-.079v-0.155c0.051-.027.1-0.053,0.155-0.078v-0.157l0.154-.078v-0.157c0.052-.025.1-0.051,0.155-0.078v-0.156l0.155-.078,0.078-.234,0.387-.313V962.8l0.7-.625,0.851-.938h0.155c0.078-.1.155-0.208,0.232-0.312l0.233-.078c0.025-.052.051-0.1,0.077-0.156h0.155l0.155-.235h0.155c0.025-.052.051-0.1,0.077-0.156l0.232-.078v-0.078l0.31-.079,0.078-.156,0.309-.078,0.078-.157,0.464-.155v-0.079h0.155v-0.078l0.465-.156v-0.078h0.232V959.05l0.31-.078v-0.078h0.232v-0.078h0.232v-0.078h0.233V958.66h0.232v-0.078h0.232V958.5l0.465-.079v-0.078a2.208,2.208,0,0,0,.077-1.016v-2.813a0.845,0.845,0,0,1,.387-0.313,5.678,5.678,0,0,1,2.246-.156v-7.5h0.077c0.026-.1.052-0.209,0.077-0.313A1.6,1.6,0,0,1,625.72,946a0.429,0.429,0,0,0,.31.156c0.026,0.078.051,0.156,0.077,0.234h0.078v0.157h0.077v7.5Zm-2.632,1.563v2.5h0.077a2.228,2.228,0,0,1,.774-0.077,7.671,7.671,0,0,1,2.865.077v-2.5H623.63Zm-10.376,18.834h24.467a18.941,18.941,0,0,0-.155-4.455v-0.469q-0.27-.977-0.542-1.954h-0.077c-0.026-.13-0.051-0.26-0.077-0.39h-0.078v-0.156h-0.077v-0.235h-0.078c-0.051-.156-0.1-0.312-0.154-0.469h-0.078c-0.026-.1-0.051-0.208-0.077-0.313l-0.155-.077c-0.052-.157-0.1-0.313-0.155-0.469l-0.155-.079v-0.156l-0.155-.078V964.99c-0.051-.026-0.1-0.053-0.155-0.078v-0.157l-0.154-.078v-0.156l-0.31-.234V964.13l-0.387-.313v-0.156l-0.775-.7-0.309-.391h-0.155l-0.31-.391H633c-0.051-.078-0.1-0.156-0.155-0.234h-0.154c-0.052-.078-0.1-0.156-0.155-0.234h-0.155l-0.078-.157h-0.154l-0.078-.156-0.31-.078c-0.025-.052-0.051-0.1-0.077-0.156h-0.155v-0.078h-0.155V961h-0.155v-0.078h-0.154v-0.078h-0.155V960.77h-0.155v-0.078l-0.465-.157v-0.078h-0.232v-0.078H629.9V960.3l-2.245-.626-1.239-.077V959.52q-1.278.037-2.555,0.078v0.077l-0.929.079-2.246.7v0.078l-0.464.157v0.078h-0.155v0.078h-0.155v0.078h-0.155V961H619.6v0.079h-0.154v0.078h-0.155v0.077l-0.233.079c-0.025.052-.051,0.1-0.077,0.156l-0.31.078-0.155.235h-0.154l-0.078.156h-0.155c-0.051.078-.1,0.156-0.155,0.234h-0.154c-0.1.13-.207,0.261-0.31,0.391h-0.155l-0.7.782-0.464.39V963.9l-0.31.234v0.157c-0.052.025-.1,0.052-0.155,0.078v0.077l-0.155.079v0.156l-0.155.078v0.157l-0.155.078v0.156l-0.154.078v0.156l-0.155.079-0.078.312-0.155.079c-0.025.1-.051,0.208-0.077,0.312h-0.077v0.156h-0.078q-0.077.236-.155,0.469h-0.077v0.235h-0.078v0.156h-0.077v0.235h-0.077v0.155h-0.078V967.8h-0.077v0.235H613.8v0.234h-0.077v0.234h-0.078v0.313h-0.077v0.312h-0.077v0.391h-0.078v0.391h-0.077v0.626h-0.078v3.907Zm-1.7,3.907h27.874v-2.266a10.543,10.543,0,0,0-2.633-.078H611.628A8.489,8.489,0,0,0,611.551,978.353Zm9.756,1.563a3.7,3.7,0,0,0,.155,1.329v0.313h0.077v0.156h0.078v0.234h0.077c0.051,0.156.1,0.313,0.155,0.469L622,982.5v0.156l0.232,0.157v0.156l0.387,0.313c0.052,0.077.1,0.156,0.155,0.234h0.155l0.155,0.235,0.309,0.078,0.078,0.156h0.155v0.078h0.154v0.078l0.775,0.156v0.079h0.387v0.078a2.829,2.829,0,0,0,1.471-.157l0.774-.156v-0.078h0.155V983.98H627.5c0.026-.052.052-0.1,0.077-0.156l0.31-.078,0.155-.235a3.951,3.951,0,0,0,1.626-3.595h-8.362Z" transform="translate(-610 -946)"/>
</svg>
