<svg xmlns="http://www.w3.org/2000/svg" width="33" height="40" viewBox="0 0 33 40">
  <defs>
    <style>
      .cls-1 {
        fill: #016faf;
        fill-rule: evenodd;
      }
    </style>
  </defs>
  <path id="Фигура_11" data-name="Фигура 11" class="cls-1" d="M250.036,946a4.4,4.4,0,0,1,2.082.469h0.308v0.078l0.463,0.077V946.7h0.231v0.079h0.231v0.078h0.232v0.077h0.231v0.079h0.231V947.1h0.232v0.078l0.462,0.078v0.078l1.465,0.39c2.117,0.859,4.509,1.4,6.63,2.264l0.463,0.077c0.743,0.3,1.649.56,2.39,0.859a1.751,1.751,0,0,1,1.156.546,1.433,1.433,0,0,1,.155.937v11.316q-0.078,1.209-.155,2.42h-0.077c-0.026.337-.051,0.676-0.077,1.014h-0.077q-0.077.624-.154,1.248-0.462,1.64-.925,3.279h-0.077v0.155h-0.077c-0.052.235-.1,0.469-0.155,0.7h-0.077v0.156H265.07v0.234h-0.077c-0.026.1-.051,0.209-0.077,0.313h-0.077v0.233h-0.077v0.157h-0.077c-0.026.1-.052,0.208-0.077,0.312H264.53V974.1h-0.077v0.156h-0.077v0.156H264.3v0.156h-0.077v0.156h-0.077v0.157h-0.077v0.155h-0.077v0.157h-0.077v0.156h-0.077V975.5l-0.155.078c-0.025.1-.051,0.208-0.077,0.312l-0.154.078v0.156h-0.077v0.156H263.3c-0.026.078-.052,0.157-0.077,0.234l-0.154.078v0.157l-0.155.077v0.157h-0.077c-0.025.078-.051,0.155-0.077,0.234l-0.154.078v0.156l-0.154.078c-0.026.078-.052,0.156-0.077,0.234l-0.232.156v0.156c-0.051.026-.1,0.053-0.154,0.078v0.157c-0.128.1-.257,0.207-0.385,0.312v0.155l-0.386.313v0.156l-0.848.78-1,1.093h-0.154l-0.386.468-0.231.078c-0.051.079-.1,0.156-0.154,0.234h-0.154l-0.232.312-0.231.079-0.077.155h-0.154c-0.026.053-.052,0.105-0.077,0.157-0.078.025-.155,0.052-0.232,0.078v0.078h-0.154l-0.077.156H256.9c-0.026.052-.052,0.1-0.077,0.156h-0.155c-0.025.052-.051,0.1-0.077,0.156h-0.154c-0.025.052-.051,0.1-0.077,0.156H256.2l-0.077.156-0.463.156c-0.025.053-.051,0.105-0.077,0.157-0.1.025-.2,0.051-0.308,0.078-0.026.052-.052,0.1-0.077,0.156h-0.155v0.078h-0.154v0.078h-0.154v0.077h-0.154V984.4h-0.154v0.078h-0.154v0.078l-0.463.156v0.078h-0.231v0.078l-0.309.078v0.078H253.12V985.1l-0.385.078v0.078H252.58v0.078c-0.154.027-.308,0.052-0.462,0.078a3.626,3.626,0,0,1-2,.547v-0.079h-0.231v-0.077h-0.154v-0.078l-0.463-.079V985.57h-0.231v-0.077H248.88v-0.079h-0.232v-0.078h-0.231v-0.078l-0.308-.078V985.1h-0.232v-0.078l-0.308-.078v-0.078h-0.154V984.79h-0.231v-0.078l-0.463-.156v-0.078h-0.154V984.4h-0.154v-0.079h-0.155v-0.077H246.1v-0.078H245.95v-0.078H245.8c-0.026-.052-0.052-0.1-0.077-0.156q-0.154-.041-0.309-0.078c-0.025-.052-0.051-0.1-0.077-0.157l-0.462-.156c-0.026-.052-0.052-0.1-0.077-0.156h-0.155c-0.025-.052-0.051-0.1-0.077-0.156h-0.154l-0.077-.156h-0.154c-0.026-.052-0.052-0.1-0.077-0.156h-0.155c-0.025-.052-0.051-0.1-0.077-0.156h-0.154v-0.078l-0.231-.078c-0.026-.052-0.051-0.1-0.077-0.157h-0.154c-0.052-.077-0.1-0.155-0.155-0.234h-0.154l-0.231-.312h-0.154l-0.232-.312h-0.154l-0.385-.468h-0.154l-0.54-.624-1.311-1.249v-0.156l-0.385-.313v-0.155c-0.129-.105-0.257-0.209-0.386-0.312v-0.157l-0.154-.078v-0.156l-0.231-.156V977.61l-0.231-.156V977.3l-0.155-.078v-0.156l-0.154-.078v-0.157l-0.154-.077V976.6l-0.154-.078v-0.156l-0.154-.078-0.078-.312-0.154-.078q-0.732-1.484-1.465-2.966v-0.234H235.85v-0.156h-0.077c-0.051-.234-0.1-0.468-0.154-0.7h-0.077v-0.155h-0.077c-0.026-.157-0.052-0.313-0.077-0.469h-0.077v-0.234h-0.077v-0.234h-0.078v-0.234h-0.077c-0.025-.182-0.051-0.365-0.077-0.547h-0.077c-0.026-.207-0.051-0.416-0.077-0.624h-0.077V969.1h-0.077c-0.026-.26-0.052-0.521-0.077-0.78H234.54v-0.312h-0.077V967.62h-0.078v-0.468h-0.077v-0.468h-0.077v-0.546h-0.077v-0.7h-0.077q-0.039-1.755-.077-3.512V952.4c0.026-.312.051-0.624,0.077-0.937l0.154-.078c0.052-.078.1-0.156,0.154-0.234h0.232v-0.078h0.231V951h0.231v-0.078h0.232v-0.078h0.231v-0.078h0.231v-0.078h0.232v-0.078h0.231v-0.078h0.231v-0.078c0.334-.079.668-0.156,1-0.234v-0.079l0.463-.078,8.789-2.965,0.694-.157v-0.077h0.231v-0.078h0.231V946.7h0.232v-0.078h0.231v-0.077h0.231v-0.078H248.8v-0.079h0.308v-0.078h0.231v-0.077h0.232v-0.079l0.462-.078V946Zm-14.571,6.322v9.6a19.18,19.18,0,0,0,.231,4.6c0.026,0.339.051,0.677,0.077,1.015h0.077q0.078,0.546.155,1.093h0.077q0.038,0.312.077,0.624h0.077c0.025,0.182.051,0.365,0.077,0.547h0.077c0.026,0.182.051,0.364,0.077,0.546h0.077v0.234h0.077v0.234H236.7c0.026,0.156.052,0.312,0.077,0.468h0.078v0.157h0.077q0.076,0.351.154,0.7h0.077V972.3h0.077v0.234h0.077c0.026,0.1.051,0.208,0.077,0.312h0.077v0.157h0.077v0.234h0.078c0.051,0.155.1,0.312,0.154,0.467h0.077v0.157h0.077c0.051,0.156.1,0.312,0.154,0.468l0.154,0.078v0.156h0.077v0.156H238.4v0.157h0.077v0.155h0.077c0.025,0.079.051,0.157,0.077,0.234l0.154,0.079c0.026,0.1.051,0.208,0.077,0.312l0.154,0.078v0.156l0.154,0.078v0.156l0.155,0.078v0.156l0.154,0.079V976.6l0.231,0.157v0.155l0.231,0.157v0.156c0.078,0.052.155,0.1,0.232,0.156v0.156l0.385,0.312V978l0.694,0.625v0.155l0.54,0.469,0.154,0.234H242.1l0.308,0.39,0.309,0.234v0.079h0.154c0.129,0.155.257,0.312,0.386,0.468l0.231,0.078,0.077,0.156h0.154c0.052,0.078.1,0.156,0.154,0.234h0.155c0.051,0.078.1,0.156,0.154,0.234h0.154l0.077,0.156,0.231,0.078v0.078h0.155c0.025,0.052.051,0.1,0.077,0.156h0.154c0.026,0.053.051,0.105,0.077,0.156l0.231,0.079v0.077l0.309,0.078c0.025,0.052.051,0.1,0.077,0.157l0.462,0.156c0.026,0.052.052,0.1,0.077,0.156h0.155v0.078h0.154v0.078h0.154v0.078h0.154V983h0.154v0.078h0.155v0.078h0.154v0.078h0.154v0.078h0.154v0.078c0.154,0.053.309,0.1,0.463,0.156v0.079h0.231V983.7l0.308,0.078v0.079h0.232v0.078h0.154v0.077l0.385,0.079v0.078l0.694,0.155a0.689,0.689,0,0,0,.617.157V984.4h0.154v-0.079l0.694-.155v-0.078l0.386-.079v-0.077h0.154v-0.078h0.231v-0.079l0.309-.078V983.62l0.385-.079v-0.078l0.463-.156v-0.078h0.154v-0.078h0.154v-0.078h0.154V983h0.154v-0.078h0.155v-0.078h0.154v-0.078h0.154l0.077-.156,0.308-.078c0.026-.052.052-0.1,0.077-0.156l0.463-.157c0.026-.051.051-0.1,0.077-0.155h0.154c0.026-.053.052-0.105,0.077-0.157h0.155c0.025-.052.051-0.1,0.077-0.155H256.2c0.026-.053.051-0.1,0.077-0.157h0.154c0.026-.052.052-0.1,0.077-0.156h0.154l0.155-.234h0.154l0.154-.234h0.154c0.052-.078.1-0.156,0.154-0.234h0.155l0.308-.391h0.154c0.129-.155.257-0.312,0.386-0.468h0.154l0.385-.468,0.848-.78,0.078-.235,0.462-.39v-0.156l0.386-.312v-0.156l0.231-.156v-0.156l0.231-.157v-0.155l0.232-.157V976.44l0.154-.079c0.025-.078.051-0.156,0.077-0.234h0.077v-0.156l0.154-.078v-0.156l0.154-.078c0.026-.078.052-0.156,0.077-0.234h0.078c0.051-.157.1-0.312,0.154-0.469l0.154-.077c0.051-.157.1-0.313,0.154-0.469l0.154-.078q0.078-.234.154-0.468h0.078v-0.157h0.077v-0.155h0.077c0.051-.157.1-0.312,0.154-0.469h0.077v-0.234h0.077c0.026-.1.052-0.208,0.077-0.312h0.077q0.616-1.874,1.234-3.746V968.4h0.077v-0.389h0.077V967.7h0.077v-0.391h0.077q0.039-.507.077-1.015a18.388,18.388,0,0,0,.232-4.448v-9.521l-1.619-.468v-0.078h-0.309V951.7l-0.462-.078v-0.077l-0.463-.079v-0.078h-0.231v-0.078h-0.231v-0.078h-0.232v-0.078h-0.231v-0.078h-0.231V951h-0.232v-0.078h-0.231v-0.078H260.83v-0.078l-0.54-.078c-1.644-.661-3.522-1.13-5.165-1.795l-0.771-.156v-0.078l-0.463-.078V948.5l-0.463-.077v-0.078H253.2v-0.079h-0.231v-0.078h-0.231V948.11H252.5v-0.079h-0.231v-0.078l-0.463-.078V947.8l-0.539-.078v-0.078l-0.694-.156v-0.078Q243.02,949.864,235.465,952.324Zm14.725-2.42a3.278,3.278,0,0,1,1.619.391l0.463,0.077v0.079H252.5v0.078h0.232v0.078h0.231v0.078H253.2v0.078h0.231v0.078h0.155v0.078l1.619,0.468c1.48,0.6,3.145,1.04,4.625,1.639l0.694,0.156v0.078l0.463,0.078v0.079l0.694,0.155v0.079h0.154v0.078h0.231v0.077c0.417,0.171.725,0.061,0.848,0.547a1.307,1.307,0,0,1,.077.7v8.507a6.226,6.226,0,0,1-.231,1.639v0.546H262.68v0.391H262.6v0.389h-0.077v0.313h-0.077v0.312h-0.077v0.312H262.3v0.312h-0.077v0.312H262.14v0.235h-0.077v0.234h-0.077v0.234h-0.077v0.234h-0.077v0.312h-0.077v0.156h-0.077c-0.026.156-.052,0.313-0.077,0.468h-0.077c-0.026.13-.052,0.261-0.077,0.391h-0.078v0.156h-0.077v0.234h-0.077c-0.025.1-.051,0.208-0.077,0.312h-0.077v0.156h-0.077v0.235h-0.077c-0.052.155-.1,0.312-0.154,0.468h-0.077v0.156H260.6v0.156h-0.077q-0.076.234-.154,0.468l-0.154.078c-0.051.156-.1,0.312-0.154,0.469-0.052.025-.1,0.051-0.154,0.078-0.052.155-.1,0.312-0.155,0.468l-0.154.078v0.156l-0.154.078v0.156l-0.154.078v0.156l-0.154.078v0.156l-0.232.157v0.155l-0.231.157v0.156l-0.308.234v0.156l-0.309.234v0.156l-0.848.78v0.079l-0.154.078v0.156c-0.1.052-.206,0.1-0.308,0.156l-0.617.7h-0.154l-0.232.312h-0.154c-0.026.053-.051,0.105-0.077,0.157h-0.077c-0.026.051-.051,0.1-0.077,0.155H255.2l-0.155.235h-0.154c-0.025.052-.051,0.1-0.077,0.156l-0.231.078v0.078h-0.154c-0.026.052-.052,0.1-0.077,0.156H254.2c-0.025.052-.051,0.1-0.077,0.156h-0.154l-0.077.156-0.308.078c-0.026.052-.052,0.1-0.077,0.156l-0.463.156-0.077.156-0.463.157V980.5h-0.154v0.077l-0.462.157v0.078h-0.232a2.781,2.781,0,0,1-1.233.468V981.2h-0.309v-0.078h-0.154v-0.078l-0.385-.078v-0.078l-0.463-.156v-0.078h-0.154v-0.079c-0.231-.077-0.463-0.155-0.694-0.234-0.026-.052-0.052-0.1-0.077-0.155l-0.463-.157c-0.025-.052-0.051-0.1-0.077-0.156h-0.154V979.8h-0.154v-0.078h-0.154v-0.078l-0.232-.078c-0.025-.052-0.051-0.1-0.077-0.156h-0.154v-0.078l-0.231-.078c-0.026-.053-0.052-0.1-0.077-0.156h-0.155c-0.051-.079-0.1-0.156-0.154-0.234H245.95c-0.051-.079-0.1-0.157-0.154-0.234h-0.154c-0.026-.053-0.052-0.105-0.077-0.157h-0.078c-0.025-.052-0.051-0.1-0.077-0.155h-0.154l-0.308-.391h-0.154l-0.463-.546-1.157-1.093v-0.156l-0.385-.312v-0.156l-0.308-.234v-0.157l-0.232-.155v-0.157l-0.231-.156v-0.156l-0.154-.078c-0.026-.078-0.052-0.156-0.077-0.234H241.71v-0.156l-0.155-.078v-0.156c-0.051-.026-0.1-0.053-0.154-0.078-0.025-.078-0.051-0.157-0.077-0.234h-0.077v-0.157H241.17v-0.155h-0.077v-0.157h-0.077v-0.155l-0.154-.079c-0.052-.156-0.1-0.312-0.155-0.468l-0.154-.078v-0.156h-0.077v-0.156H240.4v-0.235h-0.077v-0.155h-0.077v-0.157h-0.077v-0.156h-0.077c-0.052-.156-0.1-0.312-0.155-0.468h-0.077v-0.234h-0.077v-0.156h-0.077v-0.235h-0.077v-0.155h-0.077c-0.026-.157-0.051-0.312-0.077-0.469H239.4v-0.156H239.32q-0.115-.507-0.232-1.014h-0.077v-0.234h-0.077v-0.234h-0.077c-0.026-.209-0.051-0.417-0.077-0.625-0.131-.392-0.264-0.917-0.385-1.327l-0.078-.936H238.24v-0.546h-0.077v-0.7h-0.077v-3.98a35.269,35.269,0,0,1,.154-5.776,0.647,0.647,0,0,0,.155-0.155h0.154v-0.078l0.462-.079v-0.077h0.232v-0.078h0.231v-0.079h0.231v-0.078h0.231v-0.077h0.232v-0.079H240.4V953.26l0.694-.156c1.814-.742,3.872-1.288,5.705-2.029l0.694-.156v-0.078h0.231v-0.078h0.232v-0.078h0.231v-0.078h0.231v-0.078h0.231v-0.078h0.232v-0.079l0.462-.077v-0.078H249.5v-0.079h0.232V950.06l0.462-.077V949.9Zm11.334,5.151a2.822,2.822,0,0,1-.926-0.312l-0.462-.078v-0.078l-0.463-.078v-0.078h-0.231v-0.078h-0.231v-0.078h-0.232V954.2h-0.231v-0.079h-0.231v-0.077h-0.231v-0.078h-0.232v-0.078h-0.231v-0.079h-0.231c-0.953-.385-2.054-0.706-3.007-1.092h-0.231v-0.078h-0.232v-0.078h-0.231V952.48H253.66V952.4h-0.154v-0.078l-0.463-.079v-0.077h-0.231V952.09H252.58v-0.079h-0.231v-0.078h-0.231v-0.077h-0.231v-0.078l-0.463-.079a2.226,2.226,0,0,0-1.079-.312v0.078l-0.463.079v0.077h-0.231V951.7H249.5v0.079h-0.231v0.078h-0.231v0.077H248.8v0.078h-0.232v0.079H248.34v0.078h-0.231v0.077h-0.232v0.079h-0.231V952.4h-0.231c-1.1.446-2.366,0.8-3.47,1.249l-0.693.155v0.079H243.02v0.078h-0.231v0.078h-0.231v0.077h-0.232V954.2H242.1v0.078h-0.231v0.078l-0.463.078v0.078h-0.154v0.078h-0.231v0.078h-0.232v0.078h-0.231v0.078h-0.231V954.9h-0.231v0.078l-0.463.078v0.078a1.321,1.321,0,0,0-.077.7v8.35a3.124,3.124,0,0,1,.154,1.015h0.077v0.468h0.077v0.39h0.077v0.391h0.078v0.312h0.077v0.312h0.077v0.312h0.077V967.7h0.077v0.234H240.4v0.233h0.077V968.4h0.077v0.235h0.077q0.078,0.351.154,0.7h0.078v0.156h0.077v0.234h0.077v0.157h0.077v0.234h0.077c0.026,0.1.051,0.208,0.077,0.312h0.077v0.156H241.4v0.234h0.077c0.052,0.156.1,0.312,0.155,0.468h0.077v0.157h0.077c0.051,0.155.1,0.312,0.154,0.468l0.154,0.078v0.156h0.077V972.3h0.077v0.156h0.077v0.156l0.155,0.078v0.156h0.077v0.157l0.154,0.077v0.157c0.051,0.025.1,0.051,0.154,0.078v0.155l0.154,0.079v0.155l0.154,0.079v0.156l0.232,0.156v0.156l0.231,0.156v0.156l0.308,0.234v0.156l0.463,0.391V975.5l0.771,0.7,0.386,0.468h0.154l0.385,0.468h0.154c0.077,0.105.155,0.209,0.232,0.313h0.154l0.154,0.234h0.154c0.052,0.078.1,0.156,0.154,0.234h0.155c0.025,0.052.051,0.1,0.077,0.156h0.154l0.077,0.156,2.236,1.249h0.231v0.078a1.4,1.4,0,0,0,.694.156,0.625,0.625,0,0,1,.386-0.156v-0.078h0.154v-0.078h0.154v-0.078h0.154v-0.078h0.154v-0.078h0.155v-0.078h0.154v-0.079H252.2v-0.077c0.1-.026.205-0.053,0.308-0.078,0.026-.052.052-0.1,0.077-0.157l0.463-.155v-0.079l0.231-.078c0.026-.052.052-0.1,0.077-0.156h0.155c0.025-.052.051-0.1,0.077-0.156h0.154V978l0.231-.078,0.077-.156H254.2l0.155-.234h0.154c0.077-.1.154-0.209,0.231-0.312h0.154l0.309-.391h0.154l0.617-.7,0.848-.78v-0.156c0.128-.105.257-0.209,0.385-0.312v-0.157l0.309-.234v-0.156l0.231-.156V974.02l0.154-.078v-0.156l0.154-.079v-0.155l0.154-.079v-0.155c0.052-.027.1-0.053,0.155-0.078v-0.157l0.154-.077v-0.157l0.154-.078c0.051-.156.1-0.312,0.154-0.468l0.154-.078v-0.156h0.077v-0.156h0.078v-0.156h0.077V971.6c0.051-.025.1-0.051,0.154-0.078,0.026-.129.051-0.259,0.077-0.39h0.077v-0.156H259.6V970.82h0.077q0.078-.234.154-0.468H259.9v-0.234h0.077v-0.157h0.077v-0.234h0.077v-0.155h0.077c0.026-.157.051-0.313,0.077-0.469h0.077v-0.156h0.077c0.077-.338.154-0.677,0.232-1.014h0.077V967.7h0.077v-0.235h0.077v-0.312h0.077V966.84h0.077v-0.313h0.077v-0.389h0.077v-0.391h0.077v-0.39h0.077v-0.546a12.946,12.946,0,0,0,.155-3.044v-6.712Zm-2.7,5.541a1.133,1.133,0,0,1,.154.859H258.9a1.534,1.534,0,0,1-.385.624l-0.154.078v0.156c-0.129.1-.257,0.209-0.386,0.312v0.156c-0.128.105-.257,0.209-0.385,0.312v0.157l-0.386.312v0.156l-0.385.312v0.156l-0.155.079-0.154.234h-0.077v0.155c-0.128.105-.257,0.209-0.385,0.312v0.157l-0.154.078-0.155.234h-0.077v0.156l-0.385.312v0.156l-0.386.313v0.155l-0.385.313V967l-0.386.312v0.156l-0.385.312v0.157l-0.463.39v0.156l-0.385.312v0.156l-0.386.312v0.156l-0.385.312v0.157l-0.386.312v0.156l-0.385.312v0.156l-0.386.312v0.156l-0.385.312v0.157l-0.386.312v0.156a1.3,1.3,0,0,1-.848.39v-0.078h-0.231l-0.385-.468-1.157-1.093V970.82l-1.542-1.483v-0.156l-1.542-1.482v-0.157l-1.465-1.4v-0.157l-0.154-.078v-0.624a0.233,0.233,0,0,0,.154-0.234h0.154l0.078-.156h0.616a4.579,4.579,0,0,0,.54.468c0.026,0.078.051,0.156,0.077,0.234l1,0.936L245.873,967l0.154,0.078v0.156l0.694,0.624,0.54,0.625,0.308,0.234v0.156l0.463,0.39,0.616,0.7c0.129,0.105.257,0.209,0.386,0.312a0.76,0.76,0,0,0,.462.469l0.463-.624,0.231-.157v-0.155l0.386-.313v-0.156l0.385-.312v-0.156l0.386-.312V968.4l0.154-.077,0.154-.235h0.077v-0.155l0.386-.313c0.974-1.363,2.111-2.538,3.084-3.9l0.231-.156v-0.078l0.154-.078V963.25l0.463-.391V962.7c0.128-.1.257-0.209,0.385-0.312v-0.157l0.386-.312v-0.156l0.385-.312V961.3l0.386-.313v-0.155h0.077l0.231-.313h0.231A0.83,0.83,0,0,1,258.825,960.6Z" transform="translate(-234 -946)"/>
</svg>
