<svg xmlns="http://www.w3.org/2000/svg" width="60" height="58" viewBox="0 0 60 58">
  <defs>
    <style>
      .cls-1 {
        fill: #016faf;
        fill-rule: evenodd;
      }
    </style>
  </defs>
  <path id="Фигура_5" data-name="Фигура 5" class="cls-1" d="M256.055,3765h13.593v0.11l0.469,0.12,0.586,0.81v15.24h0.117v-0.23h0.117c0.04-.19.079-0.38,0.118-0.58h0.117v-0.23h0.117v-0.23h0.117v-0.34h0.117c0.039-.16.078-0.31,0.118-0.47h0.117c0.117-.38.234-0.77,0.351-1.15h0.117v-0.23h0.118v-0.35h0.117c0.039-.15.078-0.31,0.117-0.46H272.7c0.117-.39.235-0.77,0.352-1.16h0.117v-0.23h0.117v-0.34H273.4c0.039-.16.078-0.31,0.118-0.46h0.117v-0.35h0.117c0.039-.19.078-0.39,0.117-0.58h0.117c0.039-.15.078-0.31,0.117-0.46h0.118v-0.35h0.117c0.039-.15.078-0.3,0.117-0.46h0.117v-0.35h0.118v-0.23h0.117v-0.34h0.117c0.039-.16.078-0.31,0.117-0.46h0.117v-0.35h0.117c0.039-.15.078-0.31,0.118-0.46h0.117v-0.35h0.117c0.039-.15.078-0.31,0.117-0.46h0.117v-0.35h0.117v-0.23h0.118v-0.35h0.117c0.039-.15.078-0.3,0.117-0.46h0.117v-0.34h0.118v-0.23h0.117v-0.24H276.8v-0.23h0.117v-0.23c0.117-.04.234-0.07,0.352-0.11v-0.12a1.38,1.38,0,0,0,.351-0.23,4.434,4.434,0,0,1,2.11.46v0.12h0.234v0.11l0.586,0.12v0.11h0.234v0.12h0.352v0.12h0.234v0.11h0.352v0.12c0.156,0.04.312,0.07,0.469,0.11v0.12h0.351v0.11l0.469,0.12v0.11h0.351v0.12h0.235v0.11h0.351v0.12l0.469,0.12v0.11h0.352v0.12c0.156,0.04.312,0.07,0.468,0.11v0.12h0.352v0.11h0.234v0.12h0.352v0.11l0.469,0.12v0.12h0.351v0.11l0.469,0.12v0.11h0.351v0.12h0.235v0.11H288.4v0.12c0.157,0.04.313,0.07,0.469,0.11v0.12h0.352V3771h0.234v0.12c0.529,0.28,1,.26,1.172.92a1.845,1.845,0,0,1,.117,1.16h-0.117c-0.039.15-.078,0.31-0.117,0.46h-0.117v0.35h-0.118l-0.117.57h-0.117c-0.039.16-.078,0.31-0.117,0.47h-0.117v0.34h-0.118c-0.039.16-.078,0.31-0.117,0.46q-2.46,5.73-4.922,11.44h0.118a4.086,4.086,0,0,1,.82-0.81c0.586-.58,1.172-1.16,1.758-1.73,1.367-1.39,2.734-2.77,4.1-4.16,0.508-.46,1.016-0.92,1.524-1.39a18.24,18.24,0,0,1,2.695-2.54c0.039-.07.078-0.15,0.117-0.23h0.352v-0.11c1.157-.37,2.433,1.47,2.93,1.96,1.679,1.62,3.359,3.23,5.039,4.85,0.156,0.19.312,0.38,0.468,0.58a10.906,10.906,0,0,1,1.758,1.85c0.078,0.03.156,0.07,0.235,0.11v1.16L295.2,3798.14h0.235v-0.11l0.7-.12v-0.11h0.234v-0.12h0.352v-0.12c0.234-.03.469-0.07,0.7-0.11v-0.12h0.234v-0.11h0.352v-0.12c0.234-.03.469-0.07,0.7-0.11v-0.12h0.234v-0.11l0.7-.12c1.6-.69,3.442-1.28,5.04-1.96,0.351-.08.7-0.16,1.054-0.23v-0.12h0.235v-0.11l0.7-.12v-0.11h0.234v-0.12c0.352-.08.7-0.15,1.055-0.23v-0.12H308.2v-0.11a4.133,4.133,0,0,1,1.524-.23v0.11h0.351c0.156,0.2.313,0.39,0.469,0.58h0.117q0.351,1.1.7,2.19c0.7,1.58,1.3,3.4,1.992,4.97,0.078,0.35.157,0.69,0.235,1.04h0.117v0.23h0.117c0.078,0.35.156,0.69,0.234,1.04h0.118v0.23H314.3l0.117,0.69a4.363,4.363,0,0,1,.586,1.97c-0.156.27-.313,0.54-0.469,0.8H314.3l-0.117.24c-0.235.03-.469,0.07-0.7,0.11v0.12h-0.234v0.11l-0.7.12v0.11h-0.234v0.12c-0.352.08-.7,0.15-1.055,0.23v0.11h-0.234v0.12c-0.352.08-.7,0.15-1.055,0.23v0.12h-0.234v0.11l-0.7.12c-2.734,1.18-5.822,2.06-8.554,3.23l-0.7.12v0.11h-0.352v0.12H299.18v0.11l-0.7.12v0.11h-0.351c-3.037,1.31-6.451,2.28-9.492,3.58-0.352.08-.7,0.16-1.055,0.23v0.12h-0.234v0.12c-0.352.07-.7,0.15-1.055,0.23v0.11h-0.234v0.12c-0.235.04-.469,0.07-0.7,0.11v0.12h-0.235v0.11l-0.7.12v0.12h-0.351v0.11h-0.235v0.12c-0.234.03-.469,0.07-0.7,0.11v0.12h-0.352c-1.9.81-4.077,1.49-5.976,2.31-0.352.07-.7,0.15-1.055,0.23v0.11h-0.234v0.12c-0.352.08-.7,0.15-1.055,0.23v0.12h-0.234v0.11l-0.7.12v0.11h-0.235v0.12c-0.351.07-.7,0.15-1.055,0.23v0.11h-0.234v0.12c-0.234.04-.469,0.08-0.7,0.11v0.12h-0.352v0.12h-0.351v0.11a3.036,3.036,0,0,1-.938-0.11,26.436,26.436,0,0,1-3.515.11H256.055v-0.11l-0.469-.12-0.586-.81v-55.89h0.117c0.039-.16.078-0.31,0.117-0.46C255.508,3765.38,255.781,3765.19,256.055,3765Zm1.875,2.89v52.19h9.843v-52.19H257.93Zm20.859,1.96c-0.156.46-.312,0.92-0.469,1.39H278.2v0.34h-0.117c-0.039.16-.078,0.31-0.117,0.46h-0.117v0.35h-0.118v0.23h-0.117v0.35H277.5c-0.039.15-.078,0.31-0.117,0.46h-0.117v0.35h-0.118v0.23h-0.117c-0.117.38-.234,0.77-0.351,1.15h-0.117c-0.04.16-.079,0.31-0.118,0.46h-0.117v0.35h-0.117c-0.039.15-.078,0.31-0.117,0.46h-0.118v0.35h-0.117v0.23h-0.117v0.35h-0.117c-0.039.15-.078,0.3-0.117,0.46h-0.117v0.34h-0.118c-0.039.16-.078,0.31-0.117,0.47h-0.117v0.34h-0.117c-0.039.16-.078,0.31-0.117,0.46h-0.117v0.35H274.57v0.23h-0.117v0.35h-0.117c-0.039.15-.078,0.31-0.117,0.46H274.1v0.35h-0.117c-0.039.15-.078,0.3-0.117,0.46H273.75v0.35h-0.117v0.23h-0.117v0.34H273.4c-0.039.16-.078,0.31-0.117,0.46h-0.117v0.35h-0.117c-0.039.15-.078,0.31-0.117,0.46h-0.118v0.35H272.7v0.23h-0.117v0.35h-0.117c-0.039.15-.078,0.3-0.117,0.46h-0.118v0.35h-0.117c-0.039.15-.078,0.3-0.117,0.46h-0.117v0.34h-0.117v0.23h-0.117v0.35h-0.118c-0.039.15-.078,0.31-0.117,0.46h-0.117v0.35h-0.117c-0.039.15-.078,0.31-0.117,0.46h-0.118v0.35H270.82v0.23H270.7v23.44h0.117V3812h0.117c0.04-.19.079-0.38,0.118-0.58h0.117v-0.23h0.117v-0.34h0.117c0.039-.16.078-0.31,0.117-0.47h0.118v-0.34h0.117c0.039-.16.078-0.31,0.117-0.47h0.117v-0.34h0.117V3809h0.117v-0.35h0.118c0.039-.15.078-0.31,0.117-0.46h0.117v-0.35H272.7c0.039-.15.078-0.3,0.117-0.46h0.118v-0.35h0.117c0.039-.15.078-0.3,0.117-0.46h0.117v-0.34H273.4v-0.24h0.118v-0.34h0.117c0.039-.16.078-0.31,0.117-0.46h0.117v-0.35h0.117c0.039-.15.078-0.31,0.117-0.46h0.118v-0.35h0.117v-0.23h0.117v-0.35h0.117c0.039-.15.078-0.3,0.118-0.46h0.117v-0.34h0.117c0.039-.16.078-0.31,0.117-0.47h0.117v-0.34h0.117v-0.23h0.118v-0.35h0.117c0.039-.15.078-0.31,0.117-0.46h0.117v-0.35h0.117c0.039-.15.078-0.31,0.117-0.46h0.118v-0.35h0.117v-0.23h0.117v-0.34h0.117c0.039-.16.078-0.31,0.118-0.47h0.117v-0.34H276.8c0.039-.16.078-0.31,0.117-0.46h0.117v-0.35h0.117v-0.23h0.118v-0.35h0.117c0.039-.15.078-0.31,0.117-0.46h0.117v-0.35h0.117c0.039-.15.078-0.3,0.118-0.46h0.117v-0.34h0.117c0.039-.16.078-0.31,0.117-0.47h0.117v-0.34h0.118v-0.23h0.117v-0.35h0.117c0.039-.15.078-0.31,0.117-0.46h0.117v-0.35h0.117c0.039-.15.078-0.31,0.118-0.46h0.117v-0.35h0.117v-0.23h0.117v-0.34h0.117c0.039-.16.078-0.31,0.118-0.47h0.117v-0.34h0.117c0.039-.16.078-0.31,0.117-0.46H280.2c0.117-.39.235-0.77,0.352-1.16h0.117v-0.23h0.117v-0.35H280.9c0.039-.15.078-0.31,0.118-0.46h0.117v-0.35h0.117v-0.23h0.117v-0.34h0.117c0.039-.16.078-0.31,0.118-0.46h0.117v-0.35h0.117c0.039-.15.078-0.31,0.117-0.46h0.117v-0.35h0.118c0.039-.15.078-0.31,0.117-0.46h0.117v-0.35h0.117v-0.23h0.117v-0.34h0.117c0.039-.16.078-0.31,0.118-0.47h0.117v-0.34h0.117c0.039-.16.078-0.31,0.117-0.47h0.117v-0.34h0.118v-0.23h0.117v-0.35h0.117c0.039-.15.078-0.31,0.117-0.46h0.117v-0.35h0.118c0.039-.15.078-0.31,0.117-0.46H284.3v-0.35h0.117v-0.23h0.117v-0.34h0.117c0.039-.16.078-0.31,0.118-0.47h0.117v-0.34H285c0.039-.16.078-0.31,0.117-0.46h0.117v-0.35h0.118v-0.23h0.117v-0.35h0.117c0.039-.15.078-0.31,0.117-0.46h0.117v-0.35h0.117c0.04-.15.079-0.3,0.118-0.46h0.117v-0.34h0.117v-0.24h0.117v-0.34h0.117v-0.23h0.118c0.039-.19.078-0.39,0.117-0.58h0.117c0.156-.46.312-0.92,0.469-1.39-0.235-.07-0.469-0.15-0.7-0.23v-0.11h-0.352v-0.12c-0.156-.04-0.312-0.07-0.469-0.11v-0.12h-0.351v-0.11l-0.469-.12v-0.12h-0.352v-0.11h-0.234v-0.12h-0.351v-0.11l-0.469-.12v-0.11h-0.352v-0.12c-0.156-.04-0.312-0.07-0.469-0.11v-0.12h-0.351v-0.11h-0.234v-0.12h-0.352V3771c-0.156-.03-0.313-0.07-0.469-0.11v-0.12h-0.351v-0.11h-0.235v-0.12c-0.195-.04-0.39-0.07-0.586-0.11v-0.12C279.727,3770.16,279.258,3770,278.789,3769.85Zm17.695,9.93a6.251,6.251,0,0,1-1.172,1.16c-0.546.57-1.093,1.15-1.64,1.73-0.234.19-.469,0.38-0.7,0.58q-3.867,3.855-7.735,7.73-1.875,1.8-3.75,3.58-4.686,11.025-9.375,22.06h0.117a3.512,3.512,0,0,1,.7-0.69l1.523-1.5c0.2-.24.391-0.47,0.586-0.7q2.168-2.07,4.336-4.16,1.7-1.725,3.4-3.46l3.164-3a22.524,22.524,0,0,1,2.7-2.54q3.281-3.3,6.562-6.58l4.922-4.74,0.7-.81c0.742-.69,1.485-1.38,2.227-2.08v-0.23Q299.767,3782.965,296.484,3779.78Zm15.117,25.29a4.18,4.18,0,0,0-.468-1.27v-0.35h-0.117v-0.23H310.9l-0.117-.69h-0.117v-0.23h-0.117l-0.117-.69h-0.118v-0.35H310.2v-0.23h-0.117v-0.35h-0.117l-0.117-.69h-0.117v-0.23h-0.118l-0.117-.69h-0.117v-0.23h-0.117c-0.078-.35-0.157-0.7-0.235-1.04h-0.117v-0.24h-0.117c-0.078-.34-0.156-0.69-0.234-1.03-0.43.11-.86,0.23-1.289,0.34v0.12c-0.352.08-.7,0.15-1.055,0.23v0.11h-0.234v0.12c-0.352.08-.7,0.15-1.055,0.23v0.12h-0.234v0.11c-0.352.08-.7,0.16-1.055,0.23v0.12H303.4v0.11l-0.7.12v0.11h-0.234v0.12c-0.352.08-.7,0.15-1.055,0.23v0.12h-0.234v0.11H300.82v0.12c-0.234.04-.469,0.07-0.7,0.11v0.12h-0.234v0.11l-0.7.12c-2.016.87-4.312,1.56-6.329,2.42l-2.812.93q-4.393,4.38-8.789,8.77c-0.508.47-1.016,0.93-1.523,1.39l-2.93,3c-0.469.46-.938,0.93-1.406,1.39a3.455,3.455,0,0,0-.7.69h0.234v-0.11l0.586-.12v-0.11h0.351v-0.12h0.352v-0.12h0.352v-0.11H276.8v-0.12h0.351v-0.11H277.5v-0.12h0.234v-0.11c0.352-.08.7-0.16,1.055-0.23v-0.12h0.234v-0.12c0.352-.07.7-0.15,1.055-0.23v-0.11h0.235v-0.12c0.351-.07.7-0.15,1.054-0.23v-0.11H281.6v-0.12c0.234-.04.468-0.08,0.7-0.11v-0.12h0.234v-0.12c0.234-.03.469-0.07,0.7-0.11v-0.12h0.352v-0.11h0.234V3815c0.234-.04.469-0.07,0.7-0.11v-0.12h0.352c3.034-1.31,6.455-2.27,9.492-3.58,0.351-.07.7-0.15,1.055-0.23v-0.11h0.234v-0.12c0.352-.08.7-0.15,1.055-0.23v-0.12h0.234v-0.11l0.7-.12v-0.11h0.235v-0.12c0.351-.08.7-0.15,1.054-0.23v-0.12h0.235v-0.11l0.7-.12v-0.11h0.351v-0.12h0.235V3809h0.351v-0.12c0.235-.04.469-0.07,0.7-0.11,1.9-.82,4.078-1.5,5.977-2.31,0.351-.08.7-0.16,1.055-0.23v-0.12h0.234v-0.12C309.726,3805.69,310.664,3805.38,311.6,3805.07Zm-47.226,9.59a1.066,1.066,0,0,0,.234.46h0.118c0.039,0.19.078,0.38,0.117,0.58h0.117a2.31,2.31,0,0,1-2.813,2.54v-0.12h-0.234v-0.11H261.68v-0.12l-0.352-.12a1.045,1.045,0,0,0-.234-0.46h-0.117c-0.04-.19-0.079-0.38-0.118-0.58h-0.117c-0.283-.87.332-1.45,0.469-1.96a1.008,1.008,0,0,0,.469-0.23v-0.11l0.468-.12v-0.12a3.337,3.337,0,0,1,1.407,0A5,5,0,0,0,264.375,3814.66Z" transform="translate(-255 -3765)"/>
</svg>
