<svg xmlns="http://www.w3.org/2000/svg" width="40" height="39" viewBox="0 0 40 39">
  <defs>
    <style>
      .cls-1 {
        fill: #016faf;
        fill-rule: evenodd;
      }
    </style>
  </defs>
  <path id="Фигура_14" data-name="Фигура 14" class="cls-1" d="M1383.51,953.28c-0.49-.129-0.99-0.259-1.48-0.389-0.05-.311-0.1-0.623-0.16-0.935h-0.07V951.8h-0.08v-0.234h-0.08v-0.233h-0.08v-0.156h-0.08v-0.155h-0.08v-0.156l-0.15-.078c-0.03-.1-0.05-0.208-0.08-0.312-0.05-.026-0.1-0.052-0.16-0.078v-0.156c-0.1-.077-0.2-0.156-0.31-0.233v-0.156c-0.31-.26-0.62-0.52-0.94-0.779h-0.15c-0.03-.052-0.05-0.1-0.08-0.156h-0.16V948.84h-0.15v-0.078h-0.24v-0.078h-0.23v-0.077h-0.24v-0.079h-0.39a4.275,4.275,0,0,0-1.48-.077v0.077h-0.39v0.079h-0.31v0.077h-0.32c-0.57.26-1.14,0.52-1.72,0.78-0.02.051-.05,0.1-0.07,0.155l-0.32.078v0.078c-0.08.026-.15,0.052-0.23,0.078-0.03.051-.05,0.1-0.08,0.156h-0.16l-0.15.233h-0.16a1.153,1.153,0,0,1-.08.156c-0.07.026-.15,0.052-0.23,0.078v0.078h-0.16a1.087,1.087,0,0,1-.08.155h-0.15c-0.03.052-.05,0.105-0.08,0.157-0.08.026-.16,0.052-0.23,0.077v0.079c-0.11.025-.21,0.052-0.32,0.077v0.078h-0.15v0.078c-0.16.052-.32,0.1-0.47,0.156v0.078h-0.24v0.077c-0.1.027-.2,0.052-0.31,0.079v0.078H1370V951.8h-0.16v0.079c-0.88.233-1.77,0.467-2.66,0.7h-0.54v0.077a2.413,2.413,0,0,0-.94.156c0.19,0.123.05,0.087,0.16,0.234,0.1,0.078.2,0.156,0.31,0.233v0.157l0.39,0.311V953.9l0.39,0.311v0.156c0.23,0.208.47,0.415,0.7,0.623v0.157c0.16,0.129.32,0.259,0.47,0.389,0.42,0.441.84,0.883,1.25,1.324h0.16l0.54,0.623h0.16c0.11,0.13.21,0.26,0.31,0.39h0.16c0.08,0.1.16,0.208,0.23,0.312h0.16c0.03,0.051.05,0.1,0.08,0.155h0.16l0.15,0.234h0.16a1.153,1.153,0,0,0,.08.156c0.07,0.026.15,0.052,0.23,0.078v0.078h0.16c0.02,0.052.05,0.1,0.07,0.155l0.32,0.078a1.153,1.153,0,0,0,.08.156c0.1,0.026.2,0.052,0.31,0.078a1.153,1.153,0,0,0,.08.156c0.1,0.026.2,0.052,0.31,0.078v0.077c0.15,0.052.31,0.1,0.47,0.156V959.9h0.23v0.078h0.16v0.078h0.23a5.33,5.33,0,0,0,3.28.467h0.47v-0.077l0.71-.156v-0.078c0.15-.052.31-0.1,0.46-0.156V959.98l0.32-.078c0.08-.1.15-0.207,0.23-0.311H1380c0.15-.182.31-0.364,0.47-0.546l0.39-.311c0.28-.545.57-1.091,0.86-1.636h0.23v0.078h0.24a3.43,3.43,0,0,0,.78.311,4.563,4.563,0,0,1-.78,1.558V959.2c-0.06.026-.11,0.052-0.16,0.078v0.156c-0.1.078-.21,0.156-0.31,0.233v0.156l-0.39.312c-0.16.182-.32,0.364-0.47,0.545h-0.16l-0.15.234h-0.16c-0.03.052-.05,0.1-0.08,0.156l-0.31.078c-0.03.052-.05,0.1-0.08,0.156l-0.39.077v0.079c-0.1.025-.21,0.051-0.31,0.077v0.078c-0.16.026-.32,0.052-0.47,0.078v0.078l-0.71.078v0.078h-0.7v0.078l-1.56-.078V961.85h-0.39v-0.078h-0.31v-0.078h-0.32v-0.078l-0.54-.078v-0.077h-0.24v-0.079l-0.39-.077v-0.078h-0.16v-0.078h-0.23v-0.078h-0.16v-0.078h-0.15c-0.03-.052-0.05-0.1-0.08-0.156h-0.16v-0.078h-0.15v-0.078h-0.16V960.6h-0.16v-0.079h-0.15v-0.077h-0.16V960.37c-0.08-.026-0.15-0.052-0.23-0.078-0.03-.052-0.05-0.1-0.08-0.156l-0.31-.078a1.153,1.153,0,0,1-.08-0.156h-0.16l-0.15-.234h-0.16c-0.03-.051-0.05-0.1-0.08-0.155h-0.15a1.153,1.153,0,0,1-.08-0.156l-0.24-.078-0.15-.234h-0.16c-0.1-.13-0.21-0.259-0.31-0.389h-0.16c-0.1-.13-0.21-0.26-0.31-0.39h-0.16l-0.78-.857h-0.15c-0.19-.207-0.37-0.415-0.55-0.623l-0.24-.156v-0.155h-0.07c-0.06-.079-0.11-0.156-0.16-0.234l-0.78-.7v-0.156c-0.16-.13-0.31-0.26-0.47-0.39v-0.156c-0.16-.129-0.31-0.259-0.47-0.389v-0.155c-0.1-.079-0.21-0.157-0.31-0.234V953.9c-0.11-.078-0.21-0.156-0.31-0.234v-0.156c-0.11-.077-0.21-0.156-0.32-0.234v-0.155c-0.08-.052-0.15-0.1-0.23-0.156v-0.156c-0.05-.026-0.11-0.052-0.16-0.077a3.194,3.194,0,0,0-.23-0.313,2.781,2.781,0,0,1,.08-0.7,0.568,0.568,0,0,0,.15-0.157h0.16v-0.077h0.47v-0.078l1.79-.078v-0.078h0.47v-0.078h0.47V951.1l0.63-.077v-0.079c0.21-.025.41-0.051,0.62-0.077v-0.078h0.24v-0.079h0.23v-0.077h0.24v-0.078l0.46-.078V950.4l0.32-.078v-0.078h0.23v-0.077c0.11-.027.21-0.052,0.31-0.079v-0.077c0.11-.026.21-0.053,0.32-0.078,0.02-.052.05-0.1,0.07-0.156l0.32-.078v-0.078c0.08-.026.15-0.052,0.23-0.078,0.03-.052.05-0.1,0.08-0.156h0.16c0.02-.052.05-0.1,0.07-0.155h0.16c0.05-.078.1-0.156,0.16-0.234h0.15c0.03-.052.05-0.1,0.08-0.156h0.16a1.153,1.153,0,0,1,.08-0.156c0.07-.025.15-0.052,0.23-0.077v-0.079l0.31-.077c0.03-.052.05-0.1,0.08-0.156,0.08-.026.16-0.052,0.23-0.078v-0.078l0.32-.078v-0.078c0.15-.052.31-0.1,0.47-0.156V947.75h0.23v-0.079h0.16v-0.077h0.23v-0.078H1375v-0.078h0.31V947.36h0.23v-0.078h0.32V947.2h0.39v-0.078h0.54v-0.078a6.541,6.541,0,0,1,2.58.312v0.078h0.24v0.078c0.15,0.052.31,0.1,0.47,0.155v0.079c0.1,0.025.2,0.052,0.31,0.077a1.153,1.153,0,0,0,.08.156h0.15a1.153,1.153,0,0,1,.08.156h0.16c0.1,0.13.21,0.26,0.31,0.389h0.16c0.02,0.052.05,0.1,0.07,0.156l0.24,0.156V949l0.39,0.312v0.156c0.05,0.025.1,0.051,0.16,0.077,0.02,0.1.05,0.208,0.07,0.312,0.06,0.026.11,0.051,0.16,0.078,0.03,0.078.05,0.155,0.08,0.234h0.08c0.07,0.233.15,0.467,0.23,0.7h0.08c0.03,0.1.05,0.208,0.08,0.311h0.08v0.234A10.6,10.6,0,0,1,1383.51,953.28Zm3.29,5.376a2.9,2.9,0,0,1-.86-0.7,1.153,1.153,0,0,1-.08-0.156h-0.16c-0.1-.13-0.21-0.26-0.31-0.39h-0.16l-0.15-.233h-0.16c-0.03-.052-0.05-0.1-0.08-0.156h-0.15a1.153,1.153,0,0,1-.08-0.156l-0.24-.078v-0.078c-0.15-.052-0.31-0.1-0.47-0.156-0.02-.052-0.05-0.1-0.07-0.156h-0.16v-0.077l-0.31-.078v-0.078h-0.24v-0.078h-0.15v-0.078h-0.24v-0.078h-0.15v-0.078h-0.32v-0.077h-0.23V955.7h-0.23v-0.077h-0.4V955.54h-0.39v-0.078h-0.62v-0.078h-4.14v0.078l-1.96-.078v-0.078l-0.93-.078v-0.077h-0.32v-0.079h-0.31v-0.078h-0.23v-0.077h-0.24v-0.079h-0.15v-0.077c-0.36-.159-0.59-0.044-0.71-0.467a0.858,0.858,0,0,1,0-.7,1.575,1.575,0,0,1,.78-0.234v0.079l0.4,0.077v0.078h0.23v0.078h0.23v0.078h0.32a10.917,10.917,0,0,0,3.36.312h1.32v-0.079a7.822,7.822,0,0,1,2.04.079l1.4,0.077v0.078l0.78,0.079v0.077c0.26,0.052.52,0.1,0.79,0.156v0.078h0.23v0.078l0.31,0.078v0.077h0.24v0.079l0.31,0.077v0.078c0.16,0.052.31,0.1,0.47,0.156v0.078h0.15v0.078h0.16c0.03,0.052.05,0.1,0.08,0.156h0.15a1.087,1.087,0,0,1,.08.155h0.16c0.03,0.052.05,0.1,0.08,0.156h0.15a1.153,1.153,0,0,1,.08.156h0.16c0.08,0.1.15,0.208,0.23,0.312h0.16c0.05,0.077.1,0.156,0.16,0.233,0.07,0.027.15,0.052,0.23,0.078,0.23,0.26.47,0.52,0.7,0.779h0.16c0.18,0.234.36,0.468,0.55,0.7l0.54,0.468v0.156c0.11,0.078.21,0.156,0.32,0.233v0.156c0.1,0.078.2,0.156,0.31,0.234v0.156c0.1,0.078.21,0.155,0.31,0.234,0.03,0.077.05,0.155,0.08,0.233l0.15,0.078v0.156c0.06,0.026.11,0.052,0.16,0.078v0.156l0.24,0.156v0.155l0.15,0.078c0.03,0.078.05,0.156,0.08,0.234h0.08v0.156l0.15,0.078v0.156c0.06,0.025.11,0.051,0.16,0.077v0.156c0.05,0.026.1,0.052,0.16,0.078v0.156l0.15,0.078c0.03,0.1.06,0.208,0.08,0.311,0.05,0.026.11,0.052,0.16,0.078v0.156l0.15,0.078v0.156h0.08v0.155h0.08a0.859,0.859,0,0,1,0,.7c-0.05.025-.1,0.052-0.16,0.078-0.02.052-.05,0.1-0.07,0.156h-0.16v0.077a0.932,0.932,0,0,1-.86-0.311c-0.03-.1-0.05-0.208-0.08-0.312l-0.15-.078a2.216,2.216,0,0,1-.08-0.233H1390c-0.03-.1-0.05-0.209-0.08-0.313h-0.08a2.216,2.216,0,0,0-.08-0.233l-0.15-.078v-0.156l-0.16-.077v-0.156h-0.08c-0.02-.078-0.05-0.156-0.07-0.234-0.06-.026-0.11-0.052-0.16-0.078v-0.156c-0.08-.052-0.16-0.1-0.23-0.156v-0.155c-0.06-.026-0.11-0.052-0.16-0.078v-0.156l-0.24-.156v-0.156c-0.1-.077-0.2-0.156-0.31-0.233a2.085,2.085,0,0,0-.08-0.234l-0.15-.078V959.98l-0.24-.156v-0.077l-0.15-.079v-0.155c-0.05-.026-0.11-0.052-0.16-0.078A2.6,2.6,0,0,1,1386.8,958.656Zm-22.74,19.709a0.289,0.289,0,0,0-.16-0.234V977.82h-0.08v-0.546l-0.54-1.714h-0.08v-0.155h-0.08v-0.156h-0.08v-0.156h-0.08v-0.156h-0.07c-0.03-.1-0.06-0.207-0.08-0.311-0.05-.026-0.11-0.052-0.16-0.078l-0.15-.467c-0.06-.026-0.11-0.052-0.16-0.079v-0.155h-0.08v-0.156l-0.15-.078c-0.03-.1-0.06-0.207-0.08-0.311h-0.08c-0.03-.078-0.05-0.157-0.08-0.234-0.05-.026-0.1-0.052-0.16-0.078v-0.156h-0.07v-0.156c-0.06-.025-0.11-0.052-0.16-0.077-0.03-.1-0.05-0.208-0.08-0.313l-0.15-.077a2.156,2.156,0,0,1-.08-0.234h-0.08c-0.05-.156-0.1-0.312-0.16-0.467l-0.15-.078c-0.06-.156-0.11-0.312-0.16-0.468h-0.08v-0.155h-0.08v-0.156h-0.07c-0.06-.156-0.11-0.312-0.16-0.467h-0.08c-0.02-.131-0.05-0.26-0.08-0.39H1360V969.64h-0.08c-0.03-.156-0.05-0.311-0.08-0.467a9.066,9.066,0,0,1-.31-5.142v-0.468c0.23-.83.47-1.662,0.7-2.492h0.08v-0.156h0.08c0.02-.156.05-0.311,0.07-0.467h0.08v-0.156h0.08v-0.234h0.08V959.9h0.08v-0.234h0.08c0.02-.1.05-0.207,0.07-0.311h0.08V959.2h0.08v-0.234h0.08v-0.155h0.08c0.02-.1.05-0.208,0.07-0.312h0.08c0.03-.1.05-0.208,0.08-0.311h0.08c0.02-.1.05-0.208,0.08-0.312h0.07v-0.156h0.08v-0.156h0.08v-0.156h0.08v-0.156h0.08V957.1h0.08v-0.156h0.07v-0.156h0.08V956.63c0.05-.026.11-0.051,0.16-0.078a1.408,1.408,0,0,1,.15-0.389h0.16c0.42-.5,1.26.208,0.94,0.935h-0.08c-0.05.155-.1,0.311-0.16,0.467h-0.07c-0.03.1-.06,0.208-0.08,0.312-0.05.026-.11,0.052-0.16,0.078v0.155h-0.08c-0.02.1-.05,0.208-0.08,0.312h-0.07c-0.06.156-.11,0.312-0.16,0.468h-0.08v0.233h-0.08v0.156h-0.07v0.156h-0.08c-0.05.156-.11,0.312-0.16,0.467h-0.08v0.234h-0.07c-0.03.13-.06,0.26-0.08,0.389h-0.08v0.156h-0.08v0.234h-0.08v0.156h-0.08q-0.39,1.323-.78,2.649v0.467h-0.07v0.467h-0.08v1.013h-0.08v0.467h0.08v1.091c0.15,0.649.31,1.3,0.47,1.948h0.07v0.156h0.08c0.03,0.129.05,0.259,0.08,0.389h0.08l0.15,0.468h0.08v0.155h0.08V970.5h0.08c0.05,0.156.1,0.312,0.16,0.467l0.15,0.079c0.03,0.1.05,0.207,0.08,0.311,0.05,0.026.1,0.052,0.16,0.078,0.02,0.1.05,0.208,0.07,0.312,0.06,0.025.11,0.052,0.16,0.077,0.03,0.1.05,0.208,0.08,0.312h0.08c0.02,0.078.05,0.156,0.07,0.234,0.06,0.026.11,0.052,0.16,0.078,0.03,0.1.05,0.208,0.08,0.311,0.05,0.026.1,0.052,0.16,0.078,0.02,0.1.05,0.208,0.07,0.311,0.06,0.027.11,0.053,0.16,0.079,0.03,0.1.05,0.207,0.08,0.311l0.15,0.078v0.156h0.08v0.156h0.08v0.156h0.08v0.155h0.08v0.156h0.07v0.156h0.08c0.03,0.1.06,0.207,0.08,0.311h0.08c0.03,0.105.05,0.209,0.08,0.312h0.08v0.234a5.009,5.009,0,0,1,.54,2.8,1.022,1.022,0,0,1-.86.312A0.228,0.228,0,0,0,1364.06,978.365Zm30-12.387a2.75,2.75,0,0,1,.63.079,1.271,1.271,0,0,1,.23.389H1395c-0.03.208-.05,0.416-0.08,0.623h-0.08v0.156l-0.15.078c-0.03.1-.05,0.208-0.08,0.312h-0.08v0.156h-0.08c-0.08.233-.15,0.467-0.23,0.7h-0.08c-0.03.155-.05,0.311-0.08,0.467h-0.08V969.1h-0.07c-0.06.234-.11,0.467-0.16,0.7h-0.08l-0.15.7h-0.08v0.39h-0.08V971.2h-0.08v0.39h-0.08v0.389a6.147,6.147,0,0,0-.08,2.571v0.857h0.08a5.059,5.059,0,0,1-.08,1.714v0.7l-0.39,1.636h-0.07v0.156h-0.08v0.233h-0.08c-0.03.1-.05,0.208-0.08,0.312h-0.08c-0.02.1-.05,0.208-0.07,0.312-0.06.025-.11,0.052-0.16,0.077-0.03.1-.05,0.208-0.08,0.312-0.08.052-.16,0.1-0.23,0.156v0.156l-0.39.311a2.156,2.156,0,0,0-.08.234c-0.05.026-.11,0.052-0.16,0.078v0.078h-0.15c-0.11.13-.21,0.26-0.32,0.389h-0.15a1.153,1.153,0,0,0-.08.156h-0.16a1.153,1.153,0,0,1-.08.156c-0.1.026-.2,0.052-0.31,0.078v0.078l-0.31.078v0.078c-0.16.025-.31,0.052-0.47,0.077v0.079h-0.23v0.077h-0.24V983.2h-0.39a4.991,4.991,0,0,1-1.8.156v-0.078h-0.7V983.2h-0.39v-0.078h-0.31V983.04h-0.32v-0.079h-0.23v-0.077h-0.16v-0.078c-0.15-.026-0.31-0.052-0.47-0.078V982.65a0.129,0.129,0,0,1-.07-0.078c0.48-.285.6-0.914,1.32-0.935v0.078l0.55,0.078v0.078l1.25,0.078v0.078l0.24-.078h0.86v-0.078l0.62-.078v-0.078h0.16v-0.078h0.23v-0.078c0.11-.026.21-0.052,0.31-0.078V981.4h0.16c0.03-.052.05-0.1,0.08-0.156h0.15c0.06-.077.11-0.155,0.16-0.233h0.16l0.15-.234,0.39-.311v-0.156l0.24-.156V980c0.05-.026.1-0.052,0.16-0.078v-0.155h0.07v-0.156h0.08v-0.156h0.08V979.3h0.08v-0.156h0.08c0.02-.156.05-0.312,0.07-0.467h0.08v-0.312h0.08v-0.311h0.08v-0.468h0.08c0.02-.545.05-1.09,0.07-1.636a9.872,9.872,0,0,1-.15-1.869c-0.03-.183-0.05-0.364-0.08-0.546h0.08v-1.247q0.195-1.011.39-2.025c0.33-.916.65-1.854,1.01-2.726h-0.46l-3.75.779c-0.89.285-1.78,0.571-2.66,0.857v0.077h-0.16v0.079h-0.23v0.077h-0.16v0.078h-0.23v0.078c-0.16.052-.32,0.1-0.47,0.156V969.8h-0.16v0.078h-0.15v0.078h-0.16v0.078h-0.16v0.077h-0.15v0.079h-0.16a1.2,1.2,0,0,1-.08.155l-0.31.078c-0.03.052-.05,0.1-0.08,0.156l-0.31.078v0.078c-0.08.026-.16,0.052-0.23,0.078a1.087,1.087,0,0,0-.08.155h-0.16c-0.08.1-.16,0.208-0.23,0.312h-0.16l-0.39.468h-0.16c-0.07.1-.15,0.207-0.23,0.311h-0.08v0.156l-0.39.311v0.156c-0.08.052-.16,0.1-0.23,0.156v0.156c-0.06.026-.11,0.052-0.16,0.078-0.03.1-.05,0.208-0.08,0.311l-0.15.079v0.155h-0.08v0.156h-0.08V974h-0.08v0.234h-0.08v0.234h-0.08v0.389h-0.07v0.468H1380v0.857h0.08v0.546h0.07v0.311c0.19,0.415.37,0.831,0.55,1.246h0.08v0.156c0.05,0.026.1,0.052,0.16,0.078v0.156l0.15,0.078v0.156h0.08a0.6,0.6,0,0,1,.16.389c-0.11.078-.21,0.156-0.32,0.234v0.078a1.663,1.663,0,0,0-.62.467,0.146,0.146,0,0,1-.08-0.078,1.626,1.626,0,0,1-.47-0.623l-0.15-.078v-0.156h-0.08c-0.03-.1-0.05-0.208-0.08-0.312-0.05-.025-0.1-0.052-0.16-0.077V978.6h-0.08v-0.156h-0.07v-0.234h-0.08c-0.03-.1-0.05-0.207-0.08-0.311h-0.08c-0.02-.182-0.05-0.363-0.08-0.545h-0.07v-0.234h-0.08v-0.468h-0.08v-0.7a6.4,6.4,0,0,1,.31-2.337h0.08v-0.234h0.08l0.15-.467h0.08c0.03-.1.06-0.208,0.08-0.311,0.05-.027.11-0.052,0.16-0.079v-0.155l0.15-.079v-0.155c0.06-.026.11-0.052,0.16-0.078V971.9c0.08-.051.16-0.1,0.23-0.155v-0.156c0.24-.208.47-0.416,0.71-0.624l0.54-.623h0.16c0.05-.078.11-0.155,0.16-0.234h0.15c0.06-.077.11-0.155,0.16-0.233h0.16c0.02-.052.05-0.1,0.07-0.156l0.24-.078v-0.078h0.15a1.153,1.153,0,0,0,.08-0.156l0.24-.077V969.25c0.15-.051.31-0.1,0.47-0.155,0.02-.052.05-0.1,0.07-0.156,0.16-.052.32-0.1,0.47-0.156v-0.078h0.16v-0.078c0.16-.051.31-0.1,0.47-0.155v-0.078h0.23v-0.078H1385v-0.078l0.31-.078v-0.078c1.1-.363,2.19-0.727,3.28-1.091l3.75-.779h0.55v-0.078A4.169,4.169,0,0,0,1394.06,965.978Zm-27.81,19.866v-0.156a1.052,1.052,0,0,1-.39-0.546h-0.08v-0.155l-0.24-.156v-0.156l-0.15-.077v-0.156l-0.24-.157V984.13l-0.39-.312v-0.156c-0.15-.129-0.31-0.259-0.47-0.389v-0.156c-0.1-.077-0.21-0.156-0.31-0.233-0.21-.234-0.42-0.468-0.62-0.7h-0.16c-0.16-.182-0.31-0.364-0.47-0.546h-0.16c-0.07-.1-0.15-0.208-0.23-0.311h-0.16c-0.02-.052-0.05-0.1-0.07-0.156h-0.16c-0.03-.052-0.05-0.1-0.08-0.156h-0.16c-0.02-.052-0.05-0.1-0.07-0.156l-0.32-.078c-0.02-.052-0.05-0.1-0.07-0.156l-0.32-.078v-0.077c-0.15-.052-0.31-0.1-0.47-0.156v-0.078h-0.23v-0.078c-0.16-.052-0.31-0.1-0.47-0.156v-0.078h-0.15v-0.078h-0.16v-0.077h-0.16v-0.079h-0.15v-0.077h-0.16v-0.078h-0.16v-0.078c-0.07-.026-0.15-0.052-0.23-0.078-0.03-.052-0.05-0.1-0.08-0.156h-0.16v-0.078c-0.07-.026-0.15-0.052-0.23-0.078-0.03-.052-0.05-0.1-0.08-0.155h-0.15c-0.06-.079-0.11-0.156-0.16-0.234h-0.16c-0.07-.1-0.15-0.208-0.23-0.312h-0.16l-0.39-.467-0.15-.078v-0.156l-0.39-.311V977.2l-0.24-.156v-0.156c-0.05-.026-0.1-0.052-0.16-0.078-0.02-.1-0.05-0.208-0.07-0.311h-0.08V976.34h-0.08c-0.05-.156-0.1-0.312-0.16-0.467h-0.07v-0.234a5.848,5.848,0,0,1,1.4-6.155c0.05-.078.11-0.155,0.16-0.234h0.08V969.1c0.1-.078.2-0.156,0.31-0.234v-0.078h0.16c0.07-.1.15-0.207,0.23-0.311h0.16l0.15-.234h0.08v0.078a5.557,5.557,0,0,1,.31,1.246h0.08c0.03,0.107-.02,0-0.08.078l-0.54.623c-0.06.026-.11,0.052-0.16,0.078V970.5c-0.1.078-.21,0.156-0.31,0.234v0.156l-0.16.077v0.156c-0.05.026-.1,0.052-0.16,0.078v0.156l-0.15.078v0.156h-0.08c-0.03.1-.05,0.208-0.08,0.311h-0.08v0.234h-0.07v0.155h-0.08V972.6a4.5,4.5,0,0,0,1.01,4.206c0.06,0.026.11,0.052,0.16,0.078l0.39,0.468h0.16c0.07,0.1.15,0.207,0.23,0.311h0.16l0.15,0.234h0.16c0.03,0.052.05,0.1,0.08,0.156h0.15a1.2,1.2,0,0,1,.08.155h0.16v0.078h0.16v0.078h0.15v0.078h0.16a1.153,1.153,0,0,0,.08.156h0.15v0.078h0.16v0.078h0.23v0.077c0.16,0.052.32,0.1,0.47,0.156v0.078h0.16v0.078h0.15v0.078h0.16V979.3h0.16v0.078h0.15v0.078h0.16v0.078h0.16v0.078c0.07,0.025.15,0.052,0.23,0.077,0.03,0.052.05,0.1,0.08,0.156l0.31,0.078c0.03,0.052.05,0.1,0.08,0.156h0.15l0.24,0.312h0.16l0.15,0.233h0.16c0.15,0.182.31,0.364,0.47,0.546h0.15l0.63,0.7c0.1,0.078.21,0.156,0.31,0.233v0.156c0.18,0.156.37,0.312,0.55,0.468v0.156c0.08,0.052.15,0.1,0.23,0.156V983.2l0.24,0.156a3.152,3.152,0,0,1,.31.467h0.08a3.548,3.548,0,0,1,.15-0.623h0.08V983.04h0.08c0.03-.156.05-0.312,0.08-0.468h0.08v-0.156h0.07c0.03-.156.06-0.312,0.08-0.467h0.08v-0.234h0.08v-0.234h0.08v-0.234h0.07v-0.311h0.08V980.7h0.08v-0.233h0.08v-0.312h0.08v-0.234h0.08v-0.311h0.07V979.3h0.08v-0.312h0.08v-0.311h0.08c0.02-.234.05-0.468,0.08-0.7h0.07c0.11-.778.21-1.558,0.32-2.336a8.151,8.151,0,0,0-.08-2.337v-0.624h-0.08v-0.39h-0.08v-0.311h-0.08v-0.312a5.316,5.316,0,0,0-3.51-3.739h-0.39v-0.078a7.955,7.955,0,0,0-2.27,0c-0.02-.48-0.15-0.792-0.15-1.324l1.32-.156a0.727,0.727,0,0,0,.08.078h1.02c0.54,0.156,1.09.312,1.64,0.468v0.077l0.31,0.078v0.079h0.16a1.2,1.2,0,0,0,.08.155c0.1,0.026.2,0.052,0.31,0.078l0.15,0.234h0.16c0.08,0.1.16,0.207,0.23,0.311h0.16l0.39,0.468c0.05,0.026.11,0.051,0.16,0.078v0.155c0.1,0.078.21,0.156,0.31,0.234v0.156c0.05,0.026.1,0.052,0.16,0.078,0.02,0.078.05,0.155,0.07,0.234h0.08c0.06,0.155.11,0.311,0.16,0.467,0.05,0.026.1,0.052,0.16,0.078v0.233h0.07c0.03,0.1.06,0.208,0.08,0.312h0.08v0.234h0.08v0.156h0.08v0.234h0.07v0.311h0.08v0.234h0.08v0.389h0.08v0.39H1370v0.545h0.07V974h0.08v1.014h-0.08v1.168H1370v0.779h-0.08c-0.03.311-.05,0.623-0.08,0.935-0.2.657-.33,1.472-0.55,2.1v0.312h-0.07c-0.06.26-.11,0.519-0.16,0.779h-0.08v0.234h-0.08v0.233h-0.08v0.312h-0.07V982.1h-0.08v0.156h-0.08v0.234h-0.08v0.234h-0.08v0.233h-0.07V983.2h-0.08v0.234h-0.08v0.156h-0.08v0.233h-0.08v0.156h-0.07c-0.03.13-.06,0.26-0.08,0.39h-0.08V984.6h-0.08v0.155h-0.08c-0.2.463-.17,1.03-0.7,1.169V986h-0.39A0.423,0.423,0,0,0,1366.25,985.844Zm4.53-2.182a0.307,0.307,0,0,0,.23-0.155h0.32v-0.078h1.79l2.82-.312V983.04h0.39v-0.079h0.39v-0.077h0.31v-0.078h0.39v-0.078l0.55-.078v-0.078h0.23v-0.078h0.24v-0.078l0.46-.078V982.26h0.16v-0.077l0.47-.079v-0.077c0.16-.052.31-0.1,0.47-0.156v-0.078h0.15v-0.078l0.32-.078a1.153,1.153,0,0,1,.08-0.156c0.1-.026.2-0.052,0.31-0.078a1.153,1.153,0,0,1,.08-0.156h0.15c0.03-.051.05-0.1,0.08-0.155h0.16c0.02-.052.05-0.1,0.07-0.156l0.24-.078c0.05-.078.1-0.156,0.16-0.234h0.15c0.11-.13.21-0.259,0.31-0.389,0.24-.208.47-0.416,0.71-0.623v-0.156c0.1-.078.21-0.156,0.31-0.234,0.03-.078.05-0.156,0.08-0.234l0.15-.077v-0.156c0.06-.026.11-0.052,0.16-0.078,0.03-.078.05-0.156,0.08-0.234h0.08v-0.156l0.15-.078c0.03-.1.06-0.207,0.08-0.311,0.05-.026.11-0.052,0.16-0.078l0.15-.467c0.06-.027.11-0.052,0.16-0.079v-0.155h0.08v-0.156h0.08v-0.156h0.07v-0.156h0.08V976.5h0.08V976.34c0.05-.026.1-0.052,0.16-0.078,0.02-.1.05-0.208,0.07-0.312h0.08v-0.156h0.08v-0.155h0.08v-0.156h0.08v-0.156l0.15-.078c0.03-.1.06-0.208,0.08-0.312,0.05-.025.11-0.051,0.16-0.078,0.02-.1.05-0.207,0.08-0.311h0.07a2.156,2.156,0,0,0,.08-0.234c0.05-.026.11-0.051,0.16-0.078v-0.155h0.08a2.156,2.156,0,0,1,.08-0.234l0.15-.078v-0.156l0.24-.155c0.4-.574,1.43-1.79,2.26-1.87v0.077h0.24v0.079h0.07a0.971,0.971,0,0,1,.24.778l-0.39.468h-0.16c-0.1.13-.21,0.26-0.31,0.389l-0.24.079-0.15.233c-0.05.026-.11,0.052-0.16,0.078v0.156l-0.39.311v0.156c-0.08.052-.15,0.1-0.23,0.156V974.7c-0.05.027-.11,0.052-0.16,0.079-0.03.077-.05,0.155-0.08,0.234h-0.08v0.155l-0.15.078c-0.03.1-.05,0.208-0.08,0.311-0.05.027-.1,0.052-0.16,0.079-0.02.1-.05,0.207-0.07,0.311-0.06.026-.11,0.052-0.16,0.078v0.156h-0.08v0.156h-0.08V976.5h-0.07v0.155h-0.08v0.156c-0.06.026-.11,0.052-0.16,0.078v0.156h-0.08V977.2h-0.08v0.156h-0.07v0.155h-0.08c-0.03.1-.05,0.208-0.08,0.312-0.05.026-.1,0.052-0.16,0.078v0.156h-0.07v0.155h-0.08v0.156h-0.08v0.156c-0.05.026-.1,0.052-0.16,0.078-0.02.1-.05,0.208-0.08,0.312l-0.15.077c-0.03.1-.05,0.208-0.08,0.312h-0.08a2.156,2.156,0,0,1-.08.234l-0.15.078v0.156l-0.24.155v0.156c-0.1.078-.2,0.156-0.31,0.234v0.156c-0.23.207-.47,0.415-0.7,0.623l-0.63.7h-0.15c-0.06.078-.11,0.156-0.16,0.234-0.08.025-.16,0.052-0.23,0.077a1.153,1.153,0,0,0-.08.156h-0.16a1.153,1.153,0,0,1-.08.156h-0.15c-0.03.052-.05,0.1-0.08,0.156-0.11.026-.21,0.052-0.31,0.078a1.153,1.153,0,0,0-.08.156c-0.16.051-.31,0.1-0.47,0.155v0.079h-0.16v0.077c-0.15.052-.31,0.1-0.47,0.156v0.078l-0.46.078v0.078h-0.16v0.078h-0.24v0.077h-0.15v0.079h-0.31v0.077h-0.24V983.9h-0.23v0.078l-0.55.078v0.078l-0.78.078v0.077h-0.31v0.079h-0.47v0.078h-0.47v0.077h-0.55V984.6h-0.7v0.077h-0.86v0.078h-1.41v0.078h-0.54c-0.74,0-1.03-.123-1.1-0.779h0.08C1370.73,983.922,1370.75,983.793,1370.78,983.662Z" transform="translate(-1355 -947)"/>
</svg>
